<svg width="1440" height="65" xmlns="http://www.w3.org/2000/svg" fill="none">

 <g>
  <title>Layer 1</title>
  <rect x="0" id="svg_1" fill="#006455" height="65" width="1440" y="0"/>
  <!-- <rect x="0" id="svg_2" fill="#8E908F" height="5" width="1440" y="69"/> -->
  <path id="svg_3" fill="white" d="m733.438,27.1872c0.493,0.035 1.229,0.0864 2.213,0.1658c0.992,-0.0794 1.729,-0.1308 2.223,-0.1658l0,18.6318c-0.792,-0.11 -1.576,-0.166 -2.332,-0.166c-0.668,0 -1.364,0.056 -2.102,0.166l0,-18.6318l-0.002,0z" clip-rule="evenodd" fill-rule="evenodd"/>
  <path id="svg_4" fill="white" d="m739.352,45.819c0.536,-2.744 1.073,-5.766 1.618,-9.0333c0.535,-3.2742 1.036,-6.4737 1.499,-9.5985c0.191,0.028 0.409,0.0537 0.654,0.0864c0.244,0.0397 0.444,0.0584 0.575,0.0771c0.593,-0.0841 1.005,-0.1378 1.231,-0.1635c1.531,3.022 3.822,7.2725 6.891,12.7538c0.624,-1.1095 1.253,-2.2094 1.876,-3.3024c0.629,-1.0977 1.171,-2.0668 1.644,-2.9123c0.474,-0.8407 1.038,-1.8753 1.708,-3.106c0.666,-1.2331 1.268,-2.3705 1.82,-3.4354c0.209,0.028 0.631,0.0794 1.287,0.1635c0.314,-0.0491 0.719,-0.0911 1.224,-0.1635c0.242,2.0131 0.449,3.6642 0.619,4.958c0.161,1.2822 0.345,2.6764 0.545,4.1594c0.205,1.4783 0.431,2.9867 0.666,4.5217c0.225,1.527 0.481,3.19 0.784,4.993c-0.801,-0.112 -1.618,-0.168 -2.458,-0.168c-0.821,0 -1.643,0.056 -2.458,0.168c-0.046,-1.012 -0.118,-2.032 -0.209,-3.09c-0.098,-1.053 -0.184,-1.948 -0.272,-2.686c-0.084,-0.745 -0.217,-1.8237 -0.384,-3.2273c-0.173,-1.4175 -0.317,-2.632 -0.426,-3.6502c-2.428,4.3929 -4.646,8.5545 -6.654,12.4825l-1.115,0c-0.375,-0.726 -0.962,-1.826 -1.746,-3.286c-0.784,-1.473 -1.385,-2.587 -1.797,-3.335c-0.409,-0.7586 -0.933,-1.7185 -1.557,-2.8862c-0.64,-1.17 -1.117,-2.0715 -1.454,-2.6997c-0.194,1.2027 -0.396,2.625 -0.598,4.2761c-0.198,1.6558 -0.359,3.1758 -0.482,4.5728c-0.114,1.406 -0.184,2.574 -0.205,3.526c-0.291,-0.035 -0.521,-0.065 -0.694,-0.091c-0.177,-0.014 -0.414,-0.039 -0.717,-0.077c-0.658,0.096 -1.133,0.145 -1.415,0.173z" clip-rule="evenodd" fill-rule="evenodd"/>
  <path id="svg_5" fill="white" d="m764.534,41.534l0.598,0c0.238,0.861 0.687,1.56 1.371,2.104c0.678,0.535 1.606,0.815 2.791,0.847c0.982,0 1.799,-0.254 2.455,-0.775c0.661,-0.525 0.992,-1.186 0.992,-2.018c0,-0.749 -0.298,-1.406 -0.882,-1.95c-0.591,-0.556 -1.604,-1.0997 -3.047,-1.6438c-1.112,-0.4414 -2.032,-0.9062 -2.753,-1.3966c-0.715,-0.4834 -1.255,-1.0766 -1.639,-1.7702c-0.388,-0.6913 -0.577,-1.5227 -0.577,-2.4942c0,-1.0253 0.249,-1.9734 0.754,-2.8399c0.496,-0.8758 1.271,-1.5647 2.332,-2.0832c1.05,-0.5254 2.363,-0.7917 3.917,-0.7917c0.873,0 1.744,0.1215 2.607,0.362c0.864,0.2359 1.55,0.5418 2.041,0.9132c-0.151,0.4227 -0.312,0.8571 -0.479,1.3195c-0.172,0.4647 -0.331,0.9248 -0.487,1.3662l-0.44,0c-0.232,-0.6446 -0.647,-1.1981 -1.219,-1.6465c-0.587,-0.4554 -1.322,-0.6772 -2.202,-0.6772c-2.213,0 -3.321,0.8991 -3.321,2.6997c0,1.0322 0.873,1.9267 2.63,2.7067l2.223,0.9996c1.652,0.7286 2.776,1.553 3.381,2.4918c0.598,0.9365 0.906,1.9566 0.906,3.0616c-0.031,0.932 -0.273,1.77 -0.722,2.492c-0.44,0.722 -1.059,1.341 -1.829,1.836c-0.768,0.504 -1.629,0.875 -2.579,1.123c-0.954,0.243 -1.911,0.367 -2.902,0.367c-1.881,-0.052 -3.473,-0.444 -4.792,-1.166c0.407,-1.195 0.705,-2.347 0.872,-3.437z" clip-rule="evenodd" fill-rule="evenodd"/>
  <path id="svg_6" fill="white" d="m776.056,41.534l0.595,0c0.24,0.861 0.687,1.56 1.374,2.104c0.67,0.535 1.601,0.815 2.788,0.847c0.977,0 1.799,-0.254 2.453,-0.775c0.661,-0.525 0.996,-1.186 0.996,-2.018c0,-0.749 -0.298,-1.406 -0.884,-1.95c-0.596,-0.556 -1.606,-1.0997 -3.054,-1.6438c-1.11,-0.4414 -2.022,-0.9062 -2.744,-1.3966c-0.712,-0.4834 -1.264,-1.0766 -1.65,-1.7702c-0.384,-0.6913 -0.568,-1.5227 -0.568,-2.4942c0,-1.0253 0.251,-1.9734 0.742,-2.8399c0.508,-0.8758 1.285,-1.5647 2.337,-2.0832c1.055,-0.5254 2.37,-0.7917 3.924,-0.7917c0.873,0 1.732,0.1215 2.6,0.362c0.866,0.2359 1.548,0.5418 2.041,0.9132c-0.142,0.4227 -0.305,0.8571 -0.477,1.3195c-0.17,0.4647 -0.326,0.9248 -0.484,1.3662l-0.445,0c-0.225,-0.6446 -0.64,-1.1981 -1.214,-1.6465c-0.585,-0.4554 -1.32,-0.6772 -2.2,-0.6772c-2.211,0 -3.319,0.8991 -3.319,2.6997c0,1.0322 0.878,1.9267 2.63,2.7067l2.218,0.9996c1.65,0.7286 2.781,1.553 3.384,2.4918c0.596,0.9365 0.901,1.9566 0.901,3.0616c-0.03,0.932 -0.272,1.77 -0.715,2.492c-0.451,0.722 -1.063,1.341 -1.834,1.836c-0.77,0.504 -1.624,0.875 -2.581,1.123c-0.949,0.243 -1.915,0.367 -2.897,0.367c-1.881,-0.052 -3.478,-0.444 -4.795,-1.166c0.407,-1.195 0.71,-2.347 0.878,-3.437z" clip-rule="evenodd" fill-rule="evenodd"/>
  <path id="svg_7" fill="white" d="m727.732,48.335c-0.342,1.744 -0.595,2.428 -1.084,3.027c-1.346,1.926 -3.535,1.926 -5.228,2.101c-7.255,0.396 -22.163,1.078 -26.971,-0.216c-1.501,-0.313 -3.49,-1.044 -3.836,-5.408c-0.681,-6.463 -0.79,-13.4591 -0.35,-20.2977c0.323,-6.516 2.019,-7.7842 7.461,-8.215c8.723,-0.3758 13.451,-0.5028 23.231,0.0326c3.634,0.2489 5.734,1.1189 6.403,4.3726c0.65,3.4871 0.751,8.3969 0.863,12.6477c0.064,4.4638 -0.123,8.3628 -0.489,11.9558zm-20.37,-19.8996c-8.839,1.0725 -10.905,-0.4634 -13.559,2.3098c-0.279,-2.9156 -0.269,-4.9046 -0.017,-6.2843c0.278,-1.5651 0.867,-2.3356 1.657,-2.7767c2.16,-1.0073 3.337,-0.1647 5.088,1.0777c2.646,1.8157 5.999,4.5923 6.831,5.6735zm-13.015,7.108c-0.108,0 1.725,-0.2059 3.723,-0.06c2.823,0.06 6.743,0.2454 5.218,3.3189c4.262,-2.3562 7.742,0.8527 8.908,2.2787c0.409,0.354 1.557,2.471 1.714,4.836c-0.034,3.293 -1.231,6.094 -5.047,6.623c-1.777,0.156 -3.386,0.118 -4.748,-0.091c-1.761,-0.143 -3.258,-1.075 -4.506,-2.463c-0.891,-1.217 -1.666,-2.677 -2.317,-4.204c-1.627,-4.287 -2.658,-8.2685 -2.945,-10.2386zm19.118,16.6856c2.388,-0.041 5.612,-1.127 6.9,-3.887c2.529,-4.98 3.964,-11.4017 4.444,-16.6409c0.236,-2.5278 0.909,-8.0331 -1.566,-9.9156c-1.206,-0.9181 -2.487,-0.9851 -4.248,-0.2609c-2.289,1.2116 -5.076,4.002 -9.066,6.8576c-1.717,1.16 -3.332,2.212 -4.647,2.9139c-1.134,0.5303 -2.232,0.9559 -3.255,1.2304c1.813,-1.1944 3.513,-2.4231 3.055,-2.7612c-3.983,0.8838 -7.698,-0.3621 -10.056,1.5788c-0.047,0.0652 -0.038,0.1184 0.017,0.1682c0.798,-0.0292 1.818,-0.0566 2.273,-0.0017c0.147,0.0189 0.148,0.0395 0.022,0.1424c-0.452,0.3827 -1.165,0.9851 -1.49,1.0949c-0.113,0 -0.197,-0.0583 -0.292,-0.1115c-0.327,-0.1802 -0.611,-0.5269 -0.931,-0.6796c-0.318,0.0017 -0.896,0.2248 -1.477,0.6246c-0.279,0.2197 -0.409,0.5149 -0.322,0.8495c0.091,0.3329 0.286,0.7791 0.659,1.2596c0.068,-0.5783 0.721,-0.6109 1.079,-0.6521c2.481,-0.0601 5.659,0.0601 8.82,0.5732c5.522,0.8597 10.035,4.2405 11.53,8.3884c1.142,2.909 0.874,6.186 -1.449,9.229z" clip-rule="evenodd" fill-rule="evenodd"/>
  <path id="svg_8" fill="white" d="m705.773,50.911c0.537,-0.028 1.094,-0.282 1.282,-0.398c0.431,-0.27 0.307,-0.428 0.082,-0.443c-0.196,-0.014 -0.531,0.045 -0.875,0.11c-0.334,0.05 -0.64,0.077 -0.736,0.025c-0.345,-0.01 -0.283,-0.183 -0.109,-0.322c0.486,-0.319 0.337,-0.561 -0.056,-0.397c-0.353,0.079 -0.941,0.558 -1.752,0.414c-0.687,-0.245 -1.118,-0.813 -0.961,-1.366c2.027,1.428 1.772,-0.934 4.554,-0.146c1.004,0.283 1.49,0.074 2.236,-0.582c1.373,-1.336 1.041,-4.182 0.728,-4.997c-0.662,-1.558 -1.954,-2.596 -2.438,-2.802c-0.874,-0.5 -2.513,-0.99 -3.356,-0.162c-1.225,1.128 1.262,4.225 3.657,2.585c-0.927,1.685 -2.68,0.173 -4.179,2.272c-0.244,0.307 -0.47,0.765 -0.403,0.985c0.836,-0.34 0.891,0.481 1.743,-0.187c-0.714,1.342 0.814,0.896 0.444,2.083c-0.02,-0.583 -0.436,-0.671 -0.691,-0.63c-0.617,-1.165 -1.977,-0.801 -2.492,-0.236c0.57,-1.761 1.504,-2.427 1.47,-3.537c-0.014,-0.397 -0.125,-0.807 -0.236,-1.184c-0.382,-1.251 -0.284,-1.964 0.494,-2.732c1.46,-1.0557 3.675,-0.3624 5.184,0.945c1.578,1.406 2.402,3.226 2.409,5.313c-0.056,2.348 -1.11,5.294 -3.778,5.598c-0.939,0.089 -1.842,-0.043 -2.221,-0.209z" clip-rule="evenodd" fill-rule="evenodd"/>
  <path id="svg_9" fill="white" d="m715.4,26.9387c-4.016,4.3331 -1.796,6.1728 -0.035,9.7199c0.998,2.231 1.771,4.6474 1.396,8.3884c-0.72,-5.184 -3.614,-9.5708 -5.148,-11.5151c-1.53,-2.1914 -2.064,-2.3957 3.787,-6.5932z" clip-rule="evenodd" fill-rule="evenodd"/>
 </g>
</svg>