<svg width="60" height="60" viewBox="0 0 60 60" fill="none" xmlns="http://www.w3.org/2000/svg">
<rect width="60" height="60" rx="10" fill="#F4FFFE"/>
<g filter="url(#filter0_d_1860_6694)">
<path d="M7.5 27H9V28.5472H7.5V27Z" fill="#2B65F0"/>
<path d="M51 21H46.44C46.2589 19.7519 45.635 18.6106 44.6822 17.7845C43.7293 16.9583 42.5111 16.5024 41.25 16.5H34.5V14.0422C35.1923 13.5602 35.7582 12.9184 36.1499 12.1713C36.5415 11.4241 36.7474 10.5936 36.75 9.75V7.5H35.25V9.75C35.2492 10.4088 35.0748 11.0557 34.7445 11.6257C34.4141 12.1957 33.9395 12.6685 33.3683 12.9968C32.8026 13.3307 32.1569 13.5047 31.5 13.5H28.5C27.8405 13.5042 27.1923 13.3287 26.625 12.9922C26.0557 12.6636 25.5828 12.191 25.2537 11.622C24.9247 11.0529 24.7509 10.4074 24.75 9.75V7.5H23.25V9.75C23.2526 10.5936 23.4584 11.4241 23.8501 12.1713C24.2418 12.9184 24.8077 13.5602 25.5 14.0422V16.5H18.75C17.4885 16.5013 16.2696 16.9568 15.3164 17.7831C14.3632 18.6095 13.7395 19.7514 13.5593 21H9C8.60218 21 8.22064 21.158 7.93934 21.4393C7.65804 21.7206 7.5 22.1022 7.5 22.5V25.5H9V22.5H51V51H9V30.0472H7.5V51C7.5 51.3978 7.65804 51.7794 7.93934 52.0607C8.22064 52.342 8.60218 52.5 9 52.5H51C51.3978 52.5 51.7794 52.342 52.0607 52.0607C52.342 51.7794 52.5 51.3978 52.5 51V22.5C52.5 22.1022 52.342 21.7206 52.0607 21.4393C51.7794 21.158 51.3978 21 51 21ZM16.1025 19.098C16.4485 18.748 16.8609 18.4706 17.3155 18.282C17.7702 18.0935 18.2578 17.9976 18.75 18H25.875C26.1734 18 26.4595 17.8815 26.6705 17.6705C26.8815 17.4595 27 17.1734 27 16.875V14.775C27.4864 14.9226 27.9917 14.9984 28.5 15H31.5C32.0082 14.9978 32.5135 14.922 33 14.775V16.875C33 17.1734 33.1185 17.4595 33.3295 17.6705C33.5405 17.8815 33.8266 18 34.125 18H41.25C42.1142 18.0011 42.9515 18.3001 43.6209 18.8465C44.2904 19.393 44.7509 20.1536 44.925 21H15.075C15.22 20.2777 15.5779 19.6153 16.1025 19.098Z" fill="#2B65F0"/>
<path d="M48 49.5C48.3978 49.5 48.7794 49.342 49.0607 49.0607C49.342 48.7794 49.5 48.3978 49.5 48V25.5C49.5 25.1022 49.342 24.7206 49.0607 24.4393C48.7794 24.158 48.3978 24 48 24H12C11.6022 24 11.2206 24.158 10.9393 24.4393C10.658 24.7206 10.5 25.1022 10.5 25.5V48C10.5 48.3978 10.658 48.7794 10.9393 49.0607C11.2206 49.342 11.6022 49.5 12 49.5H48ZM12 25.5H48V48H12V25.5Z" fill="#2B65F0"/>
<path d="M42 31.5C42 29.2673 35.8905 28.6897 32.25 28.545L32.19 30.045C37.323 30.2498 39.8213 31.0613 40.4123 31.503C39.5945 31.9485 38.702 32.2403 37.779 32.364C37.7505 32.3565 37.7272 32.3475 37.6987 32.3392L37.6868 32.3812C35.3968 32.7873 33.0757 32.992 30.75 32.9933V27H29.25V32.9933C23.5575 32.9183 20.2973 32.046 19.59 31.5022C20.1788 31.062 22.665 30.2543 27.765 30.045L27.7035 28.545C24.075 28.695 18 29.2755 18 31.5C18 32.3197 18.8505 32.9153 20.1 33.348C19.9196 33.4824 19.772 33.6558 19.6681 33.8553C19.5642 34.0548 19.5067 34.2752 19.5 34.5C19.5 35.355 20.313 35.9647 21.486 36.402C21.3357 36.5432 21.2153 36.7132 21.1318 36.9018C21.0483 37.0904 21.0035 37.2938 21 37.5C21 39.699 25.875 40.4003 29.25 40.4888V42H27.675C27.3438 41.9987 27.0172 41.9217 26.7203 41.775L26.4142 41.625C25.9105 41.3787 25.3572 41.2504 24.7965 41.25H24C23.2044 41.25 22.4413 41.5661 21.8787 42.1287C21.3161 42.6913 21 43.4543 21 44.25C21 45.0457 21.3161 45.8087 21.8787 46.3713C22.4413 46.9339 23.2044 47.25 24 47.25H24.7853C25.3388 47.2493 25.8851 47.124 26.3835 46.8833L26.7262 46.716C27.0203 46.5742 27.3425 46.5003 27.669 46.5H32.331C32.6572 46.5003 32.9792 46.5741 33.273 46.716L33.6173 46.8833C34.1154 47.1241 34.6614 47.2494 35.2147 47.25H36C36.7957 47.25 37.5587 46.9339 38.1213 46.3713C38.6839 45.8087 39 45.0457 39 44.25C39 43.4543 38.6839 42.6913 38.1213 42.1287C37.5587 41.5661 36.7957 41.25 36 41.25H35.2013C34.641 41.2502 34.0881 41.3784 33.585 41.625L33.276 41.775C32.9803 41.9214 32.655 41.9984 32.325 42H30.75V40.4888C34.125 40.4003 39 39.699 39 37.5C38.9968 37.2939 38.9522 37.0905 38.869 36.9019C38.7858 36.7133 38.6656 36.5433 38.5155 36.402C39.6877 35.9647 40.5 35.3542 40.5 34.5C40.493 34.2753 40.4355 34.0551 40.3316 33.8558C40.2277 33.6565 40.0802 33.4831 39.9 33.3488C41.148 32.916 42 32.3197 42 31.5ZM29.25 45H27.669C27.1155 45.0006 26.5692 45.1259 26.0707 45.3667L25.728 45.534C25.4339 45.6757 25.1117 45.7495 24.7853 45.75H24C23.6022 45.75 23.2206 45.592 22.9393 45.3107C22.658 45.0294 22.5 44.6478 22.5 44.25C22.5 43.8522 22.658 43.4706 22.9393 43.1893C23.2206 42.908 23.6022 42.75 24 42.75H24.7988C25.1302 42.7514 25.457 42.8284 25.7543 42.975L26.0602 43.125C26.5631 43.3709 27.1153 43.4991 27.675 43.5H29.25V45ZM32.325 43.5C32.885 43.4997 33.4376 43.3715 33.9405 43.125L34.2495 42.975C34.5462 42.8282 34.8725 42.7513 35.2035 42.75H36C36.3978 42.75 36.7794 42.908 37.0607 43.1893C37.342 43.4706 37.5 43.8522 37.5 44.25C37.5 44.6478 37.342 45.0294 37.0607 45.3107C36.7794 45.592 36.3978 45.75 36 45.75H35.2147C34.8885 45.7496 34.5666 45.6757 34.2727 45.534L33.9285 45.3667C33.4304 45.1258 32.8843 45.0004 32.331 45H30.75V43.5H32.325ZM22.3177 33.9C24.6106 34.2692 26.9278 34.4672 29.25 34.4925V35.9925C24.5092 35.9093 21.57 35.0527 21.0465 34.506C21.4265 34.2228 21.8585 34.0169 22.3177 33.9ZM22.4955 37.5322C22.4955 37.5322 22.6252 37.2675 23.4487 36.9323C25.3646 37.2716 27.3045 37.4572 29.25 37.4873V38.9873C25.1648 38.8883 22.6935 37.9762 22.4955 37.5322ZM37.5 37.4768C37.2787 37.983 34.812 38.8883 30.75 38.9895V37.4895C32.696 37.4595 34.6364 37.2737 36.5527 36.9337C36.9058 37.0401 37.2298 37.2259 37.5 37.4768ZM38.9528 34.5045C38.4278 35.052 35.4907 35.9085 30.7493 35.9917V34.4917C33.072 34.4665 35.3896 34.2684 37.683 33.8993C38.142 34.016 38.5736 34.2216 38.9535 34.5045H38.9528Z" fill="#2B65F0"/>
<path d="M24 43.5H25.5V45H24V43.5Z" fill="#2B65F0"/>
<path d="M34.5 43.5H36V45H34.5V43.5Z" fill="#2B65F0"/>
<path d="M13.5 27H15V33.75H13.5V27Z" fill="#2B65F0"/>
<path d="M13.5 35.25H15V36.75H13.5V35.25Z" fill="#2B65F0"/>
<path d="M43.5 42H46.5V43.5H43.5V42Z" fill="#2B65F0"/>
<path d="M42 45H46.5V46.5H42V45Z" fill="#2B65F0"/>
</g>
<defs>
<filter id="filter0_d_1860_6694" x="3.5" y="5.5" width="53" height="53" filterUnits="userSpaceOnUse" color-interpolation-filters="sRGB">
<feFlood flood-opacity="0" result="BackgroundImageFix"/>
<feColorMatrix in="SourceAlpha" type="matrix" values="0 0 0 0 0 0 0 0 0 0 0 0 0 0 0 0 0 0 127 0" result="hardAlpha"/>
<feOffset dy="2"/>
<feGaussianBlur stdDeviation="2"/>
<feComposite in2="hardAlpha" operator="out"/>
<feColorMatrix type="matrix" values="0 0 0 0 0.0588235 0 0 0 0 0.686275 0 0 0 0 0.686275 0 0 0 0.18 0"/>
<feBlend mode="normal" in2="BackgroundImageFix" result="effect1_dropShadow_1860_6694"/>
<feBlend mode="normal" in="SourceGraphic" in2="effect1_dropShadow_1860_6694" result="shape"/>
</filter>
</defs>
</svg>
