<svg width="125" height="24" viewBox="0 0 125 24" fill="none" xmlns="http://www.w3.org/2000/svg">
<path d="M39.5959 7.2V17H38.4479L32.5679 9.692V17H31.1679V7.2H32.3159L38.1959 14.508V7.2H39.5959ZM45.5113 17.084C44.7739 17.084 44.1113 16.9207 43.5233 16.594C42.9352 16.2673 42.4732 15.8193 42.1372 15.25C41.8106 14.6713 41.6472 14.018 41.6472 13.29C41.6472 12.562 41.8106 11.9133 42.1372 11.344C42.4732 10.7653 42.9352 10.3173 43.5233 10C44.1113 9.67333 44.7739 9.51 45.5113 9.51C46.2486 9.51 46.9066 9.67333 47.4853 10C48.0733 10.3173 48.5306 10.7653 48.8573 11.344C49.1933 11.9133 49.3613 12.562 49.3613 13.29C49.3613 14.018 49.1933 14.6713 48.8573 15.25C48.5306 15.8193 48.0733 16.2673 47.4853 16.594C46.9066 16.9207 46.2486 17.084 45.5113 17.084ZM45.5113 15.908C45.9873 15.908 46.4119 15.8007 46.7853 15.586C47.1679 15.362 47.4666 15.054 47.6813 14.662C47.8959 14.2607 48.0033 13.8033 48.0033 13.29C48.0033 12.7767 47.8959 12.324 47.6813 11.932C47.4666 11.5307 47.1679 11.2227 46.7853 11.008C46.4119 10.7933 45.9873 10.686 45.5113 10.686C45.0353 10.686 44.6059 10.7933 44.2233 11.008C43.8499 11.2227 43.5512 11.5307 43.3272 11.932C43.1126 12.324 43.0053 12.7767 43.0053 13.29C43.0053 13.8033 43.1126 14.2607 43.3272 14.662C43.5512 15.054 43.8499 15.362 44.2233 15.586C44.6059 15.8007 45.0353 15.908 45.5113 15.908ZM55.392 16.566C55.196 16.734 54.9533 16.8647 54.664 16.958C54.3746 17.042 54.076 17.084 53.768 17.084C53.0213 17.084 52.4426 16.8833 52.032 16.482C51.6213 16.0807 51.416 15.5067 51.416 14.76V10.686H50.156V9.58H51.416V7.956H52.76V9.58H54.888V10.686H52.76V14.704C52.76 15.1053 52.858 15.4133 53.054 15.628C53.2593 15.8427 53.5486 15.95 53.922 15.95C54.3326 15.95 54.6826 15.8333 54.972 15.6L55.392 16.566ZM59.7188 9.51C60.7455 9.51 61.5295 9.762 62.0708 10.266C62.6215 10.77 62.8968 11.5213 62.8968 12.52V17H61.6228V16.02C61.3988 16.3653 61.0768 16.6313 60.6568 16.818C60.2462 16.9953 59.7562 17.084 59.1868 17.084C58.3562 17.084 57.6888 16.8833 57.1848 16.482C56.6902 16.0807 56.4428 15.5533 56.4428 14.9C56.4428 14.2467 56.6808 13.724 57.1568 13.332C57.6328 12.9307 58.3888 12.73 59.4248 12.73H61.5528V12.464C61.5528 11.8853 61.3848 11.442 61.0488 11.134C60.7128 10.826 60.2182 10.672 59.5648 10.672C59.1262 10.672 58.6968 10.7467 58.2768 10.896C57.8568 11.036 57.5022 11.2273 57.2128 11.47L56.6528 10.462C57.0355 10.154 57.4928 9.92067 58.0248 9.762C58.5568 9.594 59.1215 9.51 59.7188 9.51ZM59.4108 16.048C59.9242 16.048 60.3675 15.936 60.7408 15.712C61.1142 15.4787 61.3848 15.152 61.5528 14.732V13.696H59.4808C58.3422 13.696 57.7728 14.0787 57.7728 14.844C57.7728 15.2173 57.9175 15.5113 58.2068 15.726C58.4962 15.9407 58.8975 16.048 59.4108 16.048ZM71.8458 9.51C72.8725 9.51 73.6565 9.762 74.1978 10.266C74.7485 10.77 75.0238 11.5213 75.0238 12.52V17H73.7498V16.02C73.5258 16.3653 73.2038 16.6313 72.7838 16.818C72.3731 16.9953 71.8831 17.084 71.3138 17.084C70.4831 17.084 69.8158 16.8833 69.3118 16.482C68.8171 16.0807 68.5698 15.5533 68.5698 14.9C68.5698 14.2467 68.8078 13.724 69.2838 13.332C69.7598 12.9307 70.5158 12.73 71.5518 12.73H73.6798V12.464C73.6798 11.8853 73.5118 11.442 73.1758 11.134C72.8398 10.826 72.3451 10.672 71.6918 10.672C71.2531 10.672 70.8238 10.7467 70.4038 10.896C69.9838 11.036 69.6291 11.2273 69.3398 11.47L68.7798 10.462C69.1625 10.154 69.6198 9.92067 70.1518 9.762C70.6838 9.594 71.2485 9.51 71.8458 9.51ZM71.5378 16.048C72.0511 16.048 72.4945 15.936 72.8678 15.712C73.2411 15.4787 73.5118 15.152 73.6798 14.732V13.696H71.6078C70.4691 13.696 69.8998 14.0787 69.8998 14.844C69.8998 15.2173 70.0445 15.5113 70.3338 15.726C70.6231 15.9407 71.0245 16.048 71.5378 16.048ZM81.473 9.51C82.4157 9.51 83.1623 9.78533 83.713 10.336C84.273 10.8773 84.553 11.6753 84.553 12.73V17H83.209V12.884C83.209 12.1653 83.0363 11.624 82.691 11.26C82.3457 10.896 81.851 10.714 81.207 10.714C80.479 10.714 79.905 10.9287 79.485 11.358C79.065 11.778 78.855 12.3847 78.855 13.178V17H77.511V9.58H78.799V10.7C79.0697 10.3173 79.4337 10.0233 79.891 9.818C80.3577 9.61267 80.885 9.51 81.473 9.51ZM91.2123 16.566C91.0163 16.734 90.7736 16.8647 90.4843 16.958C90.1949 17.042 89.8963 17.084 89.5883 17.084C88.8416 17.084 88.2629 16.8833 87.8523 16.482C87.4416 16.0807 87.2363 15.5067 87.2363 14.76V10.686H85.9763V9.58H87.2363V7.956H88.5803V9.58H90.7083V10.686H88.5803V14.704C88.5803 15.1053 88.6783 15.4133 88.8743 15.628C89.0796 15.8427 89.3689 15.95 89.7423 15.95C90.1529 15.95 90.5029 15.8333 90.7923 15.6L91.2123 16.566ZM99.2971 13.332C99.2971 13.4347 99.2877 13.57 99.2691 13.738H93.2491C93.3331 14.3913 93.6177 14.9187 94.1031 15.32C94.5977 15.712 95.2091 15.908 95.9371 15.908C96.8237 15.908 97.5377 15.6093 98.0791 15.012L98.8211 15.88C98.4851 16.272 98.0651 16.5707 97.5611 16.776C97.0664 16.9813 96.5111 17.084 95.8951 17.084C95.1111 17.084 94.4157 16.9253 93.8091 16.608C93.2024 16.2813 92.7311 15.8287 92.3951 15.25C92.0684 14.6713 91.9051 14.018 91.9051 13.29C91.9051 12.5713 92.0637 11.9227 92.3811 11.344C92.7077 10.7653 93.1511 10.3173 93.7111 10C94.2804 9.67333 94.9197 9.51 95.6291 9.51C96.3384 9.51 96.9684 9.67333 97.5191 10C98.0791 10.3173 98.5131 10.7653 98.8211 11.344C99.1384 11.9227 99.2971 12.5853 99.2971 13.332ZM95.6291 10.644C94.9851 10.644 94.4437 10.84 94.0051 11.232C93.5757 11.624 93.3237 12.1373 93.2491 12.772H98.0091C97.9344 12.1467 97.6777 11.638 97.2391 11.246C96.8097 10.8447 96.2731 10.644 95.6291 10.644ZM102.451 10.826C102.685 10.3967 103.03 10.07 103.487 9.846C103.945 9.622 104.5 9.51 105.153 9.51V10.812C105.079 10.8027 104.976 10.798 104.845 10.798C104.117 10.798 103.543 11.0173 103.123 11.456C102.713 11.8853 102.507 12.5013 102.507 13.304V17H101.163V9.58H102.451V10.826ZM106.81 9.58H108.154V17H106.81V9.58ZM107.482 8.152C107.22 8.152 107.001 8.068 106.824 7.9C106.656 7.732 106.572 7.52667 106.572 7.284C106.572 7.04133 106.656 6.836 106.824 6.668C107.001 6.49067 107.22 6.402 107.482 6.402C107.743 6.402 107.958 6.486 108.126 6.654C108.303 6.81267 108.392 7.01333 108.392 7.256C108.392 7.508 108.303 7.72267 108.126 7.9C107.958 8.068 107.743 8.152 107.482 8.152ZM113.898 17.084C113.161 17.084 112.498 16.9207 111.91 16.594C111.322 16.2673 110.86 15.8193 110.524 15.25C110.197 14.6713 110.034 14.018 110.034 13.29C110.034 12.562 110.197 11.9133 110.524 11.344C110.86 10.7653 111.322 10.3173 111.91 10C112.498 9.67333 113.161 9.51 113.898 9.51C114.635 9.51 115.293 9.67333 115.872 10C116.46 10.3173 116.917 10.7653 117.244 11.344C117.58 11.9133 117.748 12.562 117.748 13.29C117.748 14.018 117.58 14.6713 117.244 15.25C116.917 15.8193 116.46 16.2673 115.872 16.594C115.293 16.9207 114.635 17.084 113.898 17.084ZM113.898 15.908C114.374 15.908 114.799 15.8007 115.172 15.586C115.555 15.362 115.853 15.054 116.068 14.662C116.283 14.2607 116.39 13.8033 116.39 13.29C116.39 12.7767 116.283 12.324 116.068 11.932C115.853 11.5307 115.555 11.2227 115.172 11.008C114.799 10.7933 114.374 10.686 113.898 10.686C113.422 10.686 112.993 10.7933 112.61 11.008C112.237 11.2227 111.938 11.5307 111.714 11.932C111.499 12.324 111.392 12.7767 111.392 13.29C111.392 13.8033 111.499 14.2607 111.714 14.662C111.938 15.054 112.237 15.362 112.61 15.586C112.993 15.8007 113.422 15.908 113.898 15.908ZM120.895 10.826C121.128 10.3967 121.473 10.07 121.931 9.846C122.388 9.622 122.943 9.51 123.597 9.51V10.812C123.522 10.8027 123.419 10.798 123.289 10.798C122.561 10.798 121.987 11.0173 121.567 11.456C121.156 11.8853 120.951 12.5013 120.951 13.304V17H119.607V9.58H120.895V10.826Z" fill="#9F2241"/>
<rect x="0.771484" y="2.5" width="20.4887" height="18" rx="2.5" stroke="#9F2241"/>
<path d="M10.7957 7.02928L5.49902 11.4999L10.7957 15.9705" stroke="#9F2241" stroke-width="2" stroke-linecap="round" stroke-linejoin="round"/>
<path d="M5.49902 11.4998L16.5338 11.4998" stroke="#9F2241" stroke-width="2" stroke-linecap="round" stroke-linejoin="round"/>
</svg>
