<svg width="60" height="60" viewBox="0 0 60 60" fill="none" xmlns="http://www.w3.org/2000/svg">
<rect width="60" height="60" rx="10" fill="#F4FFFE"/>
<g filter="url(#filter0_d_1860_6691)">
<path d="M32.2622 11.6845C32.7192 11.6845 33.0896 11.314 33.0896 10.8571C33.0896 10.4003 32.719 10.0295 32.2622 10.0295C31.8053 10.0295 31.4346 10.4001 31.4346 10.8571C31.4346 11.3142 31.8051 11.6845 32.2622 11.6845Z" fill="#2B65F0"/>
<path d="M9.74904 16.5554C9.90017 16.7065 10.0983 16.7822 10.2963 16.7822C10.4942 16.7822 10.6923 16.7065 10.8435 16.5554L11.4572 15.9417L12.071 16.5554C12.2221 16.7065 12.4203 16.7822 12.6182 16.7822C12.8162 16.7822 13.0143 16.7065 13.1654 16.5554C13.4677 16.2532 13.4677 15.7632 13.1654 15.461L12.5517 14.8472L13.1654 14.2335C13.4677 13.9312 13.4677 13.4413 13.1654 13.139C12.8632 12.8368 12.3733 12.8368 12.071 13.139L11.4572 13.7528L10.8435 13.139C10.5412 12.8368 10.0513 12.8368 9.74904 13.139C9.4468 13.4413 9.4468 13.9312 9.74904 14.2335L10.3628 14.8472L9.74904 15.461C9.44661 15.7632 9.44661 16.253 9.74904 16.5554Z" fill="#2B65F0"/>
<path d="M18.7707 14.4179C20.2643 14.4179 21.4797 13.2026 21.4797 11.709C21.4797 10.2154 20.2643 9 18.7707 9C17.2771 9 16.0618 10.2154 16.0618 11.709C16.0618 13.2026 17.2771 14.4179 18.7707 14.4179ZM18.7707 10.548C19.411 10.548 19.9317 11.0687 19.9317 11.709C19.9317 12.3492 19.411 12.8699 18.7707 12.8699C18.1304 12.8699 17.6097 12.3492 17.6097 11.709C17.6097 11.0687 18.1304 10.548 18.7707 10.548Z" fill="#2B65F0"/>
<path d="M23.0277 41.5075H25.3496V43.8294C25.3496 44.2569 25.6962 44.6034 26.1236 44.6034H29.2196C29.647 44.6034 29.9936 44.2569 29.9936 43.8294V41.5075H32.3155C32.743 41.5075 33.0895 41.1609 33.0895 40.7335V37.6375C33.0895 37.2101 32.743 36.8635 32.3155 36.8635H29.9936V34.5416C29.9936 34.1141 29.647 33.7676 29.2196 33.7676H26.1236C25.6962 33.7676 25.3496 34.1141 25.3496 34.5416V36.8635H23.0277C22.6002 36.8635 22.2537 37.2101 22.2537 37.6375V40.7335C22.2537 41.1609 22.6002 41.5075 23.0277 41.5075ZM23.8016 38.4115H26.1236C26.551 38.4115 26.8976 38.065 26.8976 37.6375V35.3156H28.4456V37.6375C28.4456 38.065 28.7921 38.4115 29.2196 38.4115H31.5415V39.9595H29.2196C28.7921 39.9595 28.4456 40.3061 28.4456 40.7335V43.0555H26.8976V40.7335C26.8976 40.3061 26.551 39.9595 26.1236 39.9595H23.8016V38.4115Z" fill="#2B65F0"/>
<path d="M41.5502 39.4412C41.0932 39.4412 40.7227 39.8117 40.7227 40.2688C40.7227 40.7258 41.0932 41.0961 41.5502 41.0961C42.0073 41.0961 42.3776 40.7256 42.3776 40.2688C42.3776 39.8119 42.0071 39.4412 41.5502 39.4412Z" fill="#2B65F0"/>
<path d="M47.7421 41.0961C48.1992 41.0961 48.5695 40.7256 48.5695 40.2688C48.5695 39.8119 48.199 39.4412 47.7421 39.4412C47.2853 39.4412 46.9146 39.8117 46.9146 40.2688C46.9146 40.7258 47.2851 41.0961 47.7421 41.0961Z" fill="#2B65F0"/>
<path d="M44.6462 41.0961C45.1032 41.0961 45.4736 40.7256 45.4736 40.2688C45.4736 39.8119 45.103 39.4412 44.6462 39.4412C44.1893 39.4412 43.8186 39.8117 43.8186 40.2688C43.8186 40.7258 44.1891 41.0961 44.6462 41.0961Z" fill="#2B65F0"/>
<path d="M41.5502 38.7741C42.0073 38.7741 42.3776 38.4036 42.3776 37.9467C42.3776 37.4899 42.0071 37.1191 41.5502 37.1191C41.0934 37.1191 40.7227 37.4897 40.7227 37.9467C40.7227 38.4038 41.0932 38.7741 41.5502 38.7741Z" fill="#2B65F0"/>
<path d="M47.7421 38.7741C48.1992 38.7741 48.5695 38.4036 48.5695 37.9467C48.5695 37.4899 48.199 37.1191 47.7421 37.1191C47.2853 37.1191 46.9146 37.4897 46.9146 37.9467C46.9146 38.4038 47.2851 38.7741 47.7421 38.7741Z" fill="#2B65F0"/>
<path d="M44.6462 38.7741C45.1032 38.7741 45.4736 38.4036 45.4736 37.9467C45.4736 37.4899 45.103 37.1191 44.6462 37.1191C44.1893 37.1191 43.8186 37.4897 43.8186 37.9467C43.8186 38.4038 44.1891 38.7741 44.6462 38.7741Z" fill="#2B65F0"/>
<path d="M52.4394 50.0215H50.689C50.819 49.7163 50.8914 49.381 50.8914 49.029V29.3422C50.8914 27.9413 49.7519 26.8018 48.351 26.8018H41.048C39.6471 26.8018 38.5076 27.9413 38.5076 29.3422V49.029C38.5076 49.381 38.5799 49.7163 38.71 50.0215H36.9596V25.3142C36.9596 23.5739 35.5436 22.1579 33.8033 22.1579H33.0896V18.2879C33.0896 17.8605 32.7431 17.5139 32.3157 17.5139H23.0278C22.6003 17.5139 22.2538 17.8605 22.2538 18.2879V22.1579H21.5402C19.7999 22.1579 18.3838 23.5739 18.3838 25.3142V42.2816H14.5139C11.9531 42.2816 9.86995 44.3648 9.86995 46.9255C9.86995 48.1155 10.3237 49.1989 11.0623 50.0215H6.77399C6.34655 50.0215 6 50.368 6 50.7955C6 51.2229 6.34655 51.5695 6.77399 51.5695H52.4394C52.8668 51.5695 53.2134 51.2229 53.2134 50.7955C53.2134 50.368 52.8668 50.0215 52.4394 50.0215ZM49.3434 42.2816H40.0555V36.0897H49.3434V42.2816ZM41.048 28.3498H48.351C48.8982 28.3498 49.3434 28.795 49.3434 29.3422V34.5417H40.0555V29.3422C40.0555 28.795 40.5008 28.3498 41.048 28.3498ZM23.8018 19.0619H24.5758V19.8359C24.5758 20.2633 24.9223 20.6099 25.3497 20.6099C25.7772 20.6099 26.1237 20.2633 26.1237 19.8359V19.0619H26.8977V19.8359C26.8977 20.2633 27.2443 20.6099 27.6717 20.6099C28.0991 20.6099 28.4457 20.2633 28.4457 19.8359V19.0619H29.2197V19.8359C29.2197 20.2633 29.5662 20.6099 29.9937 20.6099C30.4211 20.6099 30.7677 20.2633 30.7677 19.8359V19.0619H31.5417V22.1579H23.8018V19.0619ZM21.5402 23.7058H33.8031C34.6901 23.7058 35.4114 24.4274 35.4114 25.3142V50.0215H22.6092C23.3478 49.1989 23.8016 48.1155 23.8016 46.9255C23.8016 44.6289 22.1245 42.7218 19.9316 42.3514V25.3142C19.9318 24.4274 20.6534 23.7058 21.5402 23.7058ZM11.4179 46.9255C11.4179 45.2185 12.8069 43.8296 14.5139 43.8296H16.0619V50.0215H14.5139C12.8069 50.0215 11.4179 48.6326 11.4179 46.9255ZM17.6098 50.0215V43.8296H19.1578C20.8649 43.8296 22.2538 45.2185 22.2538 46.9255C22.2538 48.6326 20.8649 50.0215 19.1578 50.0215H17.6098ZM41.048 50.0215C40.5008 50.0215 40.0555 49.5763 40.0555 49.029V43.8296H49.3434V49.029C49.3434 49.5763 48.8982 50.0215 48.351 50.0215H41.048Z" fill="#2B65F0"/>
</g>
<defs>
<filter id="filter0_d_1860_6691" x="2" y="7" width="55.2134" height="50.5696" filterUnits="userSpaceOnUse" color-interpolation-filters="sRGB">
<feFlood flood-opacity="0" result="BackgroundImageFix"/>
<feColorMatrix in="SourceAlpha" type="matrix" values="0 0 0 0 0 0 0 0 0 0 0 0 0 0 0 0 0 0 127 0" result="hardAlpha"/>
<feOffset dy="2"/>
<feGaussianBlur stdDeviation="2"/>
<feComposite in2="hardAlpha" operator="out"/>
<feColorMatrix type="matrix" values="0 0 0 0 0.0588235 0 0 0 0 0.686275 0 0 0 0 0.686275 0 0 0 0.18 0"/>
<feBlend mode="normal" in2="BackgroundImageFix" result="effect1_dropShadow_1860_6691"/>
<feBlend mode="normal" in="SourceGraphic" in2="effect1_dropShadow_1860_6691" result="shape"/>
</filter>
</defs>
</svg>
