<svg width="390" height="75" viewBox="0 0 390 75" fill="none" xmlns="http://www.w3.org/2000/svg">
<rect width="73" height="75" fill="#DBFFC0"/>
<path d="M71.0313 8.25V0.5L389.5 0.5V74.5L71.0313 74.5V65.25V64.9563L70.7747 64.8132L49.5 52.9563V23.511L70.8171 8.66026L71.0313 8.51104V8.25Z" fill="white" stroke="#EEEEEE"/>
<g filter="url(#filter0_d_432_5559)">
<rect x="11" y="12" width="48" height="48" rx="10" fill="#F9FFF4"/>
</g>
<path fill-rule="evenodd" clip-rule="evenodd" d="M31.3731 25C31.8819 25 32.3336 25.313 32.4945 25.777L38.4652 42.9974L40.8899 36.0043C41.0508 35.5403 41.5025 35.2273 42.0112 35.2273H46.7393C47.3921 35.2273 47.9213 35.736 47.9213 36.3636C47.9213 36.9912 47.3921 37.5 46.7393 37.5H42.8632L39.5865 46.9503C39.4257 47.4143 38.974 47.7273 38.4652 47.7273C37.9564 47.7273 37.5047 47.4143 37.3438 46.9503L31.3731 29.7299L28.9484 36.723C28.7875 37.187 28.3358 37.5 27.8271 37.5H23.099C22.4462 37.5 21.917 36.9912 21.917 36.3636C21.917 35.736 22.4462 35.2273 23.099 35.2273H26.9751L30.2517 25.777C30.4126 25.313 30.8643 25 31.3731 25Z" fill="#5E9F2D"/>
<defs>
<filter id="filter0_d_432_5559" x="1" y="8" width="68" height="68" filterUnits="userSpaceOnUse" color-interpolation-filters="sRGB">
<feFlood flood-opacity="0" result="BackgroundImageFix"/>
<feColorMatrix in="SourceAlpha" type="matrix" values="0 0 0 0 0 0 0 0 0 0 0 0 0 0 0 0 0 0 127 0" result="hardAlpha"/>
<feOffset dy="6"/>
<feGaussianBlur stdDeviation="5"/>
<feComposite in2="hardAlpha" operator="out"/>
<feColorMatrix type="matrix" values="0 0 0 0 0.551728 0 0 0 0 0.841667 0 0 0 0 0.33316 0 0 0 1 0"/>
<feBlend mode="normal" in2="BackgroundImageFix" result="effect1_dropShadow_432_5559"/>
<feBlend mode="normal" in="SourceGraphic" in2="effect1_dropShadow_432_5559" result="shape"/>
</filter>
</defs>
</svg>
