<svg width="60" height="60" viewBox="0 0 60 60" fill="none" xmlns="http://www.w3.org/2000/svg">
<rect width="60" height="60" rx="10" fill="#F4FFFE"/>
<g filter="url(#filter0_d_1860_6690)">
<g filter="url(#filter1_d_1860_6690)">
<path fill-rule="evenodd" clip-rule="evenodd" d="M29 18.75H28.0938C26.8769 18.75 25.8906 19.7573 25.8906 21V37.5C25.8906 38.097 26.1227 38.6692 26.5361 39.0907C26.9489 39.513 27.5092 39.75 28.0938 39.75H43.5156C43.7102 39.75 43.8975 39.8287 44.0348 39.9697C44.1729 40.11 44.25 40.3013 44.25 40.5V47.625C44.25 48.039 43.921 48.375 43.5156 48.375H23.8469C23.722 48.1507 23.5384 47.9287 23.2917 47.7202C22.6124 47.1442 21.3661 46.6058 19.8945 46.29C20.7875 45.0908 21.7282 43.725 22.4824 42.3915C23.4195 40.7332 24.0547 39.1087 24.0547 37.875C24.0547 33.6322 20.6817 30.1875 16.5273 30.1875C12.373 30.1875 9 33.6322 9 37.875C9 39.1005 9.59631 40.71 10.4761 42.357C11.223 43.7543 12.1652 45.1882 13.0486 46.431C11.5395 46.719 10.3579 47.1945 9.72409 47.7345C9.22692 48.1575 9 48.6435 9 49.125C9 49.7062 9.34809 50.3115 10.1038 50.7945C11.3089 51.564 13.7308 52.125 16.5273 52.125C19.3238 52.125 21.7458 51.564 22.9509 50.7945C23.3827 50.5193 23.6809 50.2035 23.8579 49.875H43.5156C44.7325 49.875 45.7188 48.8678 45.7188 47.625V40.5C45.7188 39.903 45.4867 39.3308 45.0732 38.9093C44.6605 38.487 44.1002 38.25 43.5156 38.25H28.0938C27.8991 38.25 27.7119 38.1713 27.5745 38.0303C27.4365 37.89 27.3594 37.6987 27.3594 37.5V21C27.3594 20.586 27.6884 20.25 28.0938 20.25H29V18.75ZM18.0769 48.6068C18.317 48.315 18.5843 47.9857 18.8685 47.6257C20.1706 47.82 21.3419 48.204 22.0726 48.6698C22.232 48.7717 22.5712 49.1183 22.5845 49.1408C22.5757 49.1993 22.03 49.6238 21.712 49.7677C20.5429 50.2957 18.6541 50.625 16.5273 50.625C14.4006 50.625 12.5118 50.2957 11.3427 49.7677C11.0247 49.6238 10.4688 49.1925 10.4688 49.125C10.4688 49.0695 10.7735 48.7943 10.9152 48.7065C11.5938 48.2865 12.7035 47.9685 14.043 47.787C14.2545 48.0667 14.4542 48.327 14.6385 48.5625C15.0461 49.107 15.6755 49.4302 16.346 49.4392C17.0179 49.4482 17.6561 49.1408 18.0769 48.6068ZM22.5859 37.875C22.5859 34.4602 19.871 31.6875 16.5273 31.6875C13.1837 31.6875 10.4688 34.4602 10.4688 37.875C10.4688 38.9093 11.0232 40.2488 11.7657 41.6385C12.9612 43.8757 14.6797 46.2083 15.7922 47.6348C15.7941 47.637 15.7959 47.6394 15.7977 47.6419C15.7996 47.6443 15.8014 47.6468 15.8032 47.649C15.9369 47.829 16.144 47.9362 16.365 47.9392C16.5861 47.9422 16.7961 47.841 16.9342 47.664C16.936 47.6614 16.938 47.6589 16.9401 47.6565C16.9421 47.6541 16.9441 47.6516 16.9459 47.649C18.1165 46.2293 19.94 43.8892 21.2105 41.6415C21.9962 40.251 22.5859 38.91 22.5859 37.875ZM16.5273 34.5052H16.5384C18.3545 34.5112 19.8269 36.0187 19.8269 37.875C19.8269 39.7313 18.3545 41.2388 16.5384 41.2448H16.5273C14.7061 41.2448 13.2278 39.735 13.2278 37.875C13.2278 36.015 14.7061 34.5052 16.5273 34.5052ZM16.5391 36.0052H16.5273C15.5168 36.0052 14.6965 36.843 14.6965 37.875C14.6965 38.907 15.5168 39.7448 16.5273 39.7448H16.5391C17.5445 39.738 18.3581 38.9025 18.3581 37.875C18.3581 36.8475 17.5445 36.012 16.5391 36.0052Z" fill="#2B65F0"/>
</g>
<path d="M29.7 19.8998H42.3V19.1998H29.7V18.4998H42.3V17.7998H39.3308L40.0863 16.0374C40.313 16.008 40.529 15.9231 40.7152 15.7903C40.9013 15.6575 41.0518 15.4808 41.1534 15.2759L41.5632 14.4563C41.5898 14.403 41.6024 14.3437 41.5997 14.284C41.5971 14.2244 41.5792 14.1665 41.5478 14.1158C41.5164 14.065 41.4726 14.0231 41.4205 13.9941C41.3684 13.965 41.3097 13.9498 41.25 13.9498H39.449C39.1888 13.9489 38.9335 14.021 38.7122 14.1578C38.4909 14.2945 38.3123 14.4906 38.1967 14.7237L37.8845 15.3481L37.6581 14.2402C37.6571 14.2353 37.656 14.2304 37.6548 14.2255C37.5606 13.8467 37.3423 13.5103 37.0346 13.27C36.7269 13.0298 36.3477 12.8995 35.9573 12.8999H35.299C35.5272 12.5974 35.6504 12.2287 35.65 11.8498V10.7998C35.6501 10.5168 35.5815 10.238 35.4502 9.98725C35.3188 9.73655 35.1286 9.52146 34.8958 9.36046C34.663 9.19945 34.3946 9.09732 34.1137 9.06285C33.8328 9.02838 33.5477 9.06258 33.2829 9.16253C33.1584 9.00615 32.9976 8.88261 32.8145 8.80267C32.6313 8.72274 32.4314 8.68884 32.2321 8.70394C32.0328 8.71904 31.8403 8.78268 31.6712 8.88931C31.5022 8.99593 31.3619 9.1423 31.2624 9.31564C31.163 9.48898 31.1075 9.68403 31.1007 9.88376C31.094 10.0835 31.1362 10.2818 31.2238 10.4615C31.3113 10.6411 31.4415 10.7966 31.6029 10.9144C31.7644 11.0322 31.9522 11.1086 32.15 11.1371V11.8498C32.1496 12.2287 32.2728 12.5973 32.501 12.8998H32.15C31.7619 12.8996 31.3847 13.0285 31.0779 13.2661C30.7711 13.5038 30.552 13.8368 30.4552 14.2126L31.1331 14.3871C31.1912 14.1616 31.3227 13.9619 31.5068 13.8194C31.6909 13.6769 31.9172 13.5996 32.15 13.5998H32.6627L33.9588 15.544C33.9908 15.5919 34.0341 15.6312 34.0849 15.6584C34.1357 15.6856 34.1924 15.6998 34.25 15.6998C34.2572 15.6998 34.2645 15.6998 34.2719 15.6991C34.3331 15.6953 34.3922 15.6755 34.4433 15.6417C34.4944 15.6079 34.5357 15.5612 34.5632 15.5064L35.5163 13.5998H35.9571C36.1901 13.5995 36.4166 13.6769 36.6007 13.8197C36.7848 13.9625 36.9161 14.1626 36.9738 14.3883L37.3961 16.4537L36.8192 17.7998H36.614L36.2459 16.5107C36.4148 16.1668 36.472 15.7787 36.4096 15.4007C36.3471 15.0227 36.1681 14.6736 35.8975 14.4023L35.4025 14.8973C35.6153 15.1102 35.7349 15.3988 35.7349 15.6998C35.7349 16.0008 35.6153 16.2895 35.4025 16.5023C35.37 16.5348 35.3442 16.5734 35.3266 16.6159C35.3091 16.6584 35.3 16.7039 35.3 16.7498V17.7998H32.5V14.6498H31.8V17.7998H31.1V14.9998H30.4V17.7998H29.35C29.2572 17.7998 29.1682 17.8367 29.1025 17.9023C29.0369 17.968 29 18.057 29 18.1498V27.2498C29 27.3427 29.0369 27.4317 29.1025 27.4973C29.1682 27.563 29.2572 27.5998 29.35 27.5998H43.35V26.8998H29.7V19.8998ZM32.8591 11.9857L33.6258 11.219C34.0462 11.3928 34.4952 11.4873 34.95 11.4978V11.8498C34.9495 12.1162 34.8478 12.3724 34.6655 12.5665C34.4832 12.7607 34.2339 12.8783 33.9681 12.8956C33.7023 12.9129 33.4399 12.8285 33.234 12.6595C33.0281 12.4906 32.8941 12.2497 32.8591 11.9857ZM34.95 10.7986C34.5178 10.786 34.0935 10.6796 33.7065 10.4868C33.6408 10.454 33.5665 10.4426 33.494 10.4544C33.4214 10.4662 33.3545 10.5005 33.3026 10.5524L32.85 11.0048V10.7998C32.8498 10.5213 32.9603 10.2542 33.1571 10.0572C33.3539 9.86016 33.6209 9.74938 33.8994 9.74921C34.1779 9.74905 34.445 9.85952 34.642 10.0563C34.8391 10.2531 34.9498 10.5201 34.95 10.7986ZM31.8 9.92483C31.7999 9.82236 31.8299 9.72211 31.8861 9.63647C31.9424 9.55082 32.0225 9.48352 32.1166 9.44288C32.2106 9.40223 32.3145 9.39002 32.4155 9.40774C32.5164 9.42547 32.6099 9.47236 32.6845 9.54263C32.435 9.78328 32.2627 10.0926 32.1894 10.4314C32.0778 10.4015 31.9792 10.3357 31.9088 10.2441C31.8384 10.1525 31.8002 10.0403 31.8 9.92483ZM34.2067 14.6539L33.504 13.5998H34.7337L34.2067 14.6539ZM38.8228 15.0368C38.8806 14.9202 38.9699 14.8222 39.0806 14.7538C39.1912 14.6854 39.3188 14.6494 39.449 14.6498H40.6837L40.5272 14.9629C40.4694 15.0794 40.3801 15.1775 40.2695 15.2459C40.1588 15.3143 40.0312 15.3503 39.9011 15.3498H38.6663L38.8228 15.0368ZM38.3308 16.0498H39.3192L38.5692 17.7998H37.5808L38.3308 16.0498Z" fill="#2B65F0"/>
<path d="M31.0999 20.95H30.3999V21.65H31.0999V20.95Z" fill="#2B65F0"/>
<path d="M31.0999 22.3501H30.3999V25.1501H31.0999V22.3501Z" fill="#2B65F0"/>
<path d="M36.3499 25.85H37.7499C37.8427 25.85 37.9317 25.8131 37.9973 25.7474C38.063 25.6818 38.0999 25.5928 38.0999 25.5V24.45H39.1499C39.2427 24.45 39.3317 24.4131 39.3973 24.3474C39.463 24.2818 39.4999 24.1928 39.4999 24.1V22.7C39.4999 22.6071 39.463 22.5181 39.3973 22.4525C39.3317 22.3868 39.2427 22.35 39.1499 22.35H38.0999V21.3C38.0999 21.2071 38.063 21.1181 37.9973 21.0525C37.9317 20.9868 37.8427 20.95 37.7499 20.95H36.3499C36.257 20.95 36.168 20.9868 36.1024 21.0525C36.0367 21.1181 35.9999 21.2071 35.9999 21.3V22.35H34.9499C34.857 22.35 34.768 22.3868 34.7024 22.4525C34.6367 22.5181 34.5999 22.6071 34.5999 22.7V24.1C34.5999 24.1928 34.6367 24.2818 34.7024 24.3474C34.768 24.4131 34.857 24.45 34.9499 24.45H35.9999V25.5C35.9999 25.5928 36.0367 25.6818 36.1024 25.7474C36.168 25.8131 36.257 25.85 36.3499 25.85ZM35.2999 23.75V23.05H36.3499C36.4427 23.05 36.5317 23.0131 36.5973 22.9474C36.663 22.8818 36.6999 22.7928 36.6999 22.7V21.65H37.3999V22.7C37.3999 22.7928 37.4367 22.8818 37.5024 22.9474C37.568 23.0131 37.657 23.05 37.7499 23.05H38.7999V23.75H37.7499C37.657 23.75 37.568 23.7868 37.5024 23.8525C37.4367 23.9181 37.3999 24.0071 37.3999 24.1V25.15H36.6999V24.1C36.6999 24.0071 36.663 23.9181 36.5973 23.8525C36.5317 23.7868 36.4427 23.75 36.3499 23.75H35.2999Z" fill="#2B65F0"/>
<path d="M48.2502 14.9999H47.8993C48.1274 14.6974 48.2506 14.3288 48.2502 13.9499V12.8999C48.2497 12.4359 48.0652 11.9911 47.7371 11.663C47.409 11.335 46.9642 11.1504 46.5002 11.1499H45.1002C44.8526 11.15 44.613 11.2376 44.4237 11.3972C44.2344 11.5569 44.1077 11.7783 44.0658 12.0223C44.0239 12.2664 44.0696 12.5174 44.1949 12.731C44.3201 12.9446 44.5168 13.1071 44.7502 13.1897V13.9499C44.7498 14.3288 44.8731 14.6974 45.1012 14.9999H44.7502C44.2863 15.0004 43.8415 15.185 43.5134 15.513C43.1853 15.8411 43.0008 16.2859 43.0002 16.7499V22.3499C43.0002 22.4427 43.0371 22.5318 43.1028 22.5974C43.1684 22.663 43.2574 22.6999 43.3502 22.6999H44.4002V26.9601C44.1668 27.0428 43.9701 27.2052 43.8449 27.4188C43.7196 27.6324 43.6739 27.8834 43.7158 28.1275C43.7577 28.3715 43.8844 28.5929 44.0737 28.7526C44.263 28.9122 44.5026 28.9998 44.7502 28.9999H48.2502C48.3431 28.9999 48.4321 28.963 48.4977 28.8974C48.5634 28.8318 48.6002 28.7427 48.6002 28.6499V25.4999H47.9002V26.8999H46.8502V21.9999H46.1502V26.8999H45.1002V21.2999H47.9002V24.7999H48.6002V22.6999H49.6502C49.7431 22.6999 49.8321 22.663 49.8977 22.5974C49.9634 22.5318 50.0002 22.4427 50.0002 22.3499V16.7499C49.9997 16.2859 49.8152 15.8411 49.4871 15.513C49.159 15.185 48.7142 15.0004 48.2502 14.9999ZM45.1002 11.8499H46.5002C46.7786 11.8502 47.0455 11.961 47.2424 12.1578C47.4392 12.3546 47.5499 12.6215 47.5502 12.8999V13.5999H46.6452L45.6977 12.6524C45.6652 12.6199 45.6267 12.5941 45.5842 12.5765C45.5417 12.559 45.4962 12.5499 45.4502 12.5499H45.1002C45.0074 12.5499 44.9184 12.513 44.8528 12.4474C44.7871 12.3818 44.7502 12.2927 44.7502 12.1999C44.7502 12.1071 44.7871 12.0181 44.8528 11.9524C44.9184 11.8868 45.0074 11.8499 45.1002 11.8499ZM45.4502 13.9499V13.3948L46.2528 14.1974C46.2853 14.2299 46.3238 14.2557 46.3663 14.2733C46.4088 14.2909 46.4543 14.2999 46.5002 14.2999H47.49C47.4074 14.5333 47.2449 14.73 47.0313 14.8553C46.8177 14.9805 46.5667 15.0262 46.3227 14.9844C46.0786 14.9425 45.8572 14.8157 45.6976 14.6264C45.538 14.4371 45.4503 14.1975 45.4502 13.9499ZM47.9002 28.2999H46.8502V27.5999H47.9002V28.2999ZM46.1502 28.2999H44.7502C44.6574 28.2999 44.5684 28.263 44.5028 28.1974C44.4371 28.1318 44.4002 28.0427 44.4002 27.9499C44.4002 27.8571 44.4371 27.7681 44.5028 27.7024C44.5684 27.6368 44.6574 27.5999 44.7502 27.5999H46.1502V28.2999ZM44.4002 21.9999H43.7002V21.2999H44.4002V21.9999ZM45.1002 20.5999V16.7499H44.4002V20.5999H43.7002V16.7499C43.7006 16.4715 43.8113 16.2046 44.0081 16.0078C44.205 15.811 44.4719 15.7002 44.7502 15.6999H48.2502C48.5286 15.7002 48.7955 15.811 48.9924 16.0078C49.1892 16.2046 49.2999 16.4715 49.3002 16.7499V20.5999H48.6002V16.7499H47.9002V20.5999H45.1002ZM48.6002 21.9999V21.3036L49.3002 21.3108V21.9999H48.6002Z" fill="#2B65F0"/>
<path d="M37.2059 11.0912L38.1 11.6873V12.2C38.1004 12.4784 38.2111 12.7453 38.4079 12.9421C38.6048 13.139 38.8717 13.2497 39.15 13.25H41.95C42.2284 13.2497 42.4953 13.139 42.6921 12.9421C42.889 12.7453 42.9997 12.4784 43 12.2V9.05C42.9997 8.77162 42.889 8.50474 42.6921 8.3079C42.4953 8.11105 42.2284 8.00032 41.95 8H39.15C38.8717 8.00032 38.6048 8.11105 38.4079 8.3079C38.2111 8.50474 38.1004 8.77162 38.1 9.05V9.91271L37.2059 10.5088C37.1579 10.5408 37.1186 10.5841 37.0915 10.6349C37.0643 10.6857 37.05 10.7424 37.05 10.8C37.05 10.8576 37.0643 10.9143 37.0915 10.9651C37.1186 11.0159 37.1579 11.0592 37.2059 11.0912ZM38.6442 10.3912C38.6921 10.3592 38.7314 10.3159 38.7586 10.2651C38.7858 10.2143 38.8 10.1576 38.8 10.1V9.05C38.8001 8.95721 38.8371 8.86824 38.9027 8.80263C38.9683 8.73701 39.0572 8.7001 39.15 8.7H41.95C42.0428 8.7001 42.1318 8.73701 42.1974 8.80263C42.263 8.86824 42.2999 8.95721 42.3 9.05V12.2C42.2999 12.2928 42.263 12.3818 42.1974 12.4474C42.1318 12.513 42.0428 12.5499 41.95 12.55H39.15C39.0572 12.5499 38.9683 12.513 38.9027 12.4474C38.8371 12.3818 38.8001 12.2928 38.8 12.2V11.5C38.8 11.4424 38.7858 11.3857 38.7586 11.3349C38.7314 11.2841 38.6921 11.2408 38.6442 11.2088L38.031 10.8L38.6442 10.3912Z" fill="#2B65F0"/>
<path d="M40.9002 10.8H40.2002V11.85H40.9002V10.8Z" fill="#2B65F0"/>
<path d="M40.9002 9.3999H40.2002V10.0999H40.9002V9.3999Z" fill="#2B65F0"/>
</g>
<defs>
<filter id="filter0_d_1860_6690" x="5" y="6" width="49.0002" height="52.125" filterUnits="userSpaceOnUse" color-interpolation-filters="sRGB">
<feFlood flood-opacity="0" result="BackgroundImageFix"/>
<feColorMatrix in="SourceAlpha" type="matrix" values="0 0 0 0 0 0 0 0 0 0 0 0 0 0 0 0 0 0 127 0" result="hardAlpha"/>
<feOffset dy="2"/>
<feGaussianBlur stdDeviation="2"/>
<feComposite in2="hardAlpha" operator="out"/>
<feColorMatrix type="matrix" values="0 0 0 0 0.0588235 0 0 0 0 0.686275 0 0 0 0 0.686275 0 0 0 0.18 0"/>
<feBlend mode="normal" in2="BackgroundImageFix" result="effect1_dropShadow_1860_6690"/>
<feBlend mode="normal" in="SourceGraphic" in2="effect1_dropShadow_1860_6690" result="shape"/>
</filter>
<filter id="filter1_d_1860_6690" x="5" y="16.75" width="44.7188" height="41.375" filterUnits="userSpaceOnUse" color-interpolation-filters="sRGB">
<feFlood flood-opacity="0" result="BackgroundImageFix"/>
<feColorMatrix in="SourceAlpha" type="matrix" values="0 0 0 0 0 0 0 0 0 0 0 0 0 0 0 0 0 0 127 0" result="hardAlpha"/>
<feOffset dy="2"/>
<feGaussianBlur stdDeviation="2"/>
<feComposite in2="hardAlpha" operator="out"/>
<feColorMatrix type="matrix" values="0 0 0 0 0.0588235 0 0 0 0 0.686275 0 0 0 0 0.686275 0 0 0 0.18 0"/>
<feBlend mode="normal" in2="BackgroundImageFix" result="effect1_dropShadow_1860_6690"/>
<feBlend mode="normal" in="SourceGraphic" in2="effect1_dropShadow_1860_6690" result="shape"/>
</filter>
</defs>
</svg>
