<svg width="60" height="60" viewBox="0 0 60 60" fill="none" xmlns="http://www.w3.org/2000/svg">
<circle cx="30" cy="30" r="30" fill="#F6FAFF"/>
<g filter="url(#filter0_d_1727_11271)">
<path d="M9.82664 18.7662L9.82645 18.7664C9.39118 19.2017 9.39118 19.8983 9.82645 20.3336L19.8964 30.4036C20.108 30.6151 20.3813 30.7274 20.67 30.73V30.73H20.68V30.73C20.9687 30.7274 21.242 30.6151 21.4536 30.4036C21.8888 29.9683 21.8888 29.2717 21.4536 28.8364L12.1671 19.55L19.55 12.1671L28.8464 21.4636C29.2817 21.8988 29.9783 21.8988 30.4136 21.4636C30.8488 21.0283 30.8488 20.3317 30.4136 19.8964L20.3436 9.82645C19.9083 9.39118 19.2117 9.39118 18.7764 9.82645L9.82664 18.7662Z" fill="#66C7F0" stroke="#66C7F0"/>
<path d="M38.0761 30.6943L47.4425 40.0608L40.0596 47.4437L30.7432 38.1272C30.3079 37.692 29.6113 37.692 29.1761 38.1272C28.7408 38.5625 28.7408 39.2591 29.1761 39.6943L39.2697 49.7879C39.487 50.0193 39.7842 50.1208 40.0596 50.1208C40.358 50.1208 40.6436 49.9939 40.8432 49.7943L49.7932 40.8443C50.2284 40.4091 50.2284 39.7125 49.7932 39.2772L39.6432 29.1272C39.2079 28.692 38.5113 28.692 38.0761 29.1272C37.6408 29.5625 37.6408 30.2591 38.0761 30.6943Z" fill="#66C7F0" stroke="#66C7F0"/>
<path d="M14.7798 20.3205C14.5898 20.3205 14.4198 20.2505 14.2898 20.1105C14.1598 19.9805 14.0898 19.8005 14.0898 19.6205C14.0898 19.4405 14.1598 19.2605 14.2998 19.1305C14.5598 18.8705 15.0198 18.8705 15.2798 19.1305C15.4098 19.2605 15.4898 19.4405 15.4898 19.6205C15.4898 19.8005 15.4198 19.9805 15.2798 20.1105C15.1498 20.2405 14.9698 20.3105 14.7898 20.3105L14.7798 20.3205ZM14.4198 19.9905C14.6098 20.1805 14.9598 20.1805 15.1498 19.9905C15.2398 19.9005 15.2998 19.7605 15.2998 19.6305C15.2998 19.5005 15.2498 19.3605 15.1498 19.2705L14.8498 19.5705L15.1498 19.2705C14.9598 19.0805 14.6098 19.0805 14.4198 19.2705C14.3298 19.3605 14.2698 19.5005 14.2698 19.6305C14.2698 19.7605 14.3298 19.9005 14.4198 19.9905Z" fill="#66C7F0"/>
<path d="M17.1998 17.8998C17.0098 17.8998 16.8398 17.8298 16.7098 17.6898C16.5798 17.5598 16.5098 17.3798 16.5098 17.1998C16.5098 17.0198 16.5798 16.8398 16.7198 16.7098C16.8498 16.5798 17.0298 16.5098 17.2098 16.5098C17.3998 16.5098 17.5698 16.5798 17.6998 16.7098C17.8298 16.8398 17.8998 17.0198 17.8998 17.1998C17.8998 17.3798 17.8298 17.5598 17.6998 17.6898C17.5698 17.8198 17.3898 17.8898 17.2098 17.8898L17.1998 17.8998ZM16.8398 17.5698C16.9398 17.6698 17.0698 17.7198 17.1998 17.7198C17.3398 17.7198 17.4698 17.6598 17.5598 17.5698C17.6598 17.4798 17.7098 17.3398 17.7098 17.2098C17.7098 17.0798 17.6498 16.9398 17.5598 16.8498L17.2598 17.1498L17.5598 16.8498C17.4698 16.7498 17.3298 16.6998 17.1998 16.6998C17.0598 16.6998 16.9298 16.7498 16.8398 16.8498C16.7398 16.9498 16.6898 17.0798 16.6898 17.2098C16.6898 17.3398 16.7498 17.4798 16.8398 17.5698Z" fill="#66C7F0"/>
<path d="M19.6197 15.4701C19.4297 15.4701 19.2597 15.4001 19.1297 15.2601C18.9997 15.1301 18.9297 14.9501 18.9297 14.7701C18.9297 14.5901 18.9997 14.4101 19.1397 14.2801C19.2697 14.1501 19.4497 14.0801 19.6297 14.0801C19.8197 14.0801 19.9897 14.1501 20.1197 14.2801C20.2497 14.4101 20.3297 14.5901 20.3297 14.7701C20.3297 14.9501 20.2597 15.1301 20.1197 15.2601C19.9897 15.3901 19.8097 15.4601 19.6297 15.4601L19.6197 15.4701ZM19.2597 15.1401C19.3597 15.2401 19.4897 15.2901 19.6197 15.2901C19.7597 15.2901 19.8897 15.2301 19.9797 15.1401C20.0697 15.0401 20.1297 14.9101 20.1297 14.7801C20.1297 14.6501 20.0797 14.5101 19.9797 14.4201L19.6797 14.7201L19.9797 14.4201C19.8897 14.3201 19.7497 14.2701 19.6197 14.2701C19.4797 14.2701 19.3497 14.3301 19.2597 14.4201C19.1597 14.5201 19.1097 14.6501 19.1097 14.7801C19.1097 14.9101 19.1697 15.0501 19.2597 15.1401Z" fill="#66C7F0"/>
<path d="M16.9695 22.5187C16.7895 22.5187 16.6095 22.4487 16.4795 22.3187C16.3495 22.1887 16.2695 22.0087 16.2695 21.8287C16.2695 21.6487 16.3395 21.4687 16.4695 21.3387C16.5995 21.2087 16.7795 21.1387 16.9595 21.1387C17.1495 21.1387 17.3195 21.2087 17.4495 21.3387C17.5795 21.4687 17.6495 21.6487 17.6495 21.8287C17.6495 22.0087 17.5795 22.1887 17.4495 22.3187C17.3095 22.4587 17.1295 22.5187 16.9595 22.5187H16.9695ZM16.6095 22.1887C16.7095 22.2887 16.8395 22.3387 16.9695 22.3387C17.1095 22.3387 17.2395 22.2887 17.3295 22.1887C17.4295 22.0887 17.4795 21.9587 17.4795 21.8287C17.4795 21.6987 17.4295 21.5587 17.3295 21.4687L17.0295 21.7687L17.3295 21.4687C17.1295 21.2687 16.7995 21.2687 16.5995 21.4687C16.4995 21.5687 16.4495 21.6987 16.4495 21.8287C16.4495 21.9587 16.5095 22.0987 16.5995 22.1887H16.6095Z" fill="#66C7F0"/>
<path d="M19.3992 20.089C19.2192 20.089 19.0392 20.019 18.9092 19.889C18.7792 19.759 18.6992 19.579 18.6992 19.399C18.6992 19.219 18.7692 19.039 18.9092 18.909C19.0392 18.779 19.2192 18.709 19.3992 18.709C19.5892 18.709 19.7592 18.779 19.8892 18.909C20.0192 19.039 20.0892 19.219 20.0892 19.399C20.0892 19.579 20.0192 19.759 19.8892 19.889C19.7492 20.029 19.5692 20.089 19.3992 20.089ZM19.0392 19.759C19.1392 19.859 19.2692 19.909 19.3992 19.909C19.5392 19.909 19.6692 19.849 19.7592 19.759C19.8592 19.659 19.9092 19.529 19.9092 19.399C19.9092 19.269 19.8592 19.129 19.7592 19.039L19.4592 19.339L19.7592 19.039C19.5592 18.839 19.2292 18.839 19.0292 19.039C18.9292 19.139 18.8792 19.269 18.8792 19.399C18.8792 19.529 18.9392 19.669 19.0292 19.759H19.0392Z" fill="#66C7F0"/>
<path d="M21.8191 17.6691C21.6391 17.6691 21.4591 17.5991 21.3291 17.4691C21.1991 17.3391 21.1191 17.1591 21.1191 16.9791C21.1191 16.7991 21.1891 16.6191 21.3291 16.4891C21.4591 16.3591 21.6391 16.2891 21.8191 16.2891C22.0091 16.2891 22.1791 16.3591 22.3091 16.4891C22.4391 16.6191 22.5091 16.7991 22.5091 16.9791C22.5091 17.1591 22.4391 17.3391 22.3091 17.4691C22.1691 17.6091 21.9891 17.6691 21.8191 17.6691ZM21.4591 17.3391C21.5591 17.4391 21.6891 17.4891 21.8191 17.4891C21.9591 17.4891 22.0891 17.4391 22.1791 17.3391C22.2791 17.2391 22.3291 17.1091 22.3291 16.9791C22.3291 16.8491 22.2791 16.7091 22.1791 16.6191L21.8791 16.9191L22.1791 16.6191C21.9791 16.4191 21.6491 16.4191 21.4491 16.6191C21.3491 16.7191 21.2991 16.8491 21.2991 16.9791C21.2991 17.1091 21.3591 17.2491 21.4491 17.3391H21.4591Z" fill="#66C7F0"/>
<path d="M37.88 43.4302C37.69 43.4302 37.52 43.3602 37.39 43.2202C37.12 42.9502 37.12 42.5102 37.39 42.2302C37.65 41.9702 38.11 41.9702 38.38 42.2302C38.65 42.5002 38.65 42.9402 38.38 43.2202C38.25 43.3502 38.07 43.4202 37.89 43.4202L37.88 43.4302ZM37.52 43.0902C37.71 43.2802 38.06 43.2802 38.25 43.0902C38.45 42.8902 38.45 42.5602 38.25 42.3602L37.95 42.6602L38.25 42.3602C38.06 42.1702 37.71 42.1702 37.52 42.3602C37.32 42.5602 37.32 42.8902 37.52 43.0902Z" fill="#66C7F0"/>
<path d="M40.3097 41.01C40.1197 41.01 39.9497 40.94 39.8197 40.81C39.5497 40.54 39.5497 40.1 39.8197 39.82C40.0797 39.56 40.5397 39.56 40.8097 39.82C41.0797 40.09 41.0797 40.53 40.8097 40.81C40.6797 40.94 40.4997 41.01 40.3197 41.01H40.3097ZM39.9497 40.68C40.1397 40.87 40.4897 40.87 40.6797 40.68C40.8797 40.48 40.8797 40.15 40.6797 39.95L40.3797 40.25L40.6797 39.95C40.4897 39.76 40.1397 39.76 39.9497 39.95C39.7497 40.15 39.7497 40.48 39.9497 40.68Z" fill="#66C7F0"/>
<path d="M42.7296 38.5797C42.5496 38.5797 42.3696 38.5097 42.2396 38.3797C41.9696 38.1097 41.9696 37.6597 42.2396 37.3897C42.3696 37.2597 42.5496 37.1797 42.7296 37.1797C42.9196 37.1797 43.0896 37.2497 43.2196 37.3797C43.4896 37.6497 43.4896 38.0897 43.2196 38.3697C43.0796 38.5097 42.8996 38.5697 42.7296 38.5697V38.5797ZM42.7996 37.8197L42.3696 38.2497C42.4696 38.3497 42.5996 38.3997 42.7296 38.3997C42.8696 38.3997 42.9996 38.3397 43.0896 38.2497C43.2896 38.0497 43.2896 37.7197 43.0896 37.5197C42.8896 37.3197 42.5596 37.3197 42.3596 37.5197C42.1596 37.7197 42.1596 38.0497 42.3596 38.2497L42.7896 37.8197H42.7996Z" fill="#66C7F0"/>
<path d="M40.0792 45.631C39.8892 45.631 39.7192 45.561 39.5892 45.421C39.3192 45.151 39.3192 44.711 39.5892 44.431C39.8592 44.161 40.2992 44.161 40.5792 44.431C40.8492 44.701 40.8492 45.151 40.5792 45.421C40.4492 45.551 40.2692 45.631 40.0892 45.631H40.0792ZM40.1392 44.871L39.7092 45.301C39.9092 45.501 40.2392 45.501 40.4392 45.301C40.6392 45.101 40.6392 44.771 40.4392 44.571C40.3392 44.471 40.2092 44.421 40.0792 44.421C39.9392 44.421 39.8092 44.471 39.7192 44.571C39.5192 44.771 39.5192 45.101 39.7192 45.301L40.1492 44.871H40.1392Z" fill="#66C7F0"/>
<path d="M42.4991 43.2011C42.3091 43.2011 42.1391 43.1311 42.0091 43.0011C41.7391 42.7311 41.7391 42.2911 42.0091 42.0111C42.2791 41.7411 42.7291 41.7411 42.9991 42.0111C43.2691 42.2811 43.2691 42.7311 42.9991 43.0011C42.8691 43.1311 42.6891 43.2011 42.5091 43.2011H42.4991ZM42.5591 42.4411L42.1291 42.8711C42.3291 43.0711 42.6591 43.0711 42.8591 42.8711C43.0591 42.6711 43.0591 42.3411 42.8591 42.1411C42.6691 41.9511 42.3191 41.9511 42.1291 42.1411C41.9291 42.3411 41.9291 42.6711 42.1291 42.8711L42.5591 42.4411Z" fill="#66C7F0"/>
<path d="M44.9288 40.7806C44.7388 40.7806 44.5688 40.7106 44.4388 40.5806C44.1688 40.3106 44.1688 39.8706 44.4388 39.5906C44.5688 39.4606 44.7488 39.3906 44.9288 39.3906C45.1188 39.3906 45.2888 39.4606 45.4188 39.5906C45.6888 39.8606 45.6888 40.3006 45.4188 40.5806C45.2888 40.7106 45.1088 40.7806 44.9288 40.7806ZM44.9288 39.5706C44.7888 39.5706 44.6588 39.6306 44.5688 39.7206C44.3688 39.9206 44.3688 40.2506 44.5688 40.4506C44.6688 40.5506 44.7988 40.6006 44.9288 40.6006C45.0688 40.6006 45.1988 40.5406 45.2888 40.4506C45.4888 40.2506 45.4888 39.9206 45.2888 39.7206C45.1888 39.6206 45.0588 39.5706 44.9288 39.5706Z" fill="#66C7F0"/>
<path d="M49.7935 20.3439L49.7936 20.3439C50.2288 19.9086 50.2288 19.212 49.7936 18.7768L40.8436 9.82676C40.4183 9.4015 39.7017 9.4015 39.2764 9.82676L9.82645 39.2768C9.39118 39.712 9.39118 40.4086 9.82645 40.8439L18.7599 49.7873C18.9773 50.0188 19.2746 50.1203 19.55 50.1203C19.8484 50.1203 20.1339 49.9935 20.3335 49.7939C20.3335 49.7939 20.3335 49.7939 20.3336 49.7939L49.7935 20.3439ZM12.1671 40.0603L40.06 12.1674L47.4429 19.5503L19.55 47.4432L12.1671 40.0603Z" fill="#66C7F0" stroke="#66C7F0"/>
<path d="M39.9908 15.4709C39.8008 15.4709 39.6308 15.4009 39.5008 15.2609C39.3708 15.1309 39.3008 14.9509 39.3008 14.7709C39.3008 14.5909 39.3708 14.4109 39.5108 14.2809C39.7708 14.0209 40.2308 14.0209 40.5008 14.2809C40.6308 14.4109 40.7008 14.5909 40.7008 14.7709C40.7008 14.9509 40.6308 15.1309 40.5008 15.2609C40.3708 15.3909 40.1908 15.4709 40.0108 15.4709H39.9908ZM39.6308 14.4109C39.5308 14.5109 39.4808 14.6409 39.4808 14.7709C39.4808 14.9009 39.5408 15.0409 39.6308 15.1409C39.8208 15.3309 40.1608 15.3309 40.3608 15.1409L40.0608 14.8409L40.3608 15.1409C40.4508 15.0509 40.5108 14.9109 40.5108 14.7809C40.5108 14.6509 40.4508 14.5109 40.3608 14.4109C40.1708 14.2209 39.8208 14.2209 39.6308 14.4109Z" fill="#66C7F0"/>
<path d="M42.4205 17.9006C42.2305 17.9006 42.0605 17.8306 41.9305 17.6906C41.8005 17.5606 41.7305 17.3806 41.7305 17.2006C41.7305 17.0206 41.8005 16.8406 41.9405 16.7106C42.2005 16.4506 42.6605 16.4506 42.9305 16.7106C43.0605 16.8406 43.1305 17.0206 43.1305 17.2006C43.1305 17.3806 43.0605 17.5606 42.9305 17.6906C42.8005 17.8206 42.6205 17.9006 42.4405 17.9006H42.4205ZM42.0605 16.8406C41.9605 16.9406 41.9105 17.0706 41.9105 17.2006C41.9105 17.3306 41.9705 17.4706 42.0605 17.5606C42.2505 17.7506 42.5905 17.7506 42.7905 17.5606L42.4905 17.2606L42.7905 17.5606C42.8805 17.4706 42.9405 17.3306 42.9405 17.2006C42.9405 17.0706 42.8805 16.9306 42.7905 16.8306C42.6005 16.6406 42.2505 16.6406 42.0605 16.8306V16.8406Z" fill="#66C7F0"/>
<path d="M44.8404 20.3216C44.6504 20.3216 44.4804 20.2516 44.3504 20.1116C44.2204 19.9816 44.1504 19.8016 44.1504 19.6216C44.1504 19.4416 44.2204 19.2616 44.3504 19.1316C44.4804 19.0016 44.6604 18.9316 44.8404 18.9316C45.0304 18.9316 45.2004 19.0016 45.3304 19.1316C45.4604 19.2616 45.5304 19.4416 45.5304 19.6216C45.5304 19.8016 45.4604 19.9816 45.3204 20.1116C45.1904 20.2416 45.0104 20.3116 44.8304 20.3116L44.8404 20.3216ZM44.4804 19.2616C44.3804 19.3616 44.3304 19.4916 44.3304 19.6216C44.3304 19.7516 44.3904 19.8916 44.4804 19.9816C44.5804 20.0816 44.7104 20.1316 44.8404 20.1316C44.9804 20.1316 45.1104 20.0816 45.2004 19.9816L44.9004 19.6816L45.2004 19.9816C45.3004 19.8816 45.3504 19.7516 45.3504 19.6216C45.3504 19.4916 45.2904 19.3516 45.2004 19.2616C45.1104 19.1616 44.9704 19.1116 44.8404 19.1116C44.7004 19.1116 44.5704 19.1616 44.4804 19.2616Z" fill="#66C7F0"/>
<path d="M37.7996 17.671C37.6196 17.671 37.4396 17.601 37.3096 17.471C37.1796 17.341 37.0996 17.161 37.0996 16.981C37.0996 16.801 37.1696 16.621 37.3096 16.491C37.4396 16.361 37.6196 16.291 37.7996 16.291C37.9896 16.291 38.1596 16.361 38.2896 16.501C38.4196 16.631 38.4896 16.811 38.4896 16.991C38.4896 17.171 38.4196 17.351 38.2896 17.481C38.1496 17.621 37.9796 17.681 37.7996 17.681V17.671ZM37.4396 16.611C37.3396 16.711 37.2896 16.841 37.2896 16.971C37.2896 17.101 37.3496 17.241 37.4396 17.331C37.5296 17.421 37.6696 17.481 37.7996 17.481C37.9196 17.471 38.0696 17.431 38.1596 17.331C38.2596 17.231 38.3096 17.101 38.3096 16.971C38.3096 16.841 38.2596 16.701 38.1596 16.611C37.9596 16.411 37.6296 16.411 37.4296 16.611L37.8596 17.041L37.4296 16.611H37.4396Z" fill="#66C7F0"/>
<path d="M40.2195 20.0909C40.0395 20.0909 39.8595 20.0209 39.7295 19.8909C39.5995 19.7609 39.5195 19.5809 39.5195 19.4009C39.5195 19.2209 39.5895 19.0409 39.7195 18.9109C39.8495 18.7809 40.0295 18.7109 40.2095 18.7109C40.3995 18.7109 40.5695 18.7809 40.6995 18.9209C40.8295 19.0509 40.8995 19.2309 40.8995 19.4109C40.8995 19.5909 40.8295 19.7709 40.6995 19.9009C40.5595 20.0409 40.3895 20.1009 40.2095 20.1009L40.2195 20.0909ZM39.8595 19.0309C39.7595 19.1309 39.7095 19.2609 39.7095 19.3909C39.7095 19.5209 39.7695 19.6609 39.8595 19.7509C39.9495 19.8509 40.0895 19.9009 40.2195 19.9009C40.3595 19.9009 40.4895 19.8409 40.5795 19.7509C40.6795 19.6509 40.7295 19.5209 40.7295 19.3909C40.7295 19.2609 40.6795 19.1209 40.5795 19.0309C40.3795 18.8309 40.0495 18.8309 39.8495 19.0309L40.2795 19.4609L39.8495 19.0309H39.8595Z" fill="#66C7F0"/>
<path d="M42.6395 22.5206C42.4595 22.5206 42.2795 22.4506 42.1495 22.3206C42.0195 22.1906 41.9395 22.0106 41.9395 21.8306C41.9395 21.6506 42.0095 21.4706 42.1395 21.3406C42.2695 21.2106 42.4495 21.1406 42.6295 21.1406C42.8195 21.1406 42.9895 21.2106 43.1195 21.3506C43.2495 21.4806 43.3195 21.6606 43.3195 21.8406C43.3195 22.0306 43.2495 22.2006 43.1195 22.3306C42.9795 22.4706 42.8095 22.5306 42.6295 22.5306L42.6395 22.5206ZM42.2795 21.4606C42.1795 21.5606 42.1295 21.6906 42.1295 21.8206C42.1295 21.9606 42.1895 22.0906 42.2795 22.1806C42.3695 22.2706 42.5095 22.3306 42.6395 22.3306C42.7795 22.3306 42.9095 22.2806 42.9995 22.1806C43.0995 22.0806 43.1495 21.9506 43.1495 21.8206C43.1495 21.6906 43.0995 21.5506 42.9995 21.4606C42.7995 21.2606 42.4695 21.2606 42.2695 21.4606L42.6995 21.8906L42.2695 21.4606H42.2795Z" fill="#66C7F0"/>
<path d="M16.8797 38.5792C16.6997 38.5792 16.5197 38.5092 16.3897 38.3792C16.2597 38.2492 16.1797 38.0692 16.1797 37.8892C16.1797 37.7092 16.2497 37.5292 16.3797 37.3992C16.5097 37.2692 16.6897 37.1992 16.8697 37.1992C17.0597 37.1992 17.2297 37.2692 17.3597 37.3992C17.6297 37.6692 17.6297 38.1092 17.3597 38.3892C17.2197 38.5292 17.0497 38.5892 16.8697 38.5892L16.8797 38.5792ZM16.5197 37.5192C16.3197 37.7192 16.3197 38.0492 16.5197 38.2492C16.6197 38.3492 16.7497 38.3992 16.8797 38.3992C17.0197 38.3992 17.1497 38.3392 17.2397 38.2492C17.4397 38.0492 17.4397 37.7192 17.2397 37.5192C17.0397 37.3192 16.7097 37.3192 16.5097 37.5192L16.9397 37.9492L16.5097 37.5192H16.5197Z" fill="#66C7F0"/>
<path d="M19.3097 41.0094C19.1197 41.0094 18.9497 40.9394 18.8197 40.8094C18.5497 40.5394 18.5497 40.0994 18.8197 39.8194C18.9497 39.6894 19.1297 39.6094 19.3097 39.6094C19.4997 39.6094 19.6697 39.6794 19.7997 39.8094C20.0697 40.0794 20.0697 40.5194 19.7997 40.7994C19.6697 40.9294 19.4897 40.9994 19.3097 40.9994V41.0094ZM18.9497 39.9494C18.7497 40.1494 18.7497 40.4794 18.9497 40.6794C19.0497 40.7794 19.1797 40.8294 19.3097 40.8294C19.4497 40.8294 19.5797 40.7694 19.6697 40.6794C19.8697 40.4794 19.8697 40.1494 19.6697 39.9494C19.5697 39.8494 19.4397 39.7994 19.3097 39.7994C19.1697 39.7994 19.0397 39.8494 18.9497 39.9494L19.3797 40.3794L18.9497 39.9494Z" fill="#66C7F0"/>
<path d="M21.7296 43.4295C21.5396 43.4295 21.3696 43.3595 21.2396 43.2195C20.9696 42.9495 20.9696 42.5095 21.2396 42.2295C21.3696 42.0995 21.5496 42.0195 21.7296 42.0195C21.9196 42.0195 22.0896 42.0895 22.2196 42.2195C22.4896 42.4895 22.4896 42.9295 22.2196 43.2095C22.0896 43.3395 21.9096 43.4195 21.7296 43.4195V43.4295ZM21.3696 42.3695C21.1696 42.5695 21.1696 42.8995 21.3696 43.0995C21.4696 43.1995 21.5996 43.2495 21.7296 43.2495C21.8696 43.2495 21.9996 43.1895 22.0896 43.0995C22.2896 42.8995 22.2896 42.5695 22.0896 42.3695C21.9896 42.2695 21.8596 42.2195 21.7296 42.2195C21.5896 42.2195 21.4596 42.2695 21.3696 42.3695L21.7996 42.7995L21.3696 42.3695Z" fill="#66C7F0"/>
<path d="M14.6905 40.7806C14.5005 40.7806 14.3305 40.7106 14.2005 40.5806C13.9305 40.3106 13.9305 39.8706 14.2005 39.5906C14.3305 39.4606 14.5105 39.3906 14.6905 39.3906C14.8805 39.3906 15.0505 39.4606 15.1805 39.5906C15.4505 39.8606 15.4505 40.3006 15.1805 40.5806C15.0505 40.7106 14.8705 40.7806 14.6905 40.7806ZM14.6905 39.5706C14.5505 39.5706 14.4205 39.6306 14.3305 39.7206C14.1305 39.9206 14.1305 40.2506 14.3305 40.4506C14.4305 40.5506 14.5605 40.6006 14.6905 40.6006C14.8305 40.6006 14.9605 40.5406 15.0505 40.4506C15.2505 40.2506 15.2505 39.9206 15.0505 39.7206C14.9505 39.6206 14.8205 39.5706 14.6905 39.5706Z" fill="#66C7F0"/>
<path d="M17.1105 43.2011C16.9205 43.2011 16.7505 43.1311 16.6205 43.0011C16.3505 42.7311 16.3505 42.2911 16.6205 42.0111C16.8905 41.7411 17.3405 41.7411 17.6105 42.0111C17.8805 42.2811 17.8805 42.7311 17.6105 43.0011C17.4805 43.1311 17.3005 43.2011 17.1205 43.2011H17.1105ZM16.7505 42.1411C16.5505 42.3411 16.5505 42.6711 16.7505 42.8711C16.9505 43.0711 17.2805 43.0711 17.4805 42.8711L17.1805 42.5711L17.4805 42.8711C17.6805 42.6711 17.6805 42.3411 17.4805 42.1411C17.3805 42.0411 17.2505 41.9911 17.1205 41.9911C16.9805 41.9911 16.8505 42.0511 16.7605 42.1411H16.7505Z" fill="#66C7F0"/>
<path d="M19.5304 45.631C19.3404 45.631 19.1704 45.561 19.0404 45.421C18.7704 45.151 18.7704 44.711 19.0404 44.431C19.3104 44.161 19.7504 44.161 20.0304 44.431C20.3004 44.701 20.3004 45.151 20.0304 45.421C19.9004 45.551 19.7204 45.631 19.5404 45.631H19.5304ZM19.1704 44.571C18.9704 44.771 18.9704 45.101 19.1704 45.301C19.3704 45.501 19.7004 45.501 19.9004 45.301L19.6004 45.001L19.9004 45.301C20.1004 45.101 20.1004 44.771 19.9004 44.571C19.7104 44.381 19.3604 44.381 19.1704 44.571Z" fill="#66C7F0"/>
</g>
<defs>
<filter id="filter0_d_1727_11271" x="5" y="9" width="49.6201" height="49.6211" filterUnits="userSpaceOnUse" color-interpolation-filters="sRGB">
<feFlood flood-opacity="0" result="BackgroundImageFix"/>
<feColorMatrix in="SourceAlpha" type="matrix" values="0 0 0 0 0 0 0 0 0 0 0 0 0 0 0 0 0 0 127 0" result="hardAlpha"/>
<feOffset dy="4"/>
<feGaussianBlur stdDeviation="2"/>
<feComposite in2="hardAlpha" operator="out"/>
<feColorMatrix type="matrix" values="0 0 0 0 0 0 0 0 0 0 0 0 0 0 0 0 0 0 0.15 0"/>
<feBlend mode="normal" in2="BackgroundImageFix" result="effect1_dropShadow_1727_11271"/>
<feBlend mode="normal" in="SourceGraphic" in2="effect1_dropShadow_1727_11271" result="shape"/>
</filter>
</defs>
</svg>
