<svg width="60" height="60" viewBox="0 0 60 60" fill="none" xmlns="http://www.w3.org/2000/svg">
<circle cx="30" cy="30" r="30" fill="#F6FAFF"/>
<g filter="url(#filter0_d_1727_11265)">
<path d="M14.3896 45.1727H45.6104C47.7554 45.1727 49.5 43.4281 49.5 41.2831V23.2451C49.5 21.1001 47.7554 19.3555 45.6104 19.3555H14.3896C12.2446 19.3555 10.5 21.1001 10.5 23.2451V41.2831C10.5 43.4281 12.2446 45.1727 14.3896 45.1727ZM12.6085 23.2451C12.6085 22.2661 13.4107 21.464 14.3896 21.464H45.6104C46.5893 21.464 47.3915 22.2661 47.3915 23.2451V41.2831C47.3915 42.2621 46.5893 43.0642 45.6104 43.0642H14.3896C13.4107 43.0642 12.6085 42.2621 12.6085 41.2831V23.2451Z" fill="#66C7F0" stroke="#66C7F0"/>
<path d="M28.3704 38.5739H31.6225C32.0747 38.5739 32.4313 38.2028 32.4313 37.7651V34.6896H35.5068C35.9563 34.6896 36.3156 34.3304 36.3156 33.8808V30.6287C36.3156 30.1764 35.9445 29.8198 35.5068 29.8198H32.4313V26.7444C32.4313 26.2922 32.0602 25.9355 31.6225 25.9355H28.3704C27.9208 25.9355 27.5615 26.2948 27.5615 26.7444V29.8198H24.4861C24.0365 29.8198 23.6772 30.1791 23.6772 30.6287V33.8808C23.6772 34.333 24.0484 34.6896 24.4861 34.6896H27.5615V37.7651C27.5615 38.2173 27.9326 38.5739 28.3704 38.5739ZM30.8137 33.89V36.9654H29.1792V33.89C29.1792 33.4404 28.8199 33.0812 28.3704 33.0812H25.2949V31.4466H28.3704C28.8226 31.4466 29.1792 31.0755 29.1792 30.6378V27.5624H30.8137V30.6378C30.8137 31.09 31.1848 31.4466 31.6225 31.4466H34.698V33.0812H31.6225C31.1703 33.0812 30.8137 33.4523 30.8137 33.89Z" fill="#66C7F0" stroke="#66C7F0" stroke-width="0.5"/>
<path d="M24.8726 21.8331H34.8779V21.85H35.1279C35.4215 21.85 35.6312 21.6358 35.7529 21.4143C35.8797 21.1834 35.9503 20.883 35.9503 20.5698V15.0302C35.9503 14.708 35.8771 14.4067 35.7482 14.1773C35.6244 13.957 35.4145 13.75 35.1279 13.75H24.8726C24.5826 13.75 24.3721 13.9555 24.2483 14.1784C24.1205 14.4084 24.0503 14.7096 24.0503 15.0302V20.5529C24.0503 20.8751 24.1235 21.1764 24.2524 21.4058C24.3762 21.6261 24.5861 21.8331 24.8726 21.8331ZM34.315 16.2936V19.2896H25.6856V16.2936H34.315Z" fill="#66C7F0" stroke="#66C7F0" stroke-width="0.5"/>
</g>
<defs>
<filter id="filter0_d_1727_11265" x="6" y="13.5" width="48" height="40.1719" filterUnits="userSpaceOnUse" color-interpolation-filters="sRGB">
<feFlood flood-opacity="0" result="BackgroundImageFix"/>
<feColorMatrix in="SourceAlpha" type="matrix" values="0 0 0 0 0 0 0 0 0 0 0 0 0 0 0 0 0 0 127 0" result="hardAlpha"/>
<feOffset dy="4"/>
<feGaussianBlur stdDeviation="2"/>
<feComposite in2="hardAlpha" operator="out"/>
<feColorMatrix type="matrix" values="0 0 0 0 0 0 0 0 0 0 0 0 0 0 0 0 0 0 0.15 0"/>
<feBlend mode="normal" in2="BackgroundImageFix" result="effect1_dropShadow_1727_11265"/>
<feBlend mode="normal" in="SourceGraphic" in2="effect1_dropShadow_1727_11265" result="shape"/>
</filter>
</defs>
</svg>
