<svg width="36" height="46" viewBox="0 0 36 46" fill="none" xmlns="http://www.w3.org/2000/svg">
<g filter="url(#filter0_d_910_16595)">
<path d="M28.1108 5.4H21.3V4.83333C21.2982 3.26933 20.0307 2.00184 18.4667 2H17.3333C15.7693 2.00184 14.5018 3.26933 14.5 4.83333V5.4H7.68923C6.75671 5.40092 6.00092 6.15671 6 7.08923V34.3108C6.00092 35.2433 6.75671 35.9991 7.68923 36H28.1108C29.0433 35.9991 29.7991 35.2433 29.8 34.3108V7.08923C29.7991 6.15671 29.0433 5.40092 28.1108 5.4ZM15.6333 4.83333C15.6333 3.89444 16.3944 3.13333 17.3333 3.13333H18.4667C19.4056 3.13333 20.1667 3.89444 20.1667 4.83333V5.4H15.6333V4.83333ZM22.3308 6.53333C22.0913 7.21071 21.4518 7.6644 20.7333 7.66667H15.0667C14.3488 7.66369 13.7102 7.21015 13.4709 6.53333H22.3308ZM28.6667 34.3108C28.6664 34.6177 28.4176 34.8664 28.1108 34.8667H7.68923C7.38231 34.8664 7.13362 34.6176 7.13333 34.3108V7.08923C7.13362 6.78231 7.38238 6.53362 7.68923 6.53333H12.29C12.5611 7.85161 13.7208 8.7983 15.0667 8.8H20.7333C22.0792 8.7983 23.2389 7.85161 23.51 6.53333H28.1113C28.4182 6.53362 28.667 6.78238 28.6672 7.08923L28.6667 34.3108Z" fill="#123F7E"/>
<path d="M20.1099 11.9472C19.9703 11.6672 19.63 11.5533 19.35 11.6929C19.215 11.7601 19.1125 11.8784 19.065 12.0214L17.9447 15.3834L17.314 13.178C17.2277 12.8771 16.9139 12.7032 16.613 12.7895C16.4753 12.829 16.3577 12.9192 16.2838 13.042L15.4474 14.436L15.066 11.0048C15.0318 10.6937 14.7519 10.4692 14.4409 10.5034C14.2207 10.5277 14.0348 10.6779 13.965 10.8881L12.1698 16.2714L11.0569 13.6749C10.9665 13.4665 10.7604 13.3323 10.5333 13.3338H8.2666V14.4671H10.1598L11.7125 18.0904C11.8018 18.2988 12.0066 18.4339 12.2333 18.4339H12.2571C12.4921 18.424 12.6967 18.27 12.771 18.0468L14.2217 13.6948L14.505 16.2301C14.5395 16.5411 14.8196 16.7654 15.1307 16.7309C15.3064 16.7114 15.4629 16.6111 15.5539 16.4596L16.5824 14.746L17.3571 17.4569C17.4254 17.6959 17.6413 17.8625 17.8897 17.8678C18.1373 17.8705 18.3589 17.7143 18.4394 17.4802L19.7065 13.6778L20.2278 14.7211C20.3237 14.9125 20.5192 15.0334 20.7333 15.0339H27.5333V13.9005H21.0835L20.1099 11.9472Z" fill="#123F7E"/>
<path d="M27.5333 21.834H8.2666V22.9673H27.5333V21.834Z" fill="#123F7E"/>
<path d="M27.5333 24.0996H8.2666V25.2329H27.5333V24.0996Z" fill="#123F7E"/>
<path d="M27.5333 26.3672H8.2666V27.5005H27.5333V26.3672Z" fill="#123F7E"/>
<path d="M27.5333 28.6328H8.2666V29.7661H27.5333V28.6328Z" fill="#123F7E"/>
<path d="M27.5333 30.9004H8.2666V32.0337H27.5333V30.9004Z" fill="#123F7E"/>
</g>
<defs>
<filter id="filter0_d_910_16595" x="0" y="0" width="35.7998" height="46" filterUnits="userSpaceOnUse" color-interpolation-filters="sRGB">
<feFlood flood-opacity="0" result="BackgroundImageFix"/>
<feColorMatrix in="SourceAlpha" type="matrix" values="0 0 0 0 0 0 0 0 0 0 0 0 0 0 0 0 0 0 127 0" result="hardAlpha"/>
<feOffset dy="4"/>
<feGaussianBlur stdDeviation="3"/>
<feComposite in2="hardAlpha" operator="out"/>
<feColorMatrix type="matrix" values="0 0 0 0 0 0 0 0 0 0 0 0 0 0 0 0 0 0 0.14 0"/>
<feBlend mode="normal" in2="BackgroundImageFix" result="effect1_dropShadow_910_16595"/>
<feBlend mode="normal" in="SourceGraphic" in2="effect1_dropShadow_910_16595" result="shape"/>
</filter>
</defs>
</svg>
