<svg width="60" height="60" viewBox="0 0 60 60" fill="none" xmlns="http://www.w3.org/2000/svg">
<g filter="url(#filter0_d_2029_2997)">
<path d="M7.29287 42.9236C7.01935 42.6804 6.64287 42.666 6.33087 42.4877C5.11823 41.7943 4.44951 40.3578 4.72927 38.9554C4.99863 37.6096 6.21439 36.5318 7.58927 36.3772C8.28607 36.2989 8.98079 36.337 9.67655 36.3319C9.90742 36.3298 9.96463 36.2628 9.96463 36.0403C9.95735 32.7346 9.95735 29.4289 9.96463 26.1233C9.96463 25.877 9.89183 25.8038 9.64743 25.8131C9.17943 25.8306 8.70935 25.8131 8.24031 25.8213C8.06247 25.8244 7.97199 25.7873 7.97303 25.5833C7.98135 22.5569 7.92831 19.5284 8.00527 16.503C8.06247 14.2391 9.73167 12.7347 12.1621 12.6409C10.7134 11.3838 9.95111 9.83914 9.97503 7.98846C9.99999 6.12335 10.7696 4.56635 12.2589 3.40607C14.6467 1.54612 17.9633 1.72851 20.1317 3.82237C20.9647 4.62715 21.5117 5.59886 21.7769 6.72719C22.039 7.84316 21.9683 8.94059 21.5918 10.0143C21.2122 11.0973 20.5341 11.9856 19.5888 12.7604C20.4593 12.9181 21.1467 13.3715 22.0078 13.3334C22.7213 13.3014 23.2049 13.861 23.2621 14.5874C23.2974 15.0357 23.2881 15.4901 23.2662 15.9404C23.2496 16.2897 23.156 16.6401 22.8637 16.8626C22.6297 17.0409 22.5819 17.2429 22.5902 17.5129C22.6256 18.6402 22.5465 19.7685 22.6401 20.8958C22.7389 22.0942 23.6406 23.2555 24.7815 23.6327C26.0961 24.0685 27.4793 23.7223 28.3466 22.7671C28.9613 22.0901 29.2202 21.2915 29.2317 20.4033C29.2441 19.3944 29.2317 18.3856 29.2379 17.3768C29.2389 17.1914 29.2005 17.0574 29.0413 16.9368C28.7533 16.7174 28.5941 16.4113 28.5848 16.0455C28.5733 15.5684 28.5473 15.0893 28.5744 14.6142C28.6181 13.8373 29.1318 13.3313 29.916 13.3086C30.7865 13.2839 31.658 13.2839 32.5285 13.3086C33.3355 13.3313 33.869 13.8857 33.895 14.6853C33.9075 15.0831 33.9065 15.4819 33.895 15.8796C33.8836 16.2609 33.7869 16.6308 33.4749 16.876C33.2679 17.0389 33.2263 17.2151 33.2242 17.4552C33.218 18.6494 33.2606 19.8448 33.1972 21.039C33.0453 23.8759 31.034 26.4994 28.3061 27.3794C27.9951 27.4793 27.9015 27.6092 27.9036 27.9307C27.9171 31.0508 27.914 34.17 27.9067 37.2902C27.9067 37.5334 27.9379 37.6467 28.2208 37.7075C28.8541 37.8425 29.2306 38.3567 29.2389 39.0121C29.2483 39.7292 29.2067 40.4475 29.2504 41.1626C29.2993 41.9715 29.0403 42.5733 28.279 42.9247H23.6157C22.8305 42.632 22.5382 42.0539 22.5725 41.2461C22.6027 40.5309 22.5736 39.8137 22.5809 39.0976C22.5871 38.3278 22.9646 37.8456 23.7155 37.6807C23.8902 37.6426 23.9256 37.5859 23.9256 37.4293C23.9225 34.2061 23.9235 30.9828 23.9225 27.7596C23.9225 27.6432 23.9453 27.5154 23.7831 27.47C23.1414 27.2928 22.5549 26.9878 21.9288 26.6374V27.0744C21.9288 28.4139 21.9288 29.7535 21.9288 31.0931C21.9288 33.9052 21.9277 36.7173 21.9288 39.5283C21.9288 40.6639 21.4816 41.5779 20.5799 42.2796C20.1441 42.6186 19.6169 42.7433 19.1125 42.9226H17.9061C17.4048 42.6423 16.8213 42.5063 16.4022 42.0818C16.3221 42.0003 16.2545 42.0601 16.2077 42.1292C15.9207 42.5599 15.4569 42.7278 15.0107 42.9226H7.29183L7.29287 42.9236ZM18.6039 19.8169C18.606 19.0472 18.5977 18.2774 18.6143 17.5087C18.6205 17.2377 18.5706 17.0347 18.3366 16.8606C18.1328 16.7091 18.0153 16.4721 17.982 16.2124C17.8957 15.5519 17.8645 14.8883 18.0173 14.2371C18.0662 14.03 18.0558 13.9887 17.8468 13.9887C15.8115 13.9959 13.7752 13.9733 11.7409 14.0114C10.5002 14.0341 9.42487 15.149 9.34167 16.3763C9.32919 16.5659 9.38119 16.6071 9.55071 16.6061C10.2735 16.6019 10.9973 16.604 11.7201 16.605C11.846 16.605 11.9926 16.6092 11.9552 16.4309C11.8356 15.8755 12.1881 15.9033 12.5563 15.9291C12.7165 15.9404 12.8787 15.9414 13.0378 15.9291C13.2448 15.9126 13.3217 15.9847 13.3165 16.198C13.303 16.6751 13.3238 17.1532 13.3072 17.6303C13.2989 17.856 13.3696 17.9209 13.5963 17.9168C14.3597 17.9034 15.123 17.9024 15.8864 17.9137C17.1562 17.9333 18.1473 18.6639 18.4968 19.8221L18.6029 20.1724V19.8169H18.6039ZM15.9415 3.4679C13.3675 3.4782 11.3041 5.53188 11.3125 8.07502C11.3208 10.6037 13.4205 12.6595 15.9852 12.6502C18.5238 12.6409 20.583 10.5831 20.5851 8.05337C20.5872 5.50405 18.5155 3.45862 15.9415 3.4679ZM16.6206 31.0931C16.6206 32.7253 16.6248 34.3575 16.6165 35.9908C16.6154 36.2257 16.6425 36.3391 16.9316 36.3339C18.0569 36.3154 19.1821 36.3195 20.3074 36.3319C20.5425 36.3339 20.5934 36.2546 20.5924 36.0372C20.5861 32.7325 20.5851 29.4279 20.5924 26.1233C20.5924 25.8729 20.5092 25.8121 20.27 25.8141C19.1853 25.8255 18.0995 25.8296 17.0148 25.8121C16.7111 25.8069 16.6071 25.8698 16.6113 26.1964C16.63 27.8286 16.6196 29.4609 16.6196 31.0941L16.6206 31.0931ZM30.5691 19.2914H30.5441C30.5441 19.8221 30.5712 20.3548 30.54 20.8834C30.4069 23.1278 28.5286 25.0114 26.3072 25.1485C23.8944 25.2979 21.7967 23.7429 21.3609 21.4574C21.1602 20.4063 21.2881 19.3388 21.2705 18.2785C21.2517 17.2017 21.2663 17.2017 20.1847 17.2666C20.1712 17.2666 20.1577 17.2676 20.1441 17.2666C19.9881 17.2501 19.933 17.3191 19.9361 17.4727C19.9611 18.7731 19.8436 20.0797 20.0121 21.3729C20.3844 24.2365 22.8201 26.352 25.8017 26.452C28.6253 26.5457 31.1796 24.5292 31.7516 21.75C31.9897 20.5929 31.8691 19.4202 31.8878 18.2548C31.9045 17.2161 31.892 17.2233 30.8301 17.2604C30.6117 17.2676 30.5618 17.3377 30.5649 17.5376C30.5764 18.1219 30.5691 18.7061 30.5691 19.2904V19.2914ZM12.7154 21.8685C13.7596 21.8685 14.8048 21.8809 15.8489 21.8644C16.7121 21.851 17.2841 21.2925 17.2675 20.5207C17.2519 19.7695 16.6705 19.2553 15.825 19.2522C14.8745 19.2492 13.9239 19.2533 12.9723 19.2502C12.653 19.2492 12.2329 19.3553 12.0405 19.1966C11.8117 19.008 11.9926 18.5752 11.9614 18.2507C11.9604 18.2373 11.9593 18.2239 11.9614 18.2105C11.9947 17.993 11.9177 17.9096 11.6796 17.9147C10.9838 17.9302 10.287 17.9302 9.59023 17.9147C9.34687 17.9096 9.30631 18.0054 9.30839 18.2177C9.31671 19.3326 9.31983 20.4465 9.30735 21.5615C9.30423 21.8067 9.37391 21.8778 9.62247 21.8747C10.6531 21.8613 11.6848 21.8696 12.7154 21.8685ZM19.7989 24.5013C19.1021 23.4029 18.736 22.2704 18.6153 21.0545C18.5124 21.1081 18.5228 21.2163 18.4968 21.2967C18.1151 22.4374 17.2529 23.1411 16.0393 23.1659C14.1267 23.204 12.2131 23.1824 10.2995 23.1855C9.27719 23.1865 9.28447 23.1855 9.30735 24.2138C9.31255 24.4374 9.37183 24.5065 9.60063 24.5065C12.9713 24.5003 16.3419 24.5024 19.7989 24.5024V24.5013ZM18.6226 37.6632C18.034 37.6632 17.4453 37.6663 16.8577 37.6611C16.7017 37.6591 16.6133 37.6787 16.6175 37.8703C16.631 38.4927 16.5946 39.1172 16.6352 39.7375C16.7069 40.8298 17.5712 41.5995 18.6507 41.583C19.7105 41.5676 20.5237 40.7834 20.5757 39.6973C20.6038 39.1027 20.5747 38.5051 20.5934 37.9095C20.6007 37.6756 20.4915 37.6581 20.3074 37.6601C19.7458 37.6673 19.1842 37.6632 18.6226 37.6632ZM25.2526 32.6841C25.2526 34.0381 25.2526 35.3921 25.2526 36.7461C25.2526 37.6642 25.2526 37.6477 26.1949 37.6684C26.5193 37.6756 26.588 37.5766 26.5859 37.2716C26.5745 34.4441 26.5817 31.6166 26.5755 28.789C26.5755 28.4624 26.7242 28.0285 26.5079 27.8379C26.3259 27.6772 25.8964 27.8091 25.5802 27.7761C25.3036 27.7472 25.2453 27.8492 25.2474 28.1048C25.2578 29.6309 25.2526 31.158 25.2526 32.6841ZM13.2521 28.4325C13.8272 28.4325 14.4023 28.4242 14.9764 28.4366C15.1885 28.4407 15.2832 28.3995 15.2769 28.1604C15.2613 27.4721 15.2613 26.7827 15.2769 26.0944C15.2821 25.8533 15.1844 25.8121 14.9712 25.8141C13.848 25.8224 12.7258 25.8234 11.6026 25.8141C11.3811 25.8121 11.3021 25.8687 11.3062 26.0996C11.3208 26.7879 11.3229 27.4773 11.3062 28.1656C11.3 28.4119 11.3998 28.4428 11.6089 28.4376C12.1569 28.4253 12.705 28.4335 13.2531 28.4335L13.2521 28.4325ZM25.9161 38.9873C25.3535 38.9873 24.7919 38.9956 24.2293 38.9832C24.0171 38.9781 23.9204 39.0162 23.9266 39.2594C23.9433 39.9487 23.9401 40.6381 23.9266 41.3275C23.9225 41.5377 23.988 41.5954 24.197 41.5933C25.3348 41.584 26.4725 41.582 27.6103 41.5933C27.8464 41.5954 27.8984 41.515 27.8942 41.2986C27.8817 40.6226 27.8797 39.9456 27.8932 39.2697C27.8973 39.044 27.8277 38.976 27.6009 38.9811C27.0393 38.9956 26.4767 38.9863 25.9151 38.9863L25.9161 38.9873ZM13.2853 31.0663H14.3274C15.3071 31.0663 15.2967 31.0663 15.2821 30.076C15.278 29.8267 15.2 29.7648 14.9597 29.7679C14.0643 29.7803 13.1699 29.7731 12.2745 29.7731C11.274 29.7731 11.2813 29.7731 11.3062 30.7809C11.3114 31.0065 11.3759 31.0766 11.6026 31.0714C12.1632 31.0581 12.7248 31.0673 13.2864 31.0673L13.2853 31.0663ZM13.303 32.4028H12.2609C11.301 32.4028 11.3166 32.4028 11.3021 33.3436C11.2969 33.6651 11.4154 33.7084 11.6941 33.7032C12.5625 33.6877 13.4309 33.697 14.3004 33.697C15.3133 33.697 15.3071 33.697 15.2811 32.6923C15.2749 32.4718 15.2177 32.3925 14.9878 32.3976C14.4273 32.4121 13.8657 32.4018 13.3041 32.4018L13.303 32.4028ZM13.2895 35.0335H12.2869C11.5978 35.0335 11.2726 35.378 11.3114 36.067C11.3114 36.0804 11.3135 36.0938 11.3114 36.1072C11.2906 36.2845 11.3821 36.3308 11.5475 36.3308C12.7102 36.3267 13.8781 36.3906 15.0336 36.301C15.5681 36.2597 15.1657 35.6971 15.2655 35.3869C15.3185 35.2221 15.3227 35.0181 15.0128 35.0284C14.4387 35.0479 13.8636 35.0335 13.2885 35.0335H13.2895ZM8.65631 39.621V40.6536C8.65631 41.6253 8.65631 41.616 9.65471 41.5985C9.90639 41.5944 9.97087 41.515 9.96775 41.277C9.95527 40.3898 9.96255 39.5025 9.96255 38.6153C9.96255 37.6261 9.96255 37.6333 8.94023 37.657C8.70935 37.6622 8.64591 37.7302 8.65111 37.9517C8.66463 38.5071 8.65527 39.0636 8.65527 39.62L8.65631 39.621ZM11.3114 39.6159V40.6494C11.3114 41.6242 11.3114 41.616 12.3046 41.5985C12.548 41.5944 12.627 41.5263 12.6239 41.2821C12.6114 40.3949 12.6187 39.5077 12.6187 38.6205C12.6187 37.6292 12.6187 37.6374 11.6005 37.6581C11.3759 37.6632 11.3 37.7199 11.3062 37.9476C11.3218 38.503 11.3114 39.0605 11.3114 39.6159ZM13.9665 39.6138C13.9665 40.1692 13.9665 40.7257 13.9665 41.2811C13.9665 41.2945 13.9645 41.3079 13.9665 41.3203C13.9832 41.4151 13.927 41.5263 14.0726 41.584C14.6821 41.8272 15.2665 41.4542 15.2728 40.7999C15.2801 40.0724 15.2749 39.3439 15.2749 38.6164C15.2749 37.6282 15.2749 37.6354 14.2546 37.657C14.03 37.6622 13.9541 37.7178 13.9603 37.9466C13.9759 38.502 13.9655 39.0584 13.9655 39.6138H13.9665ZM7.30535 37.7972C6.50767 38.1403 6.07711 38.6936 6.01471 39.483C5.95023 40.295 6.31631 40.9112 7.01831 41.3357C7.24191 41.4707 7.31055 41.4264 7.30847 41.1647C7.29911 40.0631 7.30431 38.9626 7.30431 37.7961L7.30535 37.7972ZM20.5882 15.9291H20.9491C21.9433 15.9291 21.9309 15.9291 21.9361 14.9471C21.9371 14.6709 21.8425 14.6214 21.596 14.6317C21.1561 14.6493 20.7141 14.6369 20.2741 14.6369C19.2279 14.6369 19.2362 14.6369 19.2685 15.6766C19.2757 15.8951 19.3475 15.9414 19.5472 15.9332C19.8935 15.9198 20.2419 15.9291 20.5893 15.9291H20.5882ZM31.2357 15.9291H31.5571C32.6065 15.9291 32.6002 15.9291 32.5513 14.8729C32.542 14.6771 32.4827 14.6307 32.2976 14.6338C31.5748 14.6431 30.852 14.6379 30.1292 14.6369C30.0023 14.6369 29.916 14.6369 29.8921 14.8152C29.7548 15.8559 29.8109 15.9301 30.8343 15.9301H31.2357V15.9291Z" fill="#2B65F0"/>
<path d="M13.2838 31.0671C12.7222 31.0671 12.1616 31.0578 11.6 31.0712C11.3733 31.0763 11.3098 31.0063 11.3036 30.7806C11.2786 29.7728 11.2714 29.7728 12.2718 29.7728C13.1673 29.7728 14.0627 29.7801 14.9571 29.7677C15.1974 29.7646 15.2754 29.8264 15.2795 30.0758C15.2951 31.066 15.3045 31.066 14.3248 31.066C13.9774 31.066 13.6301 31.066 13.2827 31.066L13.2838 31.0671Z" fill="#F6A452"/>
<path d="M13.3029 32.4048C13.8645 32.4048 14.4261 32.4141 14.9867 32.4007C15.2165 32.3945 15.2748 32.4749 15.28 32.6954C15.306 33.7001 15.3133 33.7001 14.2993 33.7001C13.4309 33.7001 12.5614 33.6898 11.693 33.7063C11.4143 33.7114 11.2957 33.6682 11.3009 33.3467C11.3155 32.4059 11.2989 32.4059 12.2598 32.4059C12.6072 32.4059 12.9545 32.4059 13.3019 32.4059L13.3029 32.4048Z" fill="#F6A452"/>
<path d="M13.2887 35.0348C13.8639 35.0348 14.439 35.0482 15.0131 35.0297C15.3219 35.0194 15.3188 35.2234 15.2658 35.3883C15.1659 35.6984 15.5684 36.2611 15.0339 36.3023C13.8784 36.3919 12.7105 36.328 11.5478 36.3322C11.3824 36.3322 11.2909 36.2868 11.3117 36.1085C11.3127 36.0951 11.3117 36.0818 11.3117 36.0684C11.2729 35.3793 11.598 35.0348 12.2872 35.0348C12.6211 35.0348 12.9559 35.0348 13.2898 35.0348H13.2887Z" fill="#F6A452"/>
<path d="M8.65582 39.6216C8.65582 39.0652 8.66518 38.5088 8.65166 37.9533C8.64646 37.7318 8.7099 37.6638 8.94078 37.6586C9.9631 37.6349 9.9631 37.6277 9.9631 38.617C9.9631 39.5042 9.95582 40.3914 9.9683 41.2786C9.97142 41.5166 9.90694 41.5949 9.65526 41.6001C8.65686 41.6176 8.65686 41.6269 8.65686 40.6552C8.65686 40.311 8.65686 39.9668 8.65686 39.6227L8.65582 39.6216Z" fill="#F6A452"/>
<path d="M11.3112 39.6177C11.3112 39.0613 11.3216 38.5048 11.306 37.9494C11.2998 37.7217 11.3747 37.664 11.6003 37.6599C12.6185 37.6382 12.6185 37.631 12.6185 38.6223C12.6185 39.5095 12.6112 40.3967 12.6237 41.2839C12.6268 41.5281 12.5478 41.5951 12.3044 41.6003C11.3112 41.6178 11.3112 41.626 11.3112 40.6512C11.3112 40.3071 11.3112 39.9629 11.3112 39.6177Z" fill="#F6A452"/>
<path d="M13.9655 39.6167C13.9655 39.0613 13.9759 38.5048 13.9603 37.9494C13.9541 37.7217 14.03 37.665 14.2546 37.6599C15.2749 37.6382 15.2749 37.631 15.2749 38.6192C15.2749 39.3467 15.2801 40.0752 15.2728 40.8027C15.2666 41.457 14.6821 41.8301 14.0726 41.5869C13.927 41.5292 13.9832 41.4179 13.9666 41.3231C13.9645 41.3107 13.9666 41.2963 13.9666 41.2839C13.9666 40.7285 13.9666 40.1721 13.9666 39.6167H13.9655Z" fill="#F6A452"/>
<path d="M18.4971 19.824C18.5304 19.7931 18.5647 19.7714 18.6032 19.8178C18.6032 19.9342 18.6032 20.0497 18.6032 20.1743L18.4971 19.824Z" fill="#F6A452"/>
<rect x="26" y="29" width="3" height="1" rx="0.5" fill="#E4F9F8"/>
<rect x="10" y="24" width="3" height="1" rx="0.5" transform="rotate(-90 10 24)" fill="#DFF7F6"/>
<rect x="26" y="31" width="3" height="5" rx="1" fill="#E9FBFA"/>
<rect x="13" y="21" width="3" height="3" rx="1" fill="#DFF7F7"/>
</g>
<defs>
<filter id="filter0_d_2029_2997" x="0.666016" y="0.123047" width="37.238" height="48.8008" filterUnits="userSpaceOnUse" color-interpolation-filters="sRGB">
<feFlood flood-opacity="0" result="BackgroundImageFix"/>
<feColorMatrix in="SourceAlpha" type="matrix" values="0 0 0 0 0 0 0 0 0 0 0 0 0 0 0 0 0 0 127 0" result="hardAlpha"/>
<feOffset dy="2"/>
<feGaussianBlur stdDeviation="2"/>
<feComposite in2="hardAlpha" operator="out"/>
<feColorMatrix type="matrix" values="0 0 0 0 0.0588235 0 0 0 0 0.686275 0 0 0 0 0.686275 0 0 0 0.18 0"/>
<feBlend mode="normal" in2="BackgroundImageFix" result="effect1_dropShadow_2029_2997"/>
<feBlend mode="normal" in="SourceGraphic" in2="effect1_dropShadow_2029_2997" result="shape"/>
</filter>
</defs>
</svg>
