<svg width="60" height="60" viewBox="0 0 60 60" fill="none" xmlns="http://www.w3.org/2000/svg">
<circle cx="30" cy="30" r="30" fill="#F6FAFF"/>
<g filter="url(#filter0_d_910_16508)">
<path fill-rule="evenodd" clip-rule="evenodd" d="M16.4645 13.1305C17.4021 12.1928 18.6739 11.666 20 11.666H33.3333C33.7754 11.666 34.1993 11.8416 34.5118 12.1542L44.5118 22.1542C44.8244 22.4667 45 22.8907 45 23.3327V43.3327C45 44.6588 44.4732 45.9305 43.5355 46.8682C42.5979 47.8059 41.3261 48.3327 40 48.3327H20C18.6739 48.3327 17.4021 47.8059 16.4645 46.8682C15.5268 45.9305 15 44.6588 15 43.3327V16.666C15 15.3399 15.5268 14.0682 16.4645 13.1305ZM20 14.9993C19.558 14.9993 19.134 15.1749 18.8215 15.4875C18.5089 15.8001 18.3333 16.224 18.3333 16.666V43.3327C18.3333 43.7747 18.5089 44.1986 18.8215 44.5112C19.134 44.8238 19.558 44.9994 20 44.9994H40C40.442 44.9994 40.8659 44.8238 41.1785 44.5112C41.4911 44.1986 41.6667 43.7747 41.6667 43.3327V24.023L32.643 14.9993H20Z" fill="#66C7F0"/>
<path fill-rule="evenodd" clip-rule="evenodd" d="M33.3337 11.666C34.2541 11.666 35.0003 12.4122 35.0003 13.3327V21.666H43.3337C44.2541 21.666 45.0003 22.4122 45.0003 23.3327C45.0003 24.2532 44.2541 24.9993 43.3337 24.9993H33.3337C32.4132 24.9993 31.667 24.2532 31.667 23.3327V13.3327C31.667 12.4122 32.4132 11.666 33.3337 11.666Z" fill="#66C7F0"/>
<path fill-rule="evenodd" clip-rule="evenodd" d="M29.9997 28.332C30.9201 28.332 31.6663 29.0782 31.6663 29.9987V39.9987C31.6663 40.9192 30.9201 41.6654 29.9997 41.6654C29.0792 41.6654 28.333 40.9192 28.333 39.9987V29.9987C28.333 29.0782 29.0792 28.332 29.9997 28.332Z" fill="#66C7F0"/>
<path fill-rule="evenodd" clip-rule="evenodd" d="M23.333 34.9987C23.333 34.0782 24.0792 33.332 24.9997 33.332H34.9997C35.9201 33.332 36.6663 34.0782 36.6663 34.9987C36.6663 35.9192 35.9201 36.6654 34.9997 36.6654H24.9997C24.0792 36.6654 23.333 35.9192 23.333 34.9987Z" fill="#66C7F0"/>
</g>
<defs>
<filter id="filter0_d_910_16508" x="11" y="11.666" width="38" height="44.667" filterUnits="userSpaceOnUse" color-interpolation-filters="sRGB">
<feFlood flood-opacity="0" result="BackgroundImageFix"/>
<feColorMatrix in="SourceAlpha" type="matrix" values="0 0 0 0 0 0 0 0 0 0 0 0 0 0 0 0 0 0 127 0" result="hardAlpha"/>
<feOffset dy="4"/>
<feGaussianBlur stdDeviation="2"/>
<feComposite in2="hardAlpha" operator="out"/>
<feColorMatrix type="matrix" values="0 0 0 0 0 0 0 0 0 0 0 0 0 0 0 0 0 0 0.15 0"/>
<feBlend mode="normal" in2="BackgroundImageFix" result="effect1_dropShadow_910_16508"/>
<feBlend mode="normal" in="SourceGraphic" in2="effect1_dropShadow_910_16508" result="shape"/>
</filter>
</defs>
</svg>
