<svg width="44" height="48" viewBox="0 0 44 48" fill="none" xmlns="http://www.w3.org/2000/svg">
<g filter="url(#filter0_d_2029_2766)">
<path d="M33.6667 6.91602H10.3333C8.49238 6.91602 7 8.4084 7 10.2493V33.5827C7 35.4236 8.49238 36.916 10.3333 36.916H16.1667H22H27.8333H33.6667C35.5076 36.916 37 35.4236 37 33.5827V10.2493C37 8.4084 35.5076 6.91602 33.6667 6.91602Z" stroke="#123F7E" stroke-width="1.5" stroke-linecap="round" stroke-linejoin="round"/>
<path d="M28.666 3.58398V10.2507" stroke="#123F7E" stroke-width="1.5" stroke-linecap="round" stroke-linejoin="round"/>
<path d="M15.334 3.58398V10.2507" stroke="#123F7E" stroke-width="1.5" stroke-linecap="round" stroke-linejoin="round"/>
<path d="M9 16.75L19 16.75" stroke="#123F7E" stroke-width="1.5" stroke-linecap="round" stroke-linejoin="round"/>
<path d="M26 16.75L35 16.75" stroke="#123F7E" stroke-width="1.5" stroke-linecap="round" stroke-linejoin="round"/>
<path d="M22 16.75L23 16.75" stroke="#123F7E" stroke-width="1.5" stroke-linecap="round" stroke-linejoin="round"/>
<path d="M28.375 22.1875C28.375 21.9057 28.4869 21.6355 28.6862 21.4362C28.8855 21.2369 29.1557 21.125 29.4375 21.125H31.5625C31.8443 21.125 32.1145 21.2369 32.3138 21.4362C32.5131 21.6355 32.625 21.9057 32.625 22.1875V24.3125C32.625 24.5943 32.5131 24.8645 32.3138 25.0638C32.1145 25.2631 31.8443 25.375 31.5625 25.375H29.4375C29.1557 25.375 28.8855 25.2631 28.6862 25.0638C28.4869 24.8645 28.375 24.5943 28.375 24.3125V22.1875ZM22 22.1875C22 21.9057 22.1119 21.6355 22.3112 21.4362C22.5105 21.2369 22.7807 21.125 23.0625 21.125H25.1875C25.4693 21.125 25.7395 21.2369 25.9388 21.4362C26.1381 21.6355 26.25 21.9057 26.25 22.1875V24.3125C26.25 24.5943 26.1381 24.8645 25.9388 25.0638C25.7395 25.2631 25.4693 25.375 25.1875 25.375H23.0625C22.7807 25.375 22.5105 25.2631 22.3112 25.0638C22.1119 24.8645 22 24.5943 22 24.3125V22.1875ZM11.375 28.5625C11.375 28.2807 11.4869 28.0105 11.6862 27.8112C11.8855 27.6119 12.1557 27.5 12.4375 27.5H14.5625C14.8443 27.5 15.1145 27.6119 15.3138 27.8112C15.5131 28.0105 15.625 28.2807 15.625 28.5625V30.6875C15.625 30.9693 15.5131 31.2395 15.3138 31.4388C15.1145 31.6381 14.8443 31.75 14.5625 31.75H12.4375C12.1557 31.75 11.8855 31.6381 11.6862 31.4388C11.4869 31.2395 11.375 30.9693 11.375 30.6875V28.5625ZM17.75 28.5625C17.75 28.2807 17.8619 28.0105 18.0612 27.8112C18.2605 27.6119 18.5307 27.5 18.8125 27.5H20.9375C21.2193 27.5 21.4895 27.6119 21.6888 27.8112C21.8881 28.0105 22 28.2807 22 28.5625V30.6875C22 30.9693 21.8881 31.2395 21.6888 31.4388C21.4895 31.6381 21.2193 31.75 20.9375 31.75H18.8125C18.5307 31.75 18.2605 31.6381 18.0612 31.4388C17.8619 31.2395 17.75 30.9693 17.75 30.6875V28.5625Z" fill="#123F7E"/>
</g>
<defs>
<filter id="filter0_d_2029_2766" x="-4" y="-1.75" width="52" height="52" filterUnits="userSpaceOnUse" color-interpolation-filters="sRGB">
<feFlood flood-opacity="0" result="BackgroundImageFix"/>
<feColorMatrix in="SourceAlpha" type="matrix" values="0 0 0 0 0 0 0 0 0 0 0 0 0 0 0 0 0 0 127 0" result="hardAlpha"/>
<feOffset dy="4"/>
<feGaussianBlur stdDeviation="3"/>
<feComposite in2="hardAlpha" operator="out"/>
<feColorMatrix type="matrix" values="0 0 0 0 0 0 0 0 0 0 0 0 0 0 0 0 0 0 0.14 0"/>
<feBlend mode="normal" in2="BackgroundImageFix" result="effect1_dropShadow_2029_2766"/>
<feBlend mode="normal" in="SourceGraphic" in2="effect1_dropShadow_2029_2766" result="shape"/>
</filter>
</defs>
</svg>
