<svg width="30" height="30" viewBox="0 0 30 30" fill="none" xmlns="http://www.w3.org/2000/svg">
<rect opacity="0.5" x="0.5" y="0.5" width="29" height="29" rx="14.5" fill="white" stroke="#EEEEEE"/>
<g filter="url(#filter0_d_2657_4076)">
<path d="M22.9453 14.2153V10.1442C22.9453 8.41054 21.5259 7.00007 19.7812 7.00007H16.459C16.2648 7.00007 16.1074 7.15647 16.1074 7.34942C16.1074 7.54237 16.2648 7.69877 16.459 7.69877H19.7812C21.1382 7.69877 22.2422 8.79581 22.2422 10.1442V13.8475C21.9774 13.7571 21.6938 13.7072 21.3984 13.7072H21.3281V11.7043C21.3281 10.9594 20.7183 10.3534 19.9687 10.3534H16.0078C15.6085 10.3534 15.2489 10.5254 15 10.7987C14.7511 10.5254 14.3915 10.3534 13.9922 10.3534H10.0313C9.2817 10.3534 8.67188 10.9594 8.67188 11.7042V13.7072H8.60156C8.30625 13.7072 8.02261 13.757 7.75781 13.8475V10.1442C7.75781 8.79581 8.86179 7.69877 10.2188 7.69877H13.6113C13.8055 7.69877 13.9629 7.54237 13.9629 7.34942C13.9629 7.15647 13.8055 7.00007 13.6113 7.00007H10.2188C8.47409 7.00007 7.05469 8.41054 7.05469 10.1442V14.2153C6.41527 14.6868 6 15.4423 6 16.2924V20.7641C6 20.9571 6.15739 21.1135 6.35156 21.1135H7.05469V22.6506C7.05469 22.8436 7.21208 23 7.40625 23H9.30511C9.49928 23 9.65667 22.8436 9.65667 22.6506V21.1135H20.3433V22.6506C20.3433 22.8436 20.5007 23 20.6949 23H22.5938C22.7879 23 22.9453 22.8436 22.9453 22.6506V21.1135H23.6484C23.8426 21.1135 24 20.9571 24 20.7641V16.2924C24 15.4422 23.5847 14.6868 22.9453 14.2153ZM15.3516 11.7042C15.3516 11.3446 15.646 11.0521 16.0078 11.0521H19.9688C20.3306 11.0521 20.625 11.3446 20.625 11.7042V13.7072H15.3516V11.7042ZM9.375 11.7042C9.375 11.3446 9.6694 11.0521 10.0313 11.0521H13.9922C14.3541 11.0521 14.6485 11.3446 14.6485 11.7042V13.7072H9.375V11.7042ZM8.95355 22.3013H7.75781V21.1135H8.95355V22.3013ZM22.2422 22.3013H21.0465V21.1135H22.2422V22.3013ZM23.2969 18.7379H9.2316C9.03743 18.7379 8.88004 18.8943 8.88004 19.0872C8.88004 19.2802 9.03743 19.4366 9.2316 19.4366H23.2969V20.4148H22.6023C22.5994 20.4147 22.5966 20.4143 22.5938 20.4143H20.6949C20.692 20.4143 20.6892 20.4147 20.6864 20.4148H9.31362C9.31077 20.4147 9.30799 20.4143 9.30511 20.4143H7.40625C7.40337 20.4143 7.40059 20.4147 7.39774 20.4148H6.70312V16.2924C6.70312 15.2522 7.55475 14.4059 8.60156 14.4059H21.3984C22.4452 14.4059 23.2969 15.2522 23.2969 16.2924V18.7379Z" fill="#218E7B"/>
<path d="M15.2486 7.10236C15.1832 7.03738 15.0925 7 15 7C14.9075 7 14.8168 7.03738 14.7514 7.10236C14.6861 7.16734 14.6484 7.25747 14.6484 7.34935C14.6484 7.44123 14.6861 7.53136 14.7514 7.59634C14.8168 7.66132 14.9075 7.6987 15 7.6987C15.0925 7.6987 15.1832 7.66132 15.2486 7.59634C15.3139 7.53136 15.3516 7.44158 15.3516 7.34935C15.3516 7.25747 15.3139 7.1673 15.2486 7.10236Z" fill="#218E7B"/>
<path d="M8.07949 18.8402C8.0141 18.7752 7.9234 18.7378 7.83094 18.7378C7.73813 18.7378 7.64777 18.7752 7.58238 18.8402C7.51699 18.9052 7.47938 18.9953 7.47938 19.0872C7.47938 19.1791 7.51699 19.2692 7.58238 19.3342C7.64777 19.3992 7.73848 19.4365 7.83094 19.4365C7.9234 19.4365 8.0141 19.3992 8.07949 19.3342C8.14488 19.2692 8.1825 19.1791 8.1825 19.0872C8.1825 18.9953 8.14488 18.9052 8.07949 18.8402Z" fill="#218E7B"/>
</g>
<defs>
<filter id="filter0_d_2657_4076" x="4" y="6" width="22" height="20" filterUnits="userSpaceOnUse" color-interpolation-filters="sRGB">
<feFlood flood-opacity="0" result="BackgroundImageFix"/>
<feColorMatrix in="SourceAlpha" type="matrix" values="0 0 0 0 0 0 0 0 0 0 0 0 0 0 0 0 0 0 127 0" result="hardAlpha"/>
<feOffset dy="1"/>
<feGaussianBlur stdDeviation="1"/>
<feComposite in2="hardAlpha" operator="out"/>
<feColorMatrix type="matrix" values="0 0 0 0 0.152211 0 0 0 0 0.7625 0 0 0 0 0.656119 0 0 0 0.25 0"/>
<feBlend mode="normal" in2="BackgroundImageFix" result="effect1_dropShadow_2657_4076"/>
<feBlend mode="normal" in="SourceGraphic" in2="effect1_dropShadow_2657_4076" result="shape"/>
</filter>
</defs>
</svg>
