<svg width="60" height="60" viewBox="0 0 60 60" fill="none" xmlns="http://www.w3.org/2000/svg">
<rect width="60" height="60" rx="10" fill="#F4FFFE"/>
<g filter="url(#filter0_d_1860_6692)">
<path d="M31.9687 39.8438C31.5375 39.8438 31.1875 40.1937 31.1875 40.625C31.1875 41.0562 31.5375 41.4062 31.9687 41.4062C32.4 41.4062 32.75 41.0562 32.75 40.625C32.75 40.1937 32.4 39.8438 31.9687 39.8438Z" fill="#2B65F0"/>
<path d="M42.9486 42.9699L42.3083 41.0491C44.2088 39.0162 45.25 36.3879 45.25 33.5938C45.25 28.6732 41.964 24.3713 37.3428 23.0264L39.2578 19.7094C39.4735 19.3357 39.3454 18.858 38.9718 18.6422L38.2952 18.2516L39.0765 16.8985L39.753 17.2891C40.1258 17.5043 40.604 17.3777 40.8202 17.0032L42.3827 14.2969C42.5983 13.9235 42.4703 13.4454 42.0968 13.2297L36.6843 10.1047C36.3108 9.88911 35.8328 10.0171 35.6171 10.3907L34.0546 13.0969C33.839 13.4704 33.9669 13.9484 34.3405 14.1641L35.0171 14.5547L34.2358 15.9079L33.5593 15.5172C33.1859 15.3016 32.7077 15.4296 32.4921 15.8032L26.6327 25.9523L25.9562 25.5617C25.5829 25.346 25.1047 25.474 24.889 25.8476L23.3265 28.5539C23.1107 28.9276 23.2387 29.4053 23.6124 29.6211L31.7312 34.3086C32.1022 34.523 32.5813 34.3985 32.7983 34.0227L34.3608 31.3164C34.5766 30.9427 34.4486 30.4649 34.0749 30.2492L33.3983 29.8585L33.9753 28.8592C36.6992 28.664 39 30.8515 39 33.5938C39 34.4299 38.7844 35.2281 38.3734 35.9362C37.3593 35.4243 36.2393 35.1563 35.0937 35.1563C33.4574 35.1563 31.8687 35.7094 30.5865 36.7188H22.9625C21.4737 36.7188 20.1348 37.5461 19.4683 38.8782L18.7698 40.2759C18.6488 40.5181 18.6618 40.8056 18.8041 41.0359C18.9465 41.2662 19.198 41.4063 19.4687 41.4063H27.76L27.2391 42.9688H16.3437V42.9688C15.0514 42.9688 14 44.0202 14 45.3125V49.2188C14 49.6502 14.3498 50 14.7812 50H44.4687C44.9002 50 45.25 49.6502 45.25 49.2188V45.3125C45.25 44.0344 44.2214 42.9926 42.9486 42.9699ZM36.5797 11.8485L40.639 14.1922L39.8578 15.5453C38.9541 15.0236 36.8527 13.8102 35.7984 13.2015L36.5797 11.8485ZM36.3704 15.336L37.7234 16.1172L36.9422 17.4704L35.5891 16.6891L36.3704 15.336ZM31.8359 32.5649L25.0703 28.6586L25.8515 27.3055C26.5697 27.7201 30.9911 30.2729 31.9404 30.821C31.9404 30.8211 31.9405 30.8211 31.9407 30.8212C31.9408 30.8212 31.9408 30.8213 31.9409 30.8213L32.6172 31.2117L31.8359 32.5649ZM32.0452 29.0773L27.9858 26.7335L33.4547 17.261C35.0446 18.1789 35.9774 18.7175 36.4936 19.0156C36.3756 18.9474 36.2831 18.894 36.2724 18.8879C36.292 18.8992 36.5973 19.0754 37.514 19.6047C36.7066 21.0033 32.7296 27.8919 32.0452 29.0773ZM34.8694 27.3108L36.5347 24.4263C40.7106 25.4425 43.6875 29.2135 43.6875 33.5938C43.6875 35.7143 42.9872 37.7236 41.6954 39.3661C41.2295 38.3681 40.5404 37.4842 39.6858 36.7885C40.2613 35.8264 40.5625 34.7363 40.5625 33.5938C40.5625 30.3043 38.0556 27.5963 34.8694 27.3108ZM35.0937 36.7188C37.5854 36.7188 39.7526 38.3233 40.522 40.631L41.3012 42.9688H28.8863L29.6654 40.6314C30.4511 38.2747 32.6554 36.7188 35.0937 36.7188ZM20.7326 39.8438C20.7866 39.7805 21.2841 38.2735 22.9626 38.2735H29.1148C28.778 38.7577 28.5001 39.2907 28.2889 39.8438H20.7326ZM43.6875 48.4375H15.5625V45.3125C15.5625 44.8817 15.913 44.5313 16.3437 44.5313C16.9867 44.5313 41.5779 44.5313 42.9062 44.5313C43.3371 44.5313 43.6875 44.8817 43.6875 45.3125V48.4375Z" fill="#2B65F0"/>
<path d="M36.5889 19.0706C36.6361 19.0978 36.6793 19.1227 36.7184 19.1453C36.6754 19.1205 36.6315 19.0952 36.5889 19.0706Z" fill="#2B65F0"/>
<path d="M36.5837 19.0676C36.5854 19.0686 36.587 19.0695 36.5887 19.0705C36.587 19.0695 36.5854 19.0686 36.5837 19.0676Z" fill="#2B65F0"/>
<path d="M36.4937 19.0154C36.4961 19.0168 36.4985 19.0182 36.5009 19.0196C36.4985 19.0182 36.4961 19.0167 36.4937 19.0154Z" fill="#2B65F0"/>
<path d="M36.5012 19.02C36.5299 19.0366 36.5575 19.0525 36.5836 19.0676C36.5554 19.0513 36.5277 19.0353 36.5012 19.02Z" fill="#2B65F0"/>
<path d="M36.7183 19.1453C36.7255 19.1495 36.7328 19.1536 36.74 19.1578C36.7327 19.1536 36.7258 19.1496 36.7183 19.1453Z" fill="#2B65F0"/>
<path d="M37.0427 19.3325C37.0453 19.334 37.0474 19.3353 37.0492 19.3363C37.0475 19.3353 37.0453 19.334 37.0427 19.3325Z" fill="#2B65F0"/>
<path d="M37.0229 19.321C37.0312 19.3258 37.0376 19.3296 37.0426 19.3324C37.0375 19.3294 37.031 19.3257 37.0229 19.321Z" fill="#2B65F0"/>
<path d="M37.0496 19.3364C37.0567 19.3406 37.0562 19.3403 37.0496 19.3364V19.3364Z" fill="#2B65F0"/>
<path d="M36.9138 19.2581C36.9196 19.2614 36.9253 19.2647 36.9307 19.2678C36.9252 19.2646 36.9196 19.2613 36.9138 19.2581Z" fill="#2B65F0"/>
<path d="M36.9304 19.2676C36.969 19.2898 37.001 19.3084 37.0229 19.321C37.0028 19.3094 36.9726 19.292 36.9304 19.2676Z" fill="#2B65F0"/>
<path d="M36.8884 19.2434C36.8971 19.2484 36.9055 19.2533 36.9137 19.258C36.9057 19.2533 36.8973 19.2485 36.8884 19.2434Z" fill="#2B65F0"/>
<path d="M36.74 19.1577C36.7984 19.1915 36.8476 19.2198 36.8884 19.2433C36.8435 19.2175 36.7928 19.1882 36.74 19.1577Z" fill="#2B65F0"/>
<path d="M38.2187 39.8438H35.0937C34.6623 39.8438 34.3125 40.1936 34.3125 40.625C34.3125 41.0564 34.6623 41.4062 35.0937 41.4062H38.2187C38.6502 41.4062 39 41.0564 39 40.625C39 40.1936 38.6502 39.8438 38.2187 39.8438Z" fill="#2B65F0"/>
</g>
<defs>
<filter id="filter0_d_1860_6692" x="10" y="8" width="39.25" height="48" filterUnits="userSpaceOnUse" color-interpolation-filters="sRGB">
<feFlood flood-opacity="0" result="BackgroundImageFix"/>
<feColorMatrix in="SourceAlpha" type="matrix" values="0 0 0 0 0 0 0 0 0 0 0 0 0 0 0 0 0 0 127 0" result="hardAlpha"/>
<feOffset dy="2"/>
<feGaussianBlur stdDeviation="2"/>
<feComposite in2="hardAlpha" operator="out"/>
<feColorMatrix type="matrix" values="0 0 0 0 0.0588235 0 0 0 0 0.686275 0 0 0 0 0.686275 0 0 0 0.18 0"/>
<feBlend mode="normal" in2="BackgroundImageFix" result="effect1_dropShadow_1860_6692"/>
<feBlend mode="normal" in="SourceGraphic" in2="effect1_dropShadow_1860_6692" result="shape"/>
</filter>
</defs>
</svg>
