<svg width="60" height="60" viewBox="0 0 60 60" fill="none" xmlns="http://www.w3.org/2000/svg">
<circle cx="30" cy="30" r="30" fill="#F6FAFF"/>
<g filter="url(#filter0_d_1727_11321)">
<path d="M29.0813 30.1415C29.1949 30.2551 29.3389 30.313 29.4918 30.313H29.5076C29.6617 30.313 29.8132 30.2463 29.918 30.1415L31.7354 28.3241C31.9641 28.0954 31.9641 27.7319 31.7354 27.5032C31.5067 27.2745 31.1431 27.2745 30.9144 27.5032L29.4997 28.918L28.0849 27.5032C27.8562 27.2745 27.4926 27.2745 27.2639 27.5032C27.0352 27.7319 27.0352 28.0954 27.2639 28.3241L29.0813 30.1415Z" fill="#66C7F0" stroke="#66C7F0" stroke-width="0.2"/>
<path d="M28.9093 29.7309C28.9093 30.0558 29.1764 30.3129 29.4913 30.3129C29.8162 30.3129 30.0733 30.0458 30.0733 29.7309V24.6343C30.0733 24.3105 29.8152 24.0523 29.4913 24.0523C29.1663 24.0523 28.9093 24.3194 28.9093 24.6343V29.7309Z" fill="#66C7F0" stroke="#66C7F0" stroke-width="0.2"/>
<path d="M17.1182 29.5696H19.6942C20.018 29.5696 20.2762 29.3115 20.2762 28.9876C20.2762 28.6627 20.0091 28.4056 19.6942 28.4056H17.7002V26.4117C17.7002 26.0878 17.4421 25.8297 17.1182 25.8297C16.7933 25.8297 16.5362 26.0968 16.5362 26.4117V28.9876C16.5362 29.3126 16.8033 29.5696 17.1182 29.5696Z" fill="#66C7F0" stroke="#66C7F0" stroke-width="0.2"/>
<path d="M16.7077 29.398C16.822 29.5122 16.9741 29.5695 17.1182 29.5695C17.2711 29.5695 17.4151 29.5116 17.5287 29.398L21.1318 25.7948C21.3605 25.5661 21.3605 25.2026 21.1318 24.9739C20.9032 24.7452 20.5396 24.7452 20.3109 24.9739L16.7077 28.577C16.4791 28.8057 16.4791 29.1693 16.7077 29.398Z" fill="#66C7F0" stroke="#66C7F0" stroke-width="0.2"/>
<path d="M39.2769 29.5696H41.8528C42.1778 29.5696 42.4348 29.3025 42.4348 28.9876V26.4117C42.4348 26.0878 42.1767 25.8297 41.8528 25.8297C41.5279 25.8297 41.2708 26.0968 41.2708 26.4117V28.4056H39.2769C38.953 28.4056 38.6949 28.6637 38.6949 28.9876C38.6949 29.3115 38.953 29.5696 39.2769 29.5696Z" fill="#66C7F0" stroke="#66C7F0" stroke-width="0.2"/>
<path d="M41.4437 29.398C41.5579 29.5122 41.7101 29.5695 41.8542 29.5695C42.0071 29.5695 42.151 29.5116 42.2647 29.398C42.4933 29.1693 42.4933 28.8057 42.2647 28.577L38.6615 24.9739C38.4328 24.7452 38.0693 24.7452 37.8406 24.9739C37.6119 25.2026 37.6119 25.5661 37.8406 25.7948L41.4437 29.398Z" fill="#66C7F0" stroke="#66C7F0" stroke-width="0.2"/>
<path d="M33.8983 23.0243C33.8983 23.3429 34.148 23.5979 34.4645 23.6061V23.6063H34.4803V23.6061C34.7977 23.5976 35.0465 23.3341 35.0465 23.0243V19.919C35.0465 18.378 33.7926 17.1324 32.2599 17.1324H26.7051C25.1642 17.1324 23.9186 18.3863 23.9186 19.919V23.0243C23.9186 23.3482 24.1767 23.6063 24.5006 23.6063C24.8255 23.6063 25.0826 23.3392 25.0826 23.0243V19.919C25.0826 19.0181 25.8121 18.2885 26.713 18.2885H32.2678C33.1687 18.2885 33.8983 19.0181 33.8983 19.919V23.0243Z" fill="#66C7F0" stroke="#66C7F0" stroke-width="0.2"/>
<path d="M27.0465 14.339C27.0465 15.6901 28.1422 16.7857 29.4933 16.7857C30.8444 16.7857 31.94 15.6901 31.94 14.339C31.94 12.9879 30.8444 11.8922 29.4933 11.8922C28.1422 11.8922 27.0465 12.9879 27.0465 14.339ZM28.2105 14.339C28.2105 13.6353 28.7824 13.0562 29.4933 13.0562C30.1966 13.0562 30.776 13.6356 30.776 14.339C30.776 15.0423 30.1966 15.6218 29.4933 15.6218C28.7899 15.6218 28.2105 15.0423 28.2105 14.339Z" fill="#66C7F0" stroke="#66C7F0" stroke-width="0.2"/>
<path d="M25.9962 23.023C25.9962 23.3479 26.2633 23.605 26.5782 23.605C26.9031 23.605 27.1602 23.3379 27.1602 23.023V20.2574C27.1602 19.9335 26.9021 19.6754 26.5782 19.6754C26.2532 19.6754 25.9962 19.9425 25.9962 20.2574V23.023Z" fill="#66C7F0" stroke="#66C7F0" stroke-width="0.2"/>
<path d="M31.837 23.023C31.837 23.3468 32.0951 23.605 32.419 23.605C32.744 23.605 33.001 23.3379 33.001 23.023V20.2574C33.001 19.9335 32.7429 19.6754 32.419 19.6754C32.0941 19.6754 31.837 19.9425 31.837 20.2574V23.023Z" fill="#66C7F0" stroke="#66C7F0" stroke-width="0.2"/>
<path d="M23.3301 23.555H35.6646C35.9608 23.555 36.1966 23.3193 36.1966 23.023C36.1966 22.7262 35.9524 22.491 35.6646 22.491H23.3301C23.0339 22.491 22.7981 22.7267 22.7981 23.023C22.7981 23.3198 23.0423 23.555 23.3301 23.555Z" fill="#66C7F0" stroke="#66C7F0" stroke-width="0.1"/>
<path d="M33.8983 42.7626C33.8983 43.0812 34.148 43.3361 34.4645 43.3444V43.3446H34.4803V43.3444C34.7967 43.3361 35.0465 43.0812 35.0465 42.7626V39.6573C35.0465 38.1244 33.7928 36.8707 32.2599 36.8707H26.7051C25.1642 36.8707 23.9186 38.1246 23.9186 39.6573V42.7626C23.9186 43.0865 24.1767 43.3446 24.5006 43.3446C24.8244 43.3446 25.0826 43.0865 25.0826 42.7626V39.6573C25.0826 38.7564 25.8121 38.0268 26.713 38.0268H32.2678C33.1687 38.0268 33.8983 38.7564 33.8983 39.6573V42.7626Z" fill="#66C7F0" stroke="#66C7F0" stroke-width="0.2"/>
<path d="M27.0465 34.0773C27.0465 35.4283 28.1422 36.524 29.4933 36.524C30.8444 36.524 31.94 35.4283 31.94 34.0773C31.94 32.7262 30.8444 31.6305 29.4933 31.6305C28.1422 31.6305 27.0465 32.7262 27.0465 34.0773ZM28.2105 34.0773C28.2105 33.3736 28.7824 32.7945 29.4933 32.7945C30.1966 32.7945 30.776 33.3739 30.776 34.0773C30.776 34.7806 30.1966 35.36 29.4933 35.36C28.7899 35.36 28.2105 34.7806 28.2105 34.0773Z" fill="#66C7F0" stroke="#66C7F0" stroke-width="0.2"/>
<path d="M25.9962 42.7612C25.9962 43.0862 26.2633 43.3432 26.5782 43.3432C26.9021 43.3432 27.1602 43.0851 27.1602 42.7612V39.9957C27.1602 39.6718 26.9021 39.4137 26.5782 39.4137C26.2532 39.4137 25.9962 39.6808 25.9962 39.9957V42.7612Z" fill="#66C7F0" stroke="#66C7F0" stroke-width="0.2"/>
<path d="M31.837 42.7612C31.837 43.0851 32.0951 43.3432 32.419 43.3432C32.7429 43.3432 33.001 43.0851 33.001 42.7612V39.9957C33.001 39.6718 32.7429 39.4137 32.419 39.4137C32.0941 39.4137 31.837 39.6808 31.837 39.9957V42.7612Z" fill="#66C7F0" stroke="#66C7F0" stroke-width="0.2"/>
<path d="M23.3301 43.2933H35.6646C35.9608 43.2933 36.1966 43.0576 36.1966 42.7613C36.1966 42.4645 35.9524 42.2293 35.6646 42.2293H23.3301C23.0339 42.2293 22.7981 42.465 22.7981 42.7613C22.7981 43.0581 23.0423 43.2933 23.3301 43.2933Z" fill="#66C7F0" stroke="#66C7F0" stroke-width="0.1"/>
<path d="M49.7528 42.7626C49.7528 43.0821 50.011 43.3359 50.319 43.3444V43.3446H50.3348V43.3444C50.6512 43.3361 50.901 43.0812 50.901 42.7626V39.6573C50.901 38.1244 49.6473 36.8707 48.1144 36.8707H42.5596C41.0187 36.8707 39.773 38.1246 39.773 39.6573V42.7626C39.773 43.0865 40.0312 43.3446 40.355 43.3446C40.6789 43.3446 40.937 43.0865 40.937 42.7626V39.6573C40.937 38.7564 41.6666 38.0268 42.5675 38.0268H48.1223C49.0232 38.0268 49.7528 38.7564 49.7528 39.6573V42.7626Z" fill="#66C7F0" stroke="#66C7F0" stroke-width="0.2"/>
<path d="M42.901 34.0773C42.901 35.4283 43.9967 36.524 45.3478 36.524C46.6989 36.524 47.7945 35.4283 47.7945 34.0773C47.7945 32.7262 46.6989 31.6305 45.3478 31.6305C43.9967 31.6305 42.901 32.7262 42.901 34.0773ZM44.065 34.0773C44.065 33.3736 44.6369 32.7945 45.3478 32.7945C46.0511 32.7945 46.6305 33.3739 46.6305 34.0773C46.6305 34.7806 46.0511 35.36 45.3478 35.36C44.6444 35.36 44.065 34.7806 44.065 34.0773Z" fill="#66C7F0" stroke="#66C7F0" stroke-width="0.2"/>
<path d="M41.8448 42.7612C41.8448 43.0862 42.1119 43.3432 42.4268 43.3432C42.7507 43.3432 43.0088 43.0851 43.0088 42.7612V39.9957C43.0088 39.6718 42.7507 39.4137 42.4268 39.4137C42.1019 39.4137 41.8448 39.6808 41.8448 39.9957V42.7612Z" fill="#66C7F0" stroke="#66C7F0" stroke-width="0.2"/>
<path d="M47.6856 42.7612C47.6856 43.0862 47.9527 43.3432 48.2676 43.3432C48.5915 43.3432 48.8496 43.0851 48.8496 42.7612V39.9957C48.8496 39.6718 48.5915 39.4137 48.2676 39.4137C47.9427 39.4137 47.6856 39.6808 47.6856 39.9957V42.7612Z" fill="#66C7F0" stroke="#66C7F0" stroke-width="0.2"/>
<path d="M51.5186 43.2433H39.1841C38.9234 43.2433 38.7021 43.03 38.7021 42.7613C38.7021 42.4926 38.9155 42.2793 39.1841 42.2793H51.5186C51.7793 42.2793 52.0006 42.4926 52.0006 42.7613C52.0006 43.03 51.7872 43.2433 51.5186 43.2433Z" fill="#66C7F0"/>
<path d="M51.5186 43.2433H39.1841C38.9234 43.2433 38.7021 43.03 38.7021 42.7613C38.7021 42.4926 38.9155 42.2793 39.1841 42.2793H51.5186C51.7793 42.2793 52.0006 42.4926 52.0006 42.7613C52.0006 43.03 51.7872 43.2433 51.5186 43.2433Z" stroke="#66C7F0"/>
<path d="M18.0471 42.7626C18.0471 43.0848 18.3098 43.3403 18.6212 43.3445V43.3446H18.6291V43.3445C18.9493 43.3404 19.2032 43.0838 19.2032 42.7626V39.6573C19.2032 38.1244 17.9495 36.8707 16.4167 36.8707H10.8618C9.32092 36.8707 8.07529 38.1246 8.07529 39.6573V42.7626C8.07529 43.0865 8.33341 43.3446 8.65729 43.3446C8.98117 43.3446 9.23929 43.0865 9.23929 42.7626V39.6573C9.23929 38.7564 9.96888 38.0268 10.8697 38.0268H16.4167C17.3175 38.0268 18.0471 38.7564 18.0471 39.6573V42.7626Z" fill="#66C7F0" stroke="#66C7F0" stroke-width="0.2"/>
<path d="M11.1974 34.0773C11.1974 35.4283 12.293 36.524 13.6441 36.524C14.9952 36.524 16.0909 35.4283 16.0909 34.0773C16.0909 32.7262 14.9952 31.6305 13.6441 31.6305C12.293 31.6305 11.1974 32.7262 11.1974 34.0773ZM12.3614 34.0773C12.3614 33.3736 12.9333 32.7945 13.6441 32.7945C14.3475 32.7945 14.9269 33.3739 14.9269 34.0773C14.9269 34.7806 14.3475 35.36 13.6441 35.36C12.9408 35.36 12.3614 34.7806 12.3614 34.0773Z" fill="#66C7F0" stroke="#66C7F0" stroke-width="0.2"/>
<path d="M10.1397 42.7612C10.1397 43.0851 10.3979 43.3432 10.7217 43.3432C11.0456 43.3432 11.3037 43.0851 11.3037 42.7612V39.9957C11.3037 39.6718 11.0456 39.4137 10.7217 39.4137C10.3968 39.4137 10.1397 39.6808 10.1397 39.9957V42.7612Z" fill="#66C7F0" stroke="#66C7F0" stroke-width="0.2"/>
<path d="M15.9806 42.7612C15.9806 43.0862 16.2477 43.3432 16.5626 43.3432C16.8864 43.3432 17.1446 43.0851 17.1446 42.7612V39.9957C17.1446 39.6718 16.8864 39.4137 16.5626 39.4137C16.2376 39.4137 15.9806 39.6808 15.9806 39.9957V42.7612Z" fill="#66C7F0" stroke="#66C7F0" stroke-width="0.2"/>
<path d="M7.482 43.2933H19.8085H19.8164C20.1127 43.2933 20.3484 43.0576 20.3484 42.7613C20.3484 42.4645 20.1042 42.2293 19.8164 42.2293H7.482C7.18573 42.2293 6.95 42.465 6.95 42.7613C6.95 43.0576 7.18573 43.2933 7.482 43.2933Z" fill="#66C7F0" stroke="#66C7F0" stroke-width="0.1"/>
</g>
<defs>
<filter id="filter0_d_1727_11321" x="2.8999" y="11.793" width="53.1006" height="39.6523" filterUnits="userSpaceOnUse" color-interpolation-filters="sRGB">
<feFlood flood-opacity="0" result="BackgroundImageFix"/>
<feColorMatrix in="SourceAlpha" type="matrix" values="0 0 0 0 0 0 0 0 0 0 0 0 0 0 0 0 0 0 127 0" result="hardAlpha"/>
<feOffset dy="4"/>
<feGaussianBlur stdDeviation="2"/>
<feComposite in2="hardAlpha" operator="out"/>
<feColorMatrix type="matrix" values="0 0 0 0 0 0 0 0 0 0 0 0 0 0 0 0 0 0 0.15 0"/>
<feBlend mode="normal" in2="BackgroundImageFix" result="effect1_dropShadow_1727_11321"/>
<feBlend mode="normal" in="SourceGraphic" in2="effect1_dropShadow_1727_11321" result="shape"/>
</filter>
</defs>
</svg>
