<svg width="52" height="53" viewBox="0 0 52 53" fill="none" xmlns="http://www.w3.org/2000/svg">
<g filter="url(#filter0_d_910_16609)">
<path d="M42.4622 26.9612C44.7495 24.2777 46.0001 20.8968 46.0001 17.3435C46.0001 9.15871 39.3414 2.5 31.1567 2.5C22.9719 2.5 16.3132 9.15871 16.3132 17.3435C16.3132 17.4639 16.3147 17.584 16.3176 17.7039C16.328 18.1352 16.6885 18.4768 17.1175 18.466C17.5488 18.4555 17.89 18.0974 17.8796 17.666C17.877 17.5589 17.8757 17.4513 17.8757 17.3435C17.8757 10.0203 23.8335 4.06247 31.1567 4.06247C38.4798 4.06247 44.4377 10.0203 44.4377 17.3435C44.4377 20.6111 43.256 23.7156 41.0998 26.1473C40.5917 25.9044 40.056 25.7103 39.499 25.5704C41.6367 23.3954 42.8752 20.427 42.8752 17.3435C42.8752 15.5068 42.4612 13.7469 41.6448 12.1128C41.452 11.7268 40.9827 11.5702 40.5968 11.7631C40.2108 11.9559 40.0542 12.4252 40.247 12.8111C40.9541 14.2264 41.3127 15.7513 41.3127 17.3435C41.3127 20.181 40.1022 22.9053 38.034 24.814C37.6462 22.9892 36.5409 21.383 34.9533 20.361C35.3067 19.7321 35.5092 19.0076 35.5092 18.2363V16.4506C35.5092 14.0506 33.5566 12.098 31.1566 12.098C28.7566 12.098 26.804 14.0506 26.804 16.4506V18.2363C26.804 19.0073 27.0064 19.7315 27.3595 20.3603C25.7624 21.3847 24.6634 22.9827 24.2779 24.8082C22.2642 22.9511 21.0005 20.2922 21.0005 17.3435C21.0005 11.7433 25.5565 7.18741 31.1566 7.18741C32.7491 7.18741 34.2742 7.546 35.6892 8.25325C36.0752 8.44591 36.5444 8.28958 36.7374 7.90365C36.9302 7.51772 36.7737 7.04843 36.3877 6.85554C34.7538 6.039 32.9938 5.62494 31.1566 5.62494C24.695 5.62494 19.4381 10.8819 19.4381 17.3435C19.4381 23.528 24.2539 28.6082 30.3324 29.0326C30.0109 29.4979 29.734 29.9961 29.5081 30.5213C25.4108 30.0125 21.7595 27.6071 19.6667 24.0071C19.4499 23.6341 18.9717 23.5076 18.5987 23.7243C18.2257 23.9411 18.0991 24.4193 18.3159 24.7923C18.569 25.2277 18.8436 25.6465 19.136 26.0497L17.804 27.3817C17.4929 27.2334 17.1496 27.155 16.7938 27.155C16.1666 27.155 15.578 27.3981 15.1366 27.8396L6.68533 36.2906C5.7716 37.2044 5.77152 38.6913 6.68533 39.6052L8.89498 41.8148C9.33645 42.2562 9.92503 42.4994 10.5522 42.4994C11.1795 42.4994 11.768 42.2563 12.2094 41.8148L20.6606 33.3636C21.1021 32.9222 21.3452 32.3337 21.3452 31.7064C21.3452 31.3506 21.2668 31.0073 21.1185 30.6961L22.4506 29.3641C24.3746 30.7583 26.624 31.6862 29.0191 32.033C28.8844 32.6361 28.8129 33.2627 28.8129 33.9058C28.8129 38.6443 32.668 42.4994 37.4065 42.4994C42.145 42.4994 46.0001 38.6443 46.0001 33.9058C46.0002 31.0556 44.605 28.5255 42.4622 26.9612V26.9612ZM19.5559 32.2588L11.1047 40.71C10.9584 40.8563 10.7622 40.9369 10.5523 40.9369C10.3424 40.9369 10.1462 40.8563 9.99988 40.71L7.79023 38.5003C7.48563 38.1958 7.48563 37.7001 7.79023 37.3955L16.2414 28.9444C16.3877 28.798 16.5839 28.7174 16.7938 28.7174C17.0037 28.7174 17.1999 28.798 17.3462 28.9444L19.5559 31.154C19.7023 31.3003 19.7828 31.4966 19.7828 31.7064C19.7828 31.9163 19.7023 32.1125 19.5559 32.2588V32.2588ZM20.1083 29.4967L19.0035 28.3919L20.1239 27.2714C20.4737 27.6598 20.843 28.028 21.2294 28.3755L20.1083 29.4967ZM28.3666 16.4506C28.3666 14.9122 29.6182 13.6605 31.1567 13.6605C32.6952 13.6605 33.9468 14.9121 33.9468 16.4506V18.2363C33.9468 19.7747 32.6952 21.0264 31.1567 21.0264C29.6182 21.0264 28.3666 19.7748 28.3666 18.2363V16.4506ZM28.3672 21.5743C29.1232 22.2071 30.0961 22.5889 31.1567 22.5889C32.2172 22.5889 33.19 22.2072 33.9459 21.5746C35.3326 22.4016 36.2798 23.7855 36.5476 25.3551C34.6988 25.5394 33.021 26.3124 31.7041 27.483C31.5216 27.4928 31.3385 27.4996 31.1568 27.4996C29.1501 27.4996 27.2775 26.9145 25.7005 25.9061C25.8193 24.1078 26.8096 22.5006 28.3672 21.5743V21.5743ZM37.4066 40.9369C33.5297 40.9369 30.3755 37.7828 30.3755 33.9058C30.3755 30.0289 33.5297 26.8747 37.4066 26.8747C41.2836 26.8747 44.4378 30.0289 44.4378 33.9058C44.4378 37.7828 41.2836 40.9369 37.4066 40.9369Z" fill="#123F7E"/>
<path d="M41.982 30.3426C41.5393 29.9 40.9508 29.6562 40.3248 29.6562C39.6988 29.6562 39.1103 29.9 38.6678 30.3426L36.5115 32.4989L36.1451 32.1325C35.7024 31.6899 35.1139 31.4461 34.4879 31.4461C33.8619 31.4461 33.2734 31.6899 32.8307 32.1325C31.9171 33.0463 31.9171 34.5331 32.8307 35.4469L34.8542 37.4703C35.2969 37.913 35.8854 38.1567 36.5114 38.1567C37.1374 38.1567 37.7259 37.913 38.1685 37.4703L41.9819 33.657C42.8957 32.7431 42.8957 31.2564 41.982 30.3426ZM40.8771 32.5521L37.0637 36.3654C36.9162 36.513 36.7201 36.5943 36.5115 36.5943C36.3029 36.5943 36.1067 36.513 35.9592 36.3654L33.9357 34.3419C33.6311 34.0375 33.6311 33.5419 33.9357 33.2374C34.0831 33.0898 34.2793 33.0085 34.4879 33.0085C34.6966 33.0085 34.8927 33.0898 35.0402 33.2374L35.9591 34.1562C36.2641 34.4612 36.7588 34.4612 37.0639 34.1562L39.7725 31.4475C40.0769 31.143 40.5726 31.143 40.8771 31.4475C41.1817 31.7521 41.1817 32.2475 40.8771 32.5521Z" fill="#123F7E"/>
<path d="M18.4006 21.1621C18.4006 20.7307 18.0509 20.3809 17.6194 20.3809H17.6188C17.1873 20.3809 16.8379 20.7307 16.8379 21.1621C16.8379 21.5935 17.1879 21.9434 17.6194 21.9434C18.0509 21.9434 18.4006 21.5935 18.4006 21.1621Z" fill="#123F7E"/>
<path d="M39.6721 9.60938C39.6721 9.17797 39.3224 8.82812 38.8909 8.82812H38.8903C38.4588 8.82812 38.1094 9.17797 38.1094 9.60938C38.1094 10.0408 38.4594 10.3906 38.8909 10.3906C39.3224 10.3906 39.6721 10.0408 39.6721 9.60938Z" fill="#123F7E"/>
</g>
<defs>
<filter id="filter0_d_910_16609" x="0" y="0.5" width="52" height="51.999" filterUnits="userSpaceOnUse" color-interpolation-filters="sRGB">
<feFlood flood-opacity="0" result="BackgroundImageFix"/>
<feColorMatrix in="SourceAlpha" type="matrix" values="0 0 0 0 0 0 0 0 0 0 0 0 0 0 0 0 0 0 127 0" result="hardAlpha"/>
<feOffset dy="4"/>
<feGaussianBlur stdDeviation="3"/>
<feComposite in2="hardAlpha" operator="out"/>
<feColorMatrix type="matrix" values="0 0 0 0 0 0 0 0 0 0 0 0 0 0 0 0 0 0 0.14 0"/>
<feBlend mode="normal" in2="BackgroundImageFix" result="effect1_dropShadow_910_16609"/>
<feBlend mode="normal" in="SourceGraphic" in2="effect1_dropShadow_910_16609" result="shape"/>
</filter>
</defs>
</svg>
