<svg width="34" height="35" viewBox="0 0 34 35" fill="none" xmlns="http://www.w3.org/2000/svg">
    <g clip-path="url(#rfmsaagy1a)">
        <path d="M7.438.5A1.063 1.063 0 0 1 8.5 1.563v1.062h17V1.562a1.062 1.062 0 1 1 2.125 0v1.063h2.125A4.25 4.25 0 0 1 34 6.875V30.25a4.25 4.25 0 0 1-4.25 4.25H4.25A4.25 4.25 0 0 1 0 30.25V6.875a4.25 4.25 0 0 1 4.25-4.25h2.125V1.562A1.063 1.063 0 0 1 7.438.5zM4.25 4.75a2.125 2.125 0 0 0-2.125 2.125V9h29.75V6.875A2.125 2.125 0 0 0 29.75 4.75H4.25zm27.625 6.375H2.125V30.25a2.125 2.125 0 0 0 2.125 2.125h25.5a2.125 2.125 0 0 0 2.125-2.125V11.125z" fill="#123F7E"/>
    </g>
    <defs>
        <clipPath id="rfmsaagy1a">
            <path fill="#fff" transform="translate(0 .5)" d="M0 0h34v34H0z"/>
        </clipPath>
    </defs>
</svg>
