<svg width="30" height="30" viewBox="0 0 30 30" fill="none" xmlns="http://www.w3.org/2000/svg">
<rect opacity="0.5" x="0.5" y="0.5" width="29" height="29" rx="14.5" fill="white" stroke="#EEEEEE"/>
<g filter="url(#filter0_d_2657_4069)">
<path d="M22.6875 17.2784H20.3845L18.5533 19.0443C18.4286 19.1645 18.2307 19.1601 18.1115 19.0344C17.9922 18.9086 17.9966 18.7092 18.1213 18.5889L20.043 16.7356C20.1012 16.6796 20.1786 16.6483 20.259 16.6483H22.375V13.8472H17.2684V16.6407C17.2684 16.8147 17.1285 16.9558 16.9559 16.9558H13.34V19.7493C13.34 19.9233 13.2 20.0644 13.0275 20.0644H9.12403V22.3699H14.2005L16.1347 20.5047C16.2594 20.3844 16.4572 20.3888 16.5765 20.5146C16.6958 20.6404 16.6914 20.8398 16.5667 20.9601L14.542 22.9126C14.4838 22.9687 14.4064 23 14.326 23H8.81157C8.639 23 8.49906 22.8589 8.49906 22.6849V20.0642H8.27341C7.68691 20.0642 7.20978 19.5831 7.20978 18.9918C7.20978 18.5581 7.46653 18.184 7.83469 18.0152V15.6195C7.35041 15.507 7 15.0662 7 14.565C7 14.231 7.14947 13.9211 7.41009 13.7149L15.8111 7.06721C15.8661 7.02366 15.9341 7 16.004 7H18.8074C19.377 7 19.8403 7.46717 19.8403 8.04138C19.8403 8.61559 19.377 9.08276 18.8074 9.08276H17.7387V11.7023H22.6875C22.8601 11.7023 23 11.8434 23 12.0174V16.9633C23 17.1373 22.8601 17.2784 22.6875 17.2784ZM16.1301 13.8472C15.5436 13.8472 15.0665 13.3661 15.0665 12.7748C15.0665 12.341 15.3233 11.9669 15.6915 11.7981V9.86622L13.8103 11.3665V14.8108H16.6434V13.8472H16.1301ZM12.3881 12.5008V14.8108H13.1853V11.865L12.3881 12.5008ZM9.88216 14.4992V17.9193H12.715V16.9557H12.2018C11.6153 16.9557 11.1381 16.4746 11.1381 15.8832C11.1381 15.4496 11.3949 15.0755 11.7631 14.9066V12.9991L9.88216 14.4992ZM8.45966 17.9193H9.25716V14.9978L8.45963 15.6337L8.45966 17.9193ZM12.1988 15.4411C11.9583 15.4428 11.7631 15.6404 11.7631 15.8833C11.7631 16.1271 11.9599 16.3256 12.2018 16.3256H16.6433V15.441L12.1988 15.4411ZM8.27338 19.4341H12.7149V18.5495H8.27338C8.03153 18.5495 7.83475 18.7479 7.83475 18.9918C7.83475 19.2357 8.03153 19.4341 8.27338 19.4341ZM19.2153 8.04138C19.2153 7.81465 19.0323 7.63017 18.8074 7.63017H16.112L7.79594 14.2106C7.68728 14.2966 7.62497 14.4258 7.62497 14.5651C7.62497 14.9346 8.06028 15.1487 8.349 14.9184L16.3715 8.52053C16.4263 8.47676 16.4954 8.45257 16.5653 8.45257H18.8074C19.0323 8.4526 19.2153 8.26812 19.2153 8.04138ZM17.1137 9.08276H16.674L16.3165 9.36785V11.7023H17.1137V9.08276ZM16.1292 12.3325C15.8878 12.333 15.6915 12.5312 15.6915 12.7748C15.6915 13.0186 15.8883 13.217 16.1301 13.217L22.375 13.217V12.3325L16.1292 12.3325Z" fill="#218E7B"/>
<path d="M17.0756 19.5744C17.1501 19.4627 17.2901 19.4095 17.4189 19.4456C17.5501 19.4824 17.6443 19.6042 17.6479 19.7415C17.6553 20.022 17.3026 20.1708 17.11 19.967C17.0102 19.8615 16.9953 19.696 17.0756 19.5744Z" fill="#218E7B"/>
</g>
<defs>
<filter id="filter0_d_2657_4069" x="5" y="6" width="20" height="20" filterUnits="userSpaceOnUse" color-interpolation-filters="sRGB">
<feFlood flood-opacity="0" result="BackgroundImageFix"/>
<feColorMatrix in="SourceAlpha" type="matrix" values="0 0 0 0 0 0 0 0 0 0 0 0 0 0 0 0 0 0 127 0" result="hardAlpha"/>
<feOffset dy="1"/>
<feGaussianBlur stdDeviation="1"/>
<feComposite in2="hardAlpha" operator="out"/>
<feColorMatrix type="matrix" values="0 0 0 0 0.152211 0 0 0 0 0.7625 0 0 0 0 0.656119 0 0 0 0.25 0"/>
<feBlend mode="normal" in2="BackgroundImageFix" result="effect1_dropShadow_2657_4069"/>
<feBlend mode="normal" in="SourceGraphic" in2="effect1_dropShadow_2657_4069" result="shape"/>
</filter>
</defs>
</svg>
