<svg width="60" height="60" viewBox="0 0 60 60" fill="none" xmlns="http://www.w3.org/2000/svg">
<rect width="60" height="60" rx="10" fill="#F4FFFE"/>
<g filter="url(#filter0_d_1860_6693)">
<path d="M50.3331 18.9611V13.3148C50.3331 12.8676 50.0525 12.4588 49.6347 12.2978L45.9739 10.887V10.0311C45.9739 9.46257 45.511 9 44.942 9H16.455C15.8864 9 15.4239 9.46257 15.4239 10.0311V16.1227H10.6984C10.1296 16.1227 9.66699 16.5853 9.66699 17.1541V25.0192C9.66699 25.359 9.94245 25.6345 10.2822 25.6345C10.622 25.6345 10.8975 25.359 10.8975 25.0192V17.3532H36.738V49.7695H18.9225V43.1831C18.9225 42.3899 18.2772 41.7446 17.484 41.7446H10.8975V27.8903C10.8975 27.5505 10.6221 27.2751 10.2823 27.2751C9.94254 27.2751 9.66707 27.5505 9.66707 27.8903V42.3598C9.66707 42.5282 9.73787 42.6855 9.8473 42.7948L17.8723 50.8198C17.9814 50.9289 18.1374 51 18.3073 51H36.9372C37.5059 51 37.9686 50.5373 37.9686 49.9686V45.5556H44.9421C45.5111 45.5556 45.974 45.093 45.974 44.5245V37.2827C45.974 36.943 45.6986 36.6675 45.3588 36.6675C45.019 36.6675 44.7436 36.943 44.7436 37.2827V44.3251H37.9686V17.154C37.9686 16.5853 37.5059 16.1226 36.9372 16.1226H16.6543V10.2305H44.7435V34.4116C44.7435 34.7514 45.0189 35.0269 45.3587 35.0269C45.6985 35.0269 45.9739 34.7514 45.9739 34.4116V29.9194L49.6348 28.5084C50.0524 28.3474 50.3331 27.9387 50.3331 27.4915V21.8453C50.3331 21.398 50.0525 20.9893 49.6347 20.8282L48.5318 20.4032L49.6348 19.9781C50.0525 19.8171 50.3331 19.4083 50.3331 18.9611ZM17.692 43.1831V48.8995L11.7676 42.975H17.484C17.5988 42.975 17.692 43.0684 17.692 43.1831ZM49.1026 21.9418V27.3949L45.9739 28.6007V21.3889L46.8212 21.0624L49.1026 21.9418ZM49.1026 18.8645L45.9739 20.0703V12.2056L49.1026 13.4114V18.8645Z" fill="#2B65F0"/>
<path fill-rule="evenodd" clip-rule="evenodd" d="M49.6346 28.5085L45.9737 29.9194V34.4117C45.9737 34.7515 45.6983 35.0269 45.3585 35.0269C45.0187 35.0269 44.7433 34.7515 44.7433 34.4117V10.2305H16.6541V16.1227H36.937C37.5057 16.1227 37.9684 16.5853 37.9684 17.154V44.3252H44.7434V37.2828C44.7434 36.943 45.0188 36.6675 45.3586 36.6675C45.6984 36.6675 45.9738 36.943 45.9738 37.2828V44.5245C45.9738 45.0931 45.5109 45.5556 44.9419 45.5556H37.9684V49.9687C37.9684 50.5374 37.5057 51 36.937 51H18.3071C18.1372 51 17.9812 50.9289 17.8721 50.8198L9.8471 42.7949C9.73767 42.6855 9.66688 42.5283 9.66688 42.3599V27.8904C9.66688 27.5506 9.94234 27.2751 10.2821 27.2751C10.6219 27.2751 10.8973 27.5506 10.8973 27.8904V41.7446H17.4838C18.277 41.7446 18.9223 42.39 18.9223 43.1831V49.7696H36.7378V17.3532H10.8973V25.0193C10.8973 25.359 10.6218 25.6345 10.282 25.6345C9.94226 25.6345 9.6668 25.359 9.6668 25.0193V17.1541C9.6668 16.5854 10.1295 16.1227 10.6982 16.1227H15.4237V10.0312C15.4237 9.46262 15.8862 9.00005 16.4548 9.00005H44.9418C45.5108 9.00005 45.9737 9.46262 45.9737 10.0312V10.887L49.6346 12.2979C50.0523 12.4589 50.3329 12.8677 50.3329 13.3149V18.9611C50.3329 19.4083 50.0523 19.8171 49.6346 19.9781L48.5316 20.4032L49.6346 20.8283C50.0523 20.9893 50.3329 21.3981 50.3329 21.8453V27.4915C50.3329 27.9388 50.0523 28.3474 49.6346 28.5085ZM49.0878 20.4032L49.7066 20.1647C50.2014 19.974 50.5329 19.4911 50.5329 18.9611V13.3149C50.5329 12.7849 50.2014 12.302 49.7065 12.1113L46.1737 10.7498V10.0312C46.1737 9.35201 45.6211 8.80005 44.9418 8.80005H16.4548C15.7758 8.80005 15.2237 9.35217 15.2237 10.0312V15.9227H10.6982C10.019 15.9227 9.4668 16.4749 9.4668 17.1541V25.0193C9.4668 25.4695 9.8318 25.8345 10.282 25.8345C10.7323 25.8345 11.0973 25.4695 11.0973 25.0193V17.5532H36.5378V49.5696H19.1223V43.1831C19.1223 42.2795 18.3874 41.5446 17.4838 41.5446H11.0973V27.8904C11.0973 27.4401 10.7323 27.0751 10.2821 27.0751C9.83188 27.0751 9.46688 27.4401 9.46688 27.8904V42.3599C9.46688 42.5836 9.56041 42.7911 9.70573 42.9363L17.7307 50.9613C17.8754 51.1059 18.0814 51.2001 18.3071 51.2001H36.937C37.6162 51.2001 38.1684 50.6479 38.1684 49.9687V45.7556H44.9419C45.6212 45.7556 46.1738 45.2037 46.1738 44.5245V37.2828C46.1738 36.8326 45.8088 36.4676 45.3586 36.4676C44.9084 36.4676 44.5434 36.8326 44.5434 37.2828V44.1252H38.1684V17.154C38.1684 16.4749 37.6162 15.9227 36.937 15.9227H16.8541V10.4305H44.5433V34.4117C44.5433 34.8619 44.9083 35.2269 45.3585 35.2269C45.8087 35.2269 46.1737 34.8619 46.1737 34.4117V30.0567L49.7066 28.6951C50.2012 28.5044 50.5329 28.0216 50.5329 27.4915V21.8453C50.5329 21.3153 50.2014 20.8324 49.7065 20.6417L49.0878 20.4032ZM17.4918 48.4167V43.1831C17.4918 43.1789 17.4881 43.1751 17.4838 43.1751H12.2502L17.4918 48.4167ZM17.6918 48.8996V43.1831C17.6918 43.0684 17.5986 42.9751 17.4838 42.9751H11.7674L17.6918 48.8996ZM48.9024 22.0791L46.821 21.2768L46.1737 21.5262V28.3093L48.9024 27.2577V22.0791ZM49.1024 27.395V21.9419L46.821 21.0625L45.9737 21.389V28.6008L49.1024 27.395ZM48.9024 18.7273V13.5487L46.1737 12.4971V19.7789L48.9024 18.7273ZM49.1024 18.8646V13.4114L45.9737 12.2057V20.0703L49.1024 18.8646Z" fill="#2B65F0"/>
<path d="M33.4169 43.1267H21.2871C20.9473 43.1267 20.6719 43.4022 20.6719 43.7419C20.6719 44.0817 20.9473 44.3572 21.2871 44.3572H33.4168C33.7566 44.3572 34.0321 44.0817 34.0321 43.7419C34.0321 43.4022 33.7567 43.1267 33.4169 43.1267Z" fill="#2B65F0"/>
<path fill-rule="evenodd" clip-rule="evenodd" d="M21.2869 42.9268H33.4167C33.867 42.9268 34.2319 43.2918 34.2319 43.742C34.2319 44.1922 33.8669 44.5572 33.4166 44.5572H21.2869C20.8367 44.5572 20.4717 44.1922 20.4717 43.742C20.4717 43.2918 20.8367 42.9268 21.2869 42.9268ZM21.2869 43.1268H33.4167C33.7565 43.1268 34.0319 43.4022 34.0319 43.742C34.0319 44.0818 33.7564 44.3572 33.4166 44.3572H21.2869C20.9471 44.3572 20.6717 44.0818 20.6717 43.742C20.6717 43.4022 20.9471 43.1268 21.2869 43.1268Z" fill="#2B65F0"/>
<path d="M14.2173 35.0271H16.8504C17.1902 35.0271 17.4656 34.7516 17.4656 34.4119C17.4656 34.0721 17.1902 33.7966 16.8504 33.7966H14.2173C13.8775 33.7966 13.6021 34.0721 13.6021 34.4119C13.6021 34.7516 13.8775 35.0271 14.2173 35.0271Z" fill="#2B65F0"/>
<path fill-rule="evenodd" clip-rule="evenodd" d="M16.8507 35.2271H14.2176C13.7673 35.2271 13.4023 34.8621 13.4023 34.4119C13.4023 33.9617 13.7673 33.5967 14.2176 33.5967H16.8507C17.3009 33.5967 17.6659 33.9617 17.6659 34.4119C17.6659 34.8621 17.3009 35.2271 16.8507 35.2271ZM16.8507 35.0271H14.2176C13.8778 35.0271 13.6023 34.7517 13.6023 34.4119C13.6023 34.0721 13.8778 33.7967 14.2176 33.7967H16.8507C17.1905 33.7967 17.4659 34.0721 17.4659 34.4119C17.4659 34.7517 17.1905 35.0271 16.8507 35.0271Z" fill="#2B65F0"/>
<path d="M20.6719 34.4119C20.6719 34.7516 20.9473 35.0271 21.2871 35.0271H33.4168C33.7566 35.0271 34.0321 34.7516 34.0321 34.4119C34.0321 34.0721 33.7566 33.7966 33.4168 33.7966H21.2871C20.9473 33.7966 20.6719 34.0721 20.6719 34.4119Z" fill="#2B65F0"/>
<path fill-rule="evenodd" clip-rule="evenodd" d="M21.2869 35.2271C20.8367 35.2271 20.4717 34.8621 20.4717 34.4119C20.4717 33.9617 20.8367 33.5967 21.2869 33.5967H33.4166C33.8669 33.5967 34.2319 33.9617 34.2319 34.4119C34.2319 34.8621 33.8669 35.2271 33.4166 35.2271H21.2869ZM21.2869 35.0271C20.9471 35.0271 20.6717 34.7517 20.6717 34.4119C20.6717 34.0721 20.9471 33.7967 21.2869 33.7967H33.4166C33.7564 33.7967 34.0319 34.0721 34.0319 34.4119C34.0319 34.7517 33.7564 35.0271 33.4166 35.0271H21.2869Z" fill="#2B65F0"/>
<path d="M14.2173 39.6921H16.8504C17.1902 39.6921 17.4656 39.4167 17.4656 39.0769C17.4656 38.7371 17.1902 38.4617 16.8504 38.4617H14.2173C13.8775 38.4617 13.6021 38.7371 13.6021 39.0769C13.6021 39.4167 13.8775 39.6921 14.2173 39.6921Z" fill="#2B65F0"/>
<path fill-rule="evenodd" clip-rule="evenodd" d="M16.8507 39.8922H14.2176C13.7673 39.8922 13.4023 39.5272 13.4023 39.077C13.4023 38.6267 13.7673 38.2617 14.2176 38.2617H16.8507C17.3009 38.2617 17.6659 38.6267 17.6659 39.077C17.6659 39.5272 17.3009 39.8922 16.8507 39.8922ZM16.8507 39.6922H14.2176C13.8778 39.6922 13.6023 39.4167 13.6023 39.077C13.6023 38.7372 13.8778 38.4617 14.2176 38.4617H16.8507C17.1905 38.4617 17.4659 38.7372 17.4659 39.077C17.4659 39.4167 17.1905 39.6922 16.8507 39.6922Z" fill="#2B65F0"/>
<path d="M33.4169 38.4617H21.2871C20.9473 38.4617 20.6719 38.7371 20.6719 39.0769C20.6719 39.4167 20.9473 39.6921 21.2871 39.6921H33.4168C33.7566 39.6921 34.0321 39.4167 34.0321 39.0769C34.0321 38.7371 33.7567 38.4617 33.4169 38.4617Z" fill="#2B65F0"/>
<path fill-rule="evenodd" clip-rule="evenodd" d="M21.2869 38.2617H33.4167C33.867 38.2617 34.2319 38.6268 34.2319 39.077C34.2319 39.5272 33.8669 39.8922 33.4166 39.8922H21.2869C20.8367 39.8922 20.4717 39.5272 20.4717 39.077C20.4717 38.6267 20.8367 38.2617 21.2869 38.2617ZM21.2869 38.4617H33.4167C33.7565 38.4617 34.0319 38.7372 34.0319 39.077C34.0319 39.4167 33.7564 39.6922 33.4166 39.6922H21.2869C20.9471 39.6922 20.6717 39.4167 20.6717 39.077C20.6717 38.7372 20.9471 38.4617 21.2869 38.4617Z" fill="#2B65F0"/>
<path d="M20.2918 19.677H17.597C17.1063 19.677 16.7072 20.0762 16.7072 20.5668V22.7822H14.4918C14.0012 22.7822 13.6021 23.1814 13.6021 23.672V26.3668C13.6021 26.8574 14.0012 27.2566 14.4918 27.2566H16.7073V29.4721C16.7073 29.9627 17.1064 30.3619 17.5971 30.3619H20.2919C20.7825 30.3619 21.1817 29.9627 21.1817 29.4721V27.2566H23.3971C23.8877 27.2566 24.2869 26.8574 24.2869 26.3668V23.672C24.2869 23.1814 23.8877 22.7822 23.3971 22.7822H21.1817V20.5668C21.1817 20.0762 20.7824 19.677 20.2918 19.677ZM23.0564 24.0127V26.0261H20.7494C20.3092 26.0261 19.9511 26.3842 19.9511 26.8243V29.1313H17.9377V26.8243C17.9377 26.3841 17.5796 26.0261 17.1395 26.0261H14.8325V24.0127H17.1395C17.5797 24.0127 17.9377 23.6546 17.9377 23.2144V20.9074H19.9511V23.2144C19.9511 23.6546 20.3092 24.0127 20.7494 24.0127H23.0564Z" fill="#2B65F0"/>
<path fill-rule="evenodd" clip-rule="evenodd" d="M17.5973 19.4771H20.2921C20.8931 19.4771 21.382 19.9657 21.382 20.5668V22.5823H23.3974C23.9985 22.5823 24.4872 23.071 24.4872 23.6721V26.3669C24.4872 26.9679 23.9985 27.4567 23.3974 27.4567H21.382V29.4722C21.382 30.0732 20.8932 30.5619 20.2922 30.5619H17.5973C16.9963 30.5619 16.5076 30.0732 16.5076 29.4722V27.4567H14.4921C13.8911 27.4567 13.4023 26.9679 13.4023 26.3669V23.6721C13.4023 23.071 13.8911 22.5823 14.4921 22.5823H16.5075V20.5668C16.5075 19.9658 16.9962 19.4771 17.5973 19.4771ZM22.8567 25.8261V24.2127H20.7496C20.199 24.2127 19.7514 23.7651 19.7514 23.2145V21.1074H18.138V23.2145C18.138 23.7651 17.6904 24.2127 17.1398 24.2127H15.0328V25.8261H17.1398C17.6903 25.8261 18.138 26.2737 18.138 26.8244V28.9313H19.7514V26.8244C19.7514 26.2738 20.199 25.8261 20.7496 25.8261H22.8567ZM17.5973 19.6771H20.2921C20.7827 19.6771 21.182 20.0762 21.182 20.5668V22.7823H23.3974C23.888 22.7823 24.2872 23.1814 24.2872 23.6721V26.3669C24.2872 26.8575 23.888 27.2567 23.3974 27.2567H21.182V29.4722C21.182 29.9628 20.7828 30.3619 20.2922 30.3619H17.5973C17.1067 30.3619 16.7076 29.9628 16.7076 29.4722V27.2567H14.4921C14.0015 27.2567 13.6023 26.8575 13.6023 26.3669V23.6721C13.6023 23.1814 14.0015 22.7823 14.4921 22.7823H16.7075V20.5668C16.7075 20.0762 17.1066 19.6771 17.5973 19.6771ZM23.0567 24.0127H20.7496C20.3095 24.0127 19.9514 23.6547 19.9514 23.2145V20.9074H17.938V23.2145C17.938 23.6547 17.58 24.0127 17.1398 24.0127H14.8328V26.0261H17.1398C17.5799 26.0261 17.938 26.3842 17.938 26.8244V29.1313H19.9514V26.8244C19.9514 26.3843 20.3095 26.0261 20.7496 26.0261H23.0567V24.0127Z" fill="#2B65F0"/>
<path d="M33.1683 24.879C33.6447 24.879 34.0321 24.4915 34.0321 24.0152V20.5408C34.0321 20.0644 33.6446 19.677 33.1683 19.677H29.6939C29.2176 19.677 28.8301 20.0645 28.8301 20.5408V24.0152C28.8301 24.4916 29.2176 24.879 29.6939 24.879H33.1683ZM30.0605 20.9074H32.8017V23.6485H30.0605V20.9074Z" fill="#2B65F0"/>
<path fill-rule="evenodd" clip-rule="evenodd" d="M34.2319 24.0153C34.2319 24.602 33.7549 25.0791 33.1681 25.0791H29.6937C29.107 25.0791 28.6299 24.6021 28.6299 24.0153V20.5408C28.6299 19.9541 29.1069 19.4771 29.6937 19.4771H33.1681C33.7548 19.4771 34.2319 19.954 34.2319 20.5408V24.0153ZM32.6015 21.1074H30.2604V23.4486H32.6015V21.1074ZM34.0319 24.0153C34.0319 24.4915 33.6445 24.8791 33.1681 24.8791H29.6937C29.2174 24.8791 28.8299 24.4916 28.8299 24.0153V20.5408C28.8299 20.0646 29.2174 19.6771 29.6937 19.6771H33.1681C33.6444 19.6771 34.0319 20.0645 34.0319 20.5408V24.0153ZM30.0604 20.9074V23.6486H32.8015V20.9074H30.0604Z" fill="#2B65F0"/>
</g>
<defs>
<filter id="filter0_d_1860_6693" x="5.4668" y="6.80005" width="49.0659" height="50.3999" filterUnits="userSpaceOnUse" color-interpolation-filters="sRGB">
<feFlood flood-opacity="0" result="BackgroundImageFix"/>
<feColorMatrix in="SourceAlpha" type="matrix" values="0 0 0 0 0 0 0 0 0 0 0 0 0 0 0 0 0 0 127 0" result="hardAlpha"/>
<feOffset dy="2"/>
<feGaussianBlur stdDeviation="2"/>
<feComposite in2="hardAlpha" operator="out"/>
<feColorMatrix type="matrix" values="0 0 0 0 0.0588235 0 0 0 0 0.686275 0 0 0 0 0.686275 0 0 0 0.18 0"/>
<feBlend mode="normal" in2="BackgroundImageFix" result="effect1_dropShadow_1860_6693"/>
<feBlend mode="normal" in="SourceGraphic" in2="effect1_dropShadow_1860_6693" result="shape"/>
</filter>
</defs>
</svg>
