<svg width="60" height="60" viewBox="0 0 60 60" fill="none" xmlns="http://www.w3.org/2000/svg">
<circle cx="30" cy="30" r="30" fill="#F6FAFF"/>
<circle cx="30" cy="30" r="30" fill="#F6FAFF"/>
<g filter="url(#filter0_d_910_16496)">
<path d="M30.0019 12.0119C32.7627 12.0009 35.4879 12.6349 37.9605 13.8633C38.1244 13.9294 38.2729 14.0287 38.3968 14.1548C38.5207 14.281 38.6172 14.4313 38.6803 14.5964C38.7434 14.7616 38.7718 14.9379 38.7637 15.1145C38.7556 15.2911 38.7112 15.4642 38.6332 15.6228C38.5552 15.7815 38.4453 15.9223 38.3104 16.0366C38.1755 16.1509 38.0185 16.2361 37.8492 16.2869C37.6799 16.3378 37.5019 16.3532 37.3264 16.3322C37.1509 16.3111 36.9815 16.2541 36.829 16.1647C34.4759 15.0036 31.8656 14.4618 29.2448 14.5906C26.624 14.7193 24.0793 15.5144 21.8514 16.9006C19.6234 18.2868 17.7858 20.2183 16.5123 22.5125C15.2388 24.8067 14.5715 27.3878 14.5734 30.0118C14.5734 36.2861 17.9419 43.2804 23.5734 44.1546C24.1714 44.2975 24.7935 44.3071 25.3957 44.1827C25.9978 44.0583 26.5652 43.8029 27.0576 43.4346C28.1765 42.1983 28.7712 40.5755 28.7162 38.9089C26.576 38.6 24.6186 37.5309 23.202 35.8971C21.7855 34.2634 21.0045 32.1742 21.0019 30.0118V22.2976C21.0019 21.9566 21.1374 21.6295 21.3785 21.3884C21.6196 21.1473 21.9467 21.0118 22.2876 21.0118H26.1448C26.4858 21.0118 26.8128 21.1473 27.0539 21.3884C27.295 21.6295 27.4305 21.9566 27.4305 22.2976C27.4305 22.6385 27.295 22.9656 27.0539 23.2067C26.8128 23.4478 26.4858 23.5833 26.1448 23.5833H23.5734V30.0118C23.5734 31.7168 24.2507 33.3519 25.4562 34.5575C26.6618 35.7631 28.297 36.4404 30.0019 36.4404C31.7069 36.4404 33.342 35.7631 34.5476 34.5575C35.7532 33.3519 36.4305 31.7168 36.4305 30.0118V23.5833H33.8591C33.5181 23.5833 33.191 23.4478 32.9499 23.2067C32.7088 22.9656 32.5733 22.6385 32.5733 22.2976C32.5733 21.9566 32.7088 21.6295 32.9499 21.3884C33.191 21.1473 33.5181 21.0118 33.8591 21.0118H37.7162C38.0572 21.0118 38.3842 21.1473 38.6253 21.3884C38.8664 21.6295 39.0019 21.9566 39.0019 22.2976V30.0118C38.9994 32.1742 38.2184 34.2634 36.8018 35.8971C35.3853 37.5309 33.4278 38.6 31.2876 38.9089C31.1205 41.8661 30.2848 44.0518 28.7933 45.3375C27.6299 46.3097 26.1417 46.8058 24.6276 46.7261C24.1548 46.7265 23.6824 46.6965 23.2134 46.6361C15.9362 45.5818 12.002 37.2761 12.002 30.0118C12.002 25.2379 13.8984 20.6596 17.274 17.2839C20.6497 13.9083 25.228 12.0119 30.0019 12.0119Z" fill="#66C7F0"/>
<path d="M41.5738 37.7262C42.1253 37.7345 42.672 37.8299 43.1938 38.009C44.9562 35.1033 45.71 31.697 45.338 28.3189C44.966 24.9409 43.4891 21.7802 41.1366 19.3276C41.0051 19.2094 40.8994 19.0652 40.8261 18.9042C40.7529 18.7432 40.7136 18.5689 40.7108 18.392C40.708 18.2152 40.7417 18.0396 40.8098 17.8764C40.878 17.7132 40.9791 17.5658 41.1068 17.4434C41.2345 17.321 41.386 17.2263 41.552 17.1652C41.718 17.104 41.8948 17.0778 42.0714 17.0881C42.248 17.0985 42.4205 17.1451 42.5782 17.2251C42.736 17.3052 42.8755 17.4169 42.988 17.5534C45.7418 20.4233 47.4675 24.1245 47.8955 28.0788C48.3235 32.0331 47.4297 36.0178 45.3537 39.4104C46.1475 40.2841 46.6167 41.4042 46.6824 42.5827C46.748 43.7613 46.4063 44.9266 45.7145 45.883C45.0227 46.8394 44.023 47.5288 42.8831 47.8353C41.7432 48.1419 40.5325 48.047 39.4543 47.5666C38.3761 47.0861 37.496 46.2494 36.9617 45.1969C36.4274 44.1443 36.2714 42.94 36.5199 41.7861C36.7685 40.6322 37.4064 39.5989 38.3266 38.8596C39.2468 38.1203 40.3934 37.7201 41.5738 37.7262ZM41.5738 45.4404C42.0823 45.4404 42.5795 45.2896 43.0024 45.0071C43.4252 44.7245 43.7548 44.3229 43.9494 43.8531C44.1441 43.3832 44.195 42.8662 44.0958 42.3674C43.9966 41.8685 43.7516 41.4104 43.392 41.0507C43.0324 40.6911 42.5742 40.4462 42.0754 40.347C41.5766 40.2478 41.0596 40.2987 40.5897 40.4933C40.1198 40.688 39.7182 41.0175 39.4357 41.4404C39.1531 41.8633 39.0023 42.3604 39.0023 42.869C39.0023 43.551 39.2732 44.205 39.7555 44.6873C40.2377 45.1695 40.8918 45.4404 41.5738 45.4404Z" fill="#66C7F0"/>
<path fill-rule="evenodd" clip-rule="evenodd" d="M38.4643 16.9681C37.1219 16.0692 35.7803 15.4821 34.7451 15.2751L35.255 12.7256C36.7199 13.0186 38.3782 13.7814 39.9108 14.8076C41.4521 15.8396 42.9501 17.1938 44.0579 18.7447L41.9422 20.256C41.0501 19.0069 39.798 17.8611 38.4643 16.9681Z" fill="#66C7F0"/>
</g>
<defs>
<filter id="filter0_d_910_16496" x="8.00195" y="12.0117" width="43.998" height="44" filterUnits="userSpaceOnUse" color-interpolation-filters="sRGB">
<feFlood flood-opacity="0" result="BackgroundImageFix"/>
<feColorMatrix in="SourceAlpha" type="matrix" values="0 0 0 0 0 0 0 0 0 0 0 0 0 0 0 0 0 0 127 0" result="hardAlpha"/>
<feOffset dy="4"/>
<feGaussianBlur stdDeviation="2"/>
<feComposite in2="hardAlpha" operator="out"/>
<feColorMatrix type="matrix" values="0 0 0 0 0 0 0 0 0 0 0 0 0 0 0 0 0 0 0.15 0"/>
<feBlend mode="normal" in2="BackgroundImageFix" result="effect1_dropShadow_910_16496"/>
<feBlend mode="normal" in="SourceGraphic" in2="effect1_dropShadow_910_16496" result="shape"/>
</filter>
</defs>
</svg>
