<svg width="60" height="60" viewBox="0 0 60 60" fill="none" xmlns="http://www.w3.org/2000/svg">
<circle cx="30" cy="30" r="30" fill="#F6FAFF"/>
<g filter="url(#filter0_d_1727_11311)">
<path d="M13.4039 29.9958C13.4039 39.0329 20.6611 46.4055 29.6542 46.5924V46.6044H30.0042C39.1582 46.6044 46.6044 39.1582 46.6044 30.0042C46.6044 20.8501 39.1582 13.4039 30.0042 13.4039C20.8504 13.4039 13.4039 20.8415 13.4039 29.9958ZM15.1201 30.0042C15.1201 21.7994 21.7994 15.1201 30.0042 15.1201C38.2002 15.1201 44.8715 21.799 44.8715 30.0042C44.8715 38.2089 38.2005 44.8799 29.9958 44.8799C21.791 44.8799 15.1201 38.2089 15.1201 30.0042Z" fill="#66C7F0" stroke="#66C7F0" stroke-width="0.7"/>
<path d="M19.8277 30.0035C19.8277 35.6135 24.3934 40.1792 30.0035 40.1792C35.6135 40.1792 40.1792 35.6135 40.1792 30.0035C40.1792 24.3934 35.6135 19.8277 30.0035 19.8277C24.3934 19.8277 19.8277 24.3934 19.8277 30.0035ZM21.5439 30.0035C21.5439 25.3345 25.3425 21.5439 30.0035 21.5439C34.6727 21.5439 38.463 25.3343 38.463 30.0035C38.463 34.6727 34.6727 38.463 30.0035 38.463C25.3343 38.463 21.5439 34.6727 21.5439 30.0035Z" fill="#66C7F0" stroke="#66C7F0" stroke-width="0.7"/>
<path d="M26.0348 30.0043C26.0348 32.1964 27.8123 33.9739 30.0043 33.9739C32.1964 33.9739 33.9739 32.1964 33.9739 30.0043C33.9739 27.8123 32.1964 26.0348 30.0043 26.0348C27.8123 26.0348 26.0348 27.8123 26.0348 30.0043ZM27.7509 30.0043C27.7509 28.7616 28.7616 27.7509 30.0043 27.7509C31.2471 27.7509 32.2577 28.7616 32.2577 30.0043C32.2577 31.2471 31.2471 32.2577 30.0043 32.2577C28.7616 32.2577 27.7509 31.2471 27.7509 30.0043Z" fill="#66C7F0" stroke="#66C7F0" stroke-width="0.7"/>
<path d="M29.1422 49.4883C29.1422 49.9709 29.5378 50.3506 30.0045 50.3506C30.487 50.3506 30.8668 49.955 30.8668 49.4883V33.5572C30.8668 33.0784 30.4833 32.6949 30.0045 32.6949C29.5256 32.6949 29.1422 33.0784 29.1422 33.5572V49.4883Z" fill="#66C7F0" stroke="#66C7F0" stroke-width="0.7"/>
<path d="M29.1422 26.3426C29.1422 26.8252 29.5378 27.2049 30.0045 27.2049C30.487 27.2049 30.8668 26.8093 30.8668 26.3426V10.5123C30.8668 10.0334 30.4833 9.65 30.0045 9.65C29.5219 9.65 29.1422 10.0456 29.1422 10.5123V26.3426Z" fill="#66C7F0" stroke="#66C7F0" stroke-width="0.7"/>
<path d="M10.5123 30.8589H26.3426C26.8215 30.8589 27.2049 30.4755 27.2049 29.9967C27.2049 29.5141 26.8093 29.1344 26.3426 29.1344H10.5123C10.0334 29.1344 9.65 29.5178 9.65 29.9967C9.65 30.4755 10.0334 30.8589 10.5123 30.8589Z" fill="#66C7F0" stroke="#66C7F0" stroke-width="0.7"/>
<path d="M33.5982 30.8589H49.4874H49.4958C49.9746 30.8589 50.358 30.4755 50.358 29.9967C50.358 29.5141 49.9625 29.1344 49.4958 29.1344H33.5982C33.1194 29.1344 32.7359 29.5178 32.7359 29.9967C32.7359 30.4792 33.1315 30.8589 33.5982 30.8589Z" fill="#66C7F0" stroke="#66C7F0" stroke-width="0.7"/>
</g>
<defs>
<filter id="filter0_d_1727_11311" x="5.2998" y="9.30078" width="49.4082" height="49.4004" filterUnits="userSpaceOnUse" color-interpolation-filters="sRGB">
<feFlood flood-opacity="0" result="BackgroundImageFix"/>
<feColorMatrix in="SourceAlpha" type="matrix" values="0 0 0 0 0 0 0 0 0 0 0 0 0 0 0 0 0 0 127 0" result="hardAlpha"/>
<feOffset dy="4"/>
<feGaussianBlur stdDeviation="2"/>
<feComposite in2="hardAlpha" operator="out"/>
<feColorMatrix type="matrix" values="0 0 0 0 0 0 0 0 0 0 0 0 0 0 0 0 0 0 0.15 0"/>
<feBlend mode="normal" in2="BackgroundImageFix" result="effect1_dropShadow_1727_11311"/>
<feBlend mode="normal" in="SourceGraphic" in2="effect1_dropShadow_1727_11311" result="shape"/>
</filter>
</defs>
</svg>
