<svg width="73" height="76" viewBox="0 0 73 76" fill="none" xmlns="http://www.w3.org/2000/svg">
<rect width="73" height="73" fill="#BFFFF3"/>
<g filter="url(#filter0_d_359_4627)">
<rect x="13" y="12" width="48" height="48" rx="5" fill="#F4FFFD"/>
</g>
<g clip-path="url(#clip0_359_4627)">
<path d="M35.4348 49.4417H27.4719C27.3841 49.4417 27.2998 49.406 27.2377 49.3425C27.1756 49.279 27.1407 49.1928 27.1407 49.1029L27.2069 23.6639C27.2069 23.5741 27.2418 23.4879 27.3039 23.4244C27.3661 23.3609 27.4503 23.3252 27.5381 23.3252H37.098C37.1859 23.3252 37.2701 23.3609 37.3322 23.4244C37.3943 23.4879 37.4292 23.5741 37.4292 23.6639V30.4923C37.4292 30.5822 37.4641 30.6684 37.5262 30.7319C37.5883 30.7954 37.6725 30.8311 37.7604 30.8311H42.7574C42.8453 30.8311 42.9295 30.8668 42.9916 30.9303C43.0537 30.9939 43.0886 31.0801 43.0886 31.1699V32.9241C43.0905 33.0146 43.127 33.1008 43.1903 33.1641C43.2536 33.2274 43.3386 33.2629 43.4271 33.2629H43.8908C43.9342 33.2639 43.9774 33.2559 44.0177 33.2391C44.0579 33.2224 44.0944 33.1973 44.1248 33.1656C44.1551 33.1338 44.1788 33.0959 44.1943 33.0544C44.2097 33.0128 44.2166 32.9685 44.2146 32.9241V29.9729C44.216 29.8958 44.1898 29.8208 44.141 29.7621L38.2535 22.1432C38.2234 22.1026 38.1844 22.0699 38.1396 22.0477C38.0949 22.0254 38.0456 22.0143 37.9959 22.0152H26.3312C26.2433 22.0152 26.1591 22.0509 26.097 22.1144C26.0349 22.178 26 22.2641 26 22.354V50.2849C26 50.3748 26.0349 50.4609 26.097 50.5245C26.1591 50.588 26.2433 50.6237 26.3312 50.6237H35.4201C35.5067 50.6237 35.5898 50.5891 35.6517 50.5272C35.7136 50.4652 35.7493 50.381 35.7513 50.2924V49.8031C35.7553 49.7125 35.7244 49.6238 35.6652 49.5562C35.606 49.4887 35.5233 49.4476 35.4348 49.4417ZM39.3059 25.5386L41.97 29.2125C42.0069 29.2628 42.0293 29.3227 42.0349 29.3854C42.0404 29.448 42.0287 29.511 42.0012 29.5673C41.9737 29.6235 41.9315 29.6709 41.8791 29.7039C41.8268 29.737 41.7665 29.7545 41.705 29.7545H39.0483C38.9604 29.7545 38.8762 29.7188 38.8141 29.6553C38.752 29.5918 38.7171 29.5056 38.7171 29.4158V25.7418C38.7226 25.6745 38.7472 25.6103 38.7879 25.5571C38.8286 25.5039 38.8836 25.464 38.9462 25.4424C39.0088 25.4208 39.0762 25.4184 39.1401 25.4355C39.204 25.4525 39.2616 25.4884 39.3059 25.5386Z" fill="#2DBCB6"/>
<path d="M42.6103 33.8423C40.9506 33.8408 39.3278 34.3429 37.9472 35.285C36.5665 36.2272 35.49 37.5671 34.8539 39.1352C34.2178 40.7033 34.0506 42.4292 34.3734 44.0946C34.6963 45.7599 35.4948 47.2899 36.6678 48.4909C37.8409 49.692 39.3358 50.5102 40.9634 50.8419C42.5911 51.1737 44.2784 51.0042 45.8118 50.3548C47.3453 49.7054 48.656 48.6054 49.5782 47.1938C50.5004 45.7823 50.9926 44.1226 50.9926 42.4248C50.9936 41.2981 50.7775 40.1822 50.3567 39.141C49.9359 38.0998 49.3186 37.1536 48.5401 36.3565C47.7616 35.5594 46.8372 34.9271 45.8198 34.4957C44.8023 34.0643 43.7117 33.8423 42.6103 33.8423ZM42.6103 49.577C41.2275 49.577 39.8757 49.1575 38.726 48.3716C37.5763 47.5857 36.6802 46.4687 36.151 45.1618C35.6218 43.855 35.4834 42.4169 35.7531 41.0295C36.0229 39.6421 36.6888 38.3678 37.6665 37.3675C38.6443 36.3673 39.8901 35.6861 41.2463 35.4101C42.6025 35.1342 44.0083 35.2758 45.2858 35.8171C46.5633 36.3585 47.6552 37.2752 48.4234 38.4513C49.1917 39.6275 49.6017 41.0103 49.6017 42.4248C49.6017 44.3217 48.8651 46.1409 47.554 47.4821C46.2428 48.8234 44.4645 49.577 42.6103 49.577Z" fill="#2DBCB6"/>
<path d="M43.5081 42.8541C43.4202 42.8541 43.336 42.8184 43.2739 42.7549C43.2118 42.6913 43.1769 42.6052 43.1769 42.5153V39.2705H42.1539V43.9006H46.6653V42.8541H43.5081Z" fill="#2DBCB6"/>
</g>
<defs>
<filter id="filter0_d_359_4627" x="3" y="8" width="68" height="68" filterUnits="userSpaceOnUse" color-interpolation-filters="sRGB">
<feFlood flood-opacity="0" result="BackgroundImageFix"/>
<feColorMatrix in="SourceAlpha" type="matrix" values="0 0 0 0 0 0 0 0 0 0 0 0 0 0 0 0 0 0 127 0" result="hardAlpha"/>
<feOffset dy="6"/>
<feGaussianBlur stdDeviation="5"/>
<feComposite in2="hardAlpha" operator="out"/>
<feColorMatrix type="matrix" values="0 0 0 0 0.411667 0 0 0 0 0.9177 0 0 0 0 0.95 0 0 0 1 0"/>
<feBlend mode="normal" in2="BackgroundImageFix" result="effect1_dropShadow_359_4627"/>
<feBlend mode="normal" in="SourceGraphic" in2="effect1_dropShadow_359_4627" result="shape"/>
</filter>
<clipPath id="clip0_359_4627">
<rect width="25" height="29" fill="white" transform="translate(26 22)"/>
</clipPath>
</defs>
</svg>
