<svg width="55" height="53" viewBox="0 0 55 53" fill="none" xmlns="http://www.w3.org/2000/svg">
<g filter="url(#filter0_d_910_16586)">
<path d="M48.4798 24.6895C48.1655 22.5121 46.455 20.8016 44.2776 20.4873V19.1986C44.2776 15.643 41.5748 12.7481 38.2524 12.7481C35.0258 12.7481 32.3244 15.5551 32.2272 19.0058H32.2684L32.2272 19.0129V32.9821C32.2272 37.4478 28.8886 41.0743 24.7844 41.0743C20.6802 41.0743 17.3415 37.4428 17.3415 32.9821V31.7721C18.3693 31.7721 19.468 31.0271 19.468 28.9367V27.154C24.0174 25.9908 27.2653 22.0843 27.2653 17.6554V16.1775H25.8476L25.8179 6.9519C25.8076 5.2442 24.5822 3.78611 22.9017 3.4821C22.5392 2.37161 21.3451 1.76519 20.2345 2.12776C19.124 2.49025 18.5176 3.68439 18.8801 4.79497C19.2426 5.90546 20.4368 6.51188 21.5474 6.14931C22.142 5.95517 22.6202 5.5078 22.8535 4.92744C23.7616 5.18581 24.3907 6.01197 24.3981 6.95615L24.43 16.1775H23.0123V17.676C22.9557 20.1416 21.3027 22.2843 18.9322 22.9647C17.6638 23.3671 16.3019 23.3671 15.0335 22.9647C12.6657 22.282 11.0164 20.1397 10.9619 17.676V16.1775H8.83538V6.96253C8.83945 6.00444 9.48379 5.16729 10.409 4.91822C10.8404 6.01649 12.0805 6.55698 13.1787 6.12556C14.277 5.69414 14.8175 4.45402 14.3861 3.35584C13.9547 2.25766 12.7145 1.71708 11.6164 2.1485C11.0213 2.38233 10.5621 2.87028 10.3651 3.47856C8.66623 3.76883 7.42239 5.23906 7.41769 6.96253V16.1775H6V17.6519C6 22.0857 9.25005 25.9936 13.7973 27.154V28.9367C13.7973 31.0271 14.896 31.7721 15.9238 31.7721V32.9821C15.9238 38.2275 19.8983 42.4919 24.7844 42.4919C29.6704 42.4919 33.6449 38.2226 33.6449 32.9821V19.0469C33.7158 16.3568 35.7842 14.1679 38.2524 14.1679C40.7929 14.1679 42.8599 16.4249 42.8599 19.2007V20.4873C40.1476 20.8787 38.2662 23.3949 38.6577 26.1072C39.0492 28.8195 41.5653 30.7008 44.2776 30.3094C46.9899 29.9179 48.8713 27.4017 48.4798 24.6895ZM20.8857 4.83599C20.4943 4.83599 20.1769 4.51861 20.1769 4.12715C20.1769 3.73569 20.4943 3.4183 20.8857 3.4183C21.2772 3.4183 21.5946 3.73569 21.5946 4.12715C21.5946 4.51861 21.2772 4.83599 20.8857 4.83599ZM12.3796 3.4183C12.7711 3.4183 13.0884 3.73569 13.0884 4.12715C13.0884 4.51861 12.7711 4.83599 12.3796 4.83599C11.9881 4.83599 11.6708 4.51861 11.6708 4.12715C11.6708 3.73569 11.9881 3.4183 12.3796 3.4183ZM7.41769 17.6519V17.5952H9.54422V17.676C9.59739 20.7569 11.6471 23.4456 14.604 24.3129C16.1534 24.8035 17.8165 24.8035 19.366 24.3129C22.3242 23.4468 24.3758 20.758 24.43 17.676V17.5952H25.8476V17.6519C25.8476 21.5952 22.8081 25.065 18.6174 25.9043C17.6334 26.1013 16.6254 26.1508 15.6268 26.051C15.2981 26.0191 14.9713 25.9697 14.6479 25.9029C10.4572 25.065 7.41769 21.5952 7.41769 17.6519ZM15.9238 30.3544C15.2859 30.3544 15.215 29.362 15.215 28.9367V27.4325C15.2717 27.4396 15.3298 27.4425 15.3872 27.4481C15.4581 27.4559 15.529 27.4616 15.5999 27.468C15.9352 27.4978 16.2733 27.5176 16.6142 27.5183H16.6497C16.9899 27.5183 17.3273 27.4978 17.6605 27.468C17.7314 27.4616 17.8065 27.4559 17.8795 27.4481C17.9355 27.4418 17.9937 27.4396 18.0496 27.4325V28.9367C18.0496 29.362 17.9788 30.3544 17.3408 30.3544H15.9238ZM43.5688 28.9367C41.6114 28.9367 40.0245 27.3499 40.0245 25.3925C40.0245 23.4351 41.6114 21.8483 43.5688 21.8483C45.5261 21.8483 47.113 23.4351 47.113 25.3925C47.1107 27.349 45.5252 28.9344 43.5688 28.9367Z" fill="#123F7E"/>
<path d="M43.5689 23.2656C42.3944 23.2656 41.4424 24.2177 41.4424 25.3922C41.4424 26.5666 42.3944 27.5187 43.5689 27.5187C44.7434 27.5187 45.6955 26.5666 45.6955 25.3922C45.6955 24.2177 44.7434 23.2656 43.5689 23.2656ZM43.5689 26.101C43.1775 26.101 42.8601 25.7836 42.8601 25.3922C42.8601 25.0007 43.1775 24.6833 43.5689 24.6833C43.9604 24.6833 44.2778 25.0007 44.2778 25.3922C44.2778 25.7836 43.9604 26.101 43.5689 26.101Z" fill="#123F7E"/>
</g>
<defs>
<filter id="filter0_d_910_16586" x="0" y="0" width="54.5312" height="52.4922" filterUnits="userSpaceOnUse" color-interpolation-filters="sRGB">
<feFlood flood-opacity="0" result="BackgroundImageFix"/>
<feColorMatrix in="SourceAlpha" type="matrix" values="0 0 0 0 0 0 0 0 0 0 0 0 0 0 0 0 0 0 127 0" result="hardAlpha"/>
<feOffset dy="4"/>
<feGaussianBlur stdDeviation="3"/>
<feComposite in2="hardAlpha" operator="out"/>
<feColorMatrix type="matrix" values="0 0 0 0 0 0 0 0 0 0 0 0 0 0 0 0 0 0 0.14 0"/>
<feBlend mode="normal" in2="BackgroundImageFix" result="effect1_dropShadow_910_16586"/>
<feBlend mode="normal" in="SourceGraphic" in2="effect1_dropShadow_910_16586" result="shape"/>
</filter>
</defs>
</svg>
