<svg width="60" height="60" viewBox="0 0 60 60" fill="none" xmlns="http://www.w3.org/2000/svg">
<rect width="60" height="60" rx="10" fill="#F4FFFE"/>
<g filter="url(#filter0_d_2029_2995)">
<path d="M17.2929 49.9236C17.0193 49.6804 16.6429 49.666 16.3309 49.4877C15.1182 48.7943 14.4495 47.3578 14.7293 45.9554C14.9986 44.6096 16.2144 43.5318 17.5893 43.3772C18.2861 43.2989 18.9808 43.337 19.6765 43.3319C19.9074 43.3298 19.9646 43.2628 19.9646 43.0403C19.9573 39.7346 19.9573 36.4289 19.9646 33.1233C19.9646 32.877 19.8918 32.8038 19.6474 32.8131C19.1794 32.8306 18.7093 32.8131 18.2403 32.8213C18.0625 32.8244 17.972 32.7873 17.973 32.5833C17.9813 29.5569 17.9283 26.5284 18.0053 23.503C18.0625 21.2391 19.7317 19.7347 22.1621 19.6409C20.7134 18.3838 19.9511 16.8391 19.975 14.9885C20 13.1234 20.7696 11.5664 22.2589 10.4061C24.6467 8.54612 27.9633 8.72851 30.1317 10.8224C30.9647 11.6271 31.5117 12.5989 31.7769 13.7272C32.039 14.8432 31.9683 15.9406 31.5918 17.0143C31.2122 18.0973 30.5341 18.9856 29.5888 19.7604C30.4593 19.9181 31.1467 20.3715 32.0078 20.3334C32.7213 20.3014 33.2049 20.861 33.2621 21.5874C33.2974 22.0357 33.2881 22.4901 33.2662 22.9404C33.2496 23.2897 33.156 23.6401 32.8637 23.8626C32.6297 24.0409 32.5819 24.2429 32.5902 24.5129C32.6256 25.6402 32.5465 26.7685 32.6401 27.8958C32.7389 29.0942 33.6406 30.2555 34.7815 30.6327C36.0961 31.0685 37.4793 30.7223 38.3466 29.7671C38.9613 29.0901 39.2202 28.2915 39.2317 27.4033C39.2441 26.3945 39.2317 25.3856 39.2379 24.3768C39.2389 24.1914 39.2005 24.0574 39.0413 23.9368C38.7533 23.7174 38.5941 23.4113 38.5848 23.0455C38.5733 22.5684 38.5473 22.0893 38.5744 21.6142C38.6181 20.8373 39.1318 20.3313 39.916 20.3086C40.7865 20.2839 41.658 20.2839 42.5285 20.3086C43.3355 20.3313 43.869 20.8857 43.895 21.6853C43.9075 22.0831 43.9065 22.4819 43.895 22.8796C43.8836 23.2609 43.7869 23.6308 43.4749 23.876C43.2679 24.0389 43.2263 24.2151 43.2242 24.4552C43.218 25.6494 43.2606 26.8448 43.1972 28.039C43.0453 30.8759 41.034 33.4994 38.3061 34.3794C37.9951 34.4793 37.9015 34.6092 37.9036 34.9307C37.9171 38.0508 37.914 41.17 37.9067 44.2902C37.9067 44.5334 37.9379 44.6467 38.2208 44.7075C38.8541 44.8425 39.2306 45.3567 39.2389 46.0121C39.2483 46.7292 39.2067 47.4475 39.2504 48.1626C39.2993 48.9715 39.0403 49.5733 38.279 49.9247H33.6157C32.8305 49.632 32.5382 49.0539 32.5725 48.2461C32.6027 47.5309 32.5736 46.8137 32.5809 46.0976C32.5871 45.3278 32.9646 44.8456 33.7155 44.6807C33.8902 44.6426 33.9256 44.5859 33.9256 44.4293C33.9225 41.2061 33.9235 37.9828 33.9225 34.7596C33.9225 34.6432 33.9453 34.5154 33.7831 34.47C33.1414 34.2928 32.5549 33.9878 31.9288 33.6374V34.0744C31.9288 35.4139 31.9288 36.7535 31.9288 38.0931C31.9288 40.9052 31.9277 43.7173 31.9288 46.5283C31.9288 47.6639 31.4816 48.5779 30.5799 49.2796C30.1441 49.6186 29.6169 49.7433 29.1125 49.9226H27.9061C27.4048 49.6423 26.8213 49.5063 26.4022 49.0818C26.3221 49.0003 26.2545 49.0601 26.2077 49.1292C25.9207 49.5599 25.4569 49.7278 25.0107 49.9226H17.2918L17.2929 49.9236ZM28.6039 26.8169C28.606 26.0472 28.5977 25.2774 28.6143 24.5087C28.6205 24.2377 28.5706 24.0347 28.3366 23.8606C28.1328 23.7091 28.0153 23.4721 27.982 23.2124C27.8957 22.5519 27.8645 21.8883 28.0173 21.2371C28.0662 21.03 28.0558 20.9887 27.8468 20.9887C25.8115 20.996 23.7752 20.9733 21.7409 21.0114C20.5002 21.0341 19.4249 22.149 19.3417 23.3763C19.3292 23.5659 19.3812 23.6071 19.5507 23.6061C20.2735 23.6019 20.9973 23.604 21.7201 23.605C21.846 23.605 21.9926 23.6092 21.9552 23.4309C21.8356 22.8755 22.1881 22.9033 22.5563 22.9291C22.7165 22.9404 22.8787 22.9414 23.0378 22.9291C23.2448 22.9126 23.3217 22.9847 23.3165 23.198C23.303 23.6751 23.3238 24.1532 23.3072 24.6303C23.2989 24.856 23.3696 24.9209 23.5963 24.9168C24.3597 24.9034 25.123 24.9024 25.8864 24.9137C27.1562 24.9333 28.1473 25.6639 28.4968 26.8221L28.6029 27.1724V26.8169H28.6039ZM25.9415 10.4679C23.3675 10.4782 21.3041 12.5319 21.3125 15.075C21.3208 17.6037 23.4205 19.6595 25.9852 19.6502C28.5238 19.6409 30.583 17.5831 30.5851 15.0534C30.5872 12.5041 28.5155 10.4586 25.9415 10.4679ZM26.6206 38.0931C26.6206 39.7253 26.6248 41.3575 26.6165 42.9908C26.6154 43.2257 26.6425 43.3391 26.9316 43.3339C28.0569 43.3154 29.1821 43.3195 30.3074 43.3319C30.5425 43.3339 30.5934 43.2546 30.5924 43.0372C30.5861 39.7325 30.5851 36.4279 30.5924 33.1233C30.5924 32.8729 30.5092 32.8121 30.27 32.8141C29.1853 32.8255 28.0995 32.8296 27.0148 32.8121C26.7111 32.8069 26.6071 32.8698 26.6113 33.1964C26.63 34.8286 26.6196 36.4609 26.6196 38.0941L26.6206 38.0931ZM40.5691 26.2914H40.5441C40.5441 26.8221 40.5712 27.3548 40.54 27.8834C40.4069 30.1278 38.5286 32.0114 36.3072 32.1485C33.8944 32.2979 31.7967 30.7429 31.3609 28.4574C31.1602 27.4063 31.2881 26.3388 31.2705 25.2785C31.2517 24.2017 31.2663 24.2017 30.1847 24.2666C30.1712 24.2666 30.1577 24.2676 30.1441 24.2666C29.9881 24.2501 29.933 24.3191 29.9361 24.4727C29.9611 25.7731 29.8436 27.0797 30.0121 28.3729C30.3844 31.2365 32.8201 33.352 35.8017 33.452C38.6253 33.5457 41.1796 31.5292 41.7516 28.75C41.9897 27.5929 41.8691 26.4202 41.8878 25.2548C41.9045 24.2161 41.892 24.2233 40.8301 24.2604C40.6117 24.2676 40.5618 24.3377 40.5649 24.5376C40.5764 25.1219 40.5691 25.7061 40.5691 26.2904V26.2914ZM22.7154 28.8685C23.7596 28.8685 24.8048 28.8809 25.8489 28.8644C26.7121 28.851 27.2841 28.2925 27.2675 27.5207C27.2519 26.7695 26.6705 26.2553 25.825 26.2522C24.8745 26.2492 23.9239 26.2533 22.9723 26.2502C22.653 26.2492 22.2329 26.3553 22.0405 26.1966C21.8117 26.008 21.9926 25.5752 21.9614 25.2507C21.9604 25.2373 21.9593 25.2239 21.9614 25.2105C21.9947 24.993 21.9177 24.9096 21.6796 24.9147C20.9838 24.9302 20.287 24.9302 19.5902 24.9147C19.3469 24.9096 19.3063 25.0054 19.3084 25.2177C19.3167 26.3326 19.3198 27.4465 19.3073 28.5615C19.3042 28.8067 19.3739 28.8778 19.6225 28.8747C20.6531 28.8613 21.6848 28.8696 22.7154 28.8685ZM29.7989 31.5013C29.1021 30.4029 28.736 29.2704 28.6153 28.0545C28.5124 28.1081 28.5228 28.2163 28.4968 28.2967C28.1151 29.4374 27.2529 30.1411 26.0393 30.1659C24.1267 30.204 22.2131 30.1824 20.2995 30.1855C19.2772 30.1865 19.2845 30.1855 19.3073 31.2138C19.3125 31.4374 19.3718 31.5065 19.6006 31.5065C22.9713 31.5003 26.3419 31.5024 29.7989 31.5024V31.5013ZM28.6226 44.6632C28.034 44.6632 27.4453 44.6663 26.8577 44.6611C26.7017 44.6591 26.6133 44.6787 26.6175 44.8703C26.631 45.4927 26.5946 46.1172 26.6352 46.7375C26.7069 47.8298 27.5712 48.5995 28.6507 48.583C29.7105 48.5676 30.5237 47.7834 30.5757 46.6973C30.6038 46.1027 30.5747 45.5051 30.5934 44.9095C30.6007 44.6756 30.4915 44.658 30.3074 44.6601C29.7458 44.6673 29.1842 44.6632 28.6226 44.6632ZM35.2526 39.6841C35.2526 41.0381 35.2526 42.3921 35.2526 43.7461C35.2526 44.6642 35.2526 44.6477 36.1949 44.6684C36.5193 44.6756 36.588 44.5766 36.5859 44.2716C36.5745 41.4441 36.5817 38.6166 36.5755 35.789C36.5755 35.4624 36.7242 35.0285 36.5079 34.8379C36.3259 34.6772 35.8964 34.8091 35.5802 34.7761C35.3036 34.7472 35.2453 34.8492 35.2474 35.1048C35.2578 36.6309 35.2526 38.158 35.2526 39.6841ZM23.2521 35.4325C23.8272 35.4325 24.4023 35.4242 24.9764 35.4366C25.1885 35.4407 25.2832 35.3995 25.2769 35.1604C25.2613 34.4721 25.2613 33.7827 25.2769 33.0944C25.2821 32.8533 25.1844 32.8121 24.9712 32.8141C23.848 32.8224 22.7258 32.8234 21.6026 32.8141C21.3811 32.8121 21.3021 32.8687 21.3062 33.0996C21.3208 33.7879 21.3229 34.4773 21.3062 35.1656C21.3 35.4119 21.3998 35.4428 21.6089 35.4376C22.1569 35.4253 22.705 35.4335 23.2531 35.4335L23.2521 35.4325ZM35.9161 45.9873C35.3535 45.9873 34.7919 45.9956 34.2293 45.9832C34.0171 45.9781 33.9204 46.0162 33.9266 46.2594C33.9433 46.9487 33.9401 47.6381 33.9266 48.3275C33.9225 48.5377 33.988 48.5954 34.197 48.5933C35.3348 48.584 36.4725 48.582 37.6103 48.5933C37.8464 48.5954 37.8984 48.515 37.8942 48.2986C37.8817 47.6226 37.8797 46.9456 37.8932 46.2697C37.8973 46.044 37.8277 45.976 37.6009 45.9811C37.0393 45.9956 36.4767 45.9863 35.9151 45.9863L35.9161 45.9873ZM23.2853 38.0663H24.3274C25.3071 38.0663 25.2967 38.0663 25.2821 37.076C25.278 36.8267 25.2 36.7648 24.9597 36.7679C24.0643 36.7803 23.1699 36.7731 22.2745 36.7731C21.274 36.7731 21.2813 36.7731 21.3062 37.7809C21.3114 38.0065 21.3759 38.0766 21.6026 38.0714C22.1632 38.0581 22.7248 38.0673 23.2864 38.0673L23.2853 38.0663ZM23.303 39.4028H22.2609C21.301 39.4028 21.3166 39.4028 21.3021 40.3436C21.2969 40.6651 21.4154 40.7084 21.6941 40.7032C22.5625 40.6877 23.4309 40.697 24.3004 40.697C25.3133 40.697 25.3071 40.697 25.2811 39.6923C25.2749 39.4718 25.2177 39.3925 24.9878 39.3976C24.4273 39.4121 23.8657 39.4018 23.3041 39.4018L23.303 39.4028ZM23.2895 42.0335H22.2869C21.5978 42.0335 21.2726 42.378 21.3114 43.067C21.3114 43.0804 21.3135 43.0938 21.3114 43.1072C21.2906 43.2845 21.3821 43.3308 21.5475 43.3308C22.7102 43.3267 23.8781 43.3906 25.0336 43.301C25.5681 43.2597 25.1657 42.6971 25.2655 42.3869C25.3185 42.2221 25.3227 42.0181 25.0128 42.0284C24.4387 42.0479 23.8636 42.0335 23.2885 42.0335H23.2895ZM18.6563 46.621V47.6536C18.6563 48.6253 18.6563 48.616 19.6547 48.5985C19.9064 48.5944 19.9709 48.515 19.9677 48.277C19.9553 47.3898 19.9625 46.5025 19.9625 45.6153C19.9625 44.6261 19.9625 44.6333 18.9402 44.657C18.7093 44.6622 18.6459 44.7302 18.6511 44.9517C18.6646 45.5071 18.6553 46.0636 18.6553 46.62L18.6563 46.621ZM21.3114 46.6159V47.6494C21.3114 48.6242 21.3114 48.616 22.3046 48.5985C22.548 48.5944 22.627 48.5263 22.6239 48.2821C22.6114 47.3949 22.6187 46.5077 22.6187 45.6205C22.6187 44.6292 22.6187 44.6374 21.6005 44.6581C21.3759 44.6632 21.3 44.7199 21.3062 44.9476C21.3218 45.503 21.3114 46.0605 21.3114 46.6159ZM23.9665 46.6138C23.9665 47.1692 23.9665 47.7257 23.9665 48.2811C23.9665 48.2945 23.9645 48.3079 23.9665 48.3203C23.9832 48.4151 23.927 48.5263 24.0726 48.584C24.6821 48.8272 25.2665 48.4542 25.2728 47.7999C25.2801 47.0724 25.2749 46.3439 25.2749 45.6164C25.2749 44.6282 25.2749 44.6354 24.2546 44.657C24.03 44.6622 23.9541 44.7178 23.9603 44.9466C23.9759 45.502 23.9655 46.0584 23.9655 46.6138H23.9665ZM17.3053 44.7972C16.5077 45.1403 16.0771 45.6936 16.0147 46.483C15.9502 47.295 16.3163 47.9112 17.0183 48.3357C17.2419 48.4707 17.3105 48.4264 17.3085 48.1647C17.2991 47.0631 17.3043 45.9626 17.3043 44.7961L17.3053 44.7972ZM30.5882 22.9291H30.9491C31.9433 22.9291 31.9309 22.9291 31.9361 21.9471C31.9371 21.6709 31.8425 21.6214 31.596 21.6317C31.1561 21.6493 30.7141 21.6369 30.2741 21.6369C29.2279 21.6369 29.2362 21.6369 29.2685 22.6766C29.2757 22.8951 29.3475 22.9414 29.5472 22.9332C29.8935 22.9198 30.2419 22.9291 30.5893 22.9291H30.5882ZM41.2357 22.9291H41.5571C42.6065 22.9291 42.6002 22.9291 42.5513 21.8729C42.542 21.6771 42.4827 21.6307 42.2976 21.6338C41.5748 21.6431 40.852 21.6379 40.1292 21.6369C40.0023 21.6369 39.916 21.6369 39.8921 21.8152C39.7548 22.8559 39.8109 22.9301 40.8343 22.9301H41.2357V22.9291Z" fill="#2B65F0"/>
<path d="M23.2838 38.0671C22.7222 38.0671 22.1616 38.0578 21.6 38.0712C21.3733 38.0763 21.3098 38.0063 21.3036 37.7806C21.2786 36.7728 21.2714 36.7728 22.2718 36.7728C23.1673 36.7728 24.0627 36.7801 24.9571 36.7677C25.1974 36.7646 25.2754 36.8264 25.2795 37.0758C25.2951 38.066 25.3045 38.066 24.3248 38.066C23.9774 38.066 23.6301 38.066 23.2827 38.066L23.2838 38.0671Z" fill="#F6A452"/>
<path d="M23.3029 39.4048C23.8645 39.4048 24.4261 39.4141 24.9867 39.4007C25.2165 39.3945 25.2748 39.4749 25.28 39.6954C25.306 40.7001 25.3133 40.7001 24.2993 40.7001C23.4309 40.7001 22.5614 40.6898 21.693 40.7063C21.4143 40.7114 21.2957 40.6682 21.3009 40.3467C21.3155 39.4059 21.2989 39.4059 22.2598 39.4059C22.6072 39.4059 22.9545 39.4059 23.3019 39.4059L23.3029 39.4048Z" fill="#F6A452"/>
<path d="M23.2887 42.0348C23.8639 42.0348 24.439 42.0482 25.0131 42.0297C25.3219 42.0194 25.3188 42.2234 25.2658 42.3883C25.1659 42.6984 25.5684 43.2611 25.0339 43.3023C23.8784 43.3919 22.7105 43.328 21.5478 43.3322C21.3824 43.3322 21.2909 43.2868 21.3117 43.1085C21.3127 43.0951 21.3117 43.0818 21.3117 43.0684C21.2729 42.3793 21.598 42.0348 22.2872 42.0348C22.6211 42.0348 22.9559 42.0348 23.2898 42.0348H23.2887Z" fill="#F6A452"/>
<path d="M18.6558 46.6216C18.6558 46.0652 18.6652 45.5088 18.6517 44.9533C18.6465 44.7318 18.7099 44.6638 18.9408 44.6586C19.9631 44.6349 19.9631 44.6277 19.9631 45.617C19.9631 46.5042 19.9558 47.3914 19.9683 48.2786C19.9714 48.5166 19.9069 48.5949 19.6553 48.6001C18.6569 48.6176 18.6569 48.6269 18.6569 47.6552C18.6569 47.311 18.6569 46.9668 18.6569 46.6227L18.6558 46.6216Z" fill="#F6A452"/>
<path d="M21.3112 46.6177C21.3112 46.0613 21.3216 45.5048 21.306 44.9494C21.2998 44.7217 21.3747 44.664 21.6003 44.6599C22.6185 44.6382 22.6185 44.631 22.6185 45.6223C22.6185 46.5095 22.6112 47.3967 22.6237 48.2839C22.6268 48.5281 22.5478 48.5951 22.3044 48.6003C21.3112 48.6178 21.3112 48.626 21.3112 47.6512C21.3112 47.3071 21.3112 46.9629 21.3112 46.6177V46.6177Z" fill="#F6A452"/>
<path d="M23.9655 46.6167C23.9655 46.0613 23.9759 45.5048 23.9603 44.9494C23.9541 44.7217 24.03 44.665 24.2546 44.6599C25.2749 44.6382 25.2749 44.631 25.2749 45.6192C25.2749 46.3467 25.2801 47.0752 25.2728 47.8027C25.2666 48.457 24.6821 48.8301 24.0726 48.5869C23.927 48.5292 23.9832 48.4179 23.9666 48.3231C23.9645 48.3107 23.9666 48.2963 23.9666 48.2839C23.9666 47.7285 23.9666 47.1721 23.9666 46.6167H23.9655Z" fill="#F6A452"/>
<path d="M28.4971 26.824C28.5304 26.7931 28.5647 26.7714 28.6032 26.8178C28.6032 26.9342 28.6032 27.0497 28.6032 27.1743L28.4971 26.824Z" fill="#F6A452"/>
<rect x="36" y="36" width="3" height="1" rx="0.5" fill="#E4F9F8"/>
<rect x="20" y="31" width="3" height="1" rx="0.5" transform="rotate(-90 20 31)" fill="#DFF7F6"/>
<rect x="36" y="38" width="3" height="5" rx="1" fill="#E9FBFA"/>
<rect x="23" y="28" width="3" height="3" rx="1" fill="#DFF7F7"/>
</g>
<defs>
<filter id="filter0_d_2029_2995" x="10.666" y="7.12305" width="37.238" height="48.8008" filterUnits="userSpaceOnUse" color-interpolation-filters="sRGB">
<feFlood flood-opacity="0" result="BackgroundImageFix"/>
<feColorMatrix in="SourceAlpha" type="matrix" values="0 0 0 0 0 0 0 0 0 0 0 0 0 0 0 0 0 0 127 0" result="hardAlpha"/>
<feOffset dy="2"/>
<feGaussianBlur stdDeviation="2"/>
<feComposite in2="hardAlpha" operator="out"/>
<feColorMatrix type="matrix" values="0 0 0 0 0.0588235 0 0 0 0 0.686275 0 0 0 0 0.686275 0 0 0 0.18 0"/>
<feBlend mode="normal" in2="BackgroundImageFix" result="effect1_dropShadow_2029_2995"/>
<feBlend mode="normal" in="SourceGraphic" in2="effect1_dropShadow_2029_2995" result="shape"/>
</filter>
</defs>
</svg>
