<svg width="137" height="24" viewBox="0 0 137 24" fill="none" xmlns="http://www.w3.org/2000/svg">
<path d="M15.6018 7.2V17H14.4538L8.57378 9.692V17H7.17378V7.2H8.32178L14.2018 14.508V7.2H15.6018ZM21.5171 17.084C20.7798 17.084 20.1171 16.9207 19.5291 16.594C18.9411 16.2673 18.4791 15.8193 18.1431 15.25C17.8164 14.6713 17.6531 14.018 17.6531 13.29C17.6531 12.562 17.8164 11.9133 18.1431 11.344C18.4791 10.7653 18.9411 10.3173 19.5291 10C20.1171 9.67333 20.7798 9.51 21.5171 9.51C22.2544 9.51 22.9124 9.67333 23.4911 10C24.0791 10.3173 24.5364 10.7653 24.8631 11.344C25.1991 11.9133 25.3671 12.562 25.3671 13.29C25.3671 14.018 25.1991 14.6713 24.8631 15.25C24.5364 15.8193 24.0791 16.2673 23.4911 16.594C22.9124 16.9207 22.2544 17.084 21.5171 17.084ZM21.5171 15.908C21.9931 15.908 22.4178 15.8007 22.7911 15.586C23.1738 15.362 23.4724 15.054 23.6871 14.662C23.9018 14.2607 24.0091 13.8033 24.0091 13.29C24.0091 12.7767 23.9018 12.324 23.6871 11.932C23.4724 11.5307 23.1738 11.2227 22.7911 11.008C22.4178 10.7933 21.9931 10.686 21.5171 10.686C21.0411 10.686 20.6118 10.7933 20.2291 11.008C19.8558 11.2227 19.5571 11.5307 19.3331 11.932C19.1184 12.324 19.0111 12.7767 19.0111 13.29C19.0111 13.8033 19.1184 14.2607 19.3331 14.662C19.5571 15.054 19.8558 15.362 20.2291 15.586C20.6118 15.8007 21.0411 15.908 21.5171 15.908ZM31.3978 16.566C31.2018 16.734 30.9592 16.8647 30.6698 16.958C30.3805 17.042 30.0818 17.084 29.7738 17.084C29.0272 17.084 28.4485 16.8833 28.0378 16.482C27.6272 16.0807 27.4218 15.5067 27.4218 14.76V10.686H26.1618V9.58H27.4218V7.956H28.7658V9.58H30.8938V10.686H28.7658V14.704C28.7658 15.1053 28.8638 15.4133 29.0598 15.628C29.2652 15.8427 29.5545 15.95 29.9278 15.95C30.3385 15.95 30.6885 15.8333 30.9778 15.6L31.3978 16.566ZM35.7247 9.51C36.7514 9.51 37.5354 9.762 38.0767 10.266C38.6274 10.77 38.9027 11.5213 38.9027 12.52V17H37.6287V16.02C37.4047 16.3653 37.0827 16.6313 36.6627 16.818C36.252 16.9953 35.762 17.084 35.1927 17.084C34.362 17.084 33.6947 16.8833 33.1907 16.482C32.696 16.0807 32.4487 15.5533 32.4487 14.9C32.4487 14.2467 32.6867 13.724 33.1627 13.332C33.6387 12.9307 34.3947 12.73 35.4307 12.73H37.5587V12.464C37.5587 11.8853 37.3907 11.442 37.0547 11.134C36.7187 10.826 36.224 10.672 35.5707 10.672C35.132 10.672 34.7027 10.7467 34.2827 10.896C33.8627 11.036 33.508 11.2273 33.2187 11.47L32.6587 10.462C33.0414 10.154 33.4987 9.92067 34.0307 9.762C34.5627 9.594 35.1274 9.51 35.7247 9.51ZM35.4167 16.048C35.93 16.048 36.3734 15.936 36.7467 15.712C37.12 15.4787 37.3907 15.152 37.5587 14.732V13.696H35.4867C34.348 13.696 33.7787 14.0787 33.7787 14.844C33.7787 15.2173 33.9234 15.5113 34.2127 15.726C34.502 15.9407 34.9034 16.048 35.4167 16.048ZM47.2777 17.084C46.671 17.084 46.0877 17.0047 45.5277 16.846C44.9677 16.678 44.529 16.468 44.2117 16.216L44.7717 15.152C45.0983 15.3853 45.495 15.572 45.9617 15.712C46.4283 15.852 46.8997 15.922 47.3757 15.922C48.5517 15.922 49.1397 15.586 49.1397 14.914C49.1397 14.69 49.0603 14.5127 48.9017 14.382C48.743 14.2513 48.5423 14.158 48.2997 14.102C48.0663 14.0367 47.7303 13.9667 47.2917 13.892C46.6943 13.7987 46.2043 13.6913 45.8217 13.57C45.4483 13.4487 45.1263 13.2433 44.8557 12.954C44.585 12.6647 44.4497 12.2587 44.4497 11.736C44.4497 11.064 44.7297 10.5273 45.2897 10.126C45.8497 9.71533 46.601 9.51 47.5437 9.51C48.0383 9.51 48.533 9.57067 49.0277 9.692C49.5223 9.81333 49.9283 9.97667 50.2457 10.182L49.6717 11.246C49.065 10.854 48.351 10.658 47.5297 10.658C46.9603 10.658 46.5263 10.7513 46.2277 10.938C45.929 11.1247 45.7797 11.372 45.7797 11.68C45.7797 11.9227 45.8637 12.114 46.0317 12.254C46.1997 12.394 46.405 12.4967 46.6477 12.562C46.8997 12.6273 47.2497 12.702 47.6977 12.786C48.295 12.8887 48.7757 13.0007 49.1397 13.122C49.513 13.234 49.8303 13.43 50.0917 13.71C50.353 13.99 50.4837 14.382 50.4837 14.886C50.4837 15.558 50.1943 16.0947 49.6157 16.496C49.0463 16.888 48.267 17.084 47.2777 17.084ZM52.1633 9.58H53.5073V17H52.1633V9.58ZM52.8353 8.152C52.574 8.152 52.3547 8.068 52.1773 7.9C52.0093 7.732 51.9253 7.52667 51.9253 7.284C51.9253 7.04133 52.0093 6.836 52.1773 6.668C52.3547 6.49067 52.574 6.402 52.8353 6.402C53.0967 6.402 53.3113 6.486 53.4793 6.654C53.6567 6.81267 53.7453 7.01333 53.7453 7.256C53.7453 7.508 53.6567 7.72267 53.4793 7.9C53.3113 8.068 53.0967 8.152 52.8353 8.152ZM63.1715 9.58V15.992C63.1715 17.2893 62.8495 18.246 62.2055 18.862C61.5615 19.4873 60.6002 19.8 59.3215 19.8C58.6215 19.8 57.9542 19.702 57.3195 19.506C56.6848 19.3193 56.1715 19.0487 55.7795 18.694L56.4235 17.658C56.7688 17.9567 57.1935 18.19 57.6975 18.358C58.2108 18.5353 58.7382 18.624 59.2795 18.624C60.1475 18.624 60.7868 18.4187 61.1975 18.008C61.6175 17.5973 61.8275 16.972 61.8275 16.132V15.544C61.5102 15.9267 61.1182 16.216 60.6515 16.412C60.1942 16.5987 59.6948 16.692 59.1535 16.692C58.4442 16.692 57.8002 16.5427 57.2215 16.244C56.6522 15.936 56.2042 15.5113 55.8775 14.97C55.5508 14.4193 55.3875 13.794 55.3875 13.094C55.3875 12.394 55.5508 11.7733 55.8775 11.232C56.2042 10.6813 56.6522 10.2567 57.2215 9.958C57.8002 9.65933 58.4442 9.51 59.1535 9.51C59.7135 9.51 60.2315 9.61267 60.7075 9.818C61.1928 10.0233 61.5895 10.3267 61.8975 10.728V9.58H63.1715ZM59.3075 15.516C59.7928 15.516 60.2268 15.4133 60.6095 15.208C61.0015 15.0027 61.3048 14.718 61.5195 14.354C61.7435 13.9807 61.8555 13.5607 61.8555 13.094C61.8555 12.3753 61.6175 11.7967 61.1415 11.358C60.6655 10.91 60.0542 10.686 59.3075 10.686C58.5515 10.686 57.9355 10.91 57.4595 11.358C56.9835 11.7967 56.7455 12.3753 56.7455 13.094C56.7455 13.5607 56.8528 13.9807 57.0675 14.354C57.2915 14.718 57.5948 15.0027 57.9775 15.208C58.3695 15.4133 58.8128 15.516 59.3075 15.516ZM72.6555 9.58V17H71.3815V15.88C71.1108 16.2627 70.7515 16.5613 70.3035 16.776C69.8648 16.9813 69.3842 17.084 68.8615 17.084C67.8722 17.084 67.0928 16.8133 66.5235 16.272C65.9542 15.7213 65.6695 14.914 65.6695 13.85V9.58H67.0135V13.696C67.0135 14.4147 67.1862 14.9607 67.5315 15.334C67.8768 15.698 68.3715 15.88 69.0155 15.88C69.7248 15.88 70.2848 15.6653 70.6955 15.236C71.1062 14.8067 71.3115 14.2 71.3115 13.416V9.58H72.6555ZM75.2141 9.58H76.5581V17H75.2141V9.58ZM75.8861 8.152C75.6248 8.152 75.4054 8.068 75.2281 7.9C75.0601 7.732 74.9761 7.52667 74.9761 7.284C74.9761 7.04133 75.0601 6.836 75.2281 6.668C75.4054 6.49067 75.6248 6.402 75.8861 6.402C76.1474 6.402 76.3621 6.486 76.5301 6.654C76.7074 6.81267 76.7961 7.01333 76.7961 7.256C76.7961 7.508 76.7074 7.72267 76.5301 7.9C76.3621 8.068 76.1474 8.152 75.8861 8.152ZM85.8303 13.332C85.8303 13.4347 85.8209 13.57 85.8023 13.738H79.7823C79.8663 14.3913 80.1509 14.9187 80.6363 15.32C81.1309 15.712 81.7423 15.908 82.4703 15.908C83.3569 15.908 84.0709 15.6093 84.6123 15.012L85.3543 15.88C85.0183 16.272 84.5983 16.5707 84.0943 16.776C83.5996 16.9813 83.0443 17.084 82.4283 17.084C81.6443 17.084 80.9489 16.9253 80.3423 16.608C79.7356 16.2813 79.2643 15.8287 78.9283 15.25C78.6016 14.6713 78.4383 14.018 78.4383 13.29C78.4383 12.5713 78.5969 11.9227 78.9143 11.344C79.2409 10.7653 79.6843 10.3173 80.2443 10C80.8136 9.67333 81.4529 9.51 82.1623 9.51C82.8716 9.51 83.5016 9.67333 84.0523 10C84.6123 10.3173 85.0463 10.7653 85.3543 11.344C85.6716 11.9227 85.8303 12.5853 85.8303 13.332ZM82.1623 10.644C81.5183 10.644 80.9769 10.84 80.5383 11.232C80.1089 11.624 79.8569 12.1373 79.7823 12.772H84.5423C84.4676 12.1467 84.2109 11.638 83.7723 11.246C83.3429 10.8447 82.8063 10.644 82.1623 10.644ZM91.6585 9.51C92.6012 9.51 93.3479 9.78533 93.8985 10.336C94.4585 10.8773 94.7385 11.6753 94.7385 12.73V17H93.3945V12.884C93.3945 12.1653 93.2219 11.624 92.8765 11.26C92.5312 10.896 92.0365 10.714 91.3925 10.714C90.6645 10.714 90.0905 10.9287 89.6705 11.358C89.2505 11.778 89.0405 12.3847 89.0405 13.178V17H87.6965V9.58H88.9845V10.7C89.2552 10.3173 89.6192 10.0233 90.0765 9.818C90.5432 9.61267 91.0705 9.51 91.6585 9.51ZM101.398 16.566C101.202 16.734 100.959 16.8647 100.67 16.958C100.38 17.042 100.082 17.084 99.7738 17.084C99.0272 17.084 98.4485 16.8833 98.0378 16.482C97.6272 16.0807 97.4218 15.5067 97.4218 14.76V10.686H96.1618V9.58H97.4218V7.956H98.7658V9.58H100.894V10.686H98.7658V14.704C98.7658 15.1053 98.8638 15.4133 99.0598 15.628C99.2652 15.8427 99.5545 15.95 99.9278 15.95C100.338 15.95 100.688 15.8333 100.978 15.6L101.398 16.566ZM109.483 13.332C109.483 13.4347 109.473 13.57 109.455 13.738H103.435C103.519 14.3913 103.803 14.9187 104.289 15.32C104.783 15.712 105.395 15.908 106.123 15.908C107.009 15.908 107.723 15.6093 108.265 15.012L109.007 15.88C108.671 16.272 108.251 16.5707 107.747 16.776C107.252 16.9813 106.697 17.084 106.081 17.084C105.297 17.084 104.601 16.9253 103.995 16.608C103.388 16.2813 102.917 15.8287 102.581 15.25C102.254 14.6713 102.091 14.018 102.091 13.29C102.091 12.5713 102.249 11.9227 102.567 11.344C102.893 10.7653 103.337 10.3173 103.897 10C104.466 9.67333 105.105 9.51 105.815 9.51C106.524 9.51 107.154 9.67333 107.705 10C108.265 10.3173 108.699 10.7653 109.007 11.344C109.324 11.9227 109.483 12.5853 109.483 13.332ZM105.815 10.644C105.171 10.644 104.629 10.84 104.191 11.232C103.761 11.624 103.509 12.1373 103.435 12.772H108.195C108.12 12.1467 107.863 11.638 107.425 11.246C106.995 10.8447 106.459 10.644 105.815 10.644Z" fill="#9F2241"/>
<rect x="136.26" y="20.5" width="20.4887" height="18" rx="2.5" transform="rotate(-180 136.26 20.5)" stroke="#9F2241"/>
<path d="M126.236 15.9707L131.532 11.5001L126.236 7.02954" stroke="#9F2241" stroke-width="2" stroke-linecap="round" stroke-linejoin="round"/>
<path d="M131.532 11.5L120.497 11.5" stroke="#9F2241" stroke-width="2" stroke-linecap="round" stroke-linejoin="round"/>
</svg>
