<svg width="60" height="60" viewBox="0 0 60 60" fill="none" xmlns="http://www.w3.org/2000/svg">
<circle cx="30" cy="30" r="30" fill="#F6FAFF"/>
<g filter="url(#filter0_d_910_16487)">
<path fill-rule="evenodd" clip-rule="evenodd" d="M30 12.9996C26.3931 12.9996 22.9338 14.4325 20.3833 16.983C17.8329 19.5335 16.4 22.9927 16.4 26.5996C16.4 31.8663 19.8268 36.9768 23.5841 40.9429C25.428 42.8893 27.2777 44.4827 28.6684 45.59C29.1859 46.0022 29.6379 46.3454 30 46.613C30.3621 46.3454 30.8141 46.0022 31.3317 45.59C32.7223 44.4827 34.572 42.8893 36.4159 40.9429C40.1732 36.9768 43.6 31.8663 43.6 26.5996C43.6 22.9927 42.1671 19.5335 39.6167 16.983C37.0662 14.4325 33.6069 12.9996 30 12.9996ZM30 48.6996C29.057 50.1141 29.0566 50.1138 29.0561 50.1135L29.0512 50.1102L29.0399 50.1026L29.0009 50.0763C28.9678 50.0538 28.9206 50.0215 28.8602 49.9797C28.7395 49.8961 28.566 49.7742 28.3472 49.6162C27.9099 49.3004 27.2908 48.8394 26.5504 48.2498C25.0723 47.0728 23.097 45.3724 21.1159 43.2813C17.2232 39.1724 13 33.2329 13 26.5996C13 22.0909 14.7911 17.7669 17.9792 14.5788C21.1673 11.3907 25.4913 9.59961 30 9.59961C34.5087 9.59961 38.8327 11.3907 42.0208 14.5788C45.2089 17.7669 47 22.0909 47 26.5996C47 33.2329 42.7768 39.1724 38.8841 43.2813C36.903 45.3724 34.9277 47.0728 33.4496 48.2498C32.7092 48.8394 32.0901 49.3004 31.6528 49.6162C31.434 49.7742 31.2605 49.8961 31.1398 49.9797C31.0794 50.0215 31.0322 50.0538 30.9991 50.0763L30.9601 50.1026L30.9488 50.1102L30.9452 50.1126C30.9447 50.113 30.943 50.1141 30 48.6996ZM30 48.6996L30.943 50.1141C30.372 50.4948 29.6271 50.4942 29.0561 50.1135L30 48.6996Z" fill="#66C7F0"/>
<path fill-rule="evenodd" clip-rule="evenodd" d="M30.0002 23.1988C28.1224 23.1988 26.6002 24.7211 26.6002 26.5988C26.6002 28.4766 28.1224 29.9988 30.0002 29.9988C31.878 29.9988 33.4002 28.4766 33.4002 26.5988C33.4002 24.7211 31.878 23.1988 30.0002 23.1988ZM23.2002 26.5988C23.2002 22.8433 26.2447 19.7988 30.0002 19.7988C33.7557 19.7988 36.8002 22.8433 36.8002 26.5988C36.8002 30.3544 33.7557 33.3988 30.0002 33.3988C26.2447 33.3988 23.2002 30.3544 23.2002 26.5988Z" fill="#66C7F0"/>
</g>
<defs>
<filter id="filter0_d_910_16487" x="9" y="9.59961" width="42" height="48.7998" filterUnits="userSpaceOnUse" color-interpolation-filters="sRGB">
<feFlood flood-opacity="0" result="BackgroundImageFix"/>
<feColorMatrix in="SourceAlpha" type="matrix" values="0 0 0 0 0 0 0 0 0 0 0 0 0 0 0 0 0 0 127 0" result="hardAlpha"/>
<feOffset dy="4"/>
<feGaussianBlur stdDeviation="2"/>
<feComposite in2="hardAlpha" operator="out"/>
<feColorMatrix type="matrix" values="0 0 0 0 0 0 0 0 0 0 0 0 0 0 0 0 0 0 0.15 0"/>
<feBlend mode="normal" in2="BackgroundImageFix" result="effect1_dropShadow_910_16487"/>
<feBlend mode="normal" in="SourceGraphic" in2="effect1_dropShadow_910_16487" result="shape"/>
</filter>
</defs>
</svg>
