<svg width="1083" height="100" viewBox="0 0 1083 100" fill="none" xmlns="http://www.w3.org/2000/svg">
<path d="M0 70H1083V90C1083 95.5228 1078.52 100 1073 100H9.99998C4.47713 100 0 95.5228 0 90V70Z" fill="#8CBFFF"/>
<g filter="url(#filter0_d_432_5572)">
<mask id="path-2-outside-1_432_5572" maskUnits="userSpaceOnUse" x="43.7771" y="0" width="83" height="84" fill="black">
<rect fill="white" x="43.7771" width="83" height="84"/>
<path d="M53.7576 3.71962H115.923C118.114 3.71962 120.11 4.52471 121.556 5.81787L121.56 5.82204C123.004 7.11728 123.903 8.90476 123.903 10.8674V66.5482C123.903 68.5109 123.004 70.2984 121.56 71.5936L121.556 71.5978C120.11 72.891 118.114 73.696 115.923 73.696H53.7576C51.564 73.696 49.5706 72.891 48.1244 71.5978L48.1198 71.5936C46.6737 70.2984 45.7771 68.5109 45.7771 66.5482V10.8674C45.7771 8.90476 46.6737 7.11728 48.1198 5.82204L48.1244 5.81787C49.5706 4.52471 51.564 3.71962 53.7576 3.71962Z"/>
<path fill-rule="evenodd" clip-rule="evenodd" d="M115.229 6.58767H54.4498C52.9455 6.58767 51.5762 7.1383 50.5841 8.02683C49.5944 8.91535 48.9773 10.1418 48.9773 11.4891V65.9268C48.9773 67.2742 49.5944 68.5006 50.5841 69.3892C51.5762 70.2777 52.9455 70.8283 54.4498 70.8283H115.229C116.736 70.8283 118.105 70.2777 119.097 69.3892C120.087 68.5006 120.702 67.2742 120.702 65.9268V11.4891C120.702 10.1418 120.087 8.91535 119.097 8.02683C118.105 7.1383 116.736 6.58767 115.229 6.58767Z"/>
<path d="M83.6759 42.1496C83.6759 41.574 84.1975 41.1068 84.8403 41.1068C85.483 41.1068 86.0046 41.574 86.0046 42.1496V71.8714C86.0046 72.447 85.483 72.9142 84.8403 72.9142C84.1975 72.9142 83.6759 72.447 83.6759 71.8714V42.1496Z"/>
<path fill-rule="evenodd" clip-rule="evenodd" d="M52.0087 81.4884C51.2566 81.9472 50.2506 82.1016 49.3284 81.9347C47.7332 81.6448 46.3267 80.3746 46.676 78.8416C47.023 77.3106 48.8696 76.6328 50.4648 76.9248C51.38 77.0916 52.2346 77.5818 52.7283 78.2576C54.2862 78.4661 55.8814 78.1366 57.1994 77.3565C58.613 76.5181 59.6003 75.227 59.9403 73.7482L60.3595 71.9023L56.2074 53.6229L55.4995 53.7523L53.6715 45.693C53.5317 45.0714 53.4572 44.4374 53.4572 43.8012C53.4572 41.8698 54.0976 39.8967 55.2876 38.2845C56.5521 36.5741 58.4057 35.306 60.6739 34.8951C61.1862 34.8013 61.7102 34.7491 62.2364 34.7491C62.7627 34.7491 63.289 34.8013 63.8037 34.8951C66.0695 35.306 67.9232 36.5762 69.183 38.2845C70.373 39.8967 71.0157 41.8698 71.0157 43.8012C71.0157 44.4395 70.9412 45.0756 70.7991 45.6992L68.9711 53.7523L68.2655 53.6229L64.1134 71.9023L64.5279 73.7357C64.8726 75.227 65.8576 76.5181 67.2735 77.3565C68.5915 78.1387 70.189 78.4515 71.7446 78.2534C72.2406 77.5797 73.0929 77.0916 74.0058 76.9248C75.6033 76.6328 77.4499 77.3106 77.7969 78.8416C78.1439 80.3746 76.7397 81.6448 75.1445 81.9347C74.2223 82.1016 73.2163 81.9472 72.4618 81.4904C69.9515 81.87 67.3689 81.3653 65.2428 80.1034C64.0249 79.3818 63.0003 78.4369 62.2341 77.3357C61.475 78.4307 60.455 79.3776 59.2278 80.1034C57.1063 81.3632 54.5284 81.8617 52.0087 81.4884ZM62.2364 63.6428L64.663 52.9659L63.955 52.8366L65.7854 44.7836C65.8599 44.4624 65.8855 44.1287 65.8855 43.8012C65.8855 42.7646 65.5525 41.6821 64.9121 40.8165C64.4138 40.1408 63.6896 39.5526 62.7837 39.3857C62.6044 39.3544 62.4181 39.3419 62.2364 39.3419C62.0548 39.3419 61.8685 39.3544 61.6892 39.3878C60.781 39.5526 60.0568 40.1408 59.5584 40.8165C58.9204 41.6821 58.585 42.7646 58.585 43.8012C58.585 44.1308 58.6153 44.4624 58.6875 44.7836L60.5155 52.8366L59.8099 52.9659L62.2364 63.6428Z"/>
<path d="M59.1978 52.0551L57.5933 44.9844H57.591C57.5095 44.6152 57.4676 44.2169 57.4676 43.8018C57.4676 42.5358 57.8867 41.2676 58.6273 40.2644C59.3259 39.3196 60.3016 38.6188 61.466 38.406C61.6942 38.3643 61.9504 38.3434 62.2368 38.3434C62.5209 38.3434 62.7794 38.3643 63.0076 38.406C64.1696 38.6188 65.1477 39.3196 65.844 40.2644C66.5868 41.2676 67.0037 42.5358 67.0037 43.8018C67.0037 44.2169 66.9641 44.6152 66.8803 44.9844L65.2734 52.0551L68.0982 52.5723L69.705 45.4996V45.4954C69.8354 44.9218 69.8983 44.3545 69.8983 43.8018C69.8983 42.0414 69.3045 40.2623 68.2519 38.8378C67.1551 37.3506 65.5529 36.2348 63.5828 35.876H63.5781C63.1287 35.7947 62.6793 35.7509 62.2368 35.7509C61.7943 35.7509 61.3449 35.7947 60.8955 35.876H60.8908C58.9207 36.2348 57.3185 37.3506 56.2217 38.8378C55.1691 40.2623 54.5753 42.0414 54.5753 43.8018C54.5753 44.3545 54.6382 44.9218 54.7686 45.4954V45.4996L56.3731 52.5723L59.1978 52.0551Z"/>
<path d="M74.4313 78.798L72.3867 79.1693L72.3029 79.1839C70.2769 79.5531 68.2649 79.1463 66.6557 78.1911C65.0512 77.24 63.8496 75.7466 63.4328 73.9382L63.4305 73.9216L63.2628 73.1832L63.0136 74.2845C62.8995 74.7725 62.7412 75.2439 62.5409 75.7007C63.2418 77.1836 64.4132 78.4121 65.8593 79.2694C67.7525 80.3915 70.1162 80.8775 72.5054 80.4645H72.5101L72.5916 80.4499L74.7201 80.062L74.4313 78.798ZM61.9447 67.3828L58.4913 52.184L57.0777 52.4427L61.2089 70.6219L61.9447 67.3828Z"/>
<path d="M74.9214 80.9524C76.0974 80.7397 76.8938 79.8845 76.7029 79.0419C76.5119 78.2013 75.4035 77.6924 74.2298 77.9052C73.0561 78.12 72.2573 78.9751 72.4506 79.8178C72.6416 80.6583 73.7477 81.1673 74.9214 80.9524Z"/>
<path d="M49.7527 80.062L51.8788 80.4499L51.9626 80.4645H51.9649C54.3542 80.8775 56.7178 80.3915 58.6111 79.2694C60.5276 78.1348 61.9621 76.3452 62.4535 74.1802L62.4721 74.1072V74.1051L67.3926 52.4427L65.9791 52.184L61.0423 73.9216L61.0376 73.9382C60.6231 75.7466 59.4191 77.24 57.8147 78.1911C56.2055 79.1463 54.1935 79.5531 52.1675 79.1839L52.0837 79.1693L50.0414 78.7959L49.7527 80.062Z"/>
<path d="M49.55 80.9524C48.3763 80.7397 47.5799 79.8845 47.7709 79.0419C47.9618 78.2013 49.068 77.6924 50.2416 77.9052C51.4176 78.12 52.214 78.9751 52.0231 79.8178C51.8321 80.6583 50.726 81.1673 49.55 80.9524Z"/>
<path d="M107.445 54.4392C110.761 54.4392 113.451 56.8483 113.451 59.8204C113.451 62.7905 110.761 65.1996 107.445 65.1996C104.127 65.1996 101.437 62.7905 101.437 59.8204C101.437 56.8483 104.127 54.4392 107.445 54.4392Z"/>
<path fill-rule="evenodd" clip-rule="evenodd" d="M107.443 56.9436C109.216 56.9436 110.655 58.2305 110.655 59.8198C110.655 61.407 109.216 62.696 107.443 62.696C105.669 62.696 104.232 61.407 104.232 59.8198C104.232 58.2305 105.669 56.9436 107.443 56.9436Z"/>
<path d="M108.609 4.14149V55.0042H106.28V4.14149H108.609ZM61.0727 37.3714V4.14149H63.4014V37.3714H61.0727Z"/>
<path d="M102.65 6.38945L87.2408 39.6841L104.729 30.4922C104.497 28.4628 104.103 22.6248 107.2 21.7592C108.276 21.4589 109.764 21.1669 111.25 20.877C113.294 20.4765 115.327 20.1073 115.672 20.0323C115.626 19.125 114.78 15.3686 113.814 11.6351C112.88 8.03093 111.939 4.55401 111.716 4.07011C110.449 4.18483 104.443 5.87845 102.65 6.38945ZM84.8399 39.4317L100.71 5.14636C100.836 4.87521 101.087 4.65204 101.423 4.55401C101.448 4.54775 109.655 2.19713 111.876 2.01776C112.046 1.98856 112.226 1.99481 112.405 2.04069L112.428 2.04486V2.04696C112.465 2.05738 112.503 2.06781 112.542 2.08241C113.478 2.41821 114.939 6.76488 116.077 11.17C117.083 15.0494 117.938 19.0812 117.973 20.2784C117.98 20.3618 117.978 20.4473 117.961 20.5328V20.5349L117.938 20.6288L117.926 20.6705C117.912 20.7122 117.898 20.7518 117.88 20.7936C117.43 21.803 114.585 22.3578 111.739 22.9127C110.3 23.1942 108.858 23.4758 107.892 23.747C106.057 24.26 107.121 30.8823 107.126 30.901H107.123C107.184 31.3057 106.977 31.7207 106.56 31.9397L85.4897 43.0129L85.4873 43.015L85.4128 43.0567L85.3849 43.0692L85.3406 43.0901L85.2964 43.1067L85.2801 43.1151L85.2055 43.138L85.2009 43.1401L85.1497 43.1526C85.0682 43.1735 84.9866 43.186 84.9051 43.1902L84.8399 43.1923L84.7771 43.1902C84.6932 43.186 84.6141 43.1735 84.5325 43.1526L84.4813 43.1401L84.4743 43.138L84.4021 43.1151L84.3835 43.1067L84.3579 43.0963L84.3393 43.0901L84.295 43.0692L84.2741 43.0588L84.2671 43.0567L84.2298 43.0358L84.1949 43.015L84.1902 43.0129L63.12 31.9397C62.7032 31.7207 62.4959 31.3057 62.5588 30.901H62.5565C62.5588 30.8823 63.6254 24.26 61.7903 23.747C60.8239 23.4758 59.3825 23.1942 57.941 22.9127C55.0976 22.3578 52.2519 21.803 51.8002 20.7936C51.7839 20.7518 51.7676 20.7122 51.7559 20.6705L51.7419 20.6288C51.7326 20.5975 51.7256 20.5662 51.721 20.5349V20.5328C51.7047 20.4473 51.7 20.3618 51.7093 20.2784C51.7419 19.0812 52.5989 15.0494 53.6026 11.17C54.7437 6.76488 56.2014 2.41821 57.1399 2.08241C57.1772 2.06781 57.2167 2.05738 57.254 2.04696V2.04486L57.2773 2.04069C57.4543 1.99481 57.6336 1.98856 57.8059 2.01776C60.0252 2.19713 68.2339 4.54775 68.2572 4.55401C68.5948 4.65204 68.8463 4.87521 68.9721 5.14636L84.8399 39.4317ZM64.9504 30.4922L82.4414 39.6841L67.0323 6.38945C65.2368 5.87845 59.2311 4.18483 57.9666 4.07011C57.743 4.55401 56.7999 8.03093 55.8661 11.6351C54.8997 15.3686 54.0567 19.125 54.0078 20.0323C54.3524 20.1053 56.3877 20.4765 58.4323 20.877C59.9181 21.1669 61.4061 21.4589 62.482 21.7592C65.5792 22.6248 65.1856 28.4628 64.9504 30.4922Z"/>
</mask>
<path d="M53.7576 3.71962H115.923C118.114 3.71962 120.11 4.52471 121.556 5.81787L121.56 5.82204C123.004 7.11728 123.903 8.90476 123.903 10.8674V66.5482C123.903 68.5109 123.004 70.2984 121.56 71.5936L121.556 71.5978C120.11 72.891 118.114 73.696 115.923 73.696H53.7576C51.564 73.696 49.5706 72.891 48.1244 71.5978L48.1198 71.5936C46.6737 70.2984 45.7771 68.5109 45.7771 66.5482V10.8674C45.7771 8.90476 46.6737 7.11728 48.1198 5.82204L48.1244 5.81787C49.5706 4.52471 51.564 3.71962 53.7576 3.71962Z" fill="#0B5EC5"/>
<path fill-rule="evenodd" clip-rule="evenodd" d="M115.229 6.58767H54.4498C52.9455 6.58767 51.5762 7.1383 50.5841 8.02683C49.5944 8.91535 48.9773 10.1418 48.9773 11.4891V65.9268C48.9773 67.2742 49.5944 68.5006 50.5841 69.3892C51.5762 70.2777 52.9455 70.8283 54.4498 70.8283H115.229C116.736 70.8283 118.105 70.2777 119.097 69.3892C120.087 68.5006 120.702 67.2742 120.702 65.9268V11.4891C120.702 10.1418 120.087 8.91535 119.097 8.02683C118.105 7.1383 116.736 6.58767 115.229 6.58767Z" fill="#0B5EC5"/>
<path d="M83.6759 42.1496C83.6759 41.574 84.1975 41.1068 84.8403 41.1068C85.483 41.1068 86.0046 41.574 86.0046 42.1496V71.8714C86.0046 72.447 85.483 72.9142 84.8403 72.9142C84.1975 72.9142 83.6759 72.447 83.6759 71.8714V42.1496Z" fill="#0B5EC5"/>
<path fill-rule="evenodd" clip-rule="evenodd" d="M52.0087 81.4884C51.2566 81.9472 50.2506 82.1016 49.3284 81.9347C47.7332 81.6448 46.3267 80.3746 46.676 78.8416C47.023 77.3106 48.8696 76.6328 50.4648 76.9248C51.38 77.0916 52.2346 77.5818 52.7283 78.2576C54.2862 78.4661 55.8814 78.1366 57.1994 77.3565C58.613 76.5181 59.6003 75.227 59.9403 73.7482L60.3595 71.9023L56.2074 53.6229L55.4995 53.7523L53.6715 45.693C53.5317 45.0714 53.4572 44.4374 53.4572 43.8012C53.4572 41.8698 54.0976 39.8967 55.2876 38.2845C56.5521 36.5741 58.4057 35.306 60.6739 34.8951C61.1862 34.8013 61.7102 34.7491 62.2364 34.7491C62.7627 34.7491 63.289 34.8013 63.8037 34.8951C66.0695 35.306 67.9232 36.5762 69.183 38.2845C70.373 39.8967 71.0157 41.8698 71.0157 43.8012C71.0157 44.4395 70.9412 45.0756 70.7991 45.6992L68.9711 53.7523L68.2655 53.6229L64.1134 71.9023L64.5279 73.7357C64.8726 75.227 65.8576 76.5181 67.2735 77.3565C68.5915 78.1387 70.189 78.4515 71.7446 78.2534C72.2406 77.5797 73.0929 77.0916 74.0058 76.9248C75.6033 76.6328 77.4499 77.3106 77.7969 78.8416C78.1439 80.3746 76.7397 81.6448 75.1445 81.9347C74.2223 82.1016 73.2163 81.9472 72.4618 81.4904C69.9515 81.87 67.3689 81.3653 65.2428 80.1034C64.0249 79.3818 63.0003 78.4369 62.2341 77.3357C61.475 78.4307 60.455 79.3776 59.2278 80.1034C57.1063 81.3632 54.5284 81.8617 52.0087 81.4884ZM62.2364 63.6428L64.663 52.9659L63.955 52.8366L65.7854 44.7836C65.8599 44.4624 65.8855 44.1287 65.8855 43.8012C65.8855 42.7646 65.5525 41.6821 64.9121 40.8165C64.4138 40.1408 63.6896 39.5526 62.7837 39.3857C62.6044 39.3544 62.4181 39.3419 62.2364 39.3419C62.0548 39.3419 61.8685 39.3544 61.6892 39.3878C60.781 39.5526 60.0568 40.1408 59.5584 40.8165C58.9204 41.6821 58.585 42.7646 58.585 43.8012C58.585 44.1308 58.6153 44.4624 58.6875 44.7836L60.5155 52.8366L59.8099 52.9659L62.2364 63.6428Z" fill="#0B5EC5"/>
<path d="M59.1978 52.0551L57.5933 44.9844H57.591C57.5095 44.6152 57.4676 44.2169 57.4676 43.8018C57.4676 42.5358 57.8867 41.2676 58.6273 40.2644C59.3259 39.3196 60.3016 38.6188 61.466 38.406C61.6942 38.3643 61.9504 38.3434 62.2368 38.3434C62.5209 38.3434 62.7794 38.3643 63.0076 38.406C64.1696 38.6188 65.1477 39.3196 65.844 40.2644C66.5868 41.2676 67.0037 42.5358 67.0037 43.8018C67.0037 44.2169 66.9641 44.6152 66.8803 44.9844L65.2734 52.0551L68.0982 52.5723L69.705 45.4996V45.4954C69.8354 44.9218 69.8983 44.3545 69.8983 43.8018C69.8983 42.0414 69.3045 40.2623 68.2519 38.8378C67.1551 37.3506 65.5529 36.2348 63.5828 35.876H63.5781C63.1287 35.7947 62.6793 35.7509 62.2368 35.7509C61.7943 35.7509 61.3449 35.7947 60.8955 35.876H60.8908C58.9207 36.2348 57.3185 37.3506 56.2217 38.8378C55.1691 40.2623 54.5753 42.0414 54.5753 43.8018C54.5753 44.3545 54.6382 44.9218 54.7686 45.4954V45.4996L56.3731 52.5723L59.1978 52.0551Z" fill="#0B5EC5"/>
<path d="M74.4313 78.798L72.3867 79.1693L72.3029 79.1839C70.2769 79.5531 68.2649 79.1463 66.6557 78.1911C65.0512 77.24 63.8496 75.7466 63.4328 73.9382L63.4305 73.9216L63.2628 73.1832L63.0136 74.2845C62.8995 74.7725 62.7412 75.2439 62.5409 75.7007C63.2418 77.1836 64.4132 78.4121 65.8593 79.2694C67.7525 80.3915 70.1162 80.8775 72.5054 80.4645H72.5101L72.5916 80.4499L74.7201 80.062L74.4313 78.798ZM61.9447 67.3828L58.4913 52.184L57.0777 52.4427L61.2089 70.6219L61.9447 67.3828Z" fill="#0B5EC5"/>
<path d="M74.9214 80.9524C76.0974 80.7397 76.8938 79.8845 76.7029 79.0419C76.5119 78.2013 75.4035 77.6924 74.2298 77.9052C73.0561 78.12 72.2573 78.9751 72.4506 79.8178C72.6416 80.6583 73.7477 81.1673 74.9214 80.9524Z" fill="#0B5EC5"/>
<path d="M49.7527 80.062L51.8788 80.4499L51.9626 80.4645H51.9649C54.3542 80.8775 56.7178 80.3915 58.6111 79.2694C60.5276 78.1348 61.9621 76.3452 62.4535 74.1802L62.4721 74.1072V74.1051L67.3926 52.4427L65.9791 52.184L61.0423 73.9216L61.0376 73.9382C60.6231 75.7466 59.4191 77.24 57.8147 78.1911C56.2055 79.1463 54.1935 79.5531 52.1675 79.1839L52.0837 79.1693L50.0414 78.7959L49.7527 80.062Z" fill="#0B5EC5"/>
<path d="M49.55 80.9524C48.3763 80.7397 47.5799 79.8845 47.7709 79.0419C47.9618 78.2013 49.068 77.6924 50.2416 77.9052C51.4176 78.12 52.214 78.9751 52.0231 79.8178C51.8321 80.6583 50.726 81.1673 49.55 80.9524Z" fill="#0B5EC5"/>
<path d="M107.445 54.4392C110.761 54.4392 113.451 56.8483 113.451 59.8204C113.451 62.7905 110.761 65.1996 107.445 65.1996C104.127 65.1996 101.437 62.7905 101.437 59.8204C101.437 56.8483 104.127 54.4392 107.445 54.4392Z" fill="#0B5EC5"/>
<path fill-rule="evenodd" clip-rule="evenodd" d="M107.443 56.9436C109.216 56.9436 110.655 58.2305 110.655 59.8198C110.655 61.407 109.216 62.696 107.443 62.696C105.669 62.696 104.232 61.407 104.232 59.8198C104.232 58.2305 105.669 56.9436 107.443 56.9436Z" fill="#0B5EC5"/>
<path d="M108.609 4.14149V55.0042H106.28V4.14149H108.609ZM61.0727 37.3714V4.14149H63.4014V37.3714H61.0727Z" fill="#0B5EC5"/>
<path d="M102.65 6.38945L87.2408 39.6841L104.729 30.4922C104.497 28.4628 104.103 22.6248 107.2 21.7592C108.276 21.4589 109.764 21.1669 111.25 20.877C113.294 20.4765 115.327 20.1073 115.672 20.0323C115.626 19.125 114.78 15.3686 113.814 11.6351C112.88 8.03093 111.939 4.55401 111.716 4.07011C110.449 4.18483 104.443 5.87845 102.65 6.38945ZM84.8399 39.4317L100.71 5.14636C100.836 4.87521 101.087 4.65204 101.423 4.55401C101.448 4.54775 109.655 2.19713 111.876 2.01776C112.046 1.98856 112.226 1.99481 112.405 2.04069L112.428 2.04486V2.04696C112.465 2.05738 112.503 2.06781 112.542 2.08241C113.478 2.41821 114.939 6.76488 116.077 11.17C117.083 15.0494 117.938 19.0812 117.973 20.2784C117.98 20.3618 117.978 20.4473 117.961 20.5328V20.5349L117.938 20.6288L117.926 20.6705C117.912 20.7122 117.898 20.7518 117.88 20.7936C117.43 21.803 114.585 22.3578 111.739 22.9127C110.3 23.1942 108.858 23.4758 107.892 23.747C106.057 24.26 107.121 30.8823 107.126 30.901H107.123C107.184 31.3057 106.977 31.7207 106.56 31.9397L85.4897 43.0129L85.4873 43.015L85.4128 43.0567L85.3849 43.0692L85.3406 43.0901L85.2964 43.1067L85.2801 43.1151L85.2055 43.138L85.2009 43.1401L85.1497 43.1526C85.0682 43.1735 84.9866 43.186 84.9051 43.1902L84.8399 43.1923L84.7771 43.1902C84.6932 43.186 84.6141 43.1735 84.5325 43.1526L84.4813 43.1401L84.4743 43.138L84.4021 43.1151L84.3835 43.1067L84.3579 43.0963L84.3393 43.0901L84.295 43.0692L84.2741 43.0588L84.2671 43.0567L84.2298 43.0358L84.1949 43.015L84.1902 43.0129L63.12 31.9397C62.7032 31.7207 62.4959 31.3057 62.5588 30.901H62.5565C62.5588 30.8823 63.6254 24.26 61.7903 23.747C60.8239 23.4758 59.3825 23.1942 57.941 22.9127C55.0976 22.3578 52.2519 21.803 51.8002 20.7936C51.7839 20.7518 51.7676 20.7122 51.7559 20.6705L51.7419 20.6288C51.7326 20.5975 51.7256 20.5662 51.721 20.5349V20.5328C51.7047 20.4473 51.7 20.3618 51.7093 20.2784C51.7419 19.0812 52.5989 15.0494 53.6026 11.17C54.7437 6.76488 56.2014 2.41821 57.1399 2.08241C57.1772 2.06781 57.2167 2.05738 57.254 2.04696V2.04486L57.2773 2.04069C57.4543 1.99481 57.6336 1.98856 57.8059 2.01776C60.0252 2.19713 68.2339 4.54775 68.2572 4.55401C68.5948 4.65204 68.8463 4.87521 68.9721 5.14636L84.8399 39.4317ZM64.9504 30.4922L82.4414 39.6841L67.0323 6.38945C65.2368 5.87845 59.2311 4.18483 57.9666 4.07011C57.743 4.55401 56.7999 8.03093 55.8661 11.6351C54.8997 15.3686 54.0567 19.125 54.0078 20.0323C54.3524 20.1053 56.3877 20.4765 58.4323 20.877C59.9181 21.1669 61.4061 21.4589 62.482 21.7592C65.5792 22.6248 65.1856 28.4628 64.9504 30.4922Z" fill="#0B5EC5"/>
<path d="M53.7576 3.71962H115.923C118.114 3.71962 120.11 4.52471 121.556 5.81787L121.56 5.82204C123.004 7.11728 123.903 8.90476 123.903 10.8674V66.5482C123.903 68.5109 123.004 70.2984 121.56 71.5936L121.556 71.5978C120.11 72.891 118.114 73.696 115.923 73.696H53.7576C51.564 73.696 49.5706 72.891 48.1244 71.5978L48.1198 71.5936C46.6737 70.2984 45.7771 68.5109 45.7771 66.5482V10.8674C45.7771 8.90476 46.6737 7.11728 48.1198 5.82204L48.1244 5.81787C49.5706 4.52471 51.564 3.71962 53.7576 3.71962Z" stroke="#EEEEEE" stroke-width="4" stroke-linejoin="round" mask="url(#path-2-outside-1_432_5572)"/>
<path fill-rule="evenodd" clip-rule="evenodd" d="M115.229 6.58767H54.4498C52.9455 6.58767 51.5762 7.1383 50.5841 8.02683C49.5944 8.91535 48.9773 10.1418 48.9773 11.4891V65.9268C48.9773 67.2742 49.5944 68.5006 50.5841 69.3892C51.5762 70.2777 52.9455 70.8283 54.4498 70.8283H115.229C116.736 70.8283 118.105 70.2777 119.097 69.3892C120.087 68.5006 120.702 67.2742 120.702 65.9268V11.4891C120.702 10.1418 120.087 8.91535 119.097 8.02683C118.105 7.1383 116.736 6.58767 115.229 6.58767Z" stroke="#EEEEEE" stroke-width="4" stroke-linejoin="round" mask="url(#path-2-outside-1_432_5572)"/>
<path d="M83.6759 42.1496C83.6759 41.574 84.1975 41.1068 84.8403 41.1068C85.483 41.1068 86.0046 41.574 86.0046 42.1496V71.8714C86.0046 72.447 85.483 72.9142 84.8403 72.9142C84.1975 72.9142 83.6759 72.447 83.6759 71.8714V42.1496Z" stroke="#EEEEEE" stroke-width="4" stroke-linejoin="round" mask="url(#path-2-outside-1_432_5572)"/>
<path fill-rule="evenodd" clip-rule="evenodd" d="M52.0087 81.4884C51.2566 81.9472 50.2506 82.1016 49.3284 81.9347C47.7332 81.6448 46.3267 80.3746 46.676 78.8416C47.023 77.3106 48.8696 76.6328 50.4648 76.9248C51.38 77.0916 52.2346 77.5818 52.7283 78.2576C54.2862 78.4661 55.8814 78.1366 57.1994 77.3565C58.613 76.5181 59.6003 75.227 59.9403 73.7482L60.3595 71.9023L56.2074 53.6229L55.4995 53.7523L53.6715 45.693C53.5317 45.0714 53.4572 44.4374 53.4572 43.8012C53.4572 41.8698 54.0976 39.8967 55.2876 38.2845C56.5521 36.5741 58.4057 35.306 60.6739 34.8951C61.1862 34.8013 61.7102 34.7491 62.2364 34.7491C62.7627 34.7491 63.289 34.8013 63.8037 34.8951C66.0695 35.306 67.9232 36.5762 69.183 38.2845C70.373 39.8967 71.0157 41.8698 71.0157 43.8012C71.0157 44.4395 70.9412 45.0756 70.7991 45.6992L68.9711 53.7523L68.2655 53.6229L64.1134 71.9023L64.5279 73.7357C64.8726 75.227 65.8576 76.5181 67.2735 77.3565C68.5915 78.1387 70.189 78.4515 71.7446 78.2534C72.2406 77.5797 73.0929 77.0916 74.0058 76.9248C75.6033 76.6328 77.4499 77.3106 77.7969 78.8416C78.1439 80.3746 76.7397 81.6448 75.1445 81.9347C74.2223 82.1016 73.2163 81.9472 72.4618 81.4904C69.9515 81.87 67.3689 81.3653 65.2428 80.1034C64.0249 79.3818 63.0003 78.4369 62.2341 77.3357C61.475 78.4307 60.455 79.3776 59.2278 80.1034C57.1063 81.3632 54.5284 81.8617 52.0087 81.4884ZM62.2364 63.6428L64.663 52.9659L63.955 52.8366L65.7854 44.7836C65.8599 44.4624 65.8855 44.1287 65.8855 43.8012C65.8855 42.7646 65.5525 41.6821 64.9121 40.8165C64.4138 40.1408 63.6896 39.5526 62.7837 39.3857C62.6044 39.3544 62.4181 39.3419 62.2364 39.3419C62.0548 39.3419 61.8685 39.3544 61.6892 39.3878C60.781 39.5526 60.0568 40.1408 59.5584 40.8165C58.9204 41.6821 58.585 42.7646 58.585 43.8012C58.585 44.1308 58.6153 44.4624 58.6875 44.7836L60.5155 52.8366L59.8099 52.9659L62.2364 63.6428Z" stroke="#EEEEEE" stroke-width="4" stroke-linejoin="round" mask="url(#path-2-outside-1_432_5572)"/>
<path d="M59.1978 52.0551L57.5933 44.9844H57.591C57.5095 44.6152 57.4676 44.2169 57.4676 43.8018C57.4676 42.5358 57.8867 41.2676 58.6273 40.2644C59.3259 39.3196 60.3016 38.6188 61.466 38.406C61.6942 38.3643 61.9504 38.3434 62.2368 38.3434C62.5209 38.3434 62.7794 38.3643 63.0076 38.406C64.1696 38.6188 65.1477 39.3196 65.844 40.2644C66.5868 41.2676 67.0037 42.5358 67.0037 43.8018C67.0037 44.2169 66.9641 44.6152 66.8803 44.9844L65.2734 52.0551L68.0982 52.5723L69.705 45.4996V45.4954C69.8354 44.9218 69.8983 44.3545 69.8983 43.8018C69.8983 42.0414 69.3045 40.2623 68.2519 38.8378C67.1551 37.3506 65.5529 36.2348 63.5828 35.876H63.5781C63.1287 35.7947 62.6793 35.7509 62.2368 35.7509C61.7943 35.7509 61.3449 35.7947 60.8955 35.876H60.8908C58.9207 36.2348 57.3185 37.3506 56.2217 38.8378C55.1691 40.2623 54.5753 42.0414 54.5753 43.8018C54.5753 44.3545 54.6382 44.9218 54.7686 45.4954V45.4996L56.3731 52.5723L59.1978 52.0551Z" stroke="#EEEEEE" stroke-width="4" stroke-linejoin="round" mask="url(#path-2-outside-1_432_5572)"/>
<path d="M74.4313 78.798L72.3867 79.1693L72.3029 79.1839C70.2769 79.5531 68.2649 79.1463 66.6557 78.1911C65.0512 77.24 63.8496 75.7466 63.4328 73.9382L63.4305 73.9216L63.2628 73.1832L63.0136 74.2845C62.8995 74.7725 62.7412 75.2439 62.5409 75.7007C63.2418 77.1836 64.4132 78.4121 65.8593 79.2694C67.7525 80.3915 70.1162 80.8775 72.5054 80.4645H72.5101L72.5916 80.4499L74.7201 80.062L74.4313 78.798ZM61.9447 67.3828L58.4913 52.184L57.0777 52.4427L61.2089 70.6219L61.9447 67.3828Z" stroke="#EEEEEE" stroke-width="4" stroke-linejoin="round" mask="url(#path-2-outside-1_432_5572)"/>
<path d="M74.9214 80.9524C76.0974 80.7397 76.8938 79.8845 76.7029 79.0419C76.5119 78.2013 75.4035 77.6924 74.2298 77.9052C73.0561 78.12 72.2573 78.9751 72.4506 79.8178C72.6416 80.6583 73.7477 81.1673 74.9214 80.9524Z" stroke="#EEEEEE" stroke-width="4" stroke-linejoin="round" mask="url(#path-2-outside-1_432_5572)"/>
<path d="M49.7527 80.062L51.8788 80.4499L51.9626 80.4645H51.9649C54.3542 80.8775 56.7178 80.3915 58.6111 79.2694C60.5276 78.1348 61.9621 76.3452 62.4535 74.1802L62.4721 74.1072V74.1051L67.3926 52.4427L65.9791 52.184L61.0423 73.9216L61.0376 73.9382C60.6231 75.7466 59.4191 77.24 57.8147 78.1911C56.2055 79.1463 54.1935 79.5531 52.1675 79.1839L52.0837 79.1693L50.0414 78.7959L49.7527 80.062Z" stroke="#EEEEEE" stroke-width="4" stroke-linejoin="round" mask="url(#path-2-outside-1_432_5572)"/>
<path d="M49.55 80.9524C48.3763 80.7397 47.5799 79.8845 47.7709 79.0419C47.9618 78.2013 49.068 77.6924 50.2416 77.9052C51.4176 78.12 52.214 78.9751 52.0231 79.8178C51.8321 80.6583 50.726 81.1673 49.55 80.9524Z" stroke="#EEEEEE" stroke-width="4" stroke-linejoin="round" mask="url(#path-2-outside-1_432_5572)"/>
<path d="M107.445 54.4392C110.761 54.4392 113.451 56.8483 113.451 59.8204C113.451 62.7905 110.761 65.1996 107.445 65.1996C104.127 65.1996 101.437 62.7905 101.437 59.8204C101.437 56.8483 104.127 54.4392 107.445 54.4392Z" stroke="#EEEEEE" stroke-width="4" stroke-linejoin="round" mask="url(#path-2-outside-1_432_5572)"/>
<path fill-rule="evenodd" clip-rule="evenodd" d="M107.443 56.9436C109.216 56.9436 110.655 58.2305 110.655 59.8198C110.655 61.407 109.216 62.696 107.443 62.696C105.669 62.696 104.232 61.407 104.232 59.8198C104.232 58.2305 105.669 56.9436 107.443 56.9436Z" stroke="#EEEEEE" stroke-width="4" stroke-linejoin="round" mask="url(#path-2-outside-1_432_5572)"/>
<path d="M108.609 4.14149V55.0042H106.28V4.14149H108.609ZM61.0727 37.3714V4.14149H63.4014V37.3714H61.0727Z" stroke="#EEEEEE" stroke-width="4" stroke-linejoin="round" mask="url(#path-2-outside-1_432_5572)"/>
<path d="M102.65 6.38945L87.2408 39.6841L104.729 30.4922C104.497 28.4628 104.103 22.6248 107.2 21.7592C108.276 21.4589 109.764 21.1669 111.25 20.877C113.294 20.4765 115.327 20.1073 115.672 20.0323C115.626 19.125 114.78 15.3686 113.814 11.6351C112.88 8.03093 111.939 4.55401 111.716 4.07011C110.449 4.18483 104.443 5.87845 102.65 6.38945ZM84.8399 39.4317L100.71 5.14636C100.836 4.87521 101.087 4.65204 101.423 4.55401C101.448 4.54775 109.655 2.19713 111.876 2.01776C112.046 1.98856 112.226 1.99481 112.405 2.04069L112.428 2.04486V2.04696C112.465 2.05738 112.503 2.06781 112.542 2.08241C113.478 2.41821 114.939 6.76488 116.077 11.17C117.083 15.0494 117.938 19.0812 117.973 20.2784C117.98 20.3618 117.978 20.4473 117.961 20.5328V20.5349L117.938 20.6288L117.926 20.6705C117.912 20.7122 117.898 20.7518 117.88 20.7936C117.43 21.803 114.585 22.3578 111.739 22.9127C110.3 23.1942 108.858 23.4758 107.892 23.747C106.057 24.26 107.121 30.8823 107.126 30.901H107.123C107.184 31.3057 106.977 31.7207 106.56 31.9397L85.4897 43.0129L85.4873 43.015L85.4128 43.0567L85.3849 43.0692L85.3406 43.0901L85.2964 43.1067L85.2801 43.1151L85.2055 43.138L85.2009 43.1401L85.1497 43.1526C85.0682 43.1735 84.9866 43.186 84.9051 43.1902L84.8399 43.1923L84.7771 43.1902C84.6932 43.186 84.6141 43.1735 84.5325 43.1526L84.4813 43.1401L84.4743 43.138L84.4021 43.1151L84.3835 43.1067L84.3579 43.0963L84.3393 43.0901L84.295 43.0692L84.2741 43.0588L84.2671 43.0567L84.2298 43.0358L84.1949 43.015L84.1902 43.0129L63.12 31.9397C62.7032 31.7207 62.4959 31.3057 62.5588 30.901H62.5565C62.5588 30.8823 63.6254 24.26 61.7903 23.747C60.8239 23.4758 59.3825 23.1942 57.941 22.9127C55.0976 22.3578 52.2519 21.803 51.8002 20.7936C51.7839 20.7518 51.7676 20.7122 51.7559 20.6705L51.7419 20.6288C51.7326 20.5975 51.7256 20.5662 51.721 20.5349V20.5328C51.7047 20.4473 51.7 20.3618 51.7093 20.2784C51.7419 19.0812 52.5989 15.0494 53.6026 11.17C54.7437 6.76488 56.2014 2.41821 57.1399 2.08241C57.1772 2.06781 57.2167 2.05738 57.254 2.04696V2.04486L57.2773 2.04069C57.4543 1.99481 57.6336 1.98856 57.8059 2.01776C60.0252 2.19713 68.2339 4.54775 68.2572 4.55401C68.5948 4.65204 68.8463 4.87521 68.9721 5.14636L84.8399 39.4317ZM64.9504 30.4922L82.4414 39.6841L67.0323 6.38945C65.2368 5.87845 59.2311 4.18483 57.9666 4.07011C57.743 4.55401 56.7999 8.03093 55.8661 11.6351C54.8997 15.3686 54.0567 19.125 54.0078 20.0323C54.3524 20.1053 56.3877 20.4765 58.4323 20.877C59.9181 21.1669 61.4061 21.4589 62.482 21.7592C65.5792 22.6248 65.1856 28.4628 64.9504 30.4922Z" stroke="#EEEEEE" stroke-width="4" stroke-linejoin="round" mask="url(#path-2-outside-1_432_5572)"/>
<path d="M53.7583 3.71973H115.923C118.115 3.71973 120.11 4.52482 121.556 5.81798L121.561 5.82215C123.005 7.11739 123.904 8.90487 123.904 10.8675V66.5483C123.904 68.511 123.005 70.2985 121.561 71.5937L121.556 71.5979C120.11 72.8911 118.115 73.6961 115.923 73.6961H53.7583C51.5647 73.6961 49.5713 72.8911 48.1252 71.5979L48.1205 71.5937C46.6744 70.2985 45.7778 68.511 45.7778 66.5483V10.8675C45.7778 8.90487 46.6744 7.11739 48.1205 5.82215L48.1252 5.81798C49.5713 4.52482 51.5647 3.71973 53.7583 3.71973Z" fill="white"/>
<path fill-rule="evenodd" clip-rule="evenodd" d="M115.231 6.58789H54.4517C52.9474 6.58789 51.5781 7.13852 50.5861 8.02705C49.5964 8.91557 48.9792 10.142 48.9792 11.4894V65.9271C48.9792 67.2744 49.5964 68.5008 50.5861 69.3894C51.5781 70.2779 52.9474 70.8285 54.4517 70.8285H115.231C116.738 70.8285 118.107 70.2779 119.099 69.3894C120.089 68.5008 120.704 67.2744 120.704 65.9271V11.4894C120.704 10.142 120.089 8.91557 119.099 8.02705C118.107 7.13852 116.738 6.58789 115.231 6.58789Z" fill="#8CBFFF"/>
<path d="M83.6782 42.1493C83.6782 41.5737 84.1999 41.1064 84.8426 41.1064C85.4853 41.1064 86.0069 41.5737 86.0069 42.1493V71.8711C86.0069 72.4467 85.4853 72.9139 84.8426 72.9139C84.1999 72.9139 83.6782 72.4467 83.6782 71.8711V42.1493Z" fill="white"/>
<path fill-rule="evenodd" clip-rule="evenodd" d="M52.0113 81.4883C51.2591 81.9471 50.2531 82.1015 49.3309 81.9346C47.7358 81.6447 46.3292 80.3745 46.6785 78.8415C47.0255 77.3105 48.8722 76.6327 50.4673 76.9247C51.3825 77.0915 52.2372 77.5817 52.7309 78.2575C54.2888 78.466 55.8839 78.1365 57.202 77.3564C58.6155 76.5179 59.6029 75.2269 59.9429 73.7481L60.362 71.9022L56.2099 53.6228L55.502 53.7522L53.674 45.6929C53.5343 45.0713 53.4597 44.4373 53.4597 43.8011C53.4597 41.8697 54.1001 39.8966 55.2901 38.2843C56.5546 36.574 58.4083 35.3059 60.6764 34.895C61.1887 34.8012 61.7127 34.749 62.239 34.749C62.7653 34.749 63.2916 34.8012 63.8062 34.895C66.072 35.3059 67.9257 36.5761 69.1855 38.2843C70.3755 39.8966 71.0182 41.8697 71.0182 43.8011C71.0182 44.4393 70.9437 45.0755 70.8017 45.6991L68.9736 53.7522L68.268 53.6228L64.1159 71.9022L64.5304 73.7356C64.8751 75.2269 65.8601 76.5179 67.276 77.3564C68.594 78.1386 70.1915 78.4514 71.7471 78.2533C72.2431 77.5796 73.0954 77.0915 74.0083 76.9247C75.6058 76.6327 77.4525 77.3105 77.7994 78.8415C78.1464 80.3745 76.7422 81.6447 75.147 81.9346C74.2249 82.1015 73.2189 81.9471 72.4644 81.4903C69.954 81.8699 67.3715 81.3652 65.2454 80.1033C64.0274 79.3817 63.0028 78.4368 62.2367 77.3356C61.4775 78.4306 60.4575 79.3775 59.2303 80.1033C57.1088 81.3631 54.531 81.8616 52.0113 81.4883ZM62.239 63.6427L64.6655 52.9658L63.9576 52.8365L65.7879 44.7835C65.8625 44.4623 65.8881 44.1286 65.8881 43.8011C65.8881 42.7645 65.5551 41.682 64.9147 40.8164C64.4163 40.1406 63.6921 39.5525 62.7862 39.3856C62.6069 39.3543 62.4206 39.3418 62.239 39.3418C62.0573 39.3418 61.871 39.3543 61.6917 39.3877C60.7835 39.5525 60.0593 40.1406 59.561 40.8164C58.9229 41.682 58.5876 42.7645 58.5876 43.8011C58.5876 44.1307 58.6178 44.4623 58.69 44.7835L60.5181 52.8365L59.8125 52.9658L62.239 63.6427Z" fill="#8CBFFF"/>
<path d="M59.1989 52.0552L57.5944 44.9845H57.5921C57.5106 44.6153 57.4687 44.217 57.4687 43.8019C57.4687 42.5359 57.8879 41.2677 58.6284 40.2645C59.327 39.3197 60.3027 38.6189 61.4671 38.4061C61.6953 38.3644 61.9515 38.3435 62.2379 38.3435C62.522 38.3435 62.7805 38.3644 63.0087 38.4061C64.1707 38.6189 65.1488 39.3197 65.8451 40.2645C66.588 41.2677 67.0048 42.5359 67.0048 43.8019C67.0048 44.217 66.9652 44.6153 66.8814 44.9845L65.2746 52.0552L68.0993 52.5724L69.7061 45.4997V45.4955C69.8365 44.9219 69.8994 44.3546 69.8994 43.8019C69.8994 42.0416 69.3056 40.2624 68.253 38.8379C67.1562 37.3507 65.554 36.2349 63.5839 35.8761H63.5792C63.1298 35.7948 62.6804 35.751 62.2379 35.751C61.7954 35.751 61.346 35.7948 60.8966 35.8761H60.8919C58.9218 36.2349 57.3196 37.3507 56.2228 38.8379C55.1702 40.2624 54.5764 42.0416 54.5764 43.8019C54.5764 44.3546 54.6393 44.9219 54.7697 45.4955V45.4997L56.3742 52.5724L59.1989 52.0552Z" fill="#0B5EC5"/>
<path d="M74.4317 78.7976L72.3871 79.1688L72.3033 79.1834C70.2773 79.5526 68.2653 79.1459 66.6561 78.1906C65.0516 77.2395 63.85 75.7461 63.4332 73.9378L63.4309 73.9211L63.2632 73.1828L63.014 74.284C62.8999 74.7721 62.7416 75.2435 62.5413 75.7002C63.2422 77.1832 64.4136 78.4117 65.8597 79.269C67.7529 80.3911 70.1166 80.8771 72.5058 80.4641H72.5105L72.592 80.4495L74.7205 80.0615L74.4317 78.7976ZM61.9451 67.3823L58.4917 52.1836L57.0781 52.4422L61.2093 70.6215L61.9451 67.3823Z" fill="white"/>
<path d="M74.9225 80.9521C76.0985 80.7394 76.8949 79.8842 76.704 79.0416C76.513 78.201 75.4045 77.6921 74.2308 77.9048C73.0572 78.1196 72.2584 78.9748 72.4517 79.8174C72.6426 80.658 73.7488 81.1669 74.9225 80.9521Z" fill="#0B5EC5"/>
<path d="M49.7527 80.0615L51.8788 80.4495L51.9626 80.4641H51.965C54.3542 80.8771 56.7179 80.3911 58.6111 79.269C60.5276 78.1343 61.9621 76.3447 62.4535 74.1798L62.4721 74.1067V74.1047L67.3927 52.4422L65.9791 52.1836L61.0423 73.9211L61.0376 73.9378C60.6231 75.7461 59.4192 77.2395 57.8147 78.1906C56.2055 79.1459 54.1935 79.5526 52.1676 79.1834L52.0837 79.1688L50.0414 78.7955L49.7527 80.0615Z" fill="white"/>
<path d="M49.5491 80.9521C48.3754 80.7394 47.579 79.8842 47.77 79.0416C47.9609 78.201 49.0671 77.6921 50.2407 77.9048C51.4167 78.1196 52.2131 78.9748 52.0222 79.8174C51.8312 80.658 50.7251 81.1669 49.5491 80.9521Z" fill="#0B5EC5"/>
<path d="M107.445 54.4395C110.761 54.4395 113.451 56.8485 113.451 59.8206C113.451 62.7907 110.761 65.1998 107.445 65.1998C104.126 65.1998 101.437 62.7907 101.437 59.8206C101.437 56.8485 104.126 54.4395 107.445 54.4395Z" fill="#0B5EC5"/>
<path fill-rule="evenodd" clip-rule="evenodd" d="M107.444 56.9434C109.217 56.9434 110.656 58.2303 110.656 59.8196C110.656 61.4068 109.217 62.6958 107.444 62.6958C105.67 62.6958 104.233 61.4068 104.233 59.8196C104.233 58.2303 105.67 56.9434 107.444 56.9434Z" fill="#8CBFFF"/>
<path d="M108.61 4.1416V55.0043H106.281V4.1416H108.61ZM61.0735 37.3715V4.1416H63.4022V37.3715H61.0735Z" fill="#0B5EC5"/>
<path d="M102.649 6.38945L87.2404 39.6841L104.729 30.4922C104.496 28.4628 104.103 22.6248 107.2 21.7592C108.276 21.4589 109.764 21.1669 111.249 20.877C113.294 20.4765 115.327 20.1073 115.672 20.0323C115.625 19.125 114.78 15.3686 113.813 11.6351C112.879 8.03093 111.939 4.55401 111.715 4.07011C110.448 4.18483 104.443 5.87845 102.649 6.38945ZM84.8395 39.4317L100.71 5.14636C100.835 4.87521 101.087 4.65204 101.422 4.55401C101.448 4.54775 109.654 2.19713 111.876 2.01776C112.046 1.98856 112.225 1.99481 112.404 2.04069L112.428 2.04486V2.04696C112.465 2.05738 112.502 2.06781 112.542 2.08241C113.478 2.41821 114.938 6.76488 116.077 11.17C117.083 15.0494 117.937 19.0812 117.972 20.2784C117.979 20.3618 117.977 20.4473 117.961 20.5328V20.5349L117.937 20.6288L117.926 20.6705C117.912 20.7122 117.898 20.7518 117.879 20.7936C117.43 21.803 114.584 22.3578 111.738 22.9127C110.299 23.1942 108.858 23.4758 107.891 23.747C106.056 24.26 107.121 30.8823 107.125 30.901H107.123C107.183 31.3057 106.976 31.7207 106.559 31.9397L85.4892 43.0129L85.4868 43.015L85.4123 43.0567L85.3844 43.0692L85.3401 43.0901L85.2959 43.1067L85.2796 43.1151L85.2051 43.138L85.2004 43.1401L85.1492 43.1526C85.0677 43.1735 84.9862 43.186 84.9047 43.1902L84.8395 43.1923L84.7766 43.1902C84.6927 43.186 84.6136 43.1735 84.5321 43.1526L84.4808 43.1401L84.4738 43.138L84.4017 43.1151L84.383 43.1067L84.3574 43.0963L84.3388 43.0901L84.2945 43.0692L84.2736 43.0588L84.2666 43.0567L84.2293 43.0358L84.1944 43.015L84.1897 43.0129L63.1195 31.9397C62.7027 31.7207 62.4954 31.3057 62.5583 30.901H62.556C62.5583 30.8823 63.6249 24.26 61.7899 23.747C60.8234 23.4758 59.382 23.1942 57.9405 22.9127C55.0971 22.3578 52.2514 21.803 51.7997 20.7936C51.7834 20.7518 51.7671 20.7122 51.7554 20.6705L51.7415 20.6288C51.7321 20.5975 51.7252 20.5662 51.7205 20.5349V20.5328C51.7042 20.4473 51.6995 20.3618 51.7088 20.2784C51.7415 19.0812 52.5984 15.0494 53.6021 11.17C54.7432 6.76488 56.2009 2.41821 57.1394 2.08241C57.1767 2.06781 57.2163 2.05738 57.2535 2.04696V2.04486L57.2768 2.04069C57.4538 1.99481 57.6331 1.98856 57.8054 2.01776C60.0247 2.19713 68.2334 4.54775 68.2567 4.55401C68.5943 4.65204 68.8459 4.87521 68.9716 5.14636L84.8395 39.4317ZM64.9499 30.4922L82.4409 39.6841L67.0318 6.38945C65.2363 5.87845 59.2306 4.18483 57.9661 4.07011C57.7425 4.55401 56.7994 8.03093 55.8656 11.6351C54.8992 15.3686 54.0562 19.125 54.0073 20.0323C54.3519 20.1053 56.3872 20.4765 58.4318 20.877C59.9176 21.1669 61.4056 21.4589 62.4815 21.7592C65.5787 22.6248 65.1851 28.4628 64.9499 30.4922Z" fill="white"/>
</g>
<defs>
<filter id="filter0_d_432_5572" x="39.7771" y="0" width="90.126" height="91.9998" filterUnits="userSpaceOnUse" color-interpolation-filters="sRGB">
<feFlood flood-opacity="0" result="BackgroundImageFix"/>
<feColorMatrix in="SourceAlpha" type="matrix" values="0 0 0 0 0 0 0 0 0 0 0 0 0 0 0 0 0 0 127 0" result="hardAlpha"/>
<feOffset dy="4"/>
<feGaussianBlur stdDeviation="2"/>
<feComposite in2="hardAlpha" operator="out"/>
<feColorMatrix type="matrix" values="0 0 0 0 0 0 0 0 0 0 0 0 0 0 0 0 0 0 0.1 0"/>
<feBlend mode="normal" in2="BackgroundImageFix" result="effect1_dropShadow_432_5572"/>
<feBlend mode="normal" in="SourceGraphic" in2="effect1_dropShadow_432_5572" result="shape"/>
</filter>
</defs>
</svg>
