<svg width="192" height="66" viewBox="0 0 192 66" fill="none" xmlns="http://www.w3.org/2000/svg">
<g filter="url(#filter0_d_1022_2675)">
<rect width="192" height="50" fill="#C3EAFF"/>
<rect x="0.5" y="0.5" width="191" height="49" stroke="#EEEEEE"/>
</g>
<path d="M44 5.5V0.5L191.5 0.5V49.5L44 49.5V43.5V43.2454L43.7941 43.0956L33 35.2454V15.7212L43.8363 5.86997L44 5.72118V5.5Z" fill="white" stroke="#EEEEEE"/>
<path d="M56.624 30.5L54.908 28.04C54.836 28.048 54.728 28.052 54.584 28.052H52.688V30.5H51.128V22.1H54.584C55.312 22.1 55.944 22.22 56.48 22.46C57.024 22.7 57.44 23.044 57.728 23.492C58.016 23.94 58.16 24.472 58.16 25.088C58.16 25.72 58.004 26.264 57.692 26.72C57.388 27.176 56.948 27.516 56.372 27.74L58.304 30.5H56.624ZM56.588 25.088C56.588 24.552 56.412 24.14 56.06 23.852C55.708 23.564 55.192 23.42 54.512 23.42H52.688V26.768H54.512C55.192 26.768 55.708 26.624 56.06 26.336C56.412 26.04 56.588 25.624 56.588 25.088ZM65.7853 27.332C65.7853 27.436 65.7773 27.584 65.7613 27.776H60.7333C60.8213 28.248 61.0493 28.624 61.4173 28.904C61.7933 29.176 62.2573 29.312 62.8093 29.312C63.5133 29.312 64.0933 29.08 64.5493 28.616L65.3533 29.54C65.0653 29.884 64.7013 30.144 64.2613 30.32C63.8213 30.496 63.3253 30.584 62.7733 30.584C62.0693 30.584 61.4493 30.444 60.9133 30.164C60.3773 29.884 59.9613 29.496 59.6653 29C59.3773 28.496 59.2333 27.928 59.2333 27.296C59.2333 26.672 59.3733 26.112 59.6533 25.616C59.9413 25.112 60.3373 24.72 60.8413 24.44C61.3453 24.16 61.9133 24.02 62.5453 24.02C63.1693 24.02 63.7253 24.16 64.2133 24.44C64.7093 24.712 65.0933 25.1 65.3653 25.604C65.6453 26.1 65.7853 26.676 65.7853 27.332ZM62.5453 25.22C62.0653 25.22 61.6573 25.364 61.3213 25.652C60.9933 25.932 60.7933 26.308 60.7213 26.78H64.3573C64.2933 26.316 64.0973 25.94 63.7693 25.652C63.4413 25.364 63.0333 25.22 62.5453 25.22ZM70.1662 30.584C69.5022 30.584 68.9062 30.444 68.3782 30.164C67.8502 29.884 67.4382 29.496 67.1422 29C66.8462 28.496 66.6982 27.928 66.6982 27.296C66.6982 26.664 66.8462 26.1 67.1422 25.604C67.4382 25.108 67.8462 24.72 68.3662 24.44C68.8942 24.16 69.4942 24.02 70.1662 24.02C70.7982 24.02 71.3502 24.148 71.8222 24.404C72.3022 24.66 72.6622 25.028 72.9022 25.508L71.7502 26.18C71.5662 25.884 71.3342 25.664 71.0542 25.52C70.7822 25.368 70.4822 25.292 70.1542 25.292C69.5942 25.292 69.1302 25.476 68.7622 25.844C68.3942 26.204 68.2102 26.688 68.2102 27.296C68.2102 27.904 68.3902 28.392 68.7502 28.76C69.1182 29.12 69.5862 29.3 70.1542 29.3C70.4822 29.3 70.7822 29.228 71.0542 29.084C71.3342 28.932 71.5662 28.708 71.7502 28.412L72.9022 29.084C72.6542 29.564 72.2902 29.936 71.8102 30.2C71.3382 30.456 70.7902 30.584 70.1662 30.584ZM80.1291 27.332C80.1291 27.436 80.1211 27.584 80.1051 27.776H75.0771C75.1651 28.248 75.3931 28.624 75.7611 28.904C76.1371 29.176 76.6011 29.312 77.1531 29.312C77.8571 29.312 78.4371 29.08 78.8931 28.616L79.6971 29.54C79.4091 29.884 79.0451 30.144 78.6051 30.32C78.1651 30.496 77.6691 30.584 77.1171 30.584C76.4131 30.584 75.7931 30.444 75.2571 30.164C74.7211 29.884 74.3051 29.496 74.0091 29C73.7211 28.496 73.5771 27.928 73.5771 27.296C73.5771 26.672 73.7171 26.112 73.9971 25.616C74.2851 25.112 74.6811 24.72 75.1851 24.44C75.6891 24.16 76.2571 24.02 76.8891 24.02C77.5131 24.02 78.0691 24.16 78.5571 24.44C79.0531 24.712 79.4371 25.1 79.7091 25.604C79.9891 26.1 80.1291 26.676 80.1291 27.332ZM76.8891 25.22C76.4091 25.22 76.0011 25.364 75.6651 25.652C75.3371 25.932 75.1371 26.308 75.0651 26.78H78.7011C78.6371 26.316 78.4411 25.94 78.1131 25.652C77.7851 25.364 77.3771 25.22 76.8891 25.22ZM85.4219 30.152C85.2459 30.296 85.0299 30.404 84.7739 30.476C84.5259 30.548 84.2619 30.584 83.9819 30.584C83.2779 30.584 82.7339 30.4 82.3499 30.032C81.9659 29.664 81.7739 29.128 81.7739 28.424V25.34H80.7179V24.14H81.7739V22.676H83.2739V24.14H84.9899V25.34H83.2739V28.388C83.2739 28.7 83.3499 28.94 83.5019 29.108C83.6539 29.268 83.8739 29.348 84.1619 29.348C84.4979 29.348 84.7779 29.26 85.0019 29.084L85.4219 30.152ZM89.1039 24.02C90.0479 24.02 90.7679 24.248 91.2639 24.704C91.7679 25.152 92.0199 25.832 92.0199 26.744V30.5H90.6039V29.72C90.4199 30 90.1559 30.216 89.8119 30.368C89.4759 30.512 89.0679 30.584 88.5879 30.584C88.1079 30.584 87.6879 30.504 87.3279 30.344C86.9679 30.176 86.6879 29.948 86.4879 29.66C86.2959 29.364 86.1999 29.032 86.1999 28.664C86.1999 28.088 86.4119 27.628 86.8359 27.284C87.2679 26.932 87.9439 26.756 88.8639 26.756H90.5199V26.66C90.5199 26.212 90.3839 25.868 90.1119 25.628C89.8479 25.388 89.4519 25.268 88.9239 25.268C88.5639 25.268 88.2079 25.324 87.8559 25.436C87.5119 25.548 87.2199 25.704 86.9799 25.904L86.3919 24.812C86.7279 24.556 87.1319 24.36 87.6039 24.224C88.0759 24.088 88.5759 24.02 89.1039 24.02ZM88.8999 29.492C89.2759 29.492 89.6079 29.408 89.8959 29.24C90.1919 29.064 90.3999 28.816 90.5199 28.496V27.752H88.9719C88.1079 27.752 87.6759 28.036 87.6759 28.604C87.6759 28.876 87.7839 29.092 87.9999 29.252C88.2159 29.412 88.5159 29.492 88.8999 29.492ZM101.113 30.152C100.937 30.296 100.721 30.404 100.465 30.476C100.217 30.548 99.9533 30.584 99.6733 30.584C98.9693 30.584 98.4253 30.4 98.0413 30.032C97.6573 29.664 97.4653 29.128 97.4653 28.424V25.34H96.4093V24.14H97.4653V22.676H98.9653V24.14H100.681V25.34H98.9653V28.388C98.9653 28.7 99.0413 28.94 99.1933 29.108C99.3453 29.268 99.5653 29.348 99.8533 29.348C100.189 29.348 100.469 29.26 100.693 29.084L101.113 30.152ZM103.775 25.028C104.207 24.356 104.967 24.02 106.055 24.02V25.448C105.927 25.424 105.811 25.412 105.707 25.412C105.123 25.412 104.667 25.584 104.339 25.928C104.011 26.264 103.847 26.752 103.847 27.392V30.5H102.347V24.092H103.775V25.028ZM109.741 24.02C110.685 24.02 111.405 24.248 111.901 24.704C112.405 25.152 112.657 25.832 112.657 26.744V30.5H111.241V29.72C111.057 30 110.793 30.216 110.449 30.368C110.113 30.512 109.705 30.584 109.225 30.584C108.745 30.584 108.325 30.504 107.965 30.344C107.605 30.176 107.325 29.948 107.125 29.66C106.933 29.364 106.837 29.032 106.837 28.664C106.837 28.088 107.049 27.628 107.473 27.284C107.905 26.932 108.581 26.756 109.501 26.756H111.157V26.66C111.157 26.212 111.021 25.868 110.749 25.628C110.485 25.388 110.089 25.268 109.561 25.268C109.201 25.268 108.845 25.324 108.493 25.436C108.149 25.548 107.857 25.704 107.617 25.904L107.029 24.812C107.365 24.556 107.769 24.36 108.241 24.224C108.713 24.088 109.213 24.02 109.741 24.02ZM109.537 29.492C109.913 29.492 110.245 29.408 110.533 29.24C110.829 29.064 111.037 28.816 111.157 28.496V27.752H109.609C108.745 27.752 108.313 28.036 108.313 28.604C108.313 28.876 108.421 29.092 108.637 29.252C108.853 29.412 109.153 29.492 109.537 29.492ZM118.218 24.02C119.026 24.02 119.674 24.256 120.162 24.728C120.65 25.2 120.894 25.9 120.894 26.828V30.5H119.394V27.02C119.394 26.46 119.262 26.04 118.998 25.76C118.734 25.472 118.358 25.328 117.87 25.328C117.318 25.328 116.882 25.496 116.562 25.832C116.242 26.16 116.082 26.636 116.082 27.26V30.5H114.582V24.092H116.01V24.92C116.258 24.624 116.57 24.4 116.946 24.248C117.322 24.096 117.746 24.02 118.218 24.02ZM124.777 30.584C124.257 30.584 123.749 30.516 123.253 30.38C122.757 30.244 122.361 30.072 122.065 29.864L122.641 28.724C122.929 28.916 123.273 29.072 123.673 29.192C124.081 29.304 124.481 29.36 124.873 29.36C125.769 29.36 126.217 29.124 126.217 28.652C126.217 28.428 126.101 28.272 125.869 28.184C125.645 28.096 125.281 28.012 124.777 27.932C124.249 27.852 123.817 27.76 123.481 27.656C123.153 27.552 122.865 27.372 122.617 27.116C122.377 26.852 122.257 26.488 122.257 26.024C122.257 25.416 122.509 24.932 123.013 24.572C123.525 24.204 124.213 24.02 125.077 24.02C125.517 24.02 125.957 24.072 126.397 24.176C126.837 24.272 127.197 24.404 127.477 24.572L126.901 25.712C126.357 25.392 125.745 25.232 125.065 25.232C124.625 25.232 124.289 25.3 124.057 25.436C123.833 25.564 123.721 25.736 123.721 25.952C123.721 26.192 123.841 26.364 124.081 26.468C124.329 26.564 124.709 26.656 125.221 26.744C125.733 26.824 126.153 26.916 126.481 27.02C126.809 27.124 127.089 27.3 127.321 27.548C127.561 27.796 127.681 28.148 127.681 28.604C127.681 29.204 127.421 29.684 126.901 30.044C126.381 30.404 125.673 30.584 124.777 30.584ZM131.912 30.584C131.248 30.584 130.652 30.444 130.124 30.164C129.596 29.884 129.184 29.496 128.888 29C128.592 28.496 128.444 27.928 128.444 27.296C128.444 26.664 128.592 26.1 128.888 25.604C129.184 25.108 129.592 24.72 130.112 24.44C130.64 24.16 131.24 24.02 131.912 24.02C132.544 24.02 133.096 24.148 133.568 24.404C134.048 24.66 134.408 25.028 134.648 25.508L133.496 26.18C133.312 25.884 133.08 25.664 132.8 25.52C132.528 25.368 132.228 25.292 131.9 25.292C131.34 25.292 130.876 25.476 130.508 25.844C130.14 26.204 129.956 26.688 129.956 27.296C129.956 27.904 130.136 28.392 130.496 28.76C130.864 29.12 131.332 29.3 131.9 29.3C132.228 29.3 132.528 29.228 132.8 29.084C133.08 28.932 133.312 28.708 133.496 28.412L134.648 29.084C134.4 29.564 134.036 29.936 133.556 30.2C133.084 30.456 132.536 30.584 131.912 30.584ZM137.373 25.028C137.805 24.356 138.565 24.02 139.653 24.02V25.448C139.525 25.424 139.409 25.412 139.305 25.412C138.721 25.412 138.265 25.584 137.937 25.928C137.609 26.264 137.445 26.752 137.445 27.392V30.5H135.945V24.092H137.373V25.028ZM140.925 24.092H142.425V30.5H140.925V24.092ZM141.681 23.036C141.409 23.036 141.181 22.952 140.997 22.784C140.813 22.608 140.721 22.392 140.721 22.136C140.721 21.88 140.813 21.668 140.997 21.5C141.181 21.324 141.409 21.236 141.681 21.236C141.953 21.236 142.181 21.32 142.365 21.488C142.549 21.648 142.641 21.852 142.641 22.1C142.641 22.364 142.549 22.588 142.365 22.772C142.189 22.948 141.961 23.036 141.681 23.036ZM147.946 24.02C148.57 24.02 149.126 24.156 149.614 24.428C150.11 24.7 150.498 25.084 150.778 25.58C151.058 26.076 151.198 26.648 151.198 27.296C151.198 27.944 151.058 28.52 150.778 29.024C150.498 29.52 150.11 29.904 149.614 30.176C149.126 30.448 148.57 30.584 147.946 30.584C147.082 30.584 146.398 30.296 145.894 29.72V32.828H144.394V24.092H145.822V24.932C146.07 24.628 146.374 24.4 146.734 24.248C147.102 24.096 147.506 24.02 147.946 24.02ZM147.778 29.3C148.33 29.3 148.782 29.116 149.134 28.748C149.494 28.38 149.674 27.896 149.674 27.296C149.674 26.696 149.494 26.212 149.134 25.844C148.782 25.476 148.33 25.292 147.778 25.292C147.418 25.292 147.094 25.376 146.806 25.544C146.518 25.704 146.29 25.936 146.122 26.24C145.954 26.544 145.87 26.896 145.87 27.296C145.87 27.696 145.954 28.048 146.122 28.352C146.29 28.656 146.518 28.892 146.806 29.06C147.094 29.22 147.418 29.3 147.778 29.3ZM155.561 30.584C154.897 30.584 154.301 30.444 153.773 30.164C153.245 29.884 152.833 29.496 152.537 29C152.241 28.496 152.093 27.928 152.093 27.296C152.093 26.664 152.241 26.1 152.537 25.604C152.833 25.108 153.241 24.72 153.761 24.44C154.289 24.16 154.889 24.02 155.561 24.02C156.193 24.02 156.745 24.148 157.217 24.404C157.697 24.66 158.057 25.028 158.297 25.508L157.145 26.18C156.961 25.884 156.729 25.664 156.449 25.52C156.177 25.368 155.877 25.292 155.549 25.292C154.989 25.292 154.525 25.476 154.157 25.844C153.789 26.204 153.605 26.688 153.605 27.296C153.605 27.904 153.785 28.392 154.145 28.76C154.513 29.12 154.981 29.3 155.549 29.3C155.877 29.3 156.177 29.228 156.449 29.084C156.729 28.932 156.961 28.708 157.145 28.412L158.297 29.084C158.049 29.564 157.685 29.936 157.205 30.2C156.733 30.456 156.185 30.584 155.561 30.584ZM159.593 24.092H161.093V30.5H159.593V24.092ZM160.349 23.036C160.077 23.036 159.849 22.952 159.665 22.784C159.481 22.608 159.389 22.392 159.389 22.136C159.389 21.88 159.481 21.668 159.665 21.5C159.849 21.324 160.077 21.236 160.349 21.236C160.621 21.236 160.849 21.32 161.033 21.488C161.217 21.648 161.309 21.852 161.309 22.1C161.309 22.364 161.217 22.588 161.033 22.772C160.857 22.948 160.629 23.036 160.349 23.036ZM165.942 30.584C165.294 30.584 164.71 30.444 164.19 30.164C163.67 29.884 163.262 29.496 162.966 29C162.678 28.496 162.534 27.928 162.534 27.296C162.534 26.664 162.678 26.1 162.966 25.604C163.262 25.108 163.67 24.72 164.19 24.44C164.71 24.16 165.294 24.02 165.942 24.02C166.598 24.02 167.186 24.16 167.706 24.44C168.226 24.72 168.63 25.108 168.918 25.604C169.214 26.1 169.362 26.664 169.362 27.296C169.362 27.928 169.214 28.496 168.918 29C168.63 29.496 168.226 29.884 167.706 30.164C167.186 30.444 166.598 30.584 165.942 30.584ZM165.942 29.3C166.494 29.3 166.95 29.116 167.31 28.748C167.67 28.38 167.85 27.896 167.85 27.296C167.85 26.696 167.67 26.212 167.31 25.844C166.95 25.476 166.494 25.292 165.942 25.292C165.39 25.292 164.934 25.476 164.574 25.844C164.222 26.212 164.046 26.696 164.046 27.296C164.046 27.896 164.222 28.38 164.574 28.748C164.934 29.116 165.39 29.3 165.942 29.3ZM166.542 21.572H168.306L166.218 23.216H164.922L166.542 21.572ZM174.433 24.02C175.241 24.02 175.889 24.256 176.377 24.728C176.865 25.2 177.109 25.9 177.109 26.828V30.5H175.609V27.02C175.609 26.46 175.477 26.04 175.213 25.76C174.949 25.472 174.573 25.328 174.085 25.328C173.533 25.328 173.097 25.496 172.777 25.832C172.457 26.16 172.297 26.636 172.297 27.26V30.5H170.797V24.092H172.225V24.92C172.473 24.624 172.785 24.4 173.161 24.248C173.537 24.096 173.961 24.02 174.433 24.02Z" fill="#222222"/>
<g filter="url(#filter1_d_1022_2675)">
<rect x="10" y="10" width="30" height="30" rx="10" fill="#EFF9FF"/>
</g>
<path d="M22.1145 32.4998C17.9161 32.4998 14.5 29.1356 14.5 25.0001C14.5 20.8646 17.9161 17.5 22.1145 17.5C26.3137 17.5 29.7294 20.8646 29.7294 25.0001C29.7294 25.3517 29.7044 25.7064 29.655 26.0541C29.6274 26.2448 29.4488 26.3753 29.2551 26.351C29.0614 26.3242 28.9261 26.1479 28.9533 25.9571C28.9984 25.6415 29.0209 25.3196 29.0209 25.0001C29.0209 21.2493 25.9227 18.1975 22.1145 18.1975C18.3064 18.1975 15.2081 21.2493 15.2081 25.0001C15.2081 28.7509 18.3064 31.802 22.1145 31.802C22.3104 31.802 22.469 31.9586 22.469 32.1511C22.469 32.344 22.3104 32.4998 22.1145 32.4998Z" fill="#469BC9"/>
<path d="M22.1144 20.331C21.9189 20.331 21.7603 20.1748 21.7603 19.9822V19.2312C21.7603 19.0386 21.9189 18.8824 22.1144 18.8824C22.3103 18.8824 22.4689 19.0386 22.4689 19.2312V19.9822C22.4689 20.1748 22.3103 20.331 22.1144 20.331Z" fill="#469BC9"/>
<path d="M27.9717 25.3491H27.2095C27.0137 25.3491 26.8554 25.1925 26.8554 25C26.8554 24.8075 27.0137 24.6513 27.2095 24.6513H27.9717C28.1672 24.6513 28.3258 24.8075 28.3258 25C28.3258 25.1925 28.1672 25.3491 27.9717 25.3491Z" fill="#469BC9"/>
<path d="M22.1144 31.1174C21.9189 31.1174 21.7603 30.9615 21.7603 30.7686V30.0179C21.7603 29.8254 21.9189 29.6692 22.1144 29.6692C22.3103 29.6692 22.4689 29.8254 22.4689 30.0179V30.7686C22.4689 30.9615 22.3103 31.1174 22.1144 31.1174Z" fill="#469BC9"/>
<path d="M17.9734 29.4279C17.8825 29.4279 17.7919 29.3937 17.7228 29.3256C17.5846 29.1895 17.5846 28.9688 17.7228 28.8327L18.2623 28.3017C18.4002 28.1652 18.6243 28.1652 18.7628 28.3017C18.9014 28.4378 18.9014 28.6582 18.7628 28.7946L18.2237 29.3256C18.1546 29.3937 18.064 29.4279 17.9734 29.4279Z" fill="#469BC9"/>
<path d="M17.0202 25.3491H16.2577C16.0618 25.3491 15.9036 25.1925 15.9036 25C15.9036 24.8075 16.0618 24.6513 16.2577 24.6513H17.0202C17.2157 24.6513 17.374 24.8075 17.374 25C17.374 25.1925 17.2157 25.3491 17.0202 25.3491Z" fill="#469BC9"/>
<path d="M18.5126 21.8007C18.4216 21.8007 18.3314 21.7669 18.2623 21.6985L17.7228 21.1674C17.5846 21.0317 17.5846 20.8109 17.7228 20.6745C17.861 20.538 18.0851 20.538 18.2237 20.6745L18.7628 21.2055C18.9014 21.3416 18.9014 21.5624 18.7628 21.6985C18.6937 21.7669 18.6032 21.8007 18.5126 21.8007Z" fill="#469BC9"/>
<path d="M25.7173 21.8007C25.6264 21.8007 25.5358 21.7669 25.4667 21.6985C25.3285 21.5624 25.3285 21.3416 25.4667 21.2055L26.0059 20.6745C26.1441 20.538 26.3682 20.538 26.5067 20.6745C26.6453 20.8109 26.6453 21.0317 26.5067 21.1674L25.9676 21.6985C25.8985 21.7669 25.8079 21.8007 25.7173 21.8007Z" fill="#469BC9"/>
<path d="M22.1144 31.1171C18.6897 31.1171 15.9036 28.3731 15.9036 25C15.9036 21.6265 18.6897 18.8824 22.1144 18.8824C25.5395 18.8824 28.3255 21.6265 28.3255 24.9999C28.3255 25.3607 28.2933 25.7225 28.2296 26.0754C28.1959 26.2651 28.0112 26.3928 27.8193 26.3579C27.627 26.3244 27.4981 26.1438 27.5325 25.9538C27.5884 25.641 27.617 25.3201 27.617 24.9999C27.617 22.0115 25.1485 19.5799 22.1144 19.5799C19.0802 19.5799 16.6117 22.0115 16.6117 24.9999C16.6117 27.9883 19.0802 30.4196 22.1144 30.4196C22.3492 30.4196 22.5859 30.4052 22.8172 30.3762C23.0119 30.3505 23.1884 30.487 23.2131 30.6781C23.2378 30.8692 23.1003 31.0437 22.9063 31.0681C22.6453 31.1005 22.379 31.1171 22.1144 31.1171Z" fill="#469BC9"/>
<path d="M22.1144 24.5024C21.8359 24.5024 21.6092 24.7256 21.6092 25C21.6092 25.2743 21.8359 25.4975 22.1144 25.4975C22.3929 25.4975 22.6192 25.2743 22.6192 25C22.6192 24.7256 22.3929 24.5024 22.1144 24.5024ZM22.1144 26.1946C21.4456 26.1946 20.9015 25.659 20.9015 25C20.9015 24.3409 21.4456 23.805 22.1144 23.805C22.7835 23.805 23.3277 24.3409 23.3277 25C23.3277 25.659 22.7835 26.1946 22.1144 26.1946Z" fill="#469BC9"/>
<path d="M22.1144 24.5024C21.9189 24.5024 21.7603 24.3462 21.7603 24.1537V22.2351C21.7603 22.0422 21.9189 21.886 22.1144 21.886C22.3103 21.886 22.4689 22.0422 22.4689 22.2351V24.1537C22.4689 24.3462 22.3102 24.5024 22.1144 24.5024Z" fill="#469BC9"/>
<path d="M19.6702 27.768C19.5782 27.768 19.4862 27.7328 19.4167 27.6626C19.2803 27.5251 19.2832 27.3044 19.4235 27.1697L21.2927 25.3752C21.433 25.2412 21.6571 25.2433 21.7939 25.3816C21.9303 25.5198 21.9274 25.7405 21.7867 25.8749L19.9176 27.6693C19.8485 27.7353 19.7593 27.768 19.6702 27.768Z" fill="#469BC9"/>
<path d="M26.7193 27.5542C25.5296 27.5542 24.5623 28.507 24.5623 29.678C24.5623 30.8494 25.5296 31.8022 26.7193 31.8022H31.8256C33.0153 31.8022 33.9826 30.8494 33.9826 29.678C33.9826 28.507 33.0153 27.5542 31.8256 27.5542H26.7193ZM31.8256 32.5H26.7193C25.1394 32.5 23.8541 31.2341 23.8541 29.678C23.8541 28.1223 25.1394 26.8564 26.7193 26.8564H31.8256C33.4052 26.8564 34.6908 28.1223 34.6908 29.678C34.6908 31.2341 33.4052 32.5 31.8256 32.5Z" fill="#469BC9"/>
<path d="M29.3755 32.5C29.1797 32.5 29.0211 32.3441 29.0211 32.1513V27.2052C29.0211 27.0123 29.1797 26.8564 29.3755 26.8564C29.5706 26.8564 29.7296 27.0123 29.7296 27.2052V32.1513C29.7296 32.3441 29.5706 32.5 29.3755 32.5Z" fill="#469BC9"/>
<path d="M34.8812 32.5H14.8541C14.6582 32.5 14.5 32.3441 14.5 32.1512C14.5 31.9587 14.6582 31.8021 14.8541 31.8021H34.8812C35.0763 31.8021 35.2353 31.9587 35.2353 32.1512C35.2353 32.3441 35.0763 32.5 34.8812 32.5Z" fill="#469BC9"/>
<path d="M31.2631 21.2702C31.0672 21.2702 30.909 21.1137 30.909 20.9211V20.1613C30.909 19.9687 31.0672 19.8125 31.2631 19.8125C31.4585 19.8125 31.6168 19.9687 31.6168 20.1613V20.9211C31.6168 21.1137 31.4585 21.2702 31.2631 21.2702Z" fill="#469BC9"/>
<path d="M31.6486 20.8902H30.8771C30.6812 20.8902 30.523 20.734 30.523 20.5414C30.523 20.3489 30.6812 20.1927 30.8771 20.1927H31.6486C31.844 20.1927 32.0023 20.3489 32.0023 20.5414C32.0023 20.734 31.844 20.8902 31.6486 20.8902Z" fill="#469BC9"/>
<defs>
<filter id="filter0_d_1022_2675" x="0" y="0" width="192" height="66" filterUnits="userSpaceOnUse" color-interpolation-filters="sRGB">
<feFlood flood-opacity="0" result="BackgroundImageFix"/>
<feColorMatrix in="SourceAlpha" type="matrix" values="0 0 0 0 0 0 0 0 0 0 0 0 0 0 0 0 0 0 127 0" result="hardAlpha"/>
<feMorphology radius="30" operator="erode" in="SourceAlpha" result="effect1_dropShadow_1022_2675"/>
<feOffset dy="32"/>
<feGaussianBlur stdDeviation="7"/>
<feComposite in2="hardAlpha" operator="out"/>
<feColorMatrix type="matrix" values="0 0 0 0 0.854167 0 0 0 0 0.854167 0 0 0 0 0.854167 0 0 0 0.4 0"/>
<feBlend mode="normal" in2="BackgroundImageFix" result="effect1_dropShadow_1022_2675"/>
<feBlend mode="normal" in="SourceGraphic" in2="effect1_dropShadow_1022_2675" result="shape"/>
</filter>
<filter id="filter1_d_1022_2675" x="0" y="6" width="50" height="50" filterUnits="userSpaceOnUse" color-interpolation-filters="sRGB">
<feFlood flood-opacity="0" result="BackgroundImageFix"/>
<feColorMatrix in="SourceAlpha" type="matrix" values="0 0 0 0 0 0 0 0 0 0 0 0 0 0 0 0 0 0 127 0" result="hardAlpha"/>
<feOffset dy="6"/>
<feGaussianBlur stdDeviation="5"/>
<feComposite in2="hardAlpha" operator="out"/>
<feColorMatrix type="matrix" values="0 0 0 0 0.555988 0 0 0 0 0.793138 0 0 0 0 0.920833 0 0 0 1 0"/>
<feBlend mode="normal" in2="BackgroundImageFix" result="effect1_dropShadow_1022_2675"/>
<feBlend mode="normal" in="SourceGraphic" in2="effect1_dropShadow_1022_2675" result="shape"/>
</filter>
</defs>
</svg>
