<svg width="1215" height="76" viewBox="0 0 1215 76" fill="none" xmlns="http://www.w3.org/2000/svg">
<rect width="73" height="75" fill="#D2BCFF"/>
<path d="M73.0313 8.25V0.5L1214.5 0.5V74.5L73.0313 74.5V65.25V64.9563L72.7747 64.8132L51.5 52.9563V23.511L72.8171 8.66026L73.0313 8.51104V8.25Z" fill="white" stroke="#EEEEEE"/>
<path d="M105.144 45L101.998 40.49C101.866 40.5047 101.668 40.512 101.404 40.512H97.928V45H95.068V29.6H101.404C102.739 29.6 103.897 29.82 104.88 30.26C105.877 30.7 106.64 31.3307 107.168 32.152C107.696 32.9733 107.96 33.9487 107.96 35.078C107.96 36.2367 107.674 37.234 107.102 38.07C106.545 38.906 105.738 39.5293 104.682 39.94L108.224 45H105.144ZM105.078 35.078C105.078 34.0953 104.755 33.34 104.11 32.812C103.465 32.284 102.519 32.02 101.272 32.02H97.928V38.158H101.272C102.519 38.158 103.465 37.894 104.11 37.366C104.755 36.8233 105.078 36.0607 105.078 35.078ZM121.94 39.192C121.94 39.3827 121.925 39.654 121.896 40.006H112.678C112.839 40.8713 113.257 41.5607 113.932 42.074C114.621 42.5727 115.472 42.822 116.484 42.822C117.774 42.822 118.838 42.3967 119.674 41.546L121.148 43.24C120.62 43.8707 119.952 44.3473 119.146 44.67C118.339 44.9927 117.43 45.154 116.418 45.154C115.127 45.154 113.99 44.8973 113.008 44.384C112.025 43.8707 111.262 43.1593 110.72 42.25C110.192 41.326 109.928 40.2847 109.928 39.126C109.928 37.982 110.184 36.9553 110.698 36.046C111.226 35.122 111.952 34.4033 112.876 33.89C113.8 33.3767 114.841 33.12 116 33.12C117.144 33.12 118.163 33.3767 119.058 33.89C119.967 34.3887 120.671 35.1 121.17 36.024C121.683 36.9333 121.94 37.9893 121.94 39.192ZM116 35.32C115.12 35.32 114.372 35.584 113.756 36.112C113.154 36.6253 112.788 37.3147 112.656 38.18H119.322C119.204 37.3293 118.845 36.64 118.244 36.112C117.642 35.584 116.894 35.32 116 35.32ZM129.971 45.154C128.754 45.154 127.661 44.8973 126.693 44.384C125.725 43.8707 124.97 43.1593 124.427 42.25C123.885 41.326 123.613 40.2847 123.613 39.126C123.613 37.9673 123.885 36.9333 124.427 36.024C124.97 35.1147 125.718 34.4033 126.671 33.89C127.639 33.3767 128.739 33.12 129.971 33.12C131.13 33.12 132.142 33.3547 133.007 33.824C133.887 34.2933 134.547 34.968 134.987 35.848L132.875 37.08C132.538 36.5373 132.113 36.134 131.599 35.87C131.101 35.5913 130.551 35.452 129.949 35.452C128.923 35.452 128.072 35.7893 127.397 36.464C126.723 37.124 126.385 38.0113 126.385 39.126C126.385 40.2407 126.715 41.1353 127.375 41.81C128.05 42.47 128.908 42.8 129.949 42.8C130.551 42.8 131.101 42.668 131.599 42.404C132.113 42.1253 132.538 41.7147 132.875 41.172L134.987 42.404C134.533 43.284 133.865 43.966 132.985 44.45C132.12 44.9193 131.115 45.154 129.971 45.154ZM148.237 39.192C148.237 39.3827 148.222 39.654 148.193 40.006H138.975C139.136 40.8713 139.554 41.5607 140.229 42.074C140.918 42.5727 141.769 42.822 142.781 42.822C144.071 42.822 145.135 42.3967 145.971 41.546L147.445 43.24C146.917 43.8707 146.249 44.3473 145.443 44.67C144.636 44.9927 143.727 45.154 142.715 45.154C141.424 45.154 140.287 44.8973 139.305 44.384C138.322 43.8707 137.559 43.1593 137.017 42.25C136.489 41.326 136.225 40.2847 136.225 39.126C136.225 37.982 136.481 36.9553 136.995 36.046C137.523 35.122 138.249 34.4033 139.173 33.89C140.097 33.3767 141.138 33.12 142.297 33.12C143.441 33.12 144.46 33.3767 145.355 33.89C146.264 34.3887 146.968 35.1 147.467 36.024C147.98 36.9333 148.237 37.9893 148.237 39.192ZM142.297 35.32C141.417 35.32 140.669 35.584 140.053 36.112C139.451 36.6253 139.085 37.3147 138.953 38.18H145.619C145.501 37.3293 145.142 36.64 144.541 36.112C143.939 35.584 143.191 35.32 142.297 35.32ZM157.94 44.362C157.618 44.626 157.222 44.824 156.752 44.956C156.298 45.088 155.814 45.154 155.3 45.154C154.01 45.154 153.012 44.8167 152.308 44.142C151.604 43.4673 151.252 42.4847 151.252 41.194V35.54H149.316V33.34H151.252V30.656H154.002V33.34H157.148V35.54H154.002V41.128C154.002 41.7 154.142 42.14 154.42 42.448C154.699 42.7413 155.102 42.888 155.63 42.888C156.246 42.888 156.76 42.7267 157.17 42.404L157.94 44.362ZM164.69 33.12C166.421 33.12 167.741 33.538 168.65 34.374C169.574 35.1953 170.036 36.442 170.036 38.114V45H167.44V43.57C167.103 44.0833 166.619 44.4793 165.988 44.758C165.372 45.022 164.624 45.154 163.744 45.154C162.864 45.154 162.094 45.0073 161.434 44.714C160.774 44.406 160.261 43.988 159.894 43.46C159.542 42.9173 159.366 42.3087 159.366 41.634C159.366 40.578 159.755 39.7347 160.532 39.104C161.324 38.4587 162.564 38.136 164.25 38.136H167.286V37.96C167.286 37.1387 167.037 36.508 166.538 36.068C166.054 35.628 165.328 35.408 164.36 35.408C163.7 35.408 163.048 35.5107 162.402 35.716C161.772 35.9213 161.236 36.2073 160.796 36.574L159.718 34.572C160.334 34.1027 161.075 33.7433 161.94 33.494C162.806 33.2447 163.722 33.12 164.69 33.12ZM164.316 43.152C165.006 43.152 165.614 42.998 166.142 42.69C166.685 42.3673 167.066 41.9127 167.286 41.326V39.962H164.448C162.864 39.962 162.072 40.4827 162.072 41.524C162.072 42.0227 162.27 42.4187 162.666 42.712C163.062 43.0053 163.612 43.152 164.316 43.152ZM179.646 33.252H182.396V45H179.646V33.252ZM181.032 31.316C180.533 31.316 180.115 31.162 179.778 30.854C179.44 30.5313 179.272 30.1353 179.272 29.666C179.272 29.1967 179.44 28.808 179.778 28.5C180.115 28.1773 180.533 28.016 181.032 28.016C181.53 28.016 181.948 28.17 182.286 28.478C182.623 28.7713 182.792 29.1453 182.792 29.6C182.792 30.084 182.623 30.4947 182.286 30.832C181.963 31.1547 181.545 31.316 181.032 31.316ZM192.671 33.12C194.153 33.12 195.341 33.5527 196.235 34.418C197.13 35.2833 197.577 36.5667 197.577 38.268V45H194.827V38.62C194.827 37.5933 194.585 36.8233 194.101 36.31C193.617 35.782 192.928 35.518 192.033 35.518C191.021 35.518 190.222 35.826 189.635 36.442C189.049 37.0433 188.755 37.916 188.755 39.06V45H186.005V33.252H188.623V34.77C189.078 34.2273 189.65 33.8167 190.339 33.538C191.029 33.2593 191.806 33.12 192.671 33.12ZM212.679 28.676V45H210.039V43.482C209.584 44.0393 209.02 44.4573 208.345 44.736C207.685 45.0147 206.952 45.154 206.145 45.154C205.016 45.154 203.996 44.9047 203.087 44.406C202.192 43.9073 201.488 43.2033 200.975 42.294C200.462 41.37 200.205 40.314 200.205 39.126C200.205 37.938 200.462 36.8893 200.975 35.98C201.488 35.0707 202.192 34.3667 203.087 33.868C203.996 33.3693 205.016 33.12 206.145 33.12C206.922 33.12 207.634 33.252 208.279 33.516C208.924 33.78 209.474 34.176 209.929 34.704V28.676H212.679ZM206.475 42.8C207.135 42.8 207.729 42.6533 208.257 42.36C208.785 42.052 209.203 41.6193 209.511 41.062C209.819 40.5047 209.973 39.8593 209.973 39.126C209.973 38.3927 209.819 37.7473 209.511 37.19C209.203 36.6327 208.785 36.2073 208.257 35.914C207.729 35.606 207.135 35.452 206.475 35.452C205.815 35.452 205.221 35.606 204.693 35.914C204.165 36.2073 203.747 36.6327 203.439 37.19C203.131 37.7473 202.977 38.3927 202.977 39.126C202.977 39.8593 203.131 40.5047 203.439 41.062C203.747 41.6193 204.165 42.052 204.693 42.36C205.221 42.6533 205.815 42.8 206.475 42.8ZM216.277 33.252H219.027V45H216.277V33.252ZM217.663 31.316C217.164 31.316 216.746 31.162 216.409 30.854C216.071 30.5313 215.903 30.1353 215.903 29.666C215.903 29.1967 216.071 28.808 216.409 28.5C216.746 28.1773 217.164 28.016 217.663 28.016C218.161 28.016 218.579 28.17 218.917 28.478C219.254 28.7713 219.423 29.1453 219.423 29.6C219.423 30.084 219.254 30.4947 218.917 30.832C218.594 31.1547 218.176 31.316 217.663 31.316ZM233.636 33.252L228.598 45H225.76L220.722 33.252H223.582L227.234 41.964L230.996 33.252H233.636ZM235.355 33.252H238.105V45H235.355V33.252ZM236.741 31.316C236.242 31.316 235.824 31.162 235.487 30.854C235.149 30.5313 234.981 30.1353 234.981 29.666C234.981 29.1967 235.149 28.808 235.487 28.5C235.824 28.1773 236.242 28.016 236.741 28.016C237.239 28.016 237.657 28.17 237.995 28.478C238.332 28.7713 238.501 29.1453 238.501 29.6C238.501 30.084 238.332 30.4947 237.995 30.832C237.672 31.1547 237.254 31.316 236.741 31.316ZM253.22 28.676V45H250.58V43.482C250.125 44.0393 249.561 44.4573 248.886 44.736C248.226 45.0147 247.493 45.154 246.686 45.154C245.557 45.154 244.537 44.9047 243.628 44.406C242.733 43.9073 242.029 43.2033 241.516 42.294C241.003 41.37 240.746 40.314 240.746 39.126C240.746 37.938 241.003 36.8893 241.516 35.98C242.029 35.0707 242.733 34.3667 243.628 33.868C244.537 33.3693 245.557 33.12 246.686 33.12C247.463 33.12 248.175 33.252 248.82 33.516C249.465 33.78 250.015 34.176 250.47 34.704V28.676H253.22ZM247.016 42.8C247.676 42.8 248.27 42.6533 248.798 42.36C249.326 42.052 249.744 41.6193 250.052 41.062C250.36 40.5047 250.514 39.8593 250.514 39.126C250.514 38.3927 250.36 37.7473 250.052 37.19C249.744 36.6327 249.326 36.2073 248.798 35.914C248.27 35.606 247.676 35.452 247.016 35.452C246.356 35.452 245.762 35.606 245.234 35.914C244.706 36.2073 244.288 36.6327 243.98 37.19C243.672 37.7473 243.518 38.3927 243.518 39.126C243.518 39.8593 243.672 40.5047 243.98 41.062C244.288 41.6193 244.706 42.052 245.234 42.36C245.762 42.6533 246.356 42.8 247.016 42.8ZM268.192 33.252V45H265.574V43.504C265.134 44.032 264.584 44.4427 263.924 44.736C263.264 45.0147 262.552 45.154 261.79 45.154C260.22 45.154 258.981 44.7213 258.072 43.856C257.177 42.976 256.73 41.678 256.73 39.962V33.252H259.48V39.588C259.48 40.644 259.714 41.436 260.184 41.964C260.668 42.4773 261.35 42.734 262.23 42.734C263.212 42.734 263.99 42.4333 264.562 41.832C265.148 41.216 265.442 40.336 265.442 39.192V33.252H268.192ZM276.28 33.12C278.011 33.12 279.331 33.538 280.24 34.374C281.164 35.1953 281.626 36.442 281.626 38.114V45H279.03V43.57C278.693 44.0833 278.209 44.4793 277.578 44.758C276.962 45.022 276.214 45.154 275.334 45.154C274.454 45.154 273.684 45.0073 273.024 44.714C272.364 44.406 271.851 43.988 271.484 43.46C271.132 42.9173 270.956 42.3087 270.956 41.634C270.956 40.578 271.345 39.7347 272.122 39.104C272.914 38.4587 274.154 38.136 275.84 38.136H278.876V37.96C278.876 37.1387 278.627 36.508 278.128 36.068C277.644 35.628 276.918 35.408 275.95 35.408C275.29 35.408 274.638 35.5107 273.992 35.716C273.362 35.9213 272.826 36.2073 272.386 36.574L271.308 34.572C271.924 34.1027 272.665 33.7433 273.53 33.494C274.396 33.2447 275.312 33.12 276.28 33.12ZM275.906 43.152C276.596 43.152 277.204 42.998 277.732 42.69C278.275 42.3673 278.656 41.9127 278.876 41.326V39.962H276.038C274.454 39.962 273.662 40.4827 273.662 41.524C273.662 42.0227 273.86 42.4187 274.256 42.712C274.652 43.0053 275.202 43.152 275.906 43.152ZM285.156 28.676H287.906V45H285.156V28.676Z" fill="#222222"/>
<g filter="url(#filter0_d_224_4075)">
<rect x="21" y="12" width="48" height="48" rx="5" fill="#F3EDFF"/>
</g>
<path d="M39.6891 49.9997C31.59 49.9997 25 43.7197 25 36.0002C25 28.2807 31.59 22 39.6891 22C47.7895 22 54.3788 28.2807 54.3788 36.0002C54.3788 36.6564 54.3304 37.3186 54.2351 37.9676C54.1819 38.3237 53.8373 38.5672 53.4637 38.5218C53.0901 38.4718 52.829 38.1427 52.8815 37.7866C52.9685 37.1975 53.012 36.5965 53.012 36.0002C53.012 28.9988 47.0353 23.3019 39.6891 23.3019C32.3428 23.3019 26.3661 28.9988 26.3661 36.0002C26.3661 43.0016 32.3428 48.6971 39.6891 48.6971C40.0668 48.6971 40.3728 48.9894 40.3728 49.3487C40.3728 49.7088 40.0668 49.9997 39.6891 49.9997Z" fill="#B38EFF"/>
<path d="M39.6888 27.2845C39.3117 27.2845 39.0058 26.9929 39.0058 26.6335V25.2315C39.0058 24.8721 39.3117 24.5806 39.6888 24.5806C40.0666 24.5806 40.3725 24.8721 40.3725 25.2315V26.6335C40.3725 26.9929 40.0666 27.2845 39.6888 27.2845Z" fill="#B38EFF"/>
<path d="M50.988 36.6516H49.5177C49.1399 36.6516 48.8346 36.3593 48.8346 36C48.8346 35.6406 49.1399 35.349 49.5177 35.349H50.988C51.3651 35.349 51.671 35.6406 51.671 36C51.671 36.3593 51.3651 36.6516 50.988 36.6516Z" fill="#B38EFF"/>
<path d="M39.6888 47.4191C39.3117 47.4191 39.0058 47.1281 39.0058 46.7681V45.3668C39.0058 45.0074 39.3117 44.7158 39.6888 44.7158C40.0666 44.7158 40.3725 45.0074 40.3725 45.3668V46.7681C40.3725 47.1281 40.0666 47.4191 39.6888 47.4191Z" fill="#B38EFF"/>
<path d="M31.7005 44.2654C31.5251 44.2654 31.3503 44.2016 31.217 44.0745C30.9504 43.8205 30.9504 43.4084 31.217 43.1544L32.2578 42.1631C32.5237 41.9084 32.956 41.9084 33.2233 42.1631C33.4906 42.4172 33.4906 42.8286 33.2233 43.0833L32.1832 44.0745C32.0499 44.2016 31.8752 44.2654 31.7005 44.2654Z" fill="#B38EFF"/>
<path d="M29.8618 36.6516H28.3907C28.0129 36.6516 27.7077 36.3593 27.7077 36C27.7077 35.6406 28.0129 35.349 28.3907 35.349H29.8618C30.2388 35.349 30.5441 35.6406 30.5441 36C30.5441 36.3593 30.2388 36.6516 29.8618 36.6516Z" fill="#B38EFF"/>
<path d="M32.7406 30.028C32.5652 30.028 32.3911 29.9648 32.2578 29.8371L31.217 28.8459C30.9504 28.5925 30.9504 28.1804 31.217 27.9257C31.4836 27.671 31.916 27.671 32.1832 27.9257L33.2233 28.917C33.4906 29.171 33.4906 29.5831 33.2233 29.8371C33.09 29.9648 32.9153 30.028 32.7406 30.028Z" fill="#B38EFF"/>
<path d="M46.6391 30.028C46.4637 30.028 46.289 29.9648 46.1557 29.8371C45.8891 29.5831 45.8891 29.171 46.1557 28.917L47.1958 27.9257C47.4623 27.671 47.8947 27.671 48.1619 27.9257C48.4292 28.1804 48.4292 28.5925 48.1619 28.8459L47.1219 29.8371C46.9886 29.9648 46.8138 30.028 46.6391 30.028Z" fill="#B38EFF"/>
<path d="M39.6887 47.4186C33.0822 47.4186 27.7077 42.2964 27.7077 36C27.7077 29.7028 33.0822 24.5806 39.6888 24.5806C46.2961 24.5806 51.6705 29.7028 51.6705 35.9999C51.6705 36.6732 51.6084 37.3486 51.4854 38.0074C51.4205 38.3616 51.0641 38.5998 50.694 38.5347C50.3231 38.4721 50.0744 38.1351 50.1407 37.7804C50.2485 37.1965 50.3037 36.5975 50.3037 35.9999C50.3037 30.4215 45.5418 25.8825 39.6887 25.8825C33.8356 25.8825 29.0737 30.4215 29.0737 35.9999C29.0737 41.5782 33.8356 46.1166 39.6887 46.1166C40.1418 46.1166 40.5983 46.0896 41.0444 46.0357C41.4201 45.9876 41.7606 46.2423 41.8083 46.5991C41.8559 46.9558 41.5907 47.2817 41.2164 47.3271C40.7129 47.3876 40.1991 47.4186 39.6887 47.4186Z" fill="#B38EFF"/>
<path d="M39.6888 35.0712C39.1515 35.0712 38.7143 35.4878 38.7143 35.9999C38.7143 36.512 39.1515 36.9287 39.6888 36.9287C40.2261 36.9287 40.6626 36.512 40.6626 35.9999C40.6626 35.4878 40.2261 35.0712 39.6888 35.0712ZM39.6888 38.23C38.3987 38.23 37.3489 37.2301 37.3489 35.9999C37.3489 34.7697 38.3987 33.7693 39.6888 33.7693C40.9796 33.7693 42.0293 34.7697 42.0293 35.9999C42.0293 37.2301 40.9796 38.23 39.6888 38.23Z" fill="#B38EFF"/>
<path d="M39.6888 35.0712C39.3117 35.0712 39.0058 34.7796 39.0058 34.4202V30.8388C39.0058 30.4788 39.3117 30.1872 39.6888 30.1872C40.0666 30.1872 40.3725 30.4788 40.3725 30.8388V34.4202C40.3725 34.7796 40.0666 35.0712 39.6888 35.0712Z" fill="#B38EFF"/>
<path d="M34.9737 41.167C34.7962 41.167 34.6187 41.1012 34.4847 40.9702C34.2216 40.7135 34.2271 40.3015 34.4978 40.05L38.1036 36.7004C38.3743 36.4503 38.8067 36.4542 39.0705 36.7122C39.3336 36.9703 39.3281 37.3823 39.0567 37.6331L35.4509 40.9827C35.3176 41.1058 35.1456 41.167 34.9737 41.167Z" fill="#B38EFF"/>
<path d="M48.572 40.7679C46.277 40.7679 44.4109 42.5464 44.4109 44.7323C44.4109 46.9189 46.277 48.6974 48.572 48.6974H58.4225C60.7175 48.6974 62.5835 46.9189 62.5835 44.7323C62.5835 42.5464 60.7175 40.7679 58.4225 40.7679H48.572ZM58.4225 50H48.572C45.5243 50 43.0449 47.637 43.0449 44.7323C43.0449 41.8283 45.5243 39.4653 48.572 39.4653H58.4225C61.4696 39.4653 63.9496 41.8283 63.9496 44.7323C63.9496 47.637 61.4696 50 58.4225 50Z" fill="#B38EFF"/>
<path d="M53.696 50C53.3182 50 53.0123 49.7091 53.0123 49.349V40.1163C53.0123 39.7562 53.3182 39.4653 53.696 39.4653C54.0724 39.4653 54.379 39.7562 54.379 40.1163V49.349C54.379 49.7091 54.0724 50 53.696 50Z" fill="#B38EFF"/>
<path d="M64.317 49.9999H25.683C25.3052 49.9999 25 49.709 25 49.349C25 48.9896 25.3052 48.6973 25.683 48.6973H64.317C64.6933 48.6973 65 48.9896 65 49.349C65 49.709 64.6933 49.9999 64.317 49.9999Z" fill="#B38EFF"/>
<path d="M57.3372 29.0378C56.9595 29.0378 56.6542 28.7455 56.6542 28.3861V26.9677C56.6542 26.6083 56.9595 26.3167 57.3372 26.3167C57.7143 26.3167 58.0196 26.6083 58.0196 26.9677V28.3861C58.0196 28.7455 57.7143 29.0378 57.3372 29.0378Z" fill="#B38EFF"/>
<path d="M58.0809 28.3283H56.5926C56.2149 28.3283 55.9096 28.0367 55.9096 27.6773C55.9096 27.3179 56.2149 27.0264 56.5926 27.0264H58.0809C58.458 27.0264 58.7633 27.3179 58.7633 27.6773C58.7633 28.0367 58.458 28.3283 58.0809 28.3283Z" fill="#B38EFF"/>
<defs>
<filter id="filter0_d_224_4075" x="11" y="8" width="68" height="68" filterUnits="userSpaceOnUse" color-interpolation-filters="sRGB">
<feFlood flood-opacity="0" result="BackgroundImageFix"/>
<feColorMatrix in="SourceAlpha" type="matrix" values="0 0 0 0 0 0 0 0 0 0 0 0 0 0 0 0 0 0 127 0" result="hardAlpha"/>
<feOffset dy="6"/>
<feGaussianBlur stdDeviation="5"/>
<feComposite in2="hardAlpha" operator="out"/>
<feColorMatrix type="matrix" values="0 0 0 0 0.543351 0 0 0 0 0.268576 0 0 0 0 0.991667 0 0 0 1 0"/>
<feBlend mode="normal" in2="BackgroundImageFix" result="effect1_dropShadow_224_4075"/>
<feBlend mode="normal" in="SourceGraphic" in2="effect1_dropShadow_224_4075" result="shape"/>
</filter>
</defs>
</svg>
