<svg width="192" height="66" viewBox="0 0 192 66" fill="none" xmlns="http://www.w3.org/2000/svg">
<g filter="url(#filter0_d_1022_2660)">
<path d="M0 0H192V50H0V0Z" fill="#D2BCFF"/>
<path d="M0.5 0.5H191.5V49.5H0.5V0.5Z" stroke="#EEEEEE"/>
</g>
<path d="M44 5.5V0.5L191.5 0.5V49.5L44 49.5V43.5V43.2454L43.7941 43.0956L33 35.2454V15.7212L43.8363 5.86997L44 5.72118V5.5Z" fill="white" stroke="#EEEEEE"/>
<path d="M56.624 30.5L54.908 28.04C54.836 28.048 54.728 28.052 54.584 28.052H52.688V30.5H51.128V22.1H54.584C55.312 22.1 55.944 22.22 56.48 22.46C57.024 22.7 57.44 23.044 57.728 23.492C58.016 23.94 58.16 24.472 58.16 25.088C58.16 25.72 58.004 26.264 57.692 26.72C57.388 27.176 56.948 27.516 56.372 27.74L58.304 30.5H56.624ZM56.588 25.088C56.588 24.552 56.412 24.14 56.06 23.852C55.708 23.564 55.192 23.42 54.512 23.42H52.688V26.768H54.512C55.192 26.768 55.708 26.624 56.06 26.336C56.412 26.04 56.588 25.624 56.588 25.088ZM65.7853 27.332C65.7853 27.436 65.7773 27.584 65.7613 27.776H60.7333C60.8213 28.248 61.0493 28.624 61.4173 28.904C61.7933 29.176 62.2573 29.312 62.8093 29.312C63.5133 29.312 64.0933 29.08 64.5493 28.616L65.3533 29.54C65.0653 29.884 64.7013 30.144 64.2613 30.32C63.8213 30.496 63.3253 30.584 62.7733 30.584C62.0693 30.584 61.4493 30.444 60.9133 30.164C60.3773 29.884 59.9613 29.496 59.6653 29C59.3773 28.496 59.2333 27.928 59.2333 27.296C59.2333 26.672 59.3733 26.112 59.6533 25.616C59.9413 25.112 60.3373 24.72 60.8413 24.44C61.3453 24.16 61.9133 24.02 62.5453 24.02C63.1693 24.02 63.7253 24.16 64.2133 24.44C64.7093 24.712 65.0933 25.1 65.3653 25.604C65.6453 26.1 65.7853 26.676 65.7853 27.332ZM62.5453 25.22C62.0653 25.22 61.6573 25.364 61.3213 25.652C60.9933 25.932 60.7933 26.308 60.7213 26.78H64.3573C64.2933 26.316 64.0973 25.94 63.7693 25.652C63.4413 25.364 63.0333 25.22 62.5453 25.22ZM70.1662 30.584C69.5022 30.584 68.9062 30.444 68.3782 30.164C67.8502 29.884 67.4382 29.496 67.1422 29C66.8462 28.496 66.6982 27.928 66.6982 27.296C66.6982 26.664 66.8462 26.1 67.1422 25.604C67.4382 25.108 67.8462 24.72 68.3662 24.44C68.8942 24.16 69.4942 24.02 70.1662 24.02C70.7982 24.02 71.3502 24.148 71.8222 24.404C72.3022 24.66 72.6622 25.028 72.9022 25.508L71.7502 26.18C71.5662 25.884 71.3342 25.664 71.0542 25.52C70.7822 25.368 70.4822 25.292 70.1542 25.292C69.5942 25.292 69.1302 25.476 68.7622 25.844C68.3942 26.204 68.2102 26.688 68.2102 27.296C68.2102 27.904 68.3902 28.392 68.7502 28.76C69.1182 29.12 69.5862 29.3 70.1542 29.3C70.4822 29.3 70.7822 29.228 71.0542 29.084C71.3342 28.932 71.5662 28.708 71.7502 28.412L72.9022 29.084C72.6542 29.564 72.2902 29.936 71.8102 30.2C71.3382 30.456 70.7902 30.584 70.1662 30.584ZM80.1291 27.332C80.1291 27.436 80.1211 27.584 80.1051 27.776H75.0771C75.1651 28.248 75.3931 28.624 75.7611 28.904C76.1371 29.176 76.6011 29.312 77.1531 29.312C77.8571 29.312 78.4371 29.08 78.8931 28.616L79.6971 29.54C79.4091 29.884 79.0451 30.144 78.6051 30.32C78.1651 30.496 77.6691 30.584 77.1171 30.584C76.4131 30.584 75.7931 30.444 75.2571 30.164C74.7211 29.884 74.3051 29.496 74.0091 29C73.7211 28.496 73.5771 27.928 73.5771 27.296C73.5771 26.672 73.7171 26.112 73.9971 25.616C74.2851 25.112 74.6811 24.72 75.1851 24.44C75.6891 24.16 76.2571 24.02 76.8891 24.02C77.5131 24.02 78.0691 24.16 78.5571 24.44C79.0531 24.712 79.4371 25.1 79.7091 25.604C79.9891 26.1 80.1291 26.676 80.1291 27.332ZM76.8891 25.22C76.4091 25.22 76.0011 25.364 75.6651 25.652C75.3371 25.932 75.1371 26.308 75.0651 26.78H78.7011C78.6371 26.316 78.4411 25.94 78.1131 25.652C77.7851 25.364 77.3771 25.22 76.8891 25.22ZM85.4219 30.152C85.2459 30.296 85.0299 30.404 84.7739 30.476C84.5259 30.548 84.2619 30.584 83.9819 30.584C83.2779 30.584 82.7339 30.4 82.3499 30.032C81.9659 29.664 81.7739 29.128 81.7739 28.424V25.34H80.7179V24.14H81.7739V22.676H83.2739V24.14H84.9899V25.34H83.2739V28.388C83.2739 28.7 83.3499 28.94 83.5019 29.108C83.6539 29.268 83.8739 29.348 84.1619 29.348C84.4979 29.348 84.7779 29.26 85.0019 29.084L85.4219 30.152ZM89.1039 24.02C90.0479 24.02 90.7679 24.248 91.2639 24.704C91.7679 25.152 92.0199 25.832 92.0199 26.744V30.5H90.6039V29.72C90.4199 30 90.1559 30.216 89.8119 30.368C89.4759 30.512 89.0679 30.584 88.5879 30.584C88.1079 30.584 87.6879 30.504 87.3279 30.344C86.9679 30.176 86.6879 29.948 86.4879 29.66C86.2959 29.364 86.1999 29.032 86.1999 28.664C86.1999 28.088 86.4119 27.628 86.8359 27.284C87.2679 26.932 87.9439 26.756 88.8639 26.756H90.5199V26.66C90.5199 26.212 90.3839 25.868 90.1119 25.628C89.8479 25.388 89.4519 25.268 88.9239 25.268C88.5639 25.268 88.2079 25.324 87.8559 25.436C87.5119 25.548 87.2199 25.704 86.9799 25.904L86.3919 24.812C86.7279 24.556 87.1319 24.36 87.6039 24.224C88.0759 24.088 88.5759 24.02 89.1039 24.02ZM88.8999 29.492C89.2759 29.492 89.6079 29.408 89.8959 29.24C90.1919 29.064 90.3999 28.816 90.5199 28.496V27.752H88.9719C88.1079 27.752 87.6759 28.036 87.6759 28.604C87.6759 28.876 87.7839 29.092 87.9999 29.252C88.2159 29.412 88.5159 29.492 88.8999 29.492ZM97.2613 24.092H98.7613V30.5H97.2613V24.092ZM98.0173 23.036C97.7453 23.036 97.5173 22.952 97.3333 22.784C97.1493 22.608 97.0573 22.392 97.0573 22.136C97.0573 21.88 97.1493 21.668 97.3333 21.5C97.5173 21.324 97.7453 21.236 98.0173 21.236C98.2893 21.236 98.5173 21.32 98.7013 21.488C98.8853 21.648 98.9773 21.852 98.9773 22.1C98.9773 22.364 98.8853 22.588 98.7013 22.772C98.5253 22.948 98.2973 23.036 98.0173 23.036ZM104.366 24.02C105.174 24.02 105.822 24.256 106.31 24.728C106.798 25.2 107.042 25.9 107.042 26.828V30.5H105.542V27.02C105.542 26.46 105.41 26.04 105.146 25.76C104.882 25.472 104.506 25.328 104.018 25.328C103.466 25.328 103.03 25.496 102.71 25.832C102.39 26.16 102.23 26.636 102.23 27.26V30.5H100.73V24.092H102.158V24.92C102.406 24.624 102.718 24.4 103.094 24.248C103.47 24.096 103.894 24.02 104.366 24.02ZM115.28 21.596V30.5H113.84V29.672C113.592 29.976 113.284 30.204 112.916 30.356C112.556 30.508 112.156 30.584 111.716 30.584C111.1 30.584 110.544 30.448 110.048 30.176C109.56 29.904 109.176 29.52 108.896 29.024C108.616 28.52 108.476 27.944 108.476 27.296C108.476 26.648 108.616 26.076 108.896 25.58C109.176 25.084 109.56 24.7 110.048 24.428C110.544 24.156 111.1 24.02 111.716 24.02C112.14 24.02 112.528 24.092 112.88 24.236C113.232 24.38 113.532 24.596 113.78 24.884V21.596H115.28ZM111.896 29.3C112.256 29.3 112.58 29.22 112.868 29.06C113.156 28.892 113.384 28.656 113.552 28.352C113.72 28.048 113.804 27.696 113.804 27.296C113.804 26.896 113.72 26.544 113.552 26.24C113.384 25.936 113.156 25.704 112.868 25.544C112.58 25.376 112.256 25.292 111.896 25.292C111.536 25.292 111.212 25.376 110.924 25.544C110.636 25.704 110.408 25.936 110.24 26.24C110.072 26.544 109.988 26.896 109.988 27.296C109.988 27.696 110.072 28.048 110.24 28.352C110.408 28.656 110.636 28.892 110.924 29.06C111.212 29.22 111.536 29.3 111.896 29.3ZM117.242 24.092H118.742V30.5H117.242V24.092ZM117.998 23.036C117.726 23.036 117.498 22.952 117.314 22.784C117.13 22.608 117.038 22.392 117.038 22.136C117.038 21.88 117.13 21.668 117.314 21.5C117.498 21.324 117.726 21.236 117.998 21.236C118.27 21.236 118.498 21.32 118.682 21.488C118.866 21.648 118.958 21.852 118.958 22.1C118.958 22.364 118.866 22.588 118.682 22.772C118.506 22.948 118.278 23.036 117.998 23.036ZM126.711 24.092L123.963 30.5H122.415L119.667 24.092H121.227L123.219 28.844L125.271 24.092H126.711ZM127.648 24.092H129.148V30.5H127.648V24.092ZM128.404 23.036C128.132 23.036 127.904 22.952 127.72 22.784C127.536 22.608 127.444 22.392 127.444 22.136C127.444 21.88 127.536 21.668 127.72 21.5C127.904 21.324 128.132 21.236 128.404 21.236C128.676 21.236 128.904 21.32 129.088 21.488C129.272 21.648 129.364 21.852 129.364 22.1C129.364 22.364 129.272 22.588 129.088 22.772C128.912 22.948 128.684 23.036 128.404 23.036ZM137.393 21.596V30.5H135.953V29.672C135.705 29.976 135.397 30.204 135.029 30.356C134.669 30.508 134.269 30.584 133.829 30.584C133.213 30.584 132.657 30.448 132.161 30.176C131.673 29.904 131.289 29.52 131.009 29.024C130.729 28.52 130.589 27.944 130.589 27.296C130.589 26.648 130.729 26.076 131.009 25.58C131.289 25.084 131.673 24.7 132.161 24.428C132.657 24.156 133.213 24.02 133.829 24.02C134.253 24.02 134.641 24.092 134.993 24.236C135.345 24.38 135.645 24.596 135.893 24.884V21.596H137.393ZM134.009 29.3C134.369 29.3 134.693 29.22 134.981 29.06C135.269 28.892 135.497 28.656 135.665 28.352C135.833 28.048 135.917 27.696 135.917 27.296C135.917 26.896 135.833 26.544 135.665 26.24C135.497 25.936 135.269 25.704 134.981 25.544C134.693 25.376 134.369 25.292 134.009 25.292C133.649 25.292 133.325 25.376 133.037 25.544C132.749 25.704 132.521 25.936 132.353 26.24C132.185 26.544 132.101 26.896 132.101 27.296C132.101 27.696 132.185 28.048 132.353 28.352C132.521 28.656 132.749 28.892 133.037 29.06C133.325 29.22 133.649 29.3 134.009 29.3ZM145.559 24.092V30.5H144.131V29.684C143.891 29.972 143.591 30.196 143.231 30.356C142.871 30.508 142.483 30.584 142.067 30.584C141.211 30.584 140.535 30.348 140.039 29.876C139.551 29.396 139.307 28.688 139.307 27.752V24.092H140.807V27.548C140.807 28.124 140.935 28.556 141.191 28.844C141.455 29.124 141.827 29.264 142.307 29.264C142.843 29.264 143.267 29.1 143.579 28.772C143.899 28.436 144.059 27.956 144.059 27.332V24.092H145.559ZM149.971 24.02C150.915 24.02 151.635 24.248 152.131 24.704C152.635 25.152 152.887 25.832 152.887 26.744V30.5H151.471V29.72C151.287 30 151.023 30.216 150.679 30.368C150.343 30.512 149.935 30.584 149.455 30.584C148.975 30.584 148.555 30.504 148.195 30.344C147.835 30.176 147.555 29.948 147.355 29.66C147.163 29.364 147.067 29.032 147.067 28.664C147.067 28.088 147.279 27.628 147.703 27.284C148.135 26.932 148.811 26.756 149.731 26.756H151.387V26.66C151.387 26.212 151.251 25.868 150.979 25.628C150.715 25.388 150.319 25.268 149.791 25.268C149.431 25.268 149.075 25.324 148.723 25.436C148.379 25.548 148.087 25.704 147.847 25.904L147.259 24.812C147.595 24.556 147.999 24.36 148.471 24.224C148.943 24.088 149.443 24.02 149.971 24.02ZM149.767 29.492C150.143 29.492 150.475 29.408 150.763 29.24C151.059 29.064 151.267 28.816 151.387 28.496V27.752H149.839C148.975 27.752 148.543 28.036 148.543 28.604C148.543 28.876 148.651 29.092 148.867 29.252C149.083 29.412 149.383 29.492 149.767 29.492ZM154.812 21.596H156.312V30.5H154.812V21.596Z" fill="#222222"/>
<g filter="url(#filter1_d_1022_2660)">
<rect x="10" y="10" width="30" height="30" rx="10" fill="#F3EDFF"/>
</g>
<path d="M22.1145 32.4998C17.9161 32.4998 14.5 29.1356 14.5 25.0001C14.5 20.8646 17.9161 17.5 22.1145 17.5C26.3137 17.5 29.7294 20.8646 29.7294 25.0001C29.7294 25.3517 29.7044 25.7064 29.655 26.0541C29.6274 26.2448 29.4488 26.3753 29.2551 26.351C29.0614 26.3242 28.9261 26.1479 28.9533 25.9571C28.9984 25.6415 29.0209 25.3196 29.0209 25.0001C29.0209 21.2493 25.9227 18.1975 22.1145 18.1975C18.3064 18.1975 15.2081 21.2493 15.2081 25.0001C15.2081 28.7509 18.3064 31.802 22.1145 31.802C22.3104 31.802 22.469 31.9586 22.469 32.1511C22.469 32.344 22.3104 32.4998 22.1145 32.4998Z" fill="#B38EFF"/>
<path d="M22.1144 20.331C21.9189 20.331 21.7603 20.1748 21.7603 19.9822V19.2312C21.7603 19.0386 21.9189 18.8824 22.1144 18.8824C22.3103 18.8824 22.4689 19.0386 22.4689 19.2312V19.9822C22.4689 20.1748 22.3103 20.331 22.1144 20.331Z" fill="#B38EFF"/>
<path d="M27.9717 25.3491H27.2095C27.0137 25.3491 26.8554 25.1925 26.8554 25C26.8554 24.8075 27.0137 24.6513 27.2095 24.6513H27.9717C28.1672 24.6513 28.3258 24.8075 28.3258 25C28.3258 25.1925 28.1672 25.3491 27.9717 25.3491Z" fill="#B38EFF"/>
<path d="M22.1144 31.1174C21.9189 31.1174 21.7603 30.9615 21.7603 30.7686V30.0179C21.7603 29.8254 21.9189 29.6692 22.1144 29.6692C22.3103 29.6692 22.4689 29.8254 22.4689 30.0179V30.7686C22.4689 30.9615 22.3103 31.1174 22.1144 31.1174Z" fill="#B38EFF"/>
<path d="M17.9734 29.4279C17.8825 29.4279 17.7919 29.3937 17.7228 29.3256C17.5846 29.1895 17.5846 28.9688 17.7228 28.8327L18.2623 28.3017C18.4002 28.1652 18.6243 28.1652 18.7628 28.3017C18.9014 28.4378 18.9014 28.6582 18.7628 28.7946L18.2237 29.3256C18.1546 29.3937 18.064 29.4279 17.9734 29.4279Z" fill="#B38EFF"/>
<path d="M17.0202 25.3491H16.2577C16.0618 25.3491 15.9036 25.1925 15.9036 25C15.9036 24.8075 16.0618 24.6513 16.2577 24.6513H17.0202C17.2157 24.6513 17.374 24.8075 17.374 25C17.374 25.1925 17.2157 25.3491 17.0202 25.3491Z" fill="#B38EFF"/>
<path d="M18.5126 21.8007C18.4216 21.8007 18.3314 21.7669 18.2623 21.6985L17.7228 21.1674C17.5846 21.0317 17.5846 20.8109 17.7228 20.6745C17.861 20.538 18.0851 20.538 18.2237 20.6745L18.7628 21.2055C18.9014 21.3416 18.9014 21.5624 18.7628 21.6985C18.6937 21.7669 18.6032 21.8007 18.5126 21.8007Z" fill="#B38EFF"/>
<path d="M25.7173 21.8007C25.6264 21.8007 25.5358 21.7669 25.4667 21.6985C25.3285 21.5624 25.3285 21.3416 25.4667 21.2055L26.0059 20.6745C26.1441 20.538 26.3682 20.538 26.5067 20.6745C26.6453 20.8109 26.6453 21.0317 26.5067 21.1674L25.9676 21.6985C25.8985 21.7669 25.8079 21.8007 25.7173 21.8007Z" fill="#B38EFF"/>
<path d="M22.1144 31.1171C18.6897 31.1171 15.9036 28.3731 15.9036 25C15.9036 21.6265 18.6897 18.8824 22.1144 18.8824C25.5395 18.8824 28.3255 21.6265 28.3255 24.9999C28.3255 25.3607 28.2933 25.7225 28.2296 26.0754C28.1959 26.2651 28.0112 26.3928 27.8193 26.3579C27.627 26.3244 27.4981 26.1438 27.5325 25.9538C27.5884 25.641 27.617 25.3201 27.617 24.9999C27.617 22.0115 25.1485 19.5799 22.1144 19.5799C19.0802 19.5799 16.6117 22.0115 16.6117 24.9999C16.6117 27.9883 19.0802 30.4196 22.1144 30.4196C22.3492 30.4196 22.5859 30.4052 22.8172 30.3762C23.0119 30.3505 23.1884 30.487 23.2131 30.6781C23.2378 30.8692 23.1003 31.0437 22.9063 31.0681C22.6453 31.1005 22.379 31.1171 22.1144 31.1171Z" fill="#B38EFF"/>
<path d="M22.1144 24.5024C21.8359 24.5024 21.6092 24.7256 21.6092 25C21.6092 25.2743 21.8359 25.4975 22.1144 25.4975C22.3929 25.4975 22.6192 25.2743 22.6192 25C22.6192 24.7256 22.3929 24.5024 22.1144 24.5024ZM22.1144 26.1946C21.4456 26.1946 20.9015 25.659 20.9015 25C20.9015 24.3409 21.4456 23.805 22.1144 23.805C22.7835 23.805 23.3277 24.3409 23.3277 25C23.3277 25.659 22.7835 26.1946 22.1144 26.1946Z" fill="#B38EFF"/>
<path d="M22.1144 24.5024C21.9189 24.5024 21.7603 24.3462 21.7603 24.1537V22.2351C21.7603 22.0422 21.9189 21.886 22.1144 21.886C22.3103 21.886 22.4689 22.0422 22.4689 22.2351V24.1537C22.4689 24.3462 22.3102 24.5024 22.1144 24.5024Z" fill="#B38EFF"/>
<path d="M19.6702 27.768C19.5782 27.768 19.4862 27.7328 19.4167 27.6626C19.2803 27.5251 19.2832 27.3044 19.4235 27.1697L21.2927 25.3752C21.433 25.2412 21.6571 25.2433 21.7939 25.3816C21.9303 25.5198 21.9274 25.7405 21.7867 25.8749L19.9176 27.6693C19.8485 27.7353 19.7593 27.768 19.6702 27.768Z" fill="#B38EFF"/>
<path d="M26.7193 27.5542C25.5296 27.5542 24.5623 28.507 24.5623 29.678C24.5623 30.8494 25.5296 31.8022 26.7193 31.8022H31.8256C33.0153 31.8022 33.9826 30.8494 33.9826 29.678C33.9826 28.507 33.0153 27.5542 31.8256 27.5542H26.7193ZM31.8256 32.5H26.7193C25.1394 32.5 23.8541 31.2341 23.8541 29.678C23.8541 28.1223 25.1394 26.8564 26.7193 26.8564H31.8256C33.4052 26.8564 34.6908 28.1223 34.6908 29.678C34.6908 31.2341 33.4052 32.5 31.8256 32.5Z" fill="#B38EFF"/>
<path d="M29.3755 32.5C29.1796 32.5 29.0211 32.3441 29.0211 32.1513V27.2052C29.0211 27.0123 29.1796 26.8564 29.3755 26.8564C29.5706 26.8564 29.7296 27.0123 29.7296 27.2052V32.1513C29.7296 32.3441 29.5706 32.5 29.3755 32.5Z" fill="#B38EFF"/>
<path d="M34.8812 32.5H14.8541C14.6582 32.5 14.5 32.3441 14.5 32.1512C14.5 31.9587 14.6582 31.8021 14.8541 31.8021H34.8812C35.0763 31.8021 35.2353 31.9587 35.2353 32.1512C35.2353 32.3441 35.0763 32.5 34.8812 32.5Z" fill="#B38EFF"/>
<path d="M31.263 21.2702C31.0672 21.2702 30.909 21.1137 30.909 20.9211V20.1613C30.909 19.9687 31.0672 19.8125 31.263 19.8125C31.4585 19.8125 31.6168 19.9687 31.6168 20.1613V20.9211C31.6168 21.1137 31.4585 21.2702 31.263 21.2702Z" fill="#B38EFF"/>
<path d="M31.6486 20.8902H30.8771C30.6812 20.8902 30.523 20.734 30.523 20.5414C30.523 20.3489 30.6812 20.1927 30.8771 20.1927H31.6486C31.844 20.1927 32.0023 20.3489 32.0023 20.5414C32.0023 20.734 31.844 20.8902 31.6486 20.8902Z" fill="#B38EFF"/>
<defs>
<filter id="filter0_d_1022_2660" x="0" y="0" width="192" height="66" filterUnits="userSpaceOnUse" color-interpolation-filters="sRGB">
<feFlood flood-opacity="0" result="BackgroundImageFix"/>
<feColorMatrix in="SourceAlpha" type="matrix" values="0 0 0 0 0 0 0 0 0 0 0 0 0 0 0 0 0 0 127 0" result="hardAlpha"/>
<feMorphology radius="30" operator="erode" in="SourceAlpha" result="effect1_dropShadow_1022_2660"/>
<feOffset dy="32"/>
<feGaussianBlur stdDeviation="7"/>
<feComposite in2="hardAlpha" operator="out"/>
<feColorMatrix type="matrix" values="0 0 0 0 0.854167 0 0 0 0 0.854167 0 0 0 0 0.854167 0 0 0 0.4 0"/>
<feBlend mode="normal" in2="BackgroundImageFix" result="effect1_dropShadow_1022_2660"/>
<feBlend mode="normal" in="SourceGraphic" in2="effect1_dropShadow_1022_2660" result="shape"/>
</filter>
<filter id="filter1_d_1022_2660" x="0" y="6" width="50" height="50" filterUnits="userSpaceOnUse" color-interpolation-filters="sRGB">
<feFlood flood-opacity="0" result="BackgroundImageFix"/>
<feColorMatrix in="SourceAlpha" type="matrix" values="0 0 0 0 0 0 0 0 0 0 0 0 0 0 0 0 0 0 127 0" result="hardAlpha"/>
<feOffset dy="6"/>
<feGaussianBlur stdDeviation="5"/>
<feComposite in2="hardAlpha" operator="out"/>
<feColorMatrix type="matrix" values="0 0 0 0 0.700106 0 0 0 0 0.58812 0 0 0 0 0.929167 0 0 0 1 0"/>
<feBlend mode="normal" in2="BackgroundImageFix" result="effect1_dropShadow_1022_2660"/>
<feBlend mode="normal" in="SourceGraphic" in2="effect1_dropShadow_1022_2660" result="shape"/>
</filter>
</defs>
</svg>
