<svg xmlns="http://www.w3.org/2000/svg" width="1215" height="76" fill="none"><rect id="backgroundrect" width="100%" height="100%" x="0" y="0" fill="none" stroke="none"/>





















<defs>
<filter id="filter0_d_1022_2651" x="11" y="8" width="68" height="68" filterUnits="userSpaceOnUse" color-interpolation-filters="sRGB">
<feFlood flood-opacity="0" result="BackgroundImageFix"/>
<feColorMatrix in="SourceAlpha" type="matrix" values="0 0 0 0 0 0 0 0 0 0 0 0 0 0 0 0 0 0 127 0" result="hardAlpha"/>
<feOffset dy="6"/>
<feGaussianBlur stdDeviation="5"/>
<feComposite in2="hardAlpha" operator="out"/>
<feColorMatrix type="matrix" values="0 0 0 0 0.357118 0 0 0 0 0.779167 0 0 0 0 0.449969 0 0 0 1 0"/>
<feBlend mode="normal" in2="BackgroundImageFix" result="effect1_dropShadow_1022_2651"/>
<feBlend mode="normal" in="SourceGraphic" in2="effect1_dropShadow_1022_2651" result="shape"/>
</filter>
</defs>
<g class="currentLayer" style=""><title>Layer 1</title><rect width="73" height="75" fill="#6FCF97" id="svg_1"/><path d="M73.0313 8.25V0.5L1214.5 0.5V74.5L73.0313 74.5V65.25V64.9563L72.7747 64.8132L51.5 52.9563V23.511L72.8171 8.66026L73.0313 8.51104V8.25Z" fill="white" stroke="#EEEEEE" id="svg_2" class="selected"/><path d="M105.144,45L101.998,40.49C101.866,40.5047 101.668,40.512 101.404,40.512L97.928,40.512L97.928,45L95.068,45L95.068,29.6L101.404,29.6C102.739,29.6 103.897,29.82 104.88,30.26C105.877,30.7 106.64,31.3307 107.168,32.152C107.696,32.9733 107.96,33.9487 107.96,35.078C107.96,36.2367 107.674,37.234 107.102,38.07C106.545,38.906 105.738,39.5293 104.682,39.94L108.224,45L105.144,45zM105.078,35.078C105.078,34.0953 104.755,33.34 104.11,32.812C103.465,32.284 102.519,32.02 101.272,32.02L97.928,32.02L97.928,38.158L101.272,38.158C102.519,38.158 103.465,37.894 104.11,37.366C104.755,36.8233 105.078,36.0607 105.078,35.078zM121.94,39.192C121.94,39.3827 121.925,39.654 121.896,40.006L112.678,40.006C112.839,40.8713 113.257,41.5607 113.932,42.074C114.621,42.5727 115.472,42.822 116.484,42.822C117.774,42.822 118.838,42.3967 119.674,41.546L121.148,43.24C120.62,43.8707 119.952,44.3473 119.146,44.67C118.339,44.9927 117.43,45.154 116.418,45.154C115.127,45.154 113.99,44.8973 113.008,44.384C112.025,43.8707 111.262,43.1593 110.72,42.25C110.192,41.326 109.928,40.2847 109.928,39.126C109.928,37.982 110.184,36.9553 110.698,36.046C111.226,35.122 111.952,34.4033 112.876,33.89C113.8,33.3767 114.841,33.12 116,33.12C117.144,33.12 118.163,33.3767 119.058,33.89C119.967,34.3887 120.671,35.1 121.17,36.024C121.683,36.9333 121.94,37.9893 121.94,39.192zM116,35.32C115.12,35.32 114.372,35.584 113.756,36.112C113.154,36.6253 112.788,37.3147 112.656,38.18L119.322,38.18C119.204,37.3293 118.845,36.64 118.244,36.112C117.642,35.584 116.894,35.32 116,35.32zM129.971,45.154C128.754,45.154 127.661,44.8973 126.693,44.384C125.725,43.8707 124.97,43.1593 124.427,42.25C123.885,41.326 123.613,40.2847 123.613,39.126C123.613,37.9673 123.885,36.9333 124.427,36.024C124.97,35.1147 125.718,34.4033 126.671,33.89C127.639,33.3767 128.739,33.12 129.971,33.12C131.13,33.12 132.142,33.3547 133.007,33.824C133.887,34.2933 134.547,34.968 134.987,35.848L132.875,37.08C132.538,36.5373 132.113,36.134 131.599,35.87C131.101,35.5913 130.551,35.452 129.949,35.452C128.923,35.452 128.072,35.7893 127.397,36.464C126.723,37.124 126.385,38.0113 126.385,39.126C126.385,40.2407 126.715,41.1353 127.375,41.81C128.05,42.47 128.908,42.8 129.949,42.8C130.551,42.8 131.101,42.668 131.599,42.404C132.113,42.1253 132.538,41.7147 132.875,41.172L134.987,42.404C134.533,43.284 133.865,43.966 132.985,44.45C132.12,44.9193 131.115,45.154 129.971,45.154zM148.237,39.192C148.237,39.3827 148.222,39.654 148.193,40.006L138.975,40.006C139.136,40.8713 139.554,41.5607 140.229,42.074C140.918,42.5727 141.769,42.822 142.781,42.822C144.071,42.822 145.135,42.3967 145.971,41.546L147.445,43.24C146.917,43.8707 146.249,44.3473 145.443,44.67C144.636,44.9927 143.727,45.154 142.715,45.154C141.424,45.154 140.287,44.8973 139.305,44.384C138.322,43.8707 137.559,43.1593 137.017,42.25C136.489,41.326 136.225,40.2847 136.225,39.126C136.225,37.982 136.481,36.9553 136.995,36.046C137.523,35.122 138.249,34.4033 139.173,33.89C140.097,33.3767 141.138,33.12 142.297,33.12C143.441,33.12 144.46,33.3767 145.355,33.89C146.264,34.3887 146.968,35.1 147.467,36.024C147.98,36.9333 148.237,37.9893 148.237,39.192zM142.297,35.32C141.417,35.32 140.669,35.584 140.053,36.112C139.451,36.6253 139.085,37.3147 138.953,38.18L145.619,38.18C145.501,37.3293 145.142,36.64 144.541,36.112C143.939,35.584 143.191,35.32 142.297,35.32zM157.94,44.362C157.618,44.626 157.222,44.824 156.752,44.956C156.298,45.088 155.814,45.154 155.3,45.154C154.01,45.154 153.012,44.8167 152.308,44.142C151.604,43.4673 151.252,42.4847 151.252,41.194L151.252,35.54L149.316,35.54L149.316,33.34L151.252,33.34L151.252,30.656L154.002,30.656L154.002,33.34L157.148,33.34L157.148,35.54L154.002,35.54L154.002,41.128C154.002,41.7 154.142,42.14 154.42,42.448C154.699,42.7413 155.102,42.888 155.63,42.888C156.246,42.888 156.76,42.7267 157.17,42.404L157.94,44.362zM164.69,33.12C166.421,33.12 167.741,33.538 168.65,34.374C169.574,35.1953 170.036,36.442 170.036,38.114L170.036,45L167.44,45L167.44,43.57C167.103,44.0833 166.619,44.4793 165.988,44.758C165.372,45.022 164.624,45.154 163.744,45.154C162.864,45.154 162.094,45.0073 161.434,44.714C160.774,44.406 160.261,43.988 159.894,43.46C159.542,42.9173 159.366,42.3087 159.366,41.634C159.366,40.578 159.755,39.7347 160.532,39.104C161.324,38.4587 162.564,38.136 164.25,38.136L167.286,38.136L167.286,37.96C167.286,37.1387 167.037,36.508 166.538,36.068C166.054,35.628 165.328,35.408 164.36,35.408C163.7,35.408 163.048,35.5107 162.402,35.716C161.772,35.9213 161.236,36.2073 160.796,36.574L159.718,34.572C160.334,34.1027 161.075,33.7433 161.94,33.494C162.806,33.2447 163.722,33.12 164.69,33.12zM164.316,43.152C165.006,43.152 165.614,42.998 166.142,42.69C166.685,42.3673 167.066,41.9127 167.286,41.326L167.286,39.962L164.448,39.962C162.864,39.962 162.072,40.4827 162.072,41.524C162.072,42.0227 162.27,42.4187 162.666,42.712C163.062,43.0053 163.612,43.152 164.316,43.152z" fill="#222222" id="svg_3" class=""/><g filter="url(#filter0_d_1022_2651)" id="svg_4">
<rect x="21" y="12" width="48" height="48" rx="5" fill="#C5FF9A" id="svg_5"/>
</g><path d="M39.6891 49.9997C31.59 49.9997 25 43.7197 25 36.0002C25 28.2807 31.59 22 39.6891 22C47.7895 22 54.3788 28.2807 54.3788 36.0002C54.3788 36.6564 54.3304 37.3186 54.2351 37.9676C54.1819 38.3237 53.8373 38.5672 53.4637 38.5218C53.0901 38.4718 52.829 38.1427 52.8815 37.7866C52.9685 37.1975 53.012 36.5965 53.012 36.0002C53.012 28.9988 47.0353 23.3019 39.6891 23.3019C32.3428 23.3019 26.3661 28.9988 26.3661 36.0002C26.3661 43.0016 32.3428 48.6971 39.6891 48.6971C40.0668 48.6971 40.3728 48.9894 40.3728 49.3487C40.3728 49.7088 40.0668 49.9997 39.6891 49.9997Z" fill="#72A74A" id="svg_6"/><path d="M39.6888 27.2845C39.3117 27.2845 39.0058 26.9929 39.0058 26.6335V25.2315C39.0058 24.8721 39.3117 24.5806 39.6888 24.5806C40.0666 24.5806 40.3725 24.8721 40.3725 25.2315V26.6335C40.3725 26.9929 40.0666 27.2845 39.6888 27.2845Z" fill="#72A74A" id="svg_7"/><path d="M50.988 36.6516H49.5177C49.1399 36.6516 48.8346 36.3593 48.8346 36C48.8346 35.6406 49.1399 35.349 49.5177 35.349H50.988C51.3651 35.349 51.671 35.6406 51.671 36C51.671 36.3593 51.3651 36.6516 50.988 36.6516Z" fill="#72A74A" id="svg_8"/><path d="M39.6888 47.4191C39.3117 47.4191 39.0058 47.1281 39.0058 46.7681V45.3668C39.0058 45.0074 39.3117 44.7158 39.6888 44.7158C40.0666 44.7158 40.3725 45.0074 40.3725 45.3668V46.7681C40.3725 47.1281 40.0666 47.4191 39.6888 47.4191Z" fill="#72A74A" id="svg_9"/><path d="M31.7005 44.2654C31.5251 44.2654 31.3503 44.2016 31.217 44.0745C30.9504 43.8205 30.9504 43.4084 31.217 43.1544L32.2578 42.1631C32.5237 41.9084 32.956 41.9084 33.2233 42.1631C33.4906 42.4172 33.4906 42.8286 33.2233 43.0833L32.1832 44.0745C32.0499 44.2016 31.8752 44.2654 31.7005 44.2654Z" fill="#72A74A" id="svg_10"/><path d="M29.8618 36.6516H28.3907C28.0129 36.6516 27.7077 36.3593 27.7077 36C27.7077 35.6406 28.0129 35.349 28.3907 35.349H29.8618C30.2388 35.349 30.5441 35.6406 30.5441 36C30.5441 36.3593 30.2388 36.6516 29.8618 36.6516Z" fill="#72A74A" id="svg_11"/><path d="M32.7406 30.028C32.5652 30.028 32.3911 29.9648 32.2578 29.8371L31.217 28.8459C30.9504 28.5925 30.9504 28.1804 31.217 27.9257C31.4836 27.671 31.916 27.671 32.1832 27.9257L33.2233 28.917C33.4906 29.171 33.4906 29.5831 33.2233 29.8371C33.09 29.9648 32.9153 30.028 32.7406 30.028Z" fill="#72A74A" id="svg_12"/><path d="M46.6391 30.028C46.4637 30.028 46.289 29.9648 46.1557 29.8371C45.8891 29.5831 45.8891 29.171 46.1557 28.917L47.1958 27.9257C47.4623 27.671 47.8947 27.671 48.1619 27.9257C48.4292 28.1804 48.4292 28.5925 48.1619 28.8459L47.1219 29.8371C46.9886 29.9648 46.8138 30.028 46.6391 30.028Z" fill="#72A74A" id="svg_13"/><path d="M39.6887 47.4186C33.0822 47.4186 27.7077 42.2964 27.7077 36C27.7077 29.7028 33.0822 24.5806 39.6888 24.5806C46.2961 24.5806 51.6705 29.7028 51.6705 35.9999C51.6705 36.6732 51.6084 37.3486 51.4854 38.0074C51.4205 38.3616 51.0641 38.5998 50.694 38.5347C50.3231 38.4721 50.0744 38.1351 50.1407 37.7804C50.2485 37.1965 50.3037 36.5975 50.3037 35.9999C50.3037 30.4215 45.5418 25.8825 39.6887 25.8825C33.8356 25.8825 29.0737 30.4215 29.0737 35.9999C29.0737 41.5782 33.8356 46.1166 39.6887 46.1166C40.1418 46.1166 40.5983 46.0896 41.0444 46.0357C41.4201 45.9876 41.7606 46.2423 41.8083 46.5991C41.8559 46.9558 41.5907 47.2817 41.2164 47.3271C40.7129 47.3876 40.1991 47.4186 39.6887 47.4186Z" fill="#72A74A" id="svg_14"/><path d="M39.6888 35.0712C39.1515 35.0712 38.7143 35.4878 38.7143 35.9999C38.7143 36.512 39.1515 36.9287 39.6888 36.9287C40.2261 36.9287 40.6626 36.512 40.6626 35.9999C40.6626 35.4878 40.2261 35.0712 39.6888 35.0712ZM39.6888 38.23C38.3987 38.23 37.3489 37.2301 37.3489 35.9999C37.3489 34.7697 38.3987 33.7693 39.6888 33.7693C40.9796 33.7693 42.0293 34.7697 42.0293 35.9999C42.0293 37.2301 40.9796 38.23 39.6888 38.23Z" fill="#72A74A" id="svg_15"/><path d="M39.6888 35.0712C39.3117 35.0712 39.0058 34.7796 39.0058 34.4202V30.8388C39.0058 30.4788 39.3117 30.1872 39.6888 30.1872C40.0666 30.1872 40.3725 30.4788 40.3725 30.8388V34.4202C40.3725 34.7796 40.0666 35.0712 39.6888 35.0712Z" fill="#72A74A" id="svg_16"/><path d="M34.9737 41.167C34.7962 41.167 34.6187 41.1012 34.4847 40.9702C34.2216 40.7135 34.2271 40.3015 34.4978 40.05L38.1036 36.7004C38.3743 36.4503 38.8067 36.4542 39.0705 36.7122C39.3336 36.9703 39.3281 37.3823 39.0567 37.6331L35.4509 40.9827C35.3176 41.1058 35.1456 41.167 34.9737 41.167Z" fill="#72A74A" id="svg_17"/><path d="M48.572 40.7679C46.277 40.7679 44.4109 42.5464 44.4109 44.7323C44.4109 46.9189 46.277 48.6974 48.572 48.6974H58.4225C60.7175 48.6974 62.5835 46.9189 62.5835 44.7323C62.5835 42.5464 60.7175 40.7679 58.4225 40.7679H48.572ZM58.4225 50H48.572C45.5243 50 43.0449 47.637 43.0449 44.7323C43.0449 41.8283 45.5243 39.4653 48.572 39.4653H58.4225C61.4696 39.4653 63.9496 41.8283 63.9496 44.7323C63.9496 47.637 61.4696 50 58.4225 50Z" fill="#72A74A" id="svg_18"/><path d="M53.696 50C53.3182 50 53.0123 49.7091 53.0123 49.349V40.1163C53.0123 39.7562 53.3182 39.4653 53.696 39.4653C54.0724 39.4653 54.379 39.7562 54.379 40.1163V49.349C54.379 49.7091 54.0724 50 53.696 50Z" fill="#72A74A" id="svg_19"/><path d="M64.317 49.9999H25.683C25.3052 49.9999 25 49.709 25 49.349C25 48.9896 25.3052 48.6973 25.683 48.6973H64.317C64.6933 48.6973 65 48.9896 65 49.349C65 49.709 64.6933 49.9999 64.317 49.9999Z" fill="#72A74A" id="svg_20"/><path d="M57.3372 29.0378C56.9595 29.0378 56.6542 28.7455 56.6542 28.3861V26.9677C56.6542 26.6083 56.9595 26.3167 57.3372 26.3167C57.7143 26.3167 58.0196 26.6083 58.0196 26.9677V28.3861C58.0196 28.7455 57.7143 29.0378 57.3372 29.0378Z" fill="#72A74A" id="svg_21"/><path d="M58.0809 28.3283H56.5926C56.2149 28.3283 55.9096 28.0367 55.9096 27.6773C55.9096 27.3179 56.2149 27.0264 56.5926 27.0264H58.0809C58.458 27.0264 58.7633 27.3179 58.7633 27.6773C58.7633 28.0367 58.458 28.3283 58.0809 28.3283Z" fill="#72A74A" id="svg_22"/></g></svg>