<svg width="200" height="66" viewBox="0 0 200 66" fill="none" xmlns="http://www.w3.org/2000/svg">
<g filter="url(#filter0_d_1022_2668)">
<rect width="200" height="50" fill="#FFE0BC"/>
<rect x="0.5" y="0.5" width="199" height="49" stroke="#EEEEEE"/>
</g>
<path d="M52.5 5.5V0.5L199.5 0.5V49.5L52.5 49.5V43.5V43.2454L52.2941 43.0956L41.5 35.2454V15.7212L52.3363 5.86997L52.5 5.72118V5.5Z" fill="white" stroke="#EEEEEE"/>
<path d="M56.624 30.5L54.908 28.04C54.836 28.048 54.728 28.052 54.584 28.052H52.688V30.5H51.128V22.1H54.584C55.312 22.1 55.944 22.22 56.48 22.46C57.024 22.7 57.44 23.044 57.728 23.492C58.016 23.94 58.16 24.472 58.16 25.088C58.16 25.72 58.004 26.264 57.692 26.72C57.388 27.176 56.948 27.516 56.372 27.74L58.304 30.5H56.624ZM56.588 25.088C56.588 24.552 56.412 24.14 56.06 23.852C55.708 23.564 55.192 23.42 54.512 23.42H52.688V26.768H54.512C55.192 26.768 55.708 26.624 56.06 26.336C56.412 26.04 56.588 25.624 56.588 25.088ZM65.7853 27.332C65.7853 27.436 65.7773 27.584 65.7613 27.776H60.7333C60.8213 28.248 61.0493 28.624 61.4173 28.904C61.7933 29.176 62.2573 29.312 62.8093 29.312C63.5133 29.312 64.0933 29.08 64.5493 28.616L65.3533 29.54C65.0653 29.884 64.7013 30.144 64.2613 30.32C63.8213 30.496 63.3253 30.584 62.7733 30.584C62.0693 30.584 61.4493 30.444 60.9133 30.164C60.3773 29.884 59.9613 29.496 59.6653 29C59.3773 28.496 59.2333 27.928 59.2333 27.296C59.2333 26.672 59.3733 26.112 59.6533 25.616C59.9413 25.112 60.3373 24.72 60.8413 24.44C61.3453 24.16 61.9133 24.02 62.5453 24.02C63.1693 24.02 63.7253 24.16 64.2133 24.44C64.7093 24.712 65.0933 25.1 65.3653 25.604C65.6453 26.1 65.7853 26.676 65.7853 27.332ZM62.5453 25.22C62.0653 25.22 61.6573 25.364 61.3213 25.652C60.9933 25.932 60.7933 26.308 60.7213 26.78H64.3573C64.2933 26.316 64.0973 25.94 63.7693 25.652C63.4413 25.364 63.0333 25.22 62.5453 25.22ZM70.1662 30.584C69.5022 30.584 68.9062 30.444 68.3782 30.164C67.8502 29.884 67.4382 29.496 67.1422 29C66.8462 28.496 66.6982 27.928 66.6982 27.296C66.6982 26.664 66.8462 26.1 67.1422 25.604C67.4382 25.108 67.8462 24.72 68.3662 24.44C68.8942 24.16 69.4942 24.02 70.1662 24.02C70.7982 24.02 71.3502 24.148 71.8222 24.404C72.3022 24.66 72.6622 25.028 72.9022 25.508L71.7502 26.18C71.5662 25.884 71.3342 25.664 71.0542 25.52C70.7822 25.368 70.4822 25.292 70.1542 25.292C69.5942 25.292 69.1302 25.476 68.7622 25.844C68.3942 26.204 68.2102 26.688 68.2102 27.296C68.2102 27.904 68.3902 28.392 68.7502 28.76C69.1182 29.12 69.5862 29.3 70.1542 29.3C70.4822 29.3 70.7822 29.228 71.0542 29.084C71.3342 28.932 71.5662 28.708 71.7502 28.412L72.9022 29.084C72.6542 29.564 72.2902 29.936 71.8102 30.2C71.3382 30.456 70.7902 30.584 70.1662 30.584ZM80.1291 27.332C80.1291 27.436 80.1211 27.584 80.1051 27.776H75.0771C75.1651 28.248 75.3931 28.624 75.7611 28.904C76.1371 29.176 76.6011 29.312 77.1531 29.312C77.8571 29.312 78.4371 29.08 78.8931 28.616L79.6971 29.54C79.4091 29.884 79.0451 30.144 78.6051 30.32C78.1651 30.496 77.6691 30.584 77.1171 30.584C76.4131 30.584 75.7931 30.444 75.2571 30.164C74.7211 29.884 74.3051 29.496 74.0091 29C73.7211 28.496 73.5771 27.928 73.5771 27.296C73.5771 26.672 73.7171 26.112 73.9971 25.616C74.2851 25.112 74.6811 24.72 75.1851 24.44C75.6891 24.16 76.2571 24.02 76.8891 24.02C77.5131 24.02 78.0691 24.16 78.5571 24.44C79.0531 24.712 79.4371 25.1 79.7091 25.604C79.9891 26.1 80.1291 26.676 80.1291 27.332ZM76.8891 25.22C76.4091 25.22 76.0011 25.364 75.6651 25.652C75.3371 25.932 75.1371 26.308 75.0651 26.78H78.7011C78.6371 26.316 78.4411 25.94 78.1131 25.652C77.7851 25.364 77.3771 25.22 76.8891 25.22ZM85.4219 30.152C85.2459 30.296 85.0299 30.404 84.7739 30.476C84.5259 30.548 84.2619 30.584 83.9819 30.584C83.2779 30.584 82.7339 30.4 82.3499 30.032C81.9659 29.664 81.7739 29.128 81.7739 28.424V25.34H80.7179V24.14H81.7739V22.676H83.2739V24.14H84.9899V25.34H83.2739V28.388C83.2739 28.7 83.3499 28.94 83.5019 29.108C83.6539 29.268 83.8739 29.348 84.1619 29.348C84.4979 29.348 84.7779 29.26 85.0019 29.084L85.4219 30.152ZM89.1039 24.02C90.0479 24.02 90.7679 24.248 91.2639 24.704C91.7679 25.152 92.0199 25.832 92.0199 26.744V30.5H90.6039V29.72C90.4199 30 90.1559 30.216 89.8119 30.368C89.4759 30.512 89.0679 30.584 88.5879 30.584C88.1079 30.584 87.6879 30.504 87.3279 30.344C86.9679 30.176 86.6879 29.948 86.4879 29.66C86.2959 29.364 86.1999 29.032 86.1999 28.664C86.1999 28.088 86.4119 27.628 86.8359 27.284C87.2679 26.932 87.9439 26.756 88.8639 26.756H90.5199V26.66C90.5199 26.212 90.3839 25.868 90.1119 25.628C89.8479 25.388 89.4519 25.268 88.9239 25.268C88.5639 25.268 88.2079 25.324 87.8559 25.436C87.5119 25.548 87.2199 25.704 86.9799 25.904L86.3919 24.812C86.7279 24.556 87.1319 24.36 87.6039 24.224C88.0759 24.088 88.5759 24.02 89.1039 24.02ZM88.8999 29.492C89.2759 29.492 89.6079 29.408 89.8959 29.24C90.1919 29.064 90.3999 28.816 90.5199 28.496V27.752H88.9719C88.1079 27.752 87.6759 28.036 87.6759 28.604C87.6759 28.876 87.7839 29.092 87.9999 29.252C88.2159 29.412 88.5159 29.492 88.8999 29.492ZM98.6893 25.028C99.1213 24.356 99.8813 24.02 100.969 24.02V25.448C100.841 25.424 100.725 25.412 100.621 25.412C100.037 25.412 99.5813 25.584 99.2533 25.928C98.9253 26.264 98.7613 26.752 98.7613 27.392V30.5H97.2613V24.092H98.6893V25.028ZM108.207 27.332C108.207 27.436 108.199 27.584 108.183 27.776H103.155C103.243 28.248 103.471 28.624 103.839 28.904C104.215 29.176 104.679 29.312 105.231 29.312C105.935 29.312 106.515 29.08 106.971 28.616L107.775 29.54C107.487 29.884 107.123 30.144 106.683 30.32C106.243 30.496 105.747 30.584 105.195 30.584C104.491 30.584 103.871 30.444 103.335 30.164C102.799 29.884 102.383 29.496 102.087 29C101.799 28.496 101.655 27.928 101.655 27.296C101.655 26.672 101.795 26.112 102.075 25.616C102.363 25.112 102.759 24.72 103.263 24.44C103.767 24.16 104.335 24.02 104.967 24.02C105.591 24.02 106.147 24.16 106.635 24.44C107.131 24.712 107.515 25.1 107.787 25.604C108.067 26.1 108.207 26.676 108.207 27.332ZM104.967 25.22C104.487 25.22 104.079 25.364 103.743 25.652C103.415 25.932 103.215 26.308 103.143 26.78H106.779C106.715 26.316 106.519 25.94 106.191 25.652C105.863 25.364 105.455 25.22 104.967 25.22ZM111.628 30.584C111.108 30.584 110.6 30.516 110.104 30.38C109.608 30.244 109.212 30.072 108.916 29.864L109.492 28.724C109.78 28.916 110.124 29.072 110.524 29.192C110.932 29.304 111.332 29.36 111.724 29.36C112.62 29.36 113.068 29.124 113.068 28.652C113.068 28.428 112.952 28.272 112.72 28.184C112.496 28.096 112.132 28.012 111.628 27.932C111.1 27.852 110.668 27.76 110.332 27.656C110.004 27.552 109.716 27.372 109.468 27.116C109.228 26.852 109.108 26.488 109.108 26.024C109.108 25.416 109.36 24.932 109.864 24.572C110.376 24.204 111.064 24.02 111.928 24.02C112.368 24.02 112.808 24.072 113.248 24.176C113.688 24.272 114.048 24.404 114.328 24.572L113.752 25.712C113.208 25.392 112.596 25.232 111.916 25.232C111.476 25.232 111.14 25.3 110.908 25.436C110.684 25.564 110.572 25.736 110.572 25.952C110.572 26.192 110.692 26.364 110.932 26.468C111.18 26.564 111.56 26.656 112.072 26.744C112.584 26.824 113.004 26.916 113.332 27.02C113.66 27.124 113.94 27.3 114.172 27.548C114.412 27.796 114.532 28.148 114.532 28.604C114.532 29.204 114.272 29.684 113.752 30.044C113.232 30.404 112.524 30.584 111.628 30.584ZM122.028 24.092V30.5H120.6V29.684C120.36 29.972 120.06 30.196 119.7 30.356C119.34 30.508 118.952 30.584 118.536 30.584C117.68 30.584 117.004 30.348 116.508 29.876C116.02 29.396 115.776 28.688 115.776 27.752V24.092H117.276V27.548C117.276 28.124 117.404 28.556 117.66 28.844C117.924 29.124 118.296 29.264 118.776 29.264C119.312 29.264 119.736 29.1 120.048 28.772C120.368 28.436 120.528 27.956 120.528 27.332V24.092H122.028ZM125.42 25.028C125.852 24.356 126.612 24.02 127.7 24.02V25.448C127.572 25.424 127.456 25.412 127.352 25.412C126.768 25.412 126.312 25.584 125.984 25.928C125.656 26.264 125.492 26.752 125.492 27.392V30.5H123.992V24.092H125.42V25.028ZM133.059 30.152C132.883 30.296 132.667 30.404 132.411 30.476C132.163 30.548 131.899 30.584 131.619 30.584C130.915 30.584 130.371 30.4 129.987 30.032C129.603 29.664 129.411 29.128 129.411 28.424V25.34H128.355V24.14H129.411V22.676H130.911V24.14H132.627V25.34H130.911V28.388C130.911 28.7 130.987 28.94 131.139 29.108C131.291 29.268 131.511 29.348 131.799 29.348C132.135 29.348 132.415 29.26 132.639 29.084L133.059 30.152ZM134.293 24.092H135.793V30.5H134.293V24.092ZM135.049 23.036C134.777 23.036 134.549 22.952 134.365 22.784C134.181 22.608 134.089 22.392 134.089 22.136C134.089 21.88 134.181 21.668 134.365 21.5C134.549 21.324 134.777 21.236 135.049 21.236C135.321 21.236 135.549 21.32 135.733 21.488C135.917 21.648 136.009 21.852 136.009 22.1C136.009 22.364 135.917 22.588 135.733 22.772C135.557 22.948 135.329 23.036 135.049 23.036ZM141.313 24.02C141.937 24.02 142.493 24.156 142.981 24.428C143.477 24.7 143.865 25.084 144.145 25.58C144.425 26.076 144.565 26.648 144.565 27.296C144.565 27.944 144.425 28.52 144.145 29.024C143.865 29.52 143.477 29.904 142.981 30.176C142.493 30.448 141.937 30.584 141.313 30.584C140.873 30.584 140.469 30.508 140.101 30.356C139.741 30.204 139.437 29.976 139.189 29.672V30.5H137.761V21.596H139.261V24.872C139.517 24.592 139.817 24.38 140.161 24.236C140.513 24.092 140.897 24.02 141.313 24.02ZM141.145 29.3C141.697 29.3 142.149 29.116 142.501 28.748C142.861 28.38 143.041 27.896 143.041 27.296C143.041 26.696 142.861 26.212 142.501 25.844C142.149 25.476 141.697 25.292 141.145 25.292C140.785 25.292 140.461 25.376 140.173 25.544C139.885 25.704 139.657 25.936 139.489 26.24C139.321 26.544 139.237 26.896 139.237 27.296C139.237 27.696 139.321 28.048 139.489 28.352C139.657 28.656 139.885 28.892 140.173 29.06C140.461 29.22 140.785 29.3 141.145 29.3ZM145.988 21.596H147.488V30.5H145.988V21.596ZM155.481 27.332C155.481 27.436 155.473 27.584 155.457 27.776H150.429C150.517 28.248 150.745 28.624 151.113 28.904C151.489 29.176 151.953 29.312 152.505 29.312C153.209 29.312 153.789 29.08 154.245 28.616L155.049 29.54C154.761 29.884 154.397 30.144 153.957 30.32C153.517 30.496 153.021 30.584 152.469 30.584C151.765 30.584 151.145 30.444 150.609 30.164C150.073 29.884 149.657 29.496 149.361 29C149.073 28.496 148.929 27.928 148.929 27.296C148.929 26.672 149.069 26.112 149.349 25.616C149.637 25.112 150.033 24.72 150.537 24.44C151.041 24.16 151.609 24.02 152.241 24.02C152.865 24.02 153.421 24.16 153.909 24.44C154.405 24.712 154.789 25.1 155.061 25.604C155.341 26.1 155.481 26.676 155.481 27.332ZM152.241 25.22C151.761 25.22 151.353 25.364 151.017 25.652C150.689 25.932 150.489 26.308 150.417 26.78H154.053C153.989 26.316 153.793 25.94 153.465 25.652C153.137 25.364 152.729 25.22 152.241 25.22Z" fill="#222222"/>
<g filter="url(#filter1_d_1022_2668)">
<rect x="10" y="10" width="30" height="30" rx="10" fill="#FFF4E8"/>
</g>
<path d="M22.1145 32.4998C17.9161 32.4998 14.5 29.1356 14.5 25.0001C14.5 20.8646 17.9161 17.5 22.1145 17.5C26.3137 17.5 29.7294 20.8646 29.7294 25.0001C29.7294 25.3517 29.7044 25.7064 29.655 26.0541C29.6274 26.2448 29.4488 26.3753 29.2551 26.351C29.0614 26.3242 28.9261 26.1479 28.9533 25.9571C28.9984 25.6415 29.0209 25.3196 29.0209 25.0001C29.0209 21.2493 25.9227 18.1975 22.1145 18.1975C18.3064 18.1975 15.2081 21.2493 15.2081 25.0001C15.2081 28.7509 18.3064 31.802 22.1145 31.802C22.3104 31.802 22.469 31.9586 22.469 32.1511C22.469 32.344 22.3104 32.4998 22.1145 32.4998Z" fill="#FFB45C"/>
<path d="M22.1144 20.331C21.9189 20.331 21.7603 20.1748 21.7603 19.9822V19.2312C21.7603 19.0386 21.9189 18.8824 22.1144 18.8824C22.3103 18.8824 22.4689 19.0386 22.4689 19.2312V19.9822C22.4689 20.1748 22.3103 20.331 22.1144 20.331Z" fill="#FFB45C"/>
<path d="M27.9717 25.3491H27.2095C27.0137 25.3491 26.8554 25.1925 26.8554 25C26.8554 24.8075 27.0137 24.6513 27.2095 24.6513H27.9717C28.1672 24.6513 28.3258 24.8075 28.3258 25C28.3258 25.1925 28.1672 25.3491 27.9717 25.3491Z" fill="#FFB45C"/>
<path d="M22.1144 31.1174C21.9189 31.1174 21.7603 30.9615 21.7603 30.7686V30.0179C21.7603 29.8254 21.9189 29.6692 22.1144 29.6692C22.3103 29.6692 22.4689 29.8254 22.4689 30.0179V30.7686C22.4689 30.9615 22.3103 31.1174 22.1144 31.1174Z" fill="#FFB45C"/>
<path d="M17.9734 29.4279C17.8825 29.4279 17.7919 29.3937 17.7228 29.3256C17.5846 29.1895 17.5846 28.9688 17.7228 28.8327L18.2623 28.3017C18.4002 28.1652 18.6243 28.1652 18.7628 28.3017C18.9014 28.4378 18.9014 28.6582 18.7628 28.7946L18.2237 29.3256C18.1546 29.3937 18.064 29.4279 17.9734 29.4279Z" fill="#FFB45C"/>
<path d="M17.0202 25.3491H16.2577C16.0618 25.3491 15.9036 25.1925 15.9036 25C15.9036 24.8075 16.0618 24.6513 16.2577 24.6513H17.0202C17.2157 24.6513 17.374 24.8075 17.374 25C17.374 25.1925 17.2157 25.3491 17.0202 25.3491Z" fill="#FFB45C"/>
<path d="M18.5126 21.8007C18.4216 21.8007 18.3314 21.7669 18.2623 21.6985L17.7228 21.1674C17.5846 21.0317 17.5846 20.8109 17.7228 20.6745C17.861 20.538 18.0851 20.538 18.2237 20.6745L18.7628 21.2055C18.9014 21.3416 18.9014 21.5624 18.7628 21.6985C18.6937 21.7669 18.6032 21.8007 18.5126 21.8007Z" fill="#FFB45C"/>
<path d="M25.7173 21.8007C25.6264 21.8007 25.5358 21.7669 25.4667 21.6985C25.3285 21.5624 25.3285 21.3416 25.4667 21.2055L26.0059 20.6745C26.1441 20.538 26.3682 20.538 26.5067 20.6745C26.6453 20.8109 26.6453 21.0317 26.5067 21.1674L25.9676 21.6985C25.8985 21.7669 25.8079 21.8007 25.7173 21.8007Z" fill="#FFB45C"/>
<path d="M22.1144 31.1171C18.6897 31.1171 15.9036 28.3731 15.9036 25C15.9036 21.6265 18.6897 18.8824 22.1144 18.8824C25.5395 18.8824 28.3255 21.6265 28.3255 24.9999C28.3255 25.3607 28.2933 25.7225 28.2296 26.0754C28.1959 26.2651 28.0112 26.3928 27.8193 26.3579C27.627 26.3244 27.4981 26.1438 27.5325 25.9538C27.5884 25.641 27.617 25.3201 27.617 24.9999C27.617 22.0115 25.1485 19.5799 22.1144 19.5799C19.0802 19.5799 16.6117 22.0115 16.6117 24.9999C16.6117 27.9883 19.0802 30.4196 22.1144 30.4196C22.3492 30.4196 22.5859 30.4052 22.8172 30.3762C23.0119 30.3505 23.1884 30.487 23.2131 30.6781C23.2378 30.8692 23.1003 31.0437 22.9063 31.0681C22.6453 31.1005 22.379 31.1171 22.1144 31.1171Z" fill="#FFB45C"/>
<path d="M22.1144 24.5024C21.8359 24.5024 21.6092 24.7256 21.6092 25C21.6092 25.2743 21.8359 25.4975 22.1144 25.4975C22.3929 25.4975 22.6192 25.2743 22.6192 25C22.6192 24.7256 22.3929 24.5024 22.1144 24.5024ZM22.1144 26.1946C21.4456 26.1946 20.9015 25.659 20.9015 25C20.9015 24.3409 21.4456 23.805 22.1144 23.805C22.7835 23.805 23.3277 24.3409 23.3277 25C23.3277 25.659 22.7835 26.1946 22.1144 26.1946Z" fill="#FFB45C"/>
<path d="M22.1144 24.5024C21.9189 24.5024 21.7603 24.3462 21.7603 24.1537V22.2351C21.7603 22.0422 21.9189 21.886 22.1144 21.886C22.3103 21.886 22.4689 22.0422 22.4689 22.2351V24.1537C22.4689 24.3462 22.3102 24.5024 22.1144 24.5024Z" fill="#FFB45C"/>
<path d="M19.6702 27.768C19.5782 27.768 19.4862 27.7328 19.4167 27.6626C19.2803 27.5251 19.2832 27.3044 19.4235 27.1697L21.2927 25.3752C21.433 25.2412 21.6571 25.2433 21.7939 25.3816C21.9303 25.5198 21.9274 25.7405 21.7867 25.8749L19.9176 27.6693C19.8485 27.7353 19.7593 27.768 19.6702 27.768Z" fill="#FFB45C"/>
<path d="M26.7193 27.5542C25.5296 27.5542 24.5623 28.507 24.5623 29.678C24.5623 30.8494 25.5296 31.8022 26.7193 31.8022H31.8256C33.0153 31.8022 33.9826 30.8494 33.9826 29.678C33.9826 28.507 33.0153 27.5542 31.8256 27.5542H26.7193ZM31.8256 32.5H26.7193C25.1394 32.5 23.8541 31.2341 23.8541 29.678C23.8541 28.1223 25.1394 26.8564 26.7193 26.8564H31.8256C33.4052 26.8564 34.6908 28.1223 34.6908 29.678C34.6908 31.2341 33.4052 32.5 31.8256 32.5Z" fill="#FFB45C"/>
<path d="M29.3755 32.5C29.1796 32.5 29.0211 32.3441 29.0211 32.1513V27.2052C29.0211 27.0123 29.1796 26.8564 29.3755 26.8564C29.5706 26.8564 29.7296 27.0123 29.7296 27.2052V32.1513C29.7296 32.3441 29.5706 32.5 29.3755 32.5Z" fill="#FFB45C"/>
<path d="M34.8812 32.5H14.8541C14.6582 32.5 14.5 32.3441 14.5 32.1512C14.5 31.9587 14.6582 31.8021 14.8541 31.8021H34.8812C35.0763 31.8021 35.2353 31.9587 35.2353 32.1512C35.2353 32.3441 35.0763 32.5 34.8812 32.5Z" fill="#FFB45C"/>
<path d="M31.263 21.2702C31.0672 21.2702 30.909 21.1137 30.909 20.9211V20.1613C30.909 19.9687 31.0672 19.8125 31.263 19.8125C31.4585 19.8125 31.6168 19.9687 31.6168 20.1613V20.9211C31.6168 21.1137 31.4585 21.2702 31.263 21.2702Z" fill="#FFB45C"/>
<path d="M31.6486 20.8902H30.8771C30.6812 20.8902 30.523 20.734 30.523 20.5414C30.523 20.3489 30.6812 20.1927 30.8771 20.1927H31.6486C31.844 20.1927 32.0023 20.3489 32.0023 20.5414C32.0023 20.734 31.844 20.8902 31.6486 20.8902Z" fill="#FFB45C"/>
<defs>
<filter id="filter0_d_1022_2668" x="0" y="0" width="200" height="66" filterUnits="userSpaceOnUse" color-interpolation-filters="sRGB">
<feFlood flood-opacity="0" result="BackgroundImageFix"/>
<feColorMatrix in="SourceAlpha" type="matrix" values="0 0 0 0 0 0 0 0 0 0 0 0 0 0 0 0 0 0 127 0" result="hardAlpha"/>
<feMorphology radius="30" operator="erode" in="SourceAlpha" result="effect1_dropShadow_1022_2668"/>
<feOffset dy="32"/>
<feGaussianBlur stdDeviation="7"/>
<feComposite in2="hardAlpha" operator="out"/>
<feColorMatrix type="matrix" values="0 0 0 0 0.854167 0 0 0 0 0.854167 0 0 0 0 0.854167 0 0 0 0.4 0"/>
<feBlend mode="normal" in2="BackgroundImageFix" result="effect1_dropShadow_1022_2668"/>
<feBlend mode="normal" in="SourceGraphic" in2="effect1_dropShadow_1022_2668" result="shape"/>
</filter>
<filter id="filter1_d_1022_2668" x="0" y="6" width="50" height="50" filterUnits="userSpaceOnUse" color-interpolation-filters="sRGB">
<feFlood flood-opacity="0" result="BackgroundImageFix"/>
<feColorMatrix in="SourceAlpha" type="matrix" values="0 0 0 0 0 0 0 0 0 0 0 0 0 0 0 0 0 0 127 0" result="hardAlpha"/>
<feOffset dy="6"/>
<feGaussianBlur stdDeviation="5"/>
<feComposite in2="hardAlpha" operator="out"/>
<feColorMatrix type="matrix" values="0 0 0 0 0.85 0 0 0 0 0.710563 0 0 0 0 0.548636 0 0 0 1 0"/>
<feBlend mode="normal" in2="BackgroundImageFix" result="effect1_dropShadow_1022_2668"/>
<feBlend mode="normal" in="SourceGraphic" in2="effect1_dropShadow_1022_2668" result="shape"/>
</filter>
</defs>
</svg>
