<svg width="294" height="76" viewBox="0 0 294 76" fill="none" xmlns="http://www.w3.org/2000/svg">
<rect width="73" height="75" fill="#FFC3C3"/>
<path d="M52.5908 8.25V0.5L293.5 0.5V74.5L52.5908 74.5V65.25V65.0088L52.402 64.8587L37.5 53.0088V23.458L52.4433 8.60462L52.5908 8.45799V8.25Z" fill="white" stroke="#EEEEEE"/>
<g filter="url(#filter0_d_2686_2804)">
<rect x="11" y="12" width="48" height="48" rx="5" fill="#FFFAFA"/>
</g>
<path d="M41.4415 41.1889C41.1796 40.9394 40.7591 40.9436 40.5024 41.1982L40.4835 41.217C40.2269 41.4717 40.2312 41.8804 40.4932 42.13C40.6224 42.2531 40.7902 42.3144 40.9579 42.3144C41.1301 42.3144 41.3022 42.2497 41.4323 42.1207L41.4512 42.102C41.7078 41.8473 41.7035 41.4385 41.4415 41.1889Z" fill="#FF9090"/>
<path d="M48.5851 34.4203H46.8204V32.7046C46.8204 32.348 46.5231 32.059 46.1563 32.059C45.7895 32.059 45.4922 32.348 45.4922 32.7046V34.4203H43.7276C43.3608 34.4203 43.0635 34.7093 43.0635 35.0659C43.0635 35.4225 43.3608 35.7115 43.7276 35.7115H45.4922V37.4272C45.4922 37.7838 45.7895 38.0728 46.1563 38.0728C46.5231 38.0728 46.8204 37.7838 46.8204 37.4272V35.7115H48.5851C48.9518 35.7115 49.2491 35.4225 49.2491 35.0659C49.2491 34.7093 48.9518 34.4203 48.5851 34.4203Z" fill="#FF9090"/>
<path d="M48.3274 29.7912C47.7072 25.3345 43.875 22 39.3263 22C37.0302 22 34.8823 22.8321 33.2071 24.3574C31.5318 22.8321 29.3838 22 27.0878 22C22.0768 22 18 26.0579 18 31.0458C18 32.0313 18.2957 33.1359 18.884 34.3552H18.6641C18.2973 34.3552 18 34.6443 18 35.0008C18 35.3574 18.2973 35.6465 18.6641 35.6465H19.5912C20.8315 37.6879 22.7929 40.0094 25.4673 42.5948C29.0918 46.0987 32.767 48.84 32.8037 48.8673C32.9227 48.9558 33.0649 49 33.2071 49C33.3492 49 33.4913 48.9558 33.6104 48.8673C33.6384 48.8464 36.4493 46.7508 39.5643 43.8955C39.8312 43.6509 39.8435 43.2423 39.5919 42.9829C39.3404 42.7235 38.9201 42.7114 38.6532 42.956C36.2776 45.1336 34.0844 46.8602 33.2071 47.5348C32.1647 46.7329 29.2626 44.444 26.3943 41.6701C24.098 39.4492 22.3401 37.4253 21.1516 35.6465H27.0967C27.3929 35.6465 27.6533 35.4557 27.735 35.1789L28.8952 31.2469L32.1082 41.2552C32.1948 41.5249 32.4516 41.7085 32.7422 41.7085C33.0327 41.7085 33.2895 41.5249 33.376 41.2552L35.1554 35.7111H38.12C38.4868 35.7111 38.7841 35.422 38.7841 35.0655C38.7841 34.7089 38.4868 34.4198 38.12 34.4198H34.6669C34.3764 34.4198 34.1196 34.6035 34.033 34.8731L32.742 38.8957L29.5023 28.8042C29.4149 28.532 29.1547 28.3471 28.8606 28.351C28.5673 28.3543 28.3109 28.5444 28.23 28.8185L26.5962 34.3553H20.3657C19.6792 33.0953 19.3281 31.9847 19.3281 31.0458C19.3281 26.7699 22.8091 23.2912 27.0878 23.2912C29.2383 23.2912 31.2382 24.1507 32.719 25.7112C32.8447 25.8436 33.0217 25.919 33.2071 25.919C33.3925 25.919 33.5694 25.8436 33.6951 25.7112C35.1759 24.1507 37.1758 23.2912 39.3263 23.2912C43.0256 23.2912 46.1707 25.885 46.9183 29.4327C46.6688 29.401 46.4145 29.3844 46.1562 29.3844C42.934 29.3844 40.3125 31.9332 40.3125 35.0659C40.3125 38.1987 42.934 40.7474 46.1562 40.7474C49.3785 40.7474 52 38.1987 52 35.0659C52.0001 32.6787 50.4777 30.6309 48.3274 29.7912ZM46.1563 39.4562C43.6664 39.4562 41.6407 37.4867 41.6407 35.0659C41.6407 32.6452 43.6664 30.6757 46.1563 30.6757C48.6462 30.6757 50.6719 32.6452 50.6719 35.0659C50.6719 37.4867 48.6462 39.4562 46.1563 39.4562Z" fill="#FF9090"/>
<defs>
<filter id="filter0_d_2686_2804" x="1" y="8" width="68" height="68" filterUnits="userSpaceOnUse" color-interpolation-filters="sRGB">
<feFlood flood-opacity="0" result="BackgroundImageFix"/>
<feColorMatrix in="SourceAlpha" type="matrix" values="0 0 0 0 0 0 0 0 0 0 0 0 0 0 0 0 0 0 127 0" result="hardAlpha"/>
<feOffset dy="6"/>
<feGaussianBlur stdDeviation="5"/>
<feComposite in2="hardAlpha" operator="out"/>
<feColorMatrix type="matrix" values="0 0 0 0 1 0 0 0 0 0.564706 0 0 0 0 0.564706 0 0 0 1 0"/>
<feBlend mode="normal" in2="BackgroundImageFix" result="effect1_dropShadow_2686_2804"/>
<feBlend mode="normal" in="SourceGraphic" in2="effect1_dropShadow_2686_2804" result="shape"/>
</filter>
</defs>
</svg>
