<svg width="1216" height="100" viewBox="0 0 1216 100" fill="none" xmlns="http://www.w3.org/2000/svg">
<g filter="url(#filter0_d_432_5571)">
<path d="M0 0H1215V84H0V0Z" fill="#FFC2C2"/>
<path d="M0.5 0.5H1214.5V83.5H0.5V0.5Z" stroke="#EEEEEE"/>
</g>
<path d="M91.3561 9.24V0.5L1215.5 0.5V83.5L91.3561 83.5V73.08V72.794L91.1096 72.649L68.5 59.354V26.293L91.1522 9.64288L91.3561 9.49302V9.24Z" fill="white" stroke="#EEEEEE"/>
<g filter="url(#filter1_d_432_5571)">
<rect x="31" y="20" width="48" height="48" rx="10" fill="#FFEFEF"/>
</g>
<path d="M64.1155 36.0973C63.5777 35.5592 62.939 35.1323 62.2361 34.8411C61.5332 34.5498 60.7798 34.3999 60.019 34.3999C59.2581 34.3999 58.5047 34.5498 57.8018 34.8411C57.0989 35.1323 56.4603 35.5592 55.9224 36.0973L54.8061 37.2136L53.6898 36.0973C52.6033 35.0108 51.1297 34.4005 49.5932 34.4005C48.0567 34.4005 46.5831 35.0108 45.4967 36.0973C44.4102 37.1838 43.7998 38.6574 43.7998 40.1939C43.7998 41.7304 44.4102 43.204 45.4967 44.2905L46.613 45.4068L54.8061 53.5999L62.9992 45.4068L64.1155 44.2905C64.6537 43.7526 65.0805 43.114 65.3718 42.4111C65.663 41.7081 65.813 40.9547 65.813 40.1939C65.813 39.433 65.663 38.6796 65.3718 37.9767C65.0805 37.2738 64.6537 36.6352 64.1155 36.0973V36.0973Z" stroke="#EF7373" stroke-width="2" stroke-linecap="round" stroke-linejoin="round"/>
<defs>
<filter id="filter0_d_432_5571" x="0" y="0" width="1215" height="100" filterUnits="userSpaceOnUse" color-interpolation-filters="sRGB">
<feFlood flood-opacity="0" result="BackgroundImageFix"/>
<feColorMatrix in="SourceAlpha" type="matrix" values="0 0 0 0 0 0 0 0 0 0 0 0 0 0 0 0 0 0 127 0" result="hardAlpha"/>
<feMorphology radius="30" operator="erode" in="SourceAlpha" result="effect1_dropShadow_432_5571"/>
<feOffset dy="32"/>
<feGaussianBlur stdDeviation="7"/>
<feComposite in2="hardAlpha" operator="out"/>
<feColorMatrix type="matrix" values="0 0 0 0 0.883333 0 0 0 0 0.817083 0 0 0 0 0.817083 0 0 0 0.4 0"/>
<feBlend mode="normal" in2="BackgroundImageFix" result="effect1_dropShadow_432_5571"/>
<feBlend mode="normal" in="SourceGraphic" in2="effect1_dropShadow_432_5571" result="shape"/>
</filter>
<filter id="filter1_d_432_5571" x="21" y="16" width="68" height="68" filterUnits="userSpaceOnUse" color-interpolation-filters="sRGB">
<feFlood flood-opacity="0" result="BackgroundImageFix"/>
<feColorMatrix in="SourceAlpha" type="matrix" values="0 0 0 0 0 0 0 0 0 0 0 0 0 0 0 0 0 0 127 0" result="hardAlpha"/>
<feOffset dy="6"/>
<feGaussianBlur stdDeviation="5"/>
<feComposite in2="hardAlpha" operator="out"/>
<feColorMatrix type="matrix" values="0 0 0 0 0.895833 0 0 0 0 0.626744 0 0 0 0 0.626744 0 0 0 0.5 0"/>
<feBlend mode="normal" in2="BackgroundImageFix" result="effect1_dropShadow_432_5571"/>
<feBlend mode="normal" in="SourceGraphic" in2="effect1_dropShadow_432_5571" result="shape"/>
</filter>
</defs>
</svg>
